<?xml version="1.0" encoding="utf-8"?>
<!-- Generator: Adobe Illustrator 22.1.0, SVG Export Plug-In . SVG Version: 6.00 Build 0)  -->
<svg version="1.1" id="activity" xmlns="http://www.w3.org/2000/svg" xmlns:xlink="http://www.w3.org/1999/xlink" x="0px" y="0px"
	 viewBox="0 0 1037.9 340.5" style="enable-background:new 0 0 1037.9 340.5;" xml:space="preserve">
<style type="text/css">
	.st0{fill:#EFEEEE;}
	.st1{fill:#325D79;}
	.st2{fill:#F26627;}
</style>
<path id="background" class="st0" d="M1000.6,323.3H38.7c-15.4,0-28-12.6-28-28V43.8c0-15.4,12.6-28,28-28h961.9
	c15.4,0,28,12.6,28,28v251.6C1028.5,310.7,1015.9,323.3,1000.6,323.3z"/>
<g>
	<path class="st1" d="M234.4,202.5h-5.1v-24.9h5.1V202.5z"/>
	<path class="st1" d="M243.4,184l0.2,2.1c1.3-1.7,3.1-2.5,5.3-2.5c2,0,3.4,0.6,4.4,1.7c1,1.2,1.4,2.9,1.5,5.2v11.9h-4.9v-11.8
		c0-1-0.2-1.8-0.7-2.3c-0.5-0.5-1.2-0.7-2.3-0.7c-1.4,0-2.4,0.6-3.1,1.8v13h-4.9V184H243.4z"/>
	<path class="st1" d="M268.4,197.4c0-0.6-0.3-1.1-0.9-1.4c-0.6-0.3-1.6-0.7-2.9-0.9c-4.4-0.9-6.6-2.8-6.6-5.6c0-1.6,0.7-3,2-4.1
		s3.1-1.6,5.3-1.6c2.3,0,4.2,0.6,5.6,1.7c1.4,1.1,2.1,2.5,2.1,4.3h-4.9c0-0.7-0.2-1.3-0.7-1.8c-0.5-0.5-1.2-0.7-2.1-0.7
		c-0.8,0-1.5,0.2-1.9,0.6c-0.5,0.4-0.7,0.9-0.7,1.4c0,0.5,0.3,1,0.8,1.3s1.4,0.6,2.6,0.9c1.2,0.2,2.3,0.5,3.1,0.8
		c2.6,1,3.9,2.6,3.9,5c0,1.7-0.7,3-2.2,4.1c-1.4,1-3.3,1.6-5.6,1.6c-1.5,0-2.9-0.3-4.1-0.8c-1.2-0.6-2.1-1.3-2.8-2.3s-1-2-1-3.1h4.7
		c0,0.9,0.4,1.5,1,2c0.6,0.5,1.4,0.7,2.4,0.7c0.9,0,1.7-0.2,2.1-0.5C268.2,198.4,268.4,198,268.4,197.4z"/>
	<path class="st1" d="M282.3,179.5v4.5h3.2v3.6h-3.2v9.2c0,0.7,0.1,1.2,0.4,1.5c0.3,0.3,0.8,0.4,1.5,0.4c0.5,0,1,0,1.5-0.1v3.7
		c-1,0.3-2,0.4-3,0.4c-3.5,0-5.2-1.7-5.3-5.2v-10h-2.7V184h2.7v-4.5H282.3z"/>
	<path class="st1" d="M299,202.5c-0.2-0.4-0.4-1-0.5-1.7c-1.2,1.3-2.8,2-4.7,2c-1.8,0-3.3-0.5-4.5-1.6c-1.2-1-1.8-2.4-1.8-4
		c0-2,0.7-3.5,2.2-4.5c1.5-1,3.6-1.6,6.3-1.6h2.3v-1.1c0-0.9-0.2-1.5-0.7-2.1c-0.4-0.5-1.1-0.8-2.1-0.8c-0.8,0-1.5,0.2-2,0.6
		c-0.5,0.4-0.7,0.9-0.7,1.6h-4.9c0-1.1,0.3-2.1,1-3c0.7-0.9,1.6-1.6,2.8-2.1c1.2-0.5,2.6-0.8,4.1-0.8c2.3,0,4.1,0.6,5.4,1.7
		c1.3,1.1,2,2.8,2,4.8v8c0,1.8,0.3,3.1,0.7,4v0.3H299z M294.9,199.1c0.7,0,1.4-0.2,2-0.5c0.6-0.3,1.1-0.8,1.4-1.3v-3.2h-1.8
		c-2.5,0-3.8,0.9-3.9,2.6l0,0.3c0,0.6,0.2,1.1,0.6,1.5C293.5,198.9,294.1,199.1,294.9,199.1z"/>
	<path class="st1" d="M306.3,193.1c0-2.8,0.7-5.1,2-6.9c1.4-1.7,3.2-2.6,5.5-2.6c2,0,3.6,0.7,4.7,2.1l0.2-1.7h4.5v17.9
		c0,1.6-0.4,3-1.1,4.2c-0.7,1.2-1.8,2.1-3.1,2.7c-1.3,0.6-2.9,0.9-4.7,0.9c-1.4,0-2.7-0.3-4-0.8c-1.3-0.5-2.3-1.2-2.9-2.1l2.2-3
		c1.2,1.4,2.7,2.1,4.5,2.1c1.3,0,2.3-0.4,3.1-1.1c0.7-0.7,1.1-1.7,1.1-3v-1c-1.1,1.3-2.6,1.9-4.5,1.9c-2.2,0-4-0.9-5.4-2.6
		c-1.4-1.7-2.1-4-2.1-6.9V193.1z M311.2,193.5c0,1.7,0.3,3,1,3.9c0.7,1,1.6,1.4,2.8,1.4c1.5,0,2.6-0.6,3.2-1.7v-7.8
		c-0.7-1.1-1.7-1.7-3.2-1.7c-1.2,0-2.1,0.5-2.8,1.5C311.6,190.1,311.2,191.6,311.2,193.5z"/>
	<path class="st1" d="M337.4,188.6c-0.7-0.1-1.3-0.1-1.8-0.1c-1.9,0-3.1,0.6-3.7,1.9v12.1H327V184h4.7l0.1,2.2
		c1-1.7,2.4-2.5,4.1-2.5c0.5,0,1.1,0.1,1.5,0.2L337.4,188.6z"/>
	<path class="st1" d="M349.9,202.5c-0.2-0.4-0.4-1-0.5-1.7c-1.2,1.3-2.8,2-4.7,2c-1.8,0-3.3-0.5-4.5-1.6c-1.2-1-1.8-2.4-1.8-4
		c0-2,0.7-3.5,2.2-4.5c1.5-1,3.6-1.6,6.3-1.6h2.3v-1.1c0-0.9-0.2-1.5-0.7-2.1c-0.4-0.5-1.1-0.8-2.1-0.8c-0.8,0-1.5,0.2-2,0.6
		c-0.5,0.4-0.7,0.9-0.7,1.6h-4.9c0-1.1,0.3-2.1,1-3c0.7-0.9,1.6-1.6,2.8-2.1c1.2-0.5,2.6-0.8,4.1-0.8c2.3,0,4.1,0.6,5.4,1.7
		c1.3,1.1,2,2.8,2,4.8v8c0,1.8,0.3,3.1,0.7,4v0.3H349.9z M345.9,199.1c0.7,0,1.4-0.2,2-0.5c0.6-0.3,1.1-0.8,1.4-1.3v-3.2h-1.8
		c-2.5,0-3.8,0.9-3.9,2.6l0,0.3c0,0.6,0.2,1.1,0.6,1.5C344.5,198.9,345.1,199.1,345.9,199.1z"/>
	<path class="st1" d="M362.6,184l0.2,2.1c1.3-1.6,3.1-2.4,5.3-2.4c2.4,0,4,0.9,4.9,2.8c1.3-1.9,3.1-2.8,5.6-2.8c2,0,3.5,0.6,4.5,1.8
		c1,1.2,1.5,2.9,1.5,5.3v11.8h-5v-11.8c0-1-0.2-1.8-0.6-2.3c-0.4-0.5-1.1-0.7-2.2-0.7c-1.5,0-2.5,0.7-3.1,2.1l0,12.7h-4.9v-11.8
		c0-1.1-0.2-1.8-0.6-2.3c-0.4-0.5-1.1-0.7-2.2-0.7c-1.4,0-2.4,0.6-3,1.7v13.1H358V184H362.6z"/>
	<path class="st1" d="M413.7,193.4c0,3-0.6,5.3-1.9,6.9c-1.3,1.7-3,2.5-5.3,2.5c-2,0-3.6-0.8-4.8-2.3l-0.2,2H397v-26.3h4.9v9.4
		c1.1-1.3,2.6-2,4.5-2c2.3,0,4,0.8,5.3,2.5c1.3,1.7,1.9,4,1.9,7V193.4z M408.7,193.1c0-1.9-0.3-3.2-0.9-4.1
		c-0.6-0.9-1.5-1.3-2.6-1.3c-1.6,0-2.7,0.6-3.2,1.9v7.3c0.6,1.3,1.7,1.9,3.3,1.9c1.6,0,2.6-0.8,3.1-2.4
		C408.6,195.8,408.7,194.6,408.7,193.1z"/>
	<path class="st1" d="M415.9,193.1c0-1.8,0.4-3.5,1.1-4.9c0.7-1.4,1.7-2.5,3.1-3.3c1.3-0.8,2.9-1.2,4.6-1.2c2.5,0,4.5,0.8,6.1,2.3
		c1.6,1.5,2.5,3.6,2.6,6.2l0,1.3c0,2.8-0.8,5.1-2.4,6.8c-1.6,1.7-3.7,2.6-6.4,2.6s-4.8-0.9-6.4-2.6c-1.6-1.7-2.4-4-2.4-7V193.1z
		 M420.9,193.4c0,1.8,0.3,3.1,1,4c0.7,0.9,1.6,1.4,2.8,1.4c1.2,0,2.1-0.5,2.8-1.4c0.7-0.9,1-2.4,1-4.4c0-1.7-0.3-3.1-1-4
		c-0.7-0.9-1.6-1.4-2.8-1.4c-1.2,0-2.1,0.5-2.8,1.4C421.2,190,420.9,191.5,420.9,193.4z"/>
	<path class="st1" d="M447.2,202.5c-0.2-0.4-0.4-1-0.5-1.7c-1.2,1.3-2.8,2-4.7,2c-1.8,0-3.3-0.5-4.5-1.6c-1.2-1-1.8-2.4-1.8-4
		c0-2,0.7-3.5,2.2-4.5c1.5-1,3.6-1.6,6.3-1.6h2.3v-1.1c0-0.9-0.2-1.5-0.7-2.1c-0.4-0.5-1.1-0.8-2.1-0.8c-0.8,0-1.5,0.2-2,0.6
		c-0.5,0.4-0.7,0.9-0.7,1.6h-4.9c0-1.1,0.3-2.1,1-3c0.7-0.9,1.6-1.6,2.8-2.1c1.2-0.5,2.6-0.8,4.1-0.8c2.3,0,4.1,0.6,5.4,1.7
		c1.3,1.1,2,2.8,2,4.8v8c0,1.8,0.3,3.1,0.7,4v0.3H447.2z M443.1,199.1c0.7,0,1.4-0.2,2-0.5c0.6-0.3,1.1-0.8,1.4-1.3v-3.2h-1.8
		c-2.5,0-3.8,0.9-3.9,2.6l0,0.3c0,0.6,0.2,1.1,0.6,1.5C441.8,198.9,442.4,199.1,443.1,199.1z"/>
	<path class="st1" d="M465.3,197.4c0-0.6-0.3-1.1-0.9-1.4c-0.6-0.3-1.6-0.7-2.9-0.9c-4.4-0.9-6.6-2.8-6.6-5.6c0-1.6,0.7-3,2-4.1
		s3.1-1.6,5.3-1.6c2.3,0,4.2,0.6,5.6,1.7c1.4,1.1,2.1,2.5,2.1,4.3h-4.9c0-0.7-0.2-1.3-0.7-1.8c-0.5-0.5-1.2-0.7-2.1-0.7
		c-0.8,0-1.5,0.2-1.9,0.6c-0.5,0.4-0.7,0.9-0.7,1.4c0,0.5,0.3,1,0.8,1.3s1.4,0.6,2.6,0.9c1.2,0.2,2.3,0.5,3.1,0.8
		c2.6,1,3.9,2.6,3.9,5c0,1.7-0.7,3-2.2,4.1c-1.4,1-3.3,1.6-5.6,1.6c-1.5,0-2.9-0.3-4.1-0.8c-1.2-0.6-2.1-1.3-2.8-2.3s-1-2-1-3.1h4.7
		c0,0.9,0.4,1.5,1,2c0.6,0.5,1.4,0.7,2.4,0.7c0.9,0,1.7-0.2,2.1-0.5C465,198.4,465.3,198,465.3,197.4z"/>
	<path class="st1" d="M479.2,179.5v4.5h3.2v3.6h-3.2v9.2c0,0.7,0.1,1.2,0.4,1.5c0.3,0.3,0.8,0.4,1.5,0.4c0.5,0,1,0,1.5-0.1v3.7
		c-1,0.3-2,0.4-3,0.4c-3.5,0-5.2-1.7-5.3-5.2v-10h-2.7V184h2.7v-4.5H479.2z"/>
	<path class="st1" d="M495.1,197.4c0-0.6-0.3-1.1-0.9-1.4c-0.6-0.3-1.6-0.7-2.9-0.9c-4.4-0.9-6.6-2.8-6.6-5.6c0-1.6,0.7-3,2-4.1
		s3.1-1.6,5.3-1.6c2.3,0,4.2,0.6,5.6,1.7c1.4,1.1,2.1,2.5,2.1,4.3h-4.9c0-0.7-0.2-1.3-0.7-1.8c-0.5-0.5-1.2-0.7-2.1-0.7
		c-0.8,0-1.5,0.2-1.9,0.6c-0.5,0.4-0.7,0.9-0.7,1.4c0,0.5,0.3,1,0.8,1.3s1.4,0.6,2.6,0.9c1.2,0.2,2.3,0.5,3.1,0.8
		c2.6,1,3.9,2.6,3.9,5c0,1.7-0.7,3-2.2,4.1c-1.4,1-3.3,1.6-5.6,1.6c-1.5,0-2.9-0.3-4.1-0.8c-1.2-0.6-2.1-1.3-2.8-2.3s-1-2-1-3.1h4.7
		c0,0.9,0.4,1.5,1,2c0.6,0.5,1.4,0.7,2.4,0.7c0.9,0,1.7-0.2,2.1-0.5C494.9,198.4,495.1,198,495.1,197.4z"/>
	<path class="st1" d="M523.6,202.5h-4.9v-19l-5.9,1.8v-4l10.3-3.7h0.5V202.5z"/>
	<path class="st1" d="M557.3,193.4c0,3-0.6,5.3-1.9,6.9c-1.3,1.7-3,2.5-5.3,2.5c-2,0-3.6-0.8-4.8-2.3l-0.2,2h-4.4v-26.3h4.9v9.4
		c1.1-1.3,2.6-2,4.5-2c2.3,0,4,0.8,5.3,2.5c1.3,1.7,1.9,4,1.9,7V193.4z M552.3,193.1c0-1.9-0.3-3.2-0.9-4.1
		c-0.6-0.9-1.5-1.3-2.6-1.3c-1.6,0-2.7,0.6-3.2,1.9v7.3c0.6,1.3,1.7,1.9,3.3,1.9c1.6,0,2.6-0.8,3.1-2.4
		C552.2,195.8,552.3,194.6,552.3,193.1z"/>
	<path class="st1" d="M560.3,179.2c0-0.7,0.2-1.4,0.7-1.8c0.5-0.5,1.2-0.7,2-0.7c0.8,0,1.5,0.2,2,0.7c0.5,0.5,0.8,1.1,0.8,1.8
		c0,0.8-0.3,1.4-0.8,1.8c-0.5,0.5-1.2,0.7-2,0.7c-0.8,0-1.5-0.2-2-0.7S560.3,180,560.3,179.2z M565.5,202.5h-5V184h5V202.5z"/>
	<path class="st1" d="M574.8,202.5h-5v-26.3h5V202.5z"/>
	<path class="st1" d="M584.1,202.5h-5v-26.3h5V202.5z"/>
	<path class="st1" d="M588.1,179.2c0-0.7,0.2-1.4,0.7-1.8c0.5-0.5,1.2-0.7,2-0.7c0.8,0,1.5,0.2,2,0.7c0.5,0.5,0.8,1.1,0.8,1.8
		c0,0.8-0.3,1.4-0.8,1.8c-0.5,0.5-1.2,0.7-2,0.7c-0.8,0-1.5-0.2-2-0.7S588.1,180,588.1,179.2z M593.4,202.5h-5V184h5V202.5z"/>
	<path class="st1" d="M596.7,193.1c0-1.8,0.4-3.5,1.1-4.9c0.7-1.4,1.7-2.5,3.1-3.3c1.3-0.8,2.9-1.2,4.6-1.2c2.5,0,4.5,0.8,6.1,2.3
		c1.6,1.5,2.5,3.6,2.6,6.2l0,1.3c0,2.8-0.8,5.1-2.4,6.8c-1.6,1.7-3.7,2.6-6.4,2.6s-4.8-0.9-6.4-2.6c-1.6-1.7-2.4-4-2.4-7V193.1z
		 M601.6,193.4c0,1.8,0.3,3.1,1,4c0.7,0.9,1.6,1.4,2.8,1.4c1.2,0,2.1-0.5,2.8-1.4c0.7-0.9,1-2.4,1-4.4c0-1.7-0.3-3.1-1-4
		c-0.7-0.9-1.6-1.4-2.8-1.4c-1.2,0-2.1,0.5-2.8,1.4C601.9,190,601.6,191.5,601.6,193.4z"/>
	<path class="st1" d="M621.8,184l0.2,2.1c1.3-1.7,3.1-2.5,5.3-2.5c2,0,3.4,0.6,4.4,1.7c1,1.2,1.4,2.9,1.5,5.2v11.9h-4.9v-11.8
		c0-1-0.2-1.8-0.7-2.3c-0.5-0.5-1.2-0.7-2.3-0.7c-1.4,0-2.4,0.6-3.1,1.8v13h-4.9V184H621.8z"/>
	<path class="st1" d="M650.2,184l0.2,2.1c1.3-1.6,3.1-2.4,5.3-2.4c2.4,0,4,0.9,4.9,2.8c1.3-1.9,3.1-2.8,5.6-2.8c2,0,3.5,0.6,4.5,1.8
		c1,1.2,1.5,2.9,1.5,5.3v11.8h-5v-11.8c0-1-0.2-1.8-0.6-2.3c-0.4-0.5-1.1-0.7-2.2-0.7c-1.5,0-2.5,0.7-3.1,2.1l0,12.7h-4.9v-11.8
		c0-1.1-0.2-1.8-0.6-2.3c-0.4-0.5-1.1-0.7-2.2-0.7c-1.4,0-2.4,0.6-3,1.7v13.1h-4.9V184H650.2z"/>
	<path class="st1" d="M675.1,193.1c0-1.8,0.4-3.5,1.1-4.9c0.7-1.4,1.7-2.5,3.1-3.3c1.3-0.8,2.9-1.2,4.6-1.2c2.5,0,4.5,0.8,6.1,2.3
		c1.6,1.5,2.5,3.6,2.6,6.2l0,1.3c0,2.8-0.8,5.1-2.4,6.8c-1.6,1.7-3.7,2.6-6.4,2.6s-4.8-0.9-6.4-2.6c-1.6-1.7-2.4-4-2.4-7V193.1z
		 M680,193.4c0,1.8,0.3,3.1,1,4c0.7,0.9,1.6,1.4,2.8,1.4c1.2,0,2.1-0.5,2.8-1.4c0.7-0.9,1-2.4,1-4.4c0-1.7-0.3-3.1-1-4
		c-0.7-0.9-1.6-1.4-2.8-1.4c-1.2,0-2.1,0.5-2.8,1.4C680.3,190,680,191.5,680,193.4z"/>
	<path class="st1" d="M700.2,184l0.2,2.1c1.3-1.7,3.1-2.5,5.3-2.5c2,0,3.4,0.6,4.4,1.7c1,1.2,1.4,2.9,1.5,5.2v11.9h-4.9v-11.8
		c0-1-0.2-1.8-0.7-2.3c-0.5-0.5-1.2-0.7-2.3-0.7c-1.4,0-2.4,0.6-3.1,1.8v13h-4.9V184H700.2z"/>
	<path class="st1" d="M721.1,179.5v4.5h3.2v3.6h-3.2v9.2c0,0.7,0.1,1.2,0.4,1.5c0.3,0.3,0.8,0.4,1.5,0.4c0.5,0,1,0,1.5-0.1v3.7
		c-1,0.3-2,0.4-3,0.4c-3.5,0-5.2-1.7-5.3-5.2v-10h-2.7V184h2.7v-4.5H721.1z"/>
	<path class="st1" d="M731.9,186c1.3-1.6,3-2.4,4.9-2.4c4,0,6,2.3,6.1,7v11.8H738v-11.7c0-1.1-0.2-1.8-0.7-2.3
		c-0.5-0.5-1.2-0.8-2.3-0.8c-1.4,0-2.5,0.6-3.1,1.7v13.1h-4.9v-26.3h4.9V186z"/>
	<path class="st1" d="M751.9,202.5h-5v-26.3h5V202.5z"/>
	<path class="st1" d="M762.8,195.5l3.4-11.5h5.3l-7.4,21.4l-0.4,1c-1.1,2.4-2.9,3.6-5.5,3.6c-0.7,0-1.4-0.1-2.2-0.3v-3.7l0.8,0
		c0.9,0,1.6-0.1,2.1-0.4c0.5-0.3,0.8-0.8,1.1-1.4l0.6-1.5l-6.5-18.5h5.3L762.8,195.5z"/>
	<path class="st1" d="M793.3,200.6c-1.2,1.5-2.9,2.2-5.1,2.2c-2,0-3.5-0.6-4.5-1.7c-1-1.1-1.6-2.8-1.6-5V184h4.9v12
		c0,1.9,0.9,2.9,2.6,2.9c1.7,0,2.8-0.6,3.5-1.7V184h5v18.5h-4.6L793.3,200.6z"/>
	<path class="st1" d="M811.8,197.4c0-0.6-0.3-1.1-0.9-1.4c-0.6-0.3-1.6-0.7-2.9-0.9c-4.4-0.9-6.6-2.8-6.6-5.6c0-1.6,0.7-3,2-4.1
		s3.1-1.6,5.3-1.6c2.3,0,4.2,0.6,5.6,1.7c1.4,1.1,2.1,2.5,2.1,4.3h-4.9c0-0.7-0.2-1.3-0.7-1.8c-0.5-0.5-1.2-0.7-2.1-0.7
		c-0.8,0-1.5,0.2-1.9,0.6c-0.5,0.4-0.7,0.9-0.7,1.4c0,0.5,0.3,1,0.8,1.3s1.4,0.6,2.6,0.9c1.2,0.2,2.3,0.5,3.1,0.8
		c2.6,1,3.9,2.6,3.9,5c0,1.7-0.7,3-2.2,4.1c-1.4,1-3.3,1.6-5.6,1.6c-1.5,0-2.9-0.3-4.1-0.8c-1.2-0.6-2.1-1.3-2.8-2.3s-1-2-1-3.1h4.7
		c0,0.9,0.4,1.5,1,2c0.6,0.5,1.4,0.7,2.4,0.7c0.9,0,1.7-0.2,2.1-0.5C811.6,198.4,811.8,198,811.8,197.4z"/>
	<path class="st1" d="M828.3,202.8c-2.7,0-4.9-0.8-6.6-2.5c-1.7-1.7-2.6-3.9-2.6-6.6v-0.5c0-1.9,0.4-3.5,1.1-5
		c0.7-1.5,1.7-2.6,3.1-3.4c1.3-0.8,2.8-1.2,4.5-1.2c2.5,0,4.5,0.8,6,2.4c1.5,1.6,2.2,3.9,2.2,6.8v2h-11.8c0.2,1.2,0.6,2.2,1.4,2.9
		c0.8,0.7,1.8,1.1,3.1,1.1c1.9,0,3.4-0.7,4.5-2.1l2.4,2.7c-0.7,1-1.7,1.9-3,2.5C831.2,202.6,829.8,202.8,828.3,202.8z M827.7,187.7
		c-1,0-1.8,0.3-2.4,1c-0.6,0.7-1,1.6-1.2,2.8h6.9v-0.4c0-1.1-0.3-1.9-0.9-2.5C829.6,188,828.8,187.7,827.7,187.7z"/>
	<path class="st1" d="M849.1,188.6c-0.7-0.1-1.3-0.1-1.8-0.1c-1.9,0-3.1,0.6-3.7,1.9v12.1h-4.9V184h4.7l0.1,2.2
		c1-1.7,2.4-2.5,4.1-2.5c0.5,0,1.1,0.1,1.5,0.2L849.1,188.6z"/>
	<path class="st1" d="M861.5,197.4c0-0.6-0.3-1.1-0.9-1.4c-0.6-0.3-1.6-0.7-2.9-0.9c-4.4-0.9-6.6-2.8-6.6-5.6c0-1.6,0.7-3,2-4.1
		s3.1-1.6,5.3-1.6c2.3,0,4.2,0.6,5.6,1.7c1.4,1.1,2.1,2.5,2.1,4.3h-4.9c0-0.7-0.2-1.3-0.7-1.8c-0.5-0.5-1.2-0.7-2.1-0.7
		c-0.8,0-1.5,0.2-1.9,0.6c-0.5,0.4-0.7,0.9-0.7,1.4c0,0.5,0.3,1,0.8,1.3s1.4,0.6,2.6,0.9c1.2,0.2,2.3,0.5,3.1,0.8
		c2.6,1,3.9,2.6,3.9,5c0,1.7-0.7,3-2.2,4.1c-1.4,1-3.3,1.6-5.6,1.6c-1.5,0-2.9-0.3-4.1-0.8c-1.2-0.6-2.1-1.3-2.8-2.3s-1-2-1-3.1h4.7
		c0,0.9,0.4,1.5,1,2c0.6,0.5,1.4,0.7,2.4,0.7c0.9,0,1.7-0.2,2.1-0.5C861.2,198.4,861.5,198,861.5,197.4z"/>
	<path class="st1" d="M888.9,202.5c-0.2-0.4-0.4-1-0.5-1.7c-1.2,1.3-2.8,2-4.7,2c-1.8,0-3.3-0.5-4.5-1.6c-1.2-1-1.8-2.4-1.8-4
		c0-2,0.7-3.5,2.2-4.5c1.5-1,3.6-1.6,6.3-1.6h2.3v-1.1c0-0.9-0.2-1.5-0.7-2.1c-0.4-0.5-1.1-0.8-2.1-0.8c-0.8,0-1.5,0.2-2,0.6
		c-0.5,0.4-0.7,0.9-0.7,1.6h-4.9c0-1.1,0.3-2.1,1-3c0.7-0.9,1.6-1.6,2.8-2.1c1.2-0.5,2.6-0.8,4.1-0.8c2.3,0,4.1,0.6,5.4,1.7
		c1.3,1.1,2,2.8,2,4.8v8c0,1.8,0.3,3.1,0.7,4v0.3H888.9z M884.8,199.1c0.7,0,1.4-0.2,2-0.5c0.6-0.3,1.1-0.8,1.4-1.3v-3.2h-1.8
		c-2.5,0-3.8,0.9-3.9,2.6l0,0.3c0,0.6,0.2,1.1,0.6,1.5C883.5,198.9,884.1,199.1,884.8,199.1z"/>
	<path class="st1" d="M901.5,184l0.2,2.1c1.3-1.7,3.1-2.5,5.3-2.5c2,0,3.4,0.6,4.4,1.7c1,1.2,1.4,2.9,1.5,5.2v11.9h-4.9v-11.8
		c0-1-0.2-1.8-0.7-2.3c-0.5-0.5-1.2-0.7-2.3-0.7c-1.4,0-2.4,0.6-3.1,1.8v13h-4.9V184H901.5z"/>
	<path class="st1" d="M915.8,193.1c0-2.9,0.6-5.2,1.9-6.9s3.1-2.6,5.3-2.6c1.8,0,3.3,0.7,4.5,2v-9.4h5v26.3H928l-0.2-2
		c-1.2,1.5-2.8,2.3-4.8,2.3c-2.2,0-3.9-0.9-5.2-2.6C916.4,198.6,915.8,196.2,915.8,193.1z M920.7,193.5c0,1.7,0.3,3.1,0.9,4
		c0.6,0.9,1.5,1.4,2.6,1.4c1.5,0,2.6-0.6,3.2-1.9v-7.3c-0.6-1.3-1.7-1.9-3.2-1.9C921.9,187.7,920.7,189.6,920.7,193.5z"/>
	<path class="st1" d="M227.8,242.1c0-1.8,0.4-3.5,1.1-4.9c0.7-1.4,1.7-2.5,3.1-3.3c1.3-0.8,2.9-1.2,4.6-1.2c2.5,0,4.5,0.8,6.1,2.3
		c1.6,1.5,2.5,3.6,2.6,6.2l0,1.3c0,2.8-0.8,5.1-2.4,6.8c-1.6,1.7-3.7,2.6-6.4,2.6s-4.8-0.9-6.4-2.6c-1.6-1.7-2.4-4-2.4-7V242.1z
		 M232.8,242.4c0,1.8,0.3,3.1,1,4c0.7,0.9,1.6,1.4,2.8,1.4c1.2,0,2.1-0.5,2.8-1.4c0.7-0.9,1-2.4,1-4.4c0-1.7-0.3-3.1-1-4
		c-0.7-0.9-1.6-1.4-2.8-1.4c-1.2,0-2.1,0.5-2.8,1.4C233.1,239,232.8,240.5,232.8,242.4z"/>
	<path class="st1" d="M255.1,245.5l3.4-12.5h5.2l-6.2,18.5h-4.7l-6.2-18.5h5.2L255.1,245.5z"/>
	<path class="st1" d="M274.1,251.8c-2.7,0-4.9-0.8-6.6-2.5c-1.7-1.7-2.6-3.9-2.6-6.6v-0.5c0-1.9,0.4-3.5,1.1-5
		c0.7-1.5,1.7-2.6,3.1-3.4c1.3-0.8,2.8-1.2,4.5-1.2c2.5,0,4.5,0.8,6,2.4c1.5,1.6,2.2,3.9,2.2,6.8v2H270c0.2,1.2,0.6,2.2,1.4,2.9
		c0.8,0.7,1.8,1.1,3.1,1.1c1.9,0,3.4-0.7,4.5-2.1l2.4,2.7c-0.7,1-1.7,1.9-3,2.5C277.1,251.6,275.7,251.8,274.1,251.8z M273.6,236.7
		c-1,0-1.8,0.3-2.4,1c-0.6,0.7-1,1.6-1.2,2.8h6.9v-0.4c0-1.1-0.3-1.9-0.9-2.5C275.4,237,274.6,236.7,273.6,236.7z"/>
	<path class="st1" d="M294.9,237.6c-0.7-0.1-1.3-0.1-1.8-0.1c-1.9,0-3.1,0.6-3.7,1.9v12.1h-4.9V233h4.7l0.1,2.2
		c1-1.7,2.4-2.5,4.1-2.5c0.5,0,1.1,0.1,1.5,0.2L294.9,237.6z"/>
	<path class="st1" d="M306.5,239.3l1.4-12.6h13.9v4.1H312l-0.6,5.3c1.2-0.6,2.4-0.9,3.7-0.9c2.4,0,4.2,0.7,5.6,2.2
		c1.3,1.5,2,3.5,2,6.2c0,1.6-0.3,3-1,4.3c-0.7,1.3-1.6,2.3-2.9,3c-1.3,0.7-2.8,1.1-4.5,1.1c-1.5,0-2.9-0.3-4.2-0.9
		c-1.3-0.6-2.3-1.5-3.1-2.6c-0.7-1.1-1.1-2.4-1.2-3.8h4.9c0.1,1,0.5,1.8,1.1,2.4c0.6,0.6,1.4,0.9,2.4,0.9c1.1,0,2-0.4,2.6-1.2
		c0.6-0.8,0.9-1.9,0.9-3.4c0-1.4-0.3-2.5-1-3.2c-0.7-0.8-1.7-1.1-3-1.1c-1.2,0-2.1,0.3-2.9,0.9l-0.5,0.4L306.5,239.3z"/>
	<path class="st1" d="M342.6,241.2c0,3.4-0.7,6.1-2.1,7.9c-1.4,1.8-3.5,2.7-6.3,2.7c-2.7,0-4.8-0.9-6.2-2.7
		c-1.4-1.8-2.2-4.4-2.2-7.7v-4.6c0-3.5,0.7-6.1,2.2-7.9c1.4-1.8,3.5-2.7,6.2-2.7c2.7,0,4.8,0.9,6.2,2.7s2.2,4.3,2.2,7.7V241.2z
		 M337.7,236.2c0-2.1-0.3-3.6-0.8-4.5c-0.6-0.9-1.4-1.4-2.6-1.4c-1.2,0-2,0.4-2.6,1.3c-0.6,0.9-0.8,2.3-0.9,4.2v6.1
		c0,2,0.3,3.5,0.8,4.5c0.6,1,1.4,1.5,2.7,1.5c1.2,0,2.1-0.5,2.6-1.4c0.5-0.9,0.8-2.4,0.8-4.3V236.2z"/>
	<path class="st1" d="M362.7,241.2c0,3.4-0.7,6.1-2.1,7.9c-1.4,1.8-3.5,2.7-6.3,2.7c-2.7,0-4.8-0.9-6.2-2.7
		c-1.4-1.8-2.2-4.4-2.2-7.7v-4.6c0-3.5,0.7-6.1,2.2-7.9c1.4-1.8,3.5-2.7,6.2-2.7c2.7,0,4.8,0.9,6.2,2.7s2.2,4.3,2.2,7.7V241.2z
		 M357.8,236.2c0-2.1-0.3-3.6-0.8-4.5c-0.6-0.9-1.4-1.4-2.6-1.4c-1.2,0-2,0.4-2.6,1.3c-0.6,0.9-0.8,2.3-0.9,4.2v6.1
		c0,2,0.3,3.5,0.8,4.5c0.6,1,1.4,1.5,2.7,1.5c1.2,0,2.1-0.5,2.6-1.4c0.5-0.9,0.8-2.4,0.8-4.3V236.2z"/>
	<path class="st1" d="M382,226.6l6.4,18l6.4-18h6.7v24.9h-5.1v-6.8l0.5-11.7l-6.7,18.5h-3.5l-6.7-18.5l0.5,11.7v6.8h-5.1v-24.9H382z
		"/>
	<path class="st1" d="M411.4,251.5h-5.1v-24.9h5.1V251.5z"/>
	<path class="st1" d="M421.3,247.4h10.9v4.1h-16v-24.9h5.1V247.4z"/>
	<path class="st1" d="M440.2,247.4h10.9v4.1h-16v-24.9h5.1V247.4z"/>
	<path class="st1" d="M459.5,251.5h-5.1v-24.9h5.1V251.5z"/>
	<path class="st1" d="M484.7,239.6c0,2.4-0.4,4.6-1.3,6.4c-0.9,1.8-2.1,3.3-3.7,4.3c-1.6,1-3.5,1.5-5.5,1.5c-2.1,0-3.9-0.5-5.5-1.5
		c-1.6-1-2.9-2.4-3.8-4.2s-1.3-4-1.4-6.3v-1.2c0-2.5,0.4-4.6,1.3-6.5c0.9-1.9,2.1-3.3,3.7-4.3c1.6-1,3.5-1.5,5.5-1.5
		c2.1,0,3.9,0.5,5.5,1.5c1.6,1,2.9,2.4,3.7,4.3c0.9,1.9,1.3,4,1.3,6.5V239.6z M479.5,238.5c0-2.6-0.5-4.6-1.4-5.9
		c-0.9-1.4-2.3-2-4-2c-1.7,0-3,0.7-4,2c-0.9,1.3-1.4,3.3-1.4,5.9v1.2c0,2.5,0.5,4.5,1.4,5.9c0.9,1.4,2.3,2.1,4,2.1c1.7,0,3-0.7,4-2
		c0.9-1.3,1.4-3.3,1.4-5.9V238.5z"/>
	<path class="st1" d="M508.7,251.5h-5.1l-10-16.4v16.4h-5.1v-24.9h5.1l10,16.4v-16.4h5.1V251.5z"/>
	<path class="st1" d="M532.2,251.5c-0.2-0.4-0.4-1-0.5-1.7c-1.2,1.3-2.8,2-4.7,2c-1.8,0-3.3-0.5-4.5-1.6c-1.2-1-1.8-2.4-1.8-4
		c0-2,0.7-3.5,2.2-4.5c1.5-1,3.6-1.6,6.3-1.6h2.3v-1.1c0-0.9-0.2-1.5-0.7-2.1c-0.4-0.5-1.1-0.8-2.1-0.8c-0.8,0-1.5,0.2-2,0.6
		c-0.5,0.4-0.7,0.9-0.7,1.6h-4.9c0-1.1,0.3-2.1,1-3c0.7-0.9,1.6-1.6,2.8-2.1c1.2-0.5,2.6-0.8,4.1-0.8c2.3,0,4.1,0.6,5.4,1.7
		c1.3,1.1,2,2.8,2,4.8v8c0,1.8,0.3,3.1,0.7,4v0.3H532.2z M528.2,248.1c0.7,0,1.4-0.2,2-0.5c0.6-0.3,1.1-0.8,1.4-1.3v-3.2h-1.8
		c-2.5,0-3.8,0.9-3.9,2.6l0,0.3c0,0.6,0.2,1.1,0.6,1.5C526.8,247.9,527.4,248.1,528.2,248.1z"/>
	<path class="st1" d="M550.7,237.6c-0.7-0.1-1.3-0.1-1.8-0.1c-1.9,0-3.1,0.6-3.7,1.9v12.1h-4.9V233h4.7l0.1,2.2
		c1-1.7,2.4-2.5,4.1-2.5c0.5,0,1.1,0.1,1.5,0.2L550.7,237.6z"/>
	<path class="st1" d="M561.2,251.8c-2.7,0-4.9-0.8-6.6-2.5c-1.7-1.7-2.6-3.9-2.6-6.6v-0.5c0-1.9,0.4-3.5,1.1-5
		c0.7-1.5,1.7-2.6,3.1-3.4c1.3-0.8,2.8-1.2,4.5-1.2c2.5,0,4.5,0.8,6,2.4c1.5,1.6,2.2,3.9,2.2,6.8v2h-11.8c0.2,1.2,0.6,2.2,1.4,2.9
		c0.8,0.7,1.8,1.1,3.1,1.1c1.9,0,3.4-0.7,4.5-2.1l2.4,2.7c-0.7,1-1.7,1.9-3,2.5C564.2,251.6,562.8,251.8,561.2,251.8z M560.7,236.7
		c-1,0-1.8,0.3-2.4,1c-0.6,0.7-1,1.6-1.2,2.8h6.9v-0.4c0-1.1-0.3-1.9-0.9-2.5C562.5,237,561.7,236.7,560.7,236.7z"/>
	<path class="st1" d="M585.6,251.5h-5v-26.3h5V251.5z"/>
	<path class="st1" d="M588.9,242.1c0-1.8,0.4-3.5,1.1-4.9c0.7-1.4,1.7-2.5,3.1-3.3c1.3-0.8,2.9-1.2,4.6-1.2c2.5,0,4.5,0.8,6.1,2.3
		c1.6,1.5,2.5,3.6,2.6,6.2l0,1.3c0,2.8-0.8,5.1-2.4,6.8c-1.6,1.7-3.7,2.6-6.4,2.6s-4.8-0.9-6.4-2.6c-1.6-1.7-2.4-4-2.4-7V242.1z
		 M593.8,242.4c0,1.8,0.3,3.1,1,4c0.7,0.9,1.6,1.4,2.8,1.4c1.2,0,2.1-0.5,2.8-1.4c0.7-0.9,1-2.4,1-4.4c0-1.7-0.3-3.1-1-4
		c-0.7-0.9-1.6-1.4-2.8-1.4c-1.2,0-2.1,0.5-2.8,1.4C594.2,239,593.8,240.5,593.8,242.4z"/>
	<path class="st1" d="M608.7,242.1c0-2.8,0.7-5.1,2-6.9c1.4-1.7,3.2-2.6,5.5-2.6c2,0,3.6,0.7,4.7,2.1l0.2-1.7h4.5v17.9
		c0,1.6-0.4,3-1.1,4.2c-0.7,1.2-1.8,2.1-3.1,2.7c-1.3,0.6-2.9,0.9-4.7,0.9c-1.4,0-2.7-0.3-4-0.8c-1.3-0.5-2.3-1.2-2.9-2.1l2.2-3
		c1.2,1.4,2.7,2.1,4.5,2.1c1.3,0,2.3-0.4,3.1-1.1c0.7-0.7,1.1-1.7,1.1-3v-1c-1.1,1.3-2.6,1.9-4.5,1.9c-2.2,0-4-0.9-5.4-2.6
		c-1.4-1.7-2.1-4-2.1-6.9V242.1z M613.7,242.5c0,1.7,0.3,3,1,3.9c0.7,1,1.6,1.4,2.8,1.4c1.5,0,2.6-0.6,3.2-1.7v-7.8
		c-0.7-1.1-1.7-1.7-3.2-1.7c-1.2,0-2.1,0.5-2.8,1.5C614,239.1,613.7,240.6,613.7,242.5z"/>
	<path class="st1" d="M628.7,242.1c0-2.8,0.7-5.1,2-6.9c1.4-1.7,3.2-2.6,5.5-2.6c2,0,3.6,0.7,4.7,2.1l0.2-1.7h4.5v17.9
		c0,1.6-0.4,3-1.1,4.2c-0.7,1.2-1.8,2.1-3.1,2.7c-1.3,0.6-2.9,0.9-4.7,0.9c-1.4,0-2.7-0.3-4-0.8c-1.3-0.5-2.3-1.2-2.9-2.1l2.2-3
		c1.2,1.4,2.7,2.1,4.5,2.1c1.3,0,2.3-0.4,3.1-1.1c0.7-0.7,1.1-1.7,1.1-3v-1c-1.1,1.3-2.6,1.9-4.5,1.9c-2.2,0-4-0.9-5.4-2.6
		c-1.4-1.7-2.1-4-2.1-6.9V242.1z M633.6,242.5c0,1.7,0.3,3,1,3.9c0.7,1,1.6,1.4,2.8,1.4c1.5,0,2.6-0.6,3.2-1.7v-7.8
		c-0.7-1.1-1.7-1.7-3.2-1.7c-1.2,0-2.1,0.5-2.8,1.5C634,239.1,633.6,240.6,633.6,242.5z"/>
	<path class="st1" d="M649.4,228.2c0-0.7,0.2-1.4,0.7-1.8c0.5-0.5,1.2-0.7,2-0.7c0.8,0,1.5,0.2,2,0.7c0.5,0.5,0.8,1.1,0.8,1.8
		c0,0.8-0.3,1.4-0.8,1.8c-0.5,0.5-1.2,0.7-2,0.7c-0.8,0-1.5-0.2-2-0.7S649.4,229,649.4,228.2z M654.6,251.5h-5V233h5V251.5z"/>
	<path class="st1" d="M663.2,233l0.2,2.1c1.3-1.7,3.1-2.5,5.3-2.5c2,0,3.4,0.6,4.4,1.7c1,1.2,1.4,2.9,1.5,5.2v11.9h-4.9v-11.8
		c0-1-0.2-1.8-0.7-2.3c-0.5-0.5-1.2-0.7-2.3-0.7c-1.4,0-2.4,0.6-3.1,1.8v13h-4.9V233H663.2z"/>
	<path class="st1" d="M677.6,242.1c0-2.8,0.7-5.1,2-6.9c1.4-1.7,3.2-2.6,5.5-2.6c2,0,3.6,0.7,4.7,2.1l0.2-1.7h4.5v17.9
		c0,1.6-0.4,3-1.1,4.2c-0.7,1.2-1.8,2.1-3.1,2.7c-1.3,0.6-2.9,0.9-4.7,0.9c-1.4,0-2.7-0.3-4-0.8c-1.3-0.5-2.3-1.2-2.9-2.1l2.2-3
		c1.2,1.4,2.7,2.1,4.5,2.1c1.3,0,2.3-0.4,3.1-1.1c0.7-0.7,1.1-1.7,1.1-3v-1c-1.1,1.3-2.6,1.9-4.5,1.9c-2.2,0-4-0.9-5.4-2.6
		c-1.4-1.7-2.1-4-2.1-6.9V242.1z M682.5,242.5c0,1.7,0.3,3,1,3.9c0.7,1,1.6,1.4,2.8,1.4c1.5,0,2.6-0.6,3.2-1.7v-7.8
		c-0.7-1.1-1.7-1.7-3.2-1.7c-1.2,0-2.1,0.5-2.8,1.5C682.8,239.1,682.5,240.6,682.5,242.5z"/>
	<path class="st1" d="M706.2,242.1c0-1.8,0.4-3.5,1.1-4.9c0.7-1.4,1.7-2.5,3.1-3.3c1.3-0.8,2.9-1.2,4.6-1.2c2.5,0,4.5,0.8,6.1,2.3
		c1.6,1.5,2.5,3.6,2.6,6.2l0,1.3c0,2.8-0.8,5.1-2.4,6.8c-1.6,1.7-3.7,2.6-6.4,2.6s-4.8-0.9-6.4-2.6c-1.6-1.7-2.4-4-2.4-7V242.1z
		 M711.1,242.4c0,1.8,0.3,3.1,1,4c0.7,0.9,1.6,1.4,2.8,1.4c1.2,0,2.1-0.5,2.8-1.4c0.7-0.9,1-2.4,1-4.4c0-1.7-0.3-3.1-1-4
		c-0.7-0.9-1.6-1.4-2.8-1.4c-1.2,0-2.1,0.5-2.8,1.4C711.5,239,711.1,240.5,711.1,242.4z"/>
	<path class="st1" d="M731.3,233l0.2,2.1c1.3-1.7,3.1-2.5,5.3-2.5c2,0,3.4,0.6,4.4,1.7c1,1.2,1.4,2.9,1.5,5.2v11.9h-4.9v-11.8
		c0-1-0.2-1.8-0.7-2.3c-0.5-0.5-1.2-0.7-2.3-0.7c-1.4,0-2.4,0.6-3.1,1.8v13h-4.9V233H731.3z"/>
	<path class="st1" d="M755.4,251.5v-24.9h7.7c2.2,0,4.1,0.5,5.9,1.5c1.7,1,3.1,2.4,4,4.2c1,1.8,1.5,3.9,1.5,6.2v1.1
		c0,2.3-0.5,4.4-1.4,6.2c-1,1.8-2.3,3.2-4,4.2c-1.7,1-3.7,1.5-5.9,1.5H755.4z M760.5,230.8v16.6h2.5c2,0,3.5-0.7,4.6-2
		c1.1-1.3,1.6-3.2,1.6-5.6v-1.3c0-2.5-0.5-4.4-1.6-5.8c-1-1.3-2.6-2-4.6-2H760.5z"/>
	<path class="st1" d="M791.8,246.4h-9l-1.7,5.1h-5.5l9.3-24.9h4.8l9.3,24.9h-5.5L791.8,246.4z M784.2,242.2h6.2l-3.1-9.3
		L784.2,242.2z"/>
	<path class="st1" d="M806.8,251.5h-5.1v-24.9h5.1V251.5z"/>
	<path class="st1" d="M816.7,247.4h10.9v4.1h-16v-24.9h5.1V247.4z"/>
	<path class="st1" d="M834.3,237.8l5.2-11.2h5.6l-8.2,15.9v9h-5.2v-9l-8.2-15.9h5.6L834.3,237.8z"/>
</g>
<g>
	<path class="st1" d="M252.5,108.2h-14.6l-2.8,8.4h-8.9L241.3,76h7.7l15.2,40.6h-8.9L252.5,108.2z M240.1,101.4h10.1l-5.1-15.2
		L240.1,101.4z"/>
	<path class="st1" d="M280,110.6c1.5,0,2.7-0.4,3.6-1.2c0.9-0.8,1.4-1.9,1.4-3.3h7.5c0,2-0.6,3.9-1.7,5.6c-1.1,1.7-2.6,3-4.5,4
		c-1.9,0.9-4,1.4-6.3,1.4c-4.3,0-7.7-1.4-10.2-4.1c-2.5-2.7-3.7-6.5-3.7-11.3v-0.5c0-4.6,1.2-8.3,3.7-11.1c2.5-2.8,5.9-4.1,10.2-4.1
		c3.8,0,6.8,1.1,9.1,3.2c2.3,2.1,3.4,5,3.5,8.6H285c0-1.6-0.5-2.8-1.4-3.8c-0.9-1-2.2-1.5-3.7-1.5c-1.9,0-3.3,0.7-4.2,2
		c-1,1.4-1.4,3.6-1.4,6.7v0.8c0,3.1,0.5,5.3,1.4,6.7C276.6,109.9,278,110.6,280,110.6z"/>
	<path class="st1" d="M306.8,79v7.4h5.2v5.9h-5.2v15c0,1.1,0.2,1.9,0.6,2.4c0.4,0.5,1.2,0.7,2.5,0.7c0.9,0,1.7-0.1,2.4-0.2v6.1
		c-1.6,0.5-3.2,0.7-4.9,0.7c-5.6,0-8.5-2.8-8.6-8.5V92.3h-4.4v-5.9h4.4V79H306.8z"/>
	<path class="st1" d="M316.4,78.6c0-1.2,0.4-2.2,1.2-3c0.8-0.8,1.9-1.2,3.3-1.2c1.4,0,2.5,0.4,3.3,1.2c0.8,0.8,1.2,1.8,1.2,3
		c0,1.2-0.4,2.2-1.2,3c-0.8,0.8-1.9,1.2-3.3,1.2s-2.4-0.4-3.3-1.2C316.8,80.8,316.4,79.8,316.4,78.6z M324.9,116.5h-8.1V86.4h8.1
		V116.5z"/>
	<path class="st1" d="M342.9,106.7l5.6-20.3h8.4l-10.2,30.1H339l-10.2-30.1h8.4L342.9,106.7z"/>
	<path class="st1" d="M360.3,78.6c0-1.2,0.4-2.2,1.2-3c0.8-0.8,1.9-1.2,3.3-1.2c1.4,0,2.5,0.4,3.3,1.2c0.8,0.8,1.2,1.8,1.2,3
		c0,1.2-0.4,2.2-1.2,3c-0.8,0.8-1.9,1.2-3.3,1.2s-2.4-0.4-3.3-1.2C360.8,80.8,360.3,79.8,360.3,78.6z M368.9,116.5h-8.1V86.4h8.1
		V116.5z"/>
	<path class="st1" d="M385.2,79v7.4h5.2v5.9h-5.2v15c0,1.1,0.2,1.9,0.6,2.4c0.4,0.5,1.2,0.7,2.5,0.7c0.9,0,1.7-0.1,2.4-0.2v6.1
		c-1.6,0.5-3.2,0.7-4.9,0.7c-5.6,0-8.5-2.8-8.6-8.5V92.3h-4.4v-5.9h4.4V79H385.2z"/>
	<path class="st1" d="M406,105.2l5.6-18.7h8.6l-12.1,34.8l-0.7,1.6c-1.8,3.9-4.8,5.9-8.9,5.9c-1.2,0-2.4-0.2-3.6-0.5v-6.1l1.2,0
		c1.5,0,2.7-0.2,3.4-0.7c0.8-0.5,1.3-1.2,1.8-2.3l0.9-2.5l-10.6-30.2h8.7L406,105.2z"/>
</g>
<g id="notification">
	<g>
		<g>
			<path class="st2" d="M179.2,57.6H91.6c-5.1,0-9.2,4.1-9.2,9.2v57.1c0,5.1,4.1,9.2,9.2,9.2h30.1l11.3,15.1
				c0.6,0.8,1.5,1.2,2.4,1.2s1.9-0.5,2.4-1.2l11.3-15.1h30.1c5.1,0,9.2-4.1,9.2-9.2V66.7C188.4,61.7,184.3,57.6,179.2,57.6z
				 M155.8,118.7H115c-1.7,0-3.1-1.4-3.1-3.1c0-9.3,5.5-17.4,13.3-21.2c-3.2-2.8-5.2-6.9-5.2-11.5c0-8.4,6.9-15.3,15.3-15.3
				s15.3,6.9,15.3,15.3c0,4.6-2,8.7-5.2,11.5c7.9,3.8,13.3,11.8,13.3,21.2C158.8,117.4,157.5,118.7,155.8,118.7z"/>
		</g>
	</g>
</g>
</svg>
