<?xml version="1.0" encoding="utf-8"?>
<!-- Generator: Adobe Illustrator 22.1.0, SVG Export Plug-In . SVG Version: 6.00 Build 0)  -->
<svg version="1.1" id="bubbles" xmlns="http://www.w3.org/2000/svg" xmlns:xlink="http://www.w3.org/1999/xlink" x="0px" y="0px"
	 viewBox="0 0 1061.9 649.3" style="enable-background:new 0 0 1061.9 649.3;" xml:space="preserve">
<style type="text/css">
	.st0{opacity:0.5;fill:#F26627;}
	.st1{fill:#FFFFFF;}
	.st2{opacity:0.5;fill:#98D7D1;}
	.st3{opacity:0.5;fill:#325D79;}
	.st4{fill:#325D79;}
	.st5{fill:#F26627;}
	.st6{fill:#98D7D1;}
</style>
<g id="orange_x5F_bubble">
	<circle id="orange_x5F_circle" class="st0" cx="532" cy="236.6" r="231.2"/>
	<g>
		<path class="st1" d="M465.5,238.9c-4.2,4.1-9.1,6.2-14.7,6.2c-7.2,0-12.9-2.5-17.2-7.4c-4.3-4.9-6.5-11.6-6.5-19.9
			c0-5.3,1.2-10.2,3.5-14.6c2.3-4.4,5.6-7.9,9.7-10.4c4.2-2.5,8.8-3.7,14-3.7c5.4,0,10.1,1.3,14.3,4c4.2,2.7,7.4,6.5,9.7,11.5
			c2.3,5,3.5,10.8,3.5,17.2v6c0,13.5-3.4,24.2-10.1,31.9c-6.7,7.7-16.3,11.9-28.6,12.4l-4,0.1v-13.4l3.6-0.1
			C456.8,258,464.3,251.4,465.5,238.9z M454.7,232.7c2.6,0,4.8-0.7,6.7-2c1.9-1.3,3.3-3,4.3-4.8v-6.6c0-5.5-1-9.7-3.1-12.7
			c-2.1-3-4.9-4.5-8.4-4.5c-3.2,0-5.9,1.5-8,4.4c-2.1,3-3.1,6.7-3.1,11.1c0,4.4,1,8.1,3,10.9C448.2,231.3,451.1,232.7,454.7,232.7z"
			/>
		<path class="st1" d="M546.2,211.7c0,3.9-1,7.4-3,10.5c-2,3-4.7,5.5-8.1,7.3c3.9,1.9,7.1,4.5,9.4,7.8c2.3,3.3,3.5,7.2,3.5,11.7
			c0,7.2-2.5,12.9-7.4,17.1c-4.9,4.2-11.6,6.3-20,6.3c-8.4,0-15.1-2.1-20.1-6.3c-4.9-4.2-7.4-9.9-7.4-17.1c0-4.5,1.2-8.4,3.5-11.8
			c2.3-3.3,5.4-5.9,9.3-7.8c-3.5-1.8-6.2-4.3-8.1-7.3c-2-3-2.9-6.5-2.9-10.5c0-6.9,2.3-12.4,6.9-16.5c4.6-4.1,10.9-6.2,18.8-6.2
			c7.9,0,14.1,2,18.8,6.1C543.9,199.2,546.2,204.7,546.2,211.7z M531.8,247.9c0-3.5-1-6.4-3.1-8.5c-2-2.1-4.8-3.2-8.3-3.2
			c-3.4,0-6.2,1.1-8.2,3.2c-2,2.1-3.1,4.9-3.1,8.5c0,3.5,1,6.2,3,8.4c2,2.1,4.8,3.2,8.4,3.2c3.5,0,6.2-1,8.2-3.1
			C530.8,254.3,531.8,251.5,531.8,247.9z M530.1,212.5c0-3.2-0.8-5.7-2.5-7.6s-4-2.9-7.1-2.9c-3,0-5.4,0.9-7,2.8
			c-1.7,1.9-2.5,4.4-2.5,7.7c0,3.2,0.8,5.8,2.5,7.8c1.7,2,4,3,7.1,3c3,0,5.4-1,7.1-3C529.3,218.3,530.1,215.7,530.1,212.5z"/>
		<path class="st1" d="M558.6,205.8c0-5,1.6-9,4.8-12.1c3.2-3.1,7.5-4.7,12.7-4.7c5.3,0,9.6,1.5,12.8,4.6c3.2,3.1,4.8,7.2,4.8,12.5
			v4c0,5-1.6,9-4.8,12.1c-3.2,3-7.5,4.6-12.7,4.6c-5.3,0-9.5-1.5-12.8-4.6c-3.3-3.1-4.9-7.2-4.9-12.4V205.8z M569.3,210.1
			c0,2.2,0.6,4,1.9,5.4c1.3,1.4,3,2,5,2c2.1,0,3.7-0.7,5-2.1c1.2-1.4,1.8-3.2,1.8-5.5v-4.1c0-2.2-0.6-4-1.8-5.4
			c-1.2-1.4-2.9-2.1-5.1-2.1c-2,0-3.7,0.7-5,2c-1.3,1.4-1.9,3.2-1.9,5.7V210.1z M579.4,265.2l-7.9-4.2l39.6-63.4l7.9,4.2
			L579.4,265.2z M597.4,251.4c0-5,1.6-9.1,4.9-12.1c3.3-3.1,7.5-4.6,12.7-4.6c5.3,0,9.5,1.5,12.8,4.5c3.3,3,4.9,7.2,4.9,12.5v4
			c0,5-1.6,9-4.8,12.1c-3.2,3.1-7.5,4.6-12.8,4.6c-5.4,0-9.6-1.5-12.9-4.6c-3.2-3.1-4.8-7.2-4.8-12.3V251.4z M608.1,255.8
			c0,2,0.7,3.8,2,5.2s3,2.2,5,2.2c4.5,0,6.8-2.5,6.8-7.5v-4.2c0-2.2-0.6-4-1.9-5.4c-1.3-1.4-2.9-2-5-2c-2.1,0-3.8,0.7-5,2
			c-1.3,1.4-1.9,3.2-1.9,5.5V255.8z"/>
	</g>
</g>
<g id="green_x5F_bubble">
	<circle id="green_x5F_circle" class="st2" cx="850.8" cy="237.8" r="196.7"/>
	<g>
		<path class="st1" d="M836.3,204.5l-28,64.3h-15.2l28-60.8h-36v-11.6h51.1V204.5z"/>
		<path class="st1" d="M895.1,268.9h-49.6V259l23.4-24.9c3.2-3.5,5.6-6.6,7.1-9.2c1.5-2.6,2.3-5.1,2.3-7.5c0-3.2-0.8-5.7-2.4-7.6
			c-1.6-1.8-3.9-2.8-7-2.8c-3.2,0-5.8,1.1-7.7,3.4c-1.9,2.2-2.8,5.2-2.8,8.8H844c0-4.4,1.1-8.4,3.2-12.1c2.1-3.6,5.1-6.5,8.9-8.6
			c3.8-2.1,8.2-3.1,13.1-3.1c7.5,0,13.2,1.8,17.4,5.4c4.1,3.6,6.2,8.6,6.2,15.2c0,3.6-0.9,7.2-2.8,10.9c-1.9,3.7-5,8-9.5,13
			L864,257.3h31.1V268.9z"/>
		<path class="st1" d="M903.7,210.4c0-4.4,1.4-8,4.3-10.8s6.7-4.1,11.3-4.1c4.7,0,8.5,1.4,11.4,4.1s4.3,6.4,4.3,11.1v3.6
			c0,4.5-1.4,8.1-4.3,10.8c-2.9,2.7-6.7,4.1-11.3,4.1c-4.7,0-8.5-1.4-11.4-4.1c-2.9-2.7-4.3-6.4-4.3-11.1V210.4z M913.2,214.3
			c0,2,0.6,3.6,1.7,4.8c1.1,1.2,2.6,1.8,4.5,1.8c1.9,0,3.3-0.6,4.4-1.8c1.1-1.2,1.6-2.9,1.6-4.9v-3.7c0-2-0.5-3.6-1.6-4.8
			c-1.1-1.2-2.6-1.8-4.5-1.8c-1.8,0-3.3,0.6-4.4,1.8c-1.1,1.2-1.7,2.9-1.7,5V214.3z M922.2,263.4l-7-3.8l35.3-56.5l7,3.8
			L922.2,263.4z M938.2,251.1c0-4.5,1.5-8.1,4.4-10.8c2.9-2.7,6.7-4.1,11.3-4.1c4.7,0,8.5,1.3,11.4,4c2.9,2.7,4.3,6.4,4.3,11.2v3.6
			c0,4.4-1.4,8-4.3,10.8c-2.8,2.7-6.6,4.1-11.4,4.1c-4.8,0-8.6-1.4-11.5-4.1c-2.9-2.7-4.3-6.4-4.3-10.9V251.1z M947.8,255
			c0,1.8,0.6,3.4,1.8,4.7c1.2,1.3,2.7,1.9,4.5,1.9c4,0,6.1-2.2,6.1-6.7v-3.8c0-2-0.6-3.6-1.7-4.8c-1.1-1.2-2.6-1.8-4.5-1.8
			c-1.9,0-3.3,0.6-4.5,1.8c-1.1,1.2-1.7,2.9-1.7,4.9V255z"/>
	</g>
</g>
<g id="blue_x5F_bubble">
	<circle id="blue_x5F_circle" class="st3" cx="211.4" cy="236.6" r="187"/>
	<g>
		<path class="st1" d="M141.3,195.8v11.8h-1.4c-6.5,0.1-11.7,1.8-15.7,5.1c-4,3.3-6.3,7.8-7.1,13.7c3.8-3.9,8.7-5.9,14.6-5.9
			c6.3,0,11.3,2.3,15,6.8c3.7,4.5,5.6,10.4,5.6,17.8c0,4.7-1,9-3.1,12.8c-2,3.8-4.9,6.8-8.6,8.9c-3.7,2.1-7.9,3.2-12.6,3.2
			c-7.6,0-13.8-2.6-18.5-7.9c-4.7-5.3-7-12.4-7-21.2v-5.2c0-7.8,1.5-14.8,4.4-20.8c3-6,7.2-10.7,12.8-14c5.5-3.3,12-5,19.3-5H141.3z
			 M127.3,232.1c-2.3,0-4.4,0.6-6.3,1.8c-1.9,1.2-3.3,2.8-4.2,4.8v4.4c0,4.8,0.9,8.5,2.8,11.2c1.9,2.7,4.5,4,7.9,4
			c3.1,0,5.6-1.2,7.5-3.6c1.9-2.4,2.9-5.6,2.9-9.4c0-3.9-1-7.1-2.9-9.5C133.1,233.3,130.5,232.1,127.3,232.1z"/>
		<path class="st1" d="M207.8,215.8c0,3.5-0.9,6.6-2.6,9.3c-1.8,2.7-4.2,4.9-7.3,6.5c3.5,1.7,6.3,4,8.3,7c2.1,3,3.1,6.5,3.1,10.5
			c0,6.4-2.2,11.5-6.6,15.2c-4.4,3.7-10.3,5.6-17.8,5.6c-7.5,0-13.5-1.9-17.9-5.6c-4.4-3.7-6.6-8.8-6.6-15.2c0-4,1-7.5,3.1-10.5
			c2.1-3,4.8-5.3,8.3-7c-3.1-1.6-5.5-3.8-7.2-6.5s-2.6-5.8-2.6-9.3c0-6.2,2.1-11.1,6.2-14.7c4.1-3.7,9.7-5.5,16.7-5.5
			c7,0,12.6,1.8,16.7,5.4C205.8,204.6,207.8,209.5,207.8,215.8z M195,248c0-3.1-0.9-5.7-2.7-7.6c-1.8-1.9-4.3-2.8-7.4-2.8
			c-3,0-5.5,0.9-7.3,2.8c-1.8,1.9-2.7,4.4-2.7,7.6c0,3.1,0.9,5.6,2.7,7.5c1.8,1.9,4.3,2.8,7.5,2.8c3.1,0,5.6-0.9,7.3-2.7
			C194.1,253.7,195,251.2,195,248z M193.5,216.5c0-2.8-0.7-5.1-2.2-6.8c-1.5-1.7-3.6-2.6-6.3-2.6c-2.7,0-4.8,0.8-6.3,2.5
			c-1.5,1.7-2.2,3.9-2.2,6.9c0,2.9,0.7,5.2,2.2,7c1.5,1.8,3.6,2.6,6.3,2.6c2.7,0,4.8-0.9,6.3-2.6
			C192.7,221.7,193.5,219.3,193.5,216.5z"/>
		<path class="st1" d="M218.9,210.4c0-4.4,1.4-8,4.3-10.8s6.7-4.1,11.3-4.1c4.7,0,8.5,1.4,11.4,4.1s4.3,6.4,4.3,11.1v3.6
			c0,4.5-1.4,8.1-4.3,10.8c-2.9,2.7-6.7,4.1-11.3,4.1c-4.7,0-8.5-1.4-11.4-4.1c-2.9-2.7-4.3-6.4-4.3-11.1V210.4z M228.4,214.3
			c0,2,0.6,3.6,1.7,4.8c1.1,1.2,2.6,1.8,4.5,1.8c1.9,0,3.3-0.6,4.4-1.8c1.1-1.2,1.6-2.9,1.6-4.9v-3.7c0-2-0.5-3.6-1.6-4.8
			c-1.1-1.2-2.6-1.8-4.5-1.8c-1.8,0-3.3,0.6-4.4,1.8c-1.1,1.2-1.7,2.9-1.7,5V214.3z M237.5,263.4l-7-3.8l35.3-56.5l7,3.8
			L237.5,263.4z M253.4,251.1c0-4.5,1.5-8.1,4.4-10.8c2.9-2.7,6.7-4.1,11.3-4.1c4.7,0,8.5,1.3,11.4,4c2.9,2.7,4.3,6.4,4.3,11.2v3.6
			c0,4.4-1.4,8-4.3,10.8c-2.8,2.7-6.6,4.1-11.4,4.1c-4.8,0-8.6-1.4-11.5-4.1c-2.9-2.7-4.3-6.4-4.3-10.9V251.1z M263,255
			c0,1.8,0.6,3.4,1.8,4.7c1.2,1.3,2.7,1.9,4.5,1.9c4,0,6.1-2.2,6.1-6.7v-3.8c0-2-0.6-3.6-1.7-4.8c-1.1-1.2-2.6-1.8-4.5-1.8
			c-1.9,0-3.3,0.6-4.5,1.8c-1.1,1.2-1.7,2.9-1.7,4.9V255z"/>
	</g>
</g>
<g id="blue_x5F_text">
	<g>
		<path class="st4" d="M109,566.4c0-1.7,0.3-3.3,1-4.7c0.7-1.4,1.6-2.5,2.8-3.2c1.2-0.8,2.6-1.2,4.2-1.2c2.4,0,4.3,0.8,5.8,2.5
			c1.5,1.7,2.2,3.9,2.2,6.7v0.4c0,1.7-0.3,3.3-1,4.7c-0.7,1.4-1.6,2.5-2.8,3.2c-1.2,0.8-2.6,1.1-4.2,1.1c-2.4,0-4.3-0.8-5.8-2.5
			c-1.5-1.7-2.2-3.9-2.2-6.7V566.4z M111,567c0,2.1,0.6,3.9,1.7,5.3c1.1,1.4,2.6,2.1,4.4,2.1c1.8,0,3.2-0.7,4.4-2.1
			c1.1-1.4,1.7-3.2,1.7-5.5v-0.4c0-1.4-0.3-2.6-0.8-3.8c-0.5-1.1-1.2-2-2.1-2.6c-0.9-0.6-2-0.9-3.2-0.9c-1.8,0-3.2,0.7-4.3,2.1
			c-1.1,1.4-1.7,3.2-1.7,5.5V567z"/>
		<path class="st4" d="M130.6,575.7v-16.3h-3v-1.6h3v-2.2c0-1.8,0.5-3.2,1.4-4.2c0.9-1,2.2-1.5,3.9-1.5c0.8,0,1.5,0.1,2.1,0.3
			l-0.1,1.6c-0.6-0.1-1.2-0.2-1.8-0.2c-1.1,0-1.9,0.3-2.6,1c-0.6,0.7-0.9,1.7-0.9,2.9v2.2h4.3v1.6h-4.3v16.3H130.6z"/>
		<path class="st4" d="M151.6,575.7h-2v-24.2h2V575.7z"/>
		<path class="st4" d="M159.6,557.7l0.1,3.1c0.7-1.1,1.5-2,2.5-2.5c1-0.6,2.1-0.9,3.3-0.9c1.9,0,3.4,0.5,4.3,1.6
			c0.9,1.1,1.4,2.7,1.4,4.9v11.8h-2v-11.8c0-1.6-0.4-2.8-1-3.6c-0.7-0.8-1.7-1.2-3.2-1.2c-1.2,0-2.3,0.4-3.3,1.2
			c-0.9,0.8-1.6,1.8-2.1,3.1v12.3h-2v-18H159.6z"/>
		<path class="st4" d="M187.2,571.1c0-1-0.4-1.8-1.2-2.4c-0.8-0.6-2-1.1-3.6-1.4c-1.6-0.3-2.8-0.7-3.7-1.2c-0.9-0.4-1.5-1-2-1.6
			c-0.4-0.6-0.6-1.4-0.6-2.3c0-1.4,0.6-2.6,1.8-3.5c1.2-0.9,2.7-1.4,4.5-1.4c2,0,3.6,0.5,4.8,1.5c1.2,1,1.8,2.3,1.8,3.9h-2
			c0-1.1-0.4-1.9-1.3-2.6s-2-1-3.3-1c-1.3,0-2.4,0.3-3.1,0.9c-0.8,0.6-1.2,1.3-1.2,2.3c0,0.9,0.3,1.6,1,2.1c0.7,0.5,1.9,0.9,3.6,1.4
			s3,0.8,3.9,1.3c0.9,0.5,1.5,1,1.9,1.7c0.4,0.7,0.6,1.4,0.6,2.4c0,1.5-0.6,2.7-1.8,3.6c-1.2,0.9-2.8,1.4-4.8,1.4
			c-2.1,0-3.8-0.5-5.1-1.5c-1.3-1-2-2.3-2-3.8h2c0.1,1.2,0.6,2.1,1.5,2.7c0.9,0.6,2.1,1,3.6,1c1.4,0,2.5-0.3,3.4-0.9
			C186.7,572.8,187.2,572,187.2,571.1z"/>
		<path class="st4" d="M196.7,553.1v4.6h3.7v1.6h-3.7v12c0,1,0.2,1.7,0.5,2.2c0.4,0.5,1,0.7,1.8,0.7c0.3,0,0.9-0.1,1.6-0.2l0.1,1.6
			c-0.5,0.2-1.2,0.3-2.1,0.3c-1.4,0-2.4-0.4-3-1.2c-0.6-0.8-0.9-2-0.9-3.5v-12h-3.3v-1.6h3.3v-4.6H196.7z"/>
		<path class="st4" d="M215.9,575.7c-0.2-0.6-0.3-1.4-0.4-2.5c-0.7,0.9-1.6,1.6-2.7,2.1c-1.1,0.5-2.2,0.7-3.4,0.7
			c-1.7,0-3.1-0.5-4.2-1.4c-1.1-1-1.6-2.2-1.6-3.7c0-1.7,0.7-3.1,2.2-4.2c1.5-1,3.5-1.5,6.1-1.5h3.6v-2c0-1.3-0.4-2.3-1.2-3
			c-0.8-0.7-1.9-1.1-3.5-1.1c-1.4,0-2.5,0.4-3.4,1.1c-0.9,0.7-1.4,1.6-1.4,2.6l-2,0c0-1.4,0.7-2.7,2-3.7c1.3-1,3-1.6,4.9-1.6
			c2,0,3.6,0.5,4.7,1.5c1.2,1,1.8,2.4,1.8,4.2v8.5c0,1.7,0.2,3,0.5,3.9v0.2H215.9z M209.7,574.2c1.3,0,2.5-0.3,3.6-1
			s1.8-1.5,2.3-2.6v-4h-3.6c-2,0-3.5,0.4-4.6,1.1c-1.1,0.7-1.7,1.7-1.7,2.9c0,1,0.4,1.8,1.1,2.5S208.5,574.2,209.7,574.2z"/>
		<path class="st4" d="M222,566.5c0-2.8,0.6-5,1.9-6.7c1.2-1.6,2.9-2.5,5.1-2.5c2.4,0,4.3,1,5.6,2.9l0.1-2.6h1.9v17.6
			c0,2.3-0.6,4.1-1.9,5.5s-3,2-5.3,2c-1.3,0-2.4-0.3-3.6-0.8c-1.1-0.6-2-1.3-2.7-2.2l1.1-1.2c1.4,1.7,3.1,2.6,5,2.6
			c1.7,0,3-0.5,3.9-1.5c0.9-1,1.4-2.3,1.4-4.1v-2.3c-1.3,1.8-3.1,2.7-5.6,2.7c-2.1,0-3.8-0.8-5-2.5s-1.9-3.9-1.9-6.7V566.5z
			 M224,566.9c0,2.3,0.5,4.1,1.4,5.4c0.9,1.3,2.2,2,3.9,2c2.4,0,4.2-1.1,5.2-3.3v-8.4c-0.5-1.2-1.1-2-2-2.6
			c-0.9-0.6-1.9-0.9-3.2-0.9c-1.7,0-3,0.7-3.9,2C224.4,562.4,224,564.3,224,566.9z"/>
		<path class="st4" d="M249.9,559.4c-0.4-0.1-0.9-0.1-1.3-0.1c-1.2,0-2.3,0.3-3.1,1c-0.9,0.7-1.5,1.7-1.8,3v12.3h-2v-18h1.9l0,2.9
			c1.1-2.1,2.7-3.2,5.1-3.2c0.6,0,1,0.1,1.3,0.2L249.9,559.4z"/>
		<path class="st4" d="M263.7,575.7c-0.2-0.6-0.3-1.4-0.4-2.5c-0.7,0.9-1.6,1.6-2.7,2.1c-1.1,0.5-2.2,0.7-3.4,0.7
			c-1.7,0-3.1-0.5-4.2-1.4c-1.1-1-1.6-2.2-1.6-3.7c0-1.7,0.7-3.1,2.2-4.2c1.5-1,3.5-1.5,6.1-1.5h3.6v-2c0-1.3-0.4-2.3-1.2-3
			c-0.8-0.7-1.9-1.1-3.5-1.1c-1.4,0-2.5,0.4-3.4,1.1c-0.9,0.7-1.4,1.6-1.4,2.6l-2,0c0-1.4,0.7-2.7,2-3.7c1.3-1,3-1.6,4.9-1.6
			c2,0,3.6,0.5,4.7,1.5c1.2,1,1.8,2.4,1.8,4.2v8.5c0,1.7,0.2,3,0.5,3.9v0.2H263.7z M257.5,574.2c1.3,0,2.5-0.3,3.6-1
			s1.8-1.5,2.3-2.6v-4h-3.6c-2,0-3.5,0.4-4.6,1.1c-1.1,0.7-1.7,1.7-1.7,2.9c0,1,0.4,1.8,1.1,2.5S256.3,574.2,257.5,574.2z"/>
		<path class="st4" d="M272.4,557.7l0.1,2.9c0.7-1.1,1.5-1.9,2.5-2.4s2.1-0.8,3.3-0.8c2.8,0,4.6,1.2,5.4,3.5c0.6-1.1,1.5-2,2.6-2.6
			c1.1-0.6,2.3-0.9,3.6-0.9c3.9,0,5.8,2.1,5.9,6.3v12h-2v-11.8c0-1.6-0.4-2.8-1-3.6s-1.8-1.2-3.3-1.2c-1.4,0-2.6,0.5-3.6,1.4
			c-1,0.9-1.5,2-1.6,3.3v11.9h-2v-12c0-1.5-0.4-2.7-1.1-3.4c-0.7-0.8-1.8-1.1-3.3-1.1c-1.3,0-2.3,0.4-3.2,1.1
			c-0.9,0.7-1.6,1.8-2,3.2v12.3h-2v-18H272.4z"/>
		<path class="st4" d="M93.2,611.4c-1.2,1.7-3.1,2.6-5.7,2.6c-1.9,0-3.4-0.6-4.4-1.7c-1-1.1-1.5-2.8-1.5-4.9v-11.7h2v11.4
			c0,3.4,1.4,5.1,4.2,5.1c2.9,0,4.7-1.2,5.5-3.6v-13h2v18h-1.9L93.2,611.4z"/>
		<path class="st4" d="M111.1,609.1c0-1-0.4-1.8-1.2-2.4c-0.8-0.6-2-1.1-3.6-1.4c-1.6-0.3-2.8-0.7-3.7-1.2c-0.9-0.4-1.5-1-2-1.6
			c-0.4-0.6-0.6-1.4-0.6-2.3c0-1.4,0.6-2.6,1.8-3.5c1.2-0.9,2.7-1.4,4.5-1.4c2,0,3.6,0.5,4.8,1.5c1.2,1,1.8,2.3,1.8,3.9h-2
			c0-1.1-0.4-1.9-1.3-2.6s-2-1-3.3-1c-1.3,0-2.4,0.3-3.1,0.9c-0.8,0.6-1.2,1.3-1.2,2.3c0,0.9,0.3,1.6,1,2.1c0.7,0.5,1.9,0.9,3.6,1.4
			s3,0.8,3.9,1.3c0.9,0.5,1.5,1,1.9,1.7c0.4,0.7,0.6,1.4,0.6,2.4c0,1.5-0.6,2.7-1.8,3.6c-1.2,0.9-2.8,1.4-4.8,1.4
			c-2.1,0-3.8-0.5-5.1-1.5c-1.3-1-2-2.3-2-3.8h2c0.1,1.2,0.6,2.1,1.5,2.7c0.9,0.6,2.1,1,3.6,1c1.4,0,2.5-0.3,3.4-0.9
			C110.7,610.8,111.1,610,111.1,609.1z"/>
		<path class="st4" d="M124.5,614c-1.5,0-2.9-0.4-4.1-1.1c-1.2-0.8-2.2-1.8-2.9-3.1c-0.7-1.3-1-2.9-1-4.5v-0.7c0-1.7,0.3-3.3,1-4.7
			c0.7-1.4,1.6-2.5,2.8-3.3c1.2-0.8,2.5-1.2,3.9-1.2c2.2,0,3.9,0.7,5.2,2.2c1.3,1.5,1.9,3.5,1.9,6.1v1.1h-12.8v0.4
			c0,2,0.6,3.7,1.8,5.1c1.2,1.4,2.6,2,4.4,2c1.1,0,2-0.2,2.8-0.6c0.8-0.4,1.6-1,2.2-1.9l1.2,0.9C129.4,612.9,127.3,614,124.5,614z
			 M124.2,597.1c-1.5,0-2.8,0.5-3.8,1.6c-1,1.1-1.6,2.6-1.9,4.4h10.8v-0.2c-0.1-1.7-0.5-3.1-1.5-4.2
			C126.9,597.6,125.7,597.1,124.2,597.1z"/>
		<path class="st4" d="M143.4,597.4c-0.4-0.1-0.9-0.1-1.3-0.1c-1.2,0-2.3,0.3-3.1,1c-0.9,0.7-1.5,1.7-1.8,3v12.3h-2v-18h1.9l0,2.9
			c1.1-2.1,2.7-3.2,5.1-3.2c0.6,0,1,0.1,1.3,0.2L143.4,597.4z"/>
		<path class="st4" d="M157.3,609.1c0-1-0.4-1.8-1.2-2.4c-0.8-0.6-2-1.1-3.6-1.4c-1.6-0.3-2.8-0.7-3.7-1.2c-0.9-0.4-1.5-1-2-1.6
			c-0.4-0.6-0.6-1.4-0.6-2.3c0-1.4,0.6-2.6,1.8-3.5c1.2-0.9,2.7-1.4,4.5-1.4c2,0,3.6,0.5,4.8,1.5c1.2,1,1.8,2.3,1.8,3.9h-2
			c0-1.1-0.4-1.9-1.3-2.6s-2-1-3.3-1c-1.3,0-2.4,0.3-3.1,0.9c-0.8,0.6-1.2,1.3-1.2,2.3c0,0.9,0.3,1.6,1,2.1c0.7,0.5,1.9,0.9,3.6,1.4
			s3,0.8,3.9,1.3c0.9,0.5,1.5,1,1.9,1.7c0.4,0.7,0.6,1.4,0.6,2.4c0,1.5-0.6,2.7-1.8,3.6c-1.2,0.9-2.8,1.4-4.8,1.4
			c-2.1,0-3.8-0.5-5.1-1.5c-1.3-1-2-2.3-2-3.8h2c0.1,1.2,0.6,2.1,1.5,2.7c0.9,0.6,2.1,1,3.6,1c1.4,0,2.5-0.3,3.4-0.9
			C156.9,610.8,157.3,610,157.3,609.1z"/>
		<path class="st4" d="M183.4,613.7c-0.2-0.6-0.3-1.4-0.4-2.5c-0.7,0.9-1.6,1.6-2.7,2.1c-1.1,0.5-2.2,0.7-3.4,0.7
			c-1.7,0-3.1-0.5-4.2-1.4c-1.1-1-1.6-2.2-1.6-3.7c0-1.7,0.7-3.1,2.2-4.2c1.5-1,3.5-1.5,6.1-1.5h3.6v-2c0-1.3-0.4-2.3-1.2-3
			c-0.8-0.7-1.9-1.1-3.5-1.1c-1.4,0-2.5,0.4-3.4,1.1c-0.9,0.7-1.4,1.6-1.4,2.6l-2,0c0-1.4,0.7-2.7,2-3.7c1.3-1,3-1.6,4.9-1.6
			c2,0,3.6,0.5,4.7,1.5c1.2,1,1.8,2.4,1.8,4.2v8.5c0,1.7,0.2,3,0.5,3.9v0.2H183.4z M177.2,612.2c1.3,0,2.5-0.3,3.6-1
			s1.8-1.5,2.3-2.6v-4h-3.6c-2,0-3.5,0.4-4.6,1.1c-1.1,0.7-1.7,1.7-1.7,2.9c0,1,0.4,1.8,1.1,2.5S176,612.2,177.2,612.2z"/>
		<path class="st4" d="M198.6,597.4c-0.4-0.1-0.9-0.1-1.3-0.1c-1.2,0-2.3,0.3-3.1,1c-0.9,0.7-1.5,1.7-1.8,3v12.3h-2v-18h1.9l0,2.9
			c1.1-2.1,2.7-3.2,5.1-3.2c0.6,0,1,0.1,1.3,0.2L198.6,597.4z"/>
		<path class="st4" d="M208.4,614c-1.5,0-2.9-0.4-4.1-1.1c-1.2-0.8-2.2-1.8-2.9-3.1c-0.7-1.3-1-2.9-1-4.5v-0.7c0-1.7,0.3-3.3,1-4.7
			c0.7-1.4,1.6-2.5,2.8-3.3c1.2-0.8,2.5-1.2,3.9-1.2c2.2,0,3.9,0.7,5.2,2.2c1.3,1.5,1.9,3.5,1.9,6.1v1.1h-12.8v0.4
			c0,2,0.6,3.7,1.8,5.1c1.2,1.4,2.6,2,4.4,2c1.1,0,2-0.2,2.8-0.6s1.6-1,2.2-1.9l1.2,0.9C213.3,612.9,211.1,614,208.4,614z
			 M208,597.1c-1.5,0-2.8,0.5-3.8,1.6c-1,1.1-1.6,2.6-1.9,4.4h10.8v-0.2c-0.1-1.7-0.5-3.1-1.5-4.2S209.5,597.1,208,597.1z"/>
		<path class="st4" d="M228.7,613.7v-16.3h-3v-1.6h3v-2.2c0-1.8,0.5-3.2,1.4-4.2c0.9-1,2.2-1.5,3.9-1.5c0.8,0,1.5,0.1,2.1,0.3
			l-0.1,1.6c-0.6-0.1-1.2-0.2-1.8-0.2c-1.1,0-1.9,0.3-2.6,1c-0.6,0.7-0.9,1.7-0.9,2.9v2.2h4.3v1.6h-4.3v16.3H228.7z"/>
		<path class="st4" d="M245,614c-1.5,0-2.9-0.4-4.1-1.1c-1.2-0.8-2.2-1.8-2.9-3.1c-0.7-1.3-1-2.9-1-4.5v-0.7c0-1.7,0.3-3.3,1-4.7
			c0.7-1.4,1.6-2.5,2.8-3.3c1.2-0.8,2.5-1.2,3.9-1.2c2.2,0,3.9,0.7,5.2,2.2c1.3,1.5,1.9,3.5,1.9,6.1v1.1H239v0.4
			c0,2,0.6,3.7,1.8,5.1c1.2,1.4,2.6,2,4.4,2c1.1,0,2-0.2,2.8-0.6s1.6-1,2.2-1.9l1.2,0.9C249.9,612.9,247.8,614,245,614z
			 M244.7,597.1c-1.5,0-2.8,0.5-3.8,1.6c-1,1.1-1.6,2.6-1.9,4.4h10.8v-0.2c-0.1-1.7-0.5-3.1-1.5-4.2S246.2,597.1,244.7,597.1z"/>
		<path class="st4" d="M257.5,595.7l0.1,2.9c0.7-1.1,1.5-1.9,2.5-2.4s2.1-0.8,3.3-0.8c2.8,0,4.6,1.2,5.4,3.5c0.6-1.1,1.5-2,2.6-2.6
			c1.1-0.6,2.3-0.9,3.6-0.9c3.9,0,5.8,2.1,5.9,6.3v12h-2v-11.8c0-1.6-0.4-2.8-1-3.6s-1.8-1.2-3.3-1.2c-1.4,0-2.6,0.5-3.6,1.4
			c-1,0.9-1.5,2-1.6,3.3v11.9h-2v-12c0-1.5-0.4-2.7-1.1-3.4c-0.7-0.8-1.8-1.1-3.3-1.1c-1.3,0-2.3,0.4-3.2,1.1
			c-0.9,0.7-1.6,1.8-2,3.2v12.3h-2v-18H257.5z"/>
		<path class="st4" d="M297.1,613.7c-0.2-0.6-0.3-1.4-0.4-2.5c-0.7,0.9-1.6,1.6-2.7,2.1c-1.1,0.5-2.2,0.7-3.4,0.7
			c-1.7,0-3.1-0.5-4.2-1.4c-1.1-1-1.6-2.2-1.6-3.7c0-1.7,0.7-3.1,2.2-4.2c1.5-1,3.5-1.5,6.1-1.5h3.6v-2c0-1.3-0.4-2.3-1.2-3
			c-0.8-0.7-1.9-1.1-3.5-1.1c-1.4,0-2.5,0.4-3.4,1.1c-0.9,0.7-1.4,1.6-1.4,2.6l-2,0c0-1.4,0.7-2.7,2-3.7c1.3-1,3-1.6,4.9-1.6
			c2,0,3.6,0.5,4.7,1.5c1.2,1,1.8,2.4,1.8,4.2v8.5c0,1.7,0.2,3,0.5,3.9v0.2H297.1z M290.9,612.2c1.3,0,2.5-0.3,3.6-1
			s1.8-1.5,2.3-2.6v-4h-3.6c-2,0-3.5,0.4-4.6,1.1c-1.1,0.7-1.7,1.7-1.7,2.9c0,1,0.4,1.8,1.1,2.5S289.7,612.2,290.9,612.2z"/>
		<path class="st4" d="M306.2,613.7h-2v-25.5h2V613.7z"/>
		<path class="st4" d="M318.6,614c-1.5,0-2.9-0.4-4.1-1.1c-1.2-0.8-2.2-1.8-2.9-3.1c-0.7-1.3-1-2.9-1-4.5v-0.7c0-1.7,0.3-3.3,1-4.7
			c0.7-1.4,1.6-2.5,2.8-3.3c1.2-0.8,2.5-1.2,3.9-1.2c2.2,0,3.9,0.7,5.2,2.2c1.3,1.5,1.9,3.5,1.9,6.1v1.1h-12.8v0.4
			c0,2,0.6,3.7,1.8,5.1c1.2,1.4,2.6,2,4.4,2c1.1,0,2-0.2,2.8-0.6s1.6-1,2.2-1.9l1.2,0.9C323.5,612.9,321.4,614,318.6,614z
			 M318.2,597.1c-1.5,0-2.8,0.5-3.8,1.6c-1,1.1-1.6,2.6-1.9,4.4h10.8v-0.2c-0.1-1.7-0.5-3.1-1.5-4.2S319.7,597.1,318.2,597.1z"/>
	</g>
	<g>
		<path class="st4" d="M71,527c0-0.7-0.3-1.3-0.8-1.7c-0.5-0.4-1.5-0.8-2.8-1.3c-1.4-0.4-2.5-0.9-3.3-1.3c-2.2-1.2-3.3-2.8-3.3-4.8
			c0-1,0.3-2,0.9-2.8c0.6-0.8,1.4-1.4,2.5-1.9c1.1-0.5,2.3-0.7,3.7-0.7c1.4,0,2.6,0.2,3.7,0.7c1.1,0.5,1.9,1.2,2.5,2.1
			c0.6,0.9,0.9,1.9,0.9,3.1h-4c0-0.9-0.3-1.6-0.8-2c-0.6-0.5-1.3-0.7-2.3-0.7c-1,0-1.7,0.2-2.3,0.6c-0.5,0.4-0.8,0.9-0.8,1.6
			c0,0.6,0.3,1.1,0.9,1.6s1.6,0.8,2.8,1.2c2.3,0.7,3.9,1.5,4.9,2.5s1.5,2.3,1.5,3.7c0,1.7-0.6,3-1.9,3.9c-1.3,0.9-2.9,1.4-5.1,1.4
			c-1.5,0-2.8-0.3-4-0.8c-1.2-0.5-2.1-1.3-2.8-2.2s-1-2-1-3.3h4c0,2.1,1.3,3.2,3.8,3.2c0.9,0,1.7-0.2,2.2-0.6
			C70.7,528.3,71,527.7,71,527z"/>
		<path class="st4" d="M81.8,532.1h-4v-19.2h4V532.1z"/>
		<path class="st4" d="M92.6,519.5l3.6-6.6h4.5l-5.6,9.5l5.7,9.7h-4.6l-3.7-6.7l-3.7,6.7h-4.6l5.7-9.7l-5.6-9.5H89L92.6,519.5z"/>
		<path class="st4" d="M117.3,516.1h-5.9v16h-4v-16h-5.8v-3.2h15.6V516.1z"/>
		<path class="st4" d="M126.4,521.5l4-8.6h4.3l-6.3,12.2v7h-4v-7l-6.3-12.2h4.3L126.4,521.5z"/>
		<path class="st4" d="M141.6,525.4h-7.4v-3.1h7.4V525.4z"/>
		<path class="st4" d="M156.5,523.8h-7.6v5.1h8.9v3.2h-12.9v-19.2h12.8v3.2h-8.9v4.6h7.6V523.8z"/>
		<path class="st4" d="M164.3,532.1h-4v-19.2h4V532.1z"/>
		<path class="st4" d="M183.2,529.7c-0.7,0.9-1.7,1.5-3,2c-1.3,0.5-2.7,0.7-4.3,0.7c-1.7,0-3.1-0.4-4.4-1.1
			c-1.3-0.7-2.2-1.8-2.9-3.2s-1-3-1-4.9v-1.3c0-1.9,0.3-3.6,1-5c0.6-1.4,1.6-2.5,2.8-3.2c1.2-0.7,2.6-1.1,4.3-1.1
			c2.3,0,4.1,0.5,5.3,1.6c1.3,1.1,2,2.7,2.3,4.7h-3.8c-0.2-1.1-0.6-1.9-1.2-2.4s-1.4-0.8-2.5-0.8c-1.3,0-2.4,0.5-3.1,1.5
			s-1.1,2.5-1.1,4.5v1.2c0,2,0.4,3.5,1.1,4.6s1.9,1.5,3.4,1.5c1.5,0,2.5-0.3,3.2-0.9v-3.3h-3.6V522h7.6V529.7z"/>
		<path class="st4" d="M202,532.1h-4v-8.2h-7.7v8.2h-4v-19.2h4v7.8h7.7v-7.8h4V532.1z"/>
		<path class="st4" d="M219.5,516.1h-5.9v16h-4v-16h-5.8v-3.2h15.6V516.1z"/>
		<path class="st4" d="M231.7,525.3v6.8h-4v-19.2h7.5c1.4,0,2.7,0.3,3.8,0.8c1.1,0.5,1.9,1.3,2.5,2.2c0.6,1,0.9,2.1,0.9,3.3
			c0,1.9-0.6,3.4-1.9,4.4c-1.3,1.1-3.1,1.6-5.3,1.6H231.7z M231.7,522.1h3.5c1,0,1.8-0.2,2.4-0.7s0.8-1.2,0.8-2.1
			c0-0.9-0.3-1.7-0.8-2.3s-1.3-0.9-2.3-0.9h-3.6V522.1z"/>
		<path class="st4" d="M256.7,523.8h-7.6v5.1h8.9v3.2h-12.9v-19.2H258v3.2h-8.9v4.6h7.6V523.8z"/>
		<path class="st4" d="M267.4,525.1h-3.2v7h-4v-19.2h7.1c2.3,0,4,0.5,5.2,1.5c1.2,1,1.8,2.4,1.8,4.3c0,1.3-0.3,2.4-0.9,3.3
			c-0.6,0.9-1.4,1.6-2.6,2.1l4.2,7.8v0.2H271L267.4,525.1z M264.3,521.9h3.2c1,0,1.8-0.3,2.3-0.8c0.5-0.5,0.8-1.2,0.8-2.1
			c0-0.9-0.3-1.6-0.8-2.1c-0.5-0.5-1.3-0.8-2.4-0.8h-3.2V521.9z"/>
		<path class="st4" d="M292.6,525.7c-0.1,2.1-0.9,3.7-2.3,4.9c-1.4,1.2-3.2,1.8-5.4,1.8c-2.5,0-4.4-0.8-5.8-2.5
			c-1.4-1.7-2.1-3.9-2.1-6.8v-1.2c0-1.8,0.3-3.5,1-4.9c0.7-1.4,1.6-2.5,2.8-3.2c1.2-0.8,2.6-1.1,4.2-1.1c2.2,0,4,0.6,5.4,1.8
			c1.4,1.2,2.1,2.9,2.3,5h-4c-0.1-1.2-0.4-2.1-1-2.7c-0.6-0.6-1.5-0.8-2.7-0.8c-1.3,0-2.3,0.5-3,1.4c-0.7,0.9-1,2.4-1,4.4v1.5
			c0,2.1,0.3,3.6,0.9,4.5s1.6,1.4,3,1.4c1.2,0,2.1-0.3,2.7-0.8c0.6-0.6,0.9-1.4,1-2.6H292.6z"/>
		<path class="st4" d="M306.8,523.8h-7.6v5.1h8.9v3.2h-12.9v-19.2H308v3.2h-8.9v4.6h7.6V523.8z"/>
		<path class="st4" d="M326,532.1h-4l-7.7-12.6v12.6h-4v-19.2h4l7.7,12.7v-12.7h3.9V532.1z"/>
		<path class="st4" d="M343.5,516.1h-5.9v16h-4v-16h-5.8v-3.2h15.6V516.1z"/>
	</g>
</g>
<g id="orange_x5F_text">
	<g>
		<path class="st5" d="M413.2,566.7c0-1.7,0.3-3.3,1-4.7c0.7-1.4,1.6-2.5,2.8-3.2c1.2-0.8,2.6-1.2,4.2-1.2c2.4,0,4.3,0.8,5.8,2.5
			c1.5,1.7,2.2,3.9,2.2,6.7v0.4c0,1.7-0.3,3.3-1,4.7c-0.7,1.4-1.6,2.5-2.8,3.2c-1.2,0.8-2.6,1.1-4.2,1.1c-2.4,0-4.3-0.8-5.8-2.5
			c-1.5-1.7-2.2-3.9-2.2-6.7V566.7z M415.1,567.2c0,2.1,0.6,3.9,1.7,5.3c1.1,1.4,2.6,2.1,4.4,2.1c1.8,0,3.2-0.7,4.4-2.1
			c1.1-1.4,1.7-3.2,1.7-5.5v-0.4c0-1.4-0.3-2.6-0.8-3.8c-0.5-1.1-1.2-2-2.1-2.6c-0.9-0.6-2-0.9-3.2-0.9c-1.8,0-3.2,0.7-4.3,2.1
			c-1.1,1.4-1.7,3.2-1.7,5.5V567.2z"/>
		<path class="st5" d="M434.7,575.9v-16.3h-3V558h3v-2.2c0-1.8,0.5-3.2,1.4-4.2c0.9-1,2.2-1.5,3.9-1.5c0.8,0,1.5,0.1,2.1,0.3
			L442,552c-0.6-0.1-1.2-0.2-1.8-0.2c-1.1,0-1.9,0.3-2.6,1c-0.6,0.7-0.9,1.7-0.9,2.9v2.2h4.3v1.6h-4.3v16.3H434.7z"/>
		<path class="st5" d="M454.2,575.9v-16.3h-3V558h3v-2.2c0-1.8,0.5-3.2,1.4-4.2c0.9-1,2.2-1.5,3.9-1.5c0.8,0,1.5,0.1,2.1,0.3
			l-0.1,1.6c-0.6-0.1-1.2-0.2-1.8-0.2c-1.1,0-1.9,0.3-2.6,1c-0.6,0.7-0.9,1.7-0.9,2.9v2.2h4.3v1.6h-4.3v16.3H454.2z"/>
		<path class="st5" d="M475.4,575.9c-0.2-0.6-0.3-1.4-0.4-2.5c-0.7,0.9-1.6,1.6-2.7,2.1c-1.1,0.5-2.2,0.7-3.4,0.7
			c-1.7,0-3.1-0.5-4.2-1.4c-1.1-1-1.6-2.2-1.6-3.7c0-1.7,0.7-3.1,2.2-4.2c1.5-1,3.5-1.5,6.1-1.5h3.6v-2c0-1.3-0.4-2.3-1.2-3
			c-0.8-0.7-1.9-1.1-3.5-1.1c-1.4,0-2.5,0.4-3.4,1.1c-0.9,0.7-1.4,1.6-1.4,2.6l-2,0c0-1.4,0.7-2.7,2-3.7c1.3-1,3-1.6,4.9-1.6
			c2,0,3.6,0.5,4.7,1.5c1.2,1,1.8,2.4,1.8,4.2v8.5c0,1.7,0.2,3,0.5,3.9v0.2H475.4z M469.2,574.5c1.3,0,2.5-0.3,3.6-1
			s1.8-1.5,2.3-2.6v-4h-3.6c-2,0-3.5,0.4-4.6,1.1c-1.1,0.7-1.7,1.7-1.7,2.9c0,1,0.4,1.8,1.1,2.5S468,574.5,469.2,574.5z"/>
		<path class="st5" d="M493,571.4c0-1-0.4-1.8-1.2-2.4c-0.8-0.6-2-1.1-3.6-1.4c-1.6-0.3-2.8-0.7-3.7-1.2c-0.9-0.4-1.5-1-2-1.6
			c-0.4-0.6-0.6-1.4-0.6-2.3c0-1.4,0.6-2.6,1.8-3.5c1.2-0.9,2.7-1.4,4.5-1.4c2,0,3.6,0.5,4.8,1.5c1.2,1,1.8,2.3,1.8,3.9h-2
			c0-1.1-0.4-1.9-1.3-2.6s-2-1-3.3-1c-1.3,0-2.4,0.3-3.1,0.9c-0.8,0.6-1.2,1.3-1.2,2.3c0,0.9,0.3,1.6,1,2.1c0.7,0.5,1.9,0.9,3.6,1.4
			s3,0.8,3.9,1.3c0.9,0.5,1.5,1,1.9,1.7c0.4,0.7,0.6,1.4,0.6,2.4c0,1.5-0.6,2.7-1.8,3.6c-1.2,0.9-2.8,1.4-4.8,1.4
			c-2.1,0-3.8-0.5-5.1-1.5c-1.3-1-2-2.3-2-3.8h2c0.1,1.2,0.6,2.1,1.5,2.7c0.9,0.6,2.1,1,3.6,1c1.4,0,2.5-0.3,3.4-0.9
			C492.6,573.1,493,572.3,493,571.4z"/>
		<path class="st5" d="M501.5,561c0.7-1.1,1.5-1.9,2.5-2.5c1-0.6,2.1-0.9,3.3-0.9c1.9,0,3.4,0.5,4.3,1.6c0.9,1.1,1.4,2.7,1.4,4.9
			v11.8h-2v-11.8c0-1.6-0.4-2.8-1-3.6c-0.7-0.8-1.7-1.2-3.2-1.2c-1.2,0-2.3,0.4-3.3,1.2c-0.9,0.8-1.6,1.8-2.1,3.1v12.3h-2v-25.5h2
			V561z"/>
		<path class="st5" d="M518,552.8c0-0.4,0.1-0.7,0.4-0.9c0.2-0.3,0.6-0.4,1-0.4c0.4,0,0.8,0.1,1,0.4c0.2,0.3,0.4,0.6,0.4,0.9
			c0,0.4-0.1,0.7-0.4,0.9c-0.2,0.3-0.6,0.4-1,0.4c-0.4,0-0.8-0.1-1-0.4C518.2,553.5,518,553.1,518,552.8z M520.4,575.9h-2v-18h2
			V575.9z"/>
		<path class="st5" d="M524.7,566.7c0-1.7,0.3-3.3,1-4.7c0.7-1.4,1.6-2.5,2.8-3.2c1.2-0.8,2.6-1.2,4.2-1.2c2.4,0,4.3,0.8,5.8,2.5
			c1.5,1.7,2.2,3.9,2.2,6.7v0.4c0,1.7-0.3,3.3-1,4.7c-0.7,1.4-1.6,2.5-2.8,3.2c-1.2,0.8-2.6,1.1-4.2,1.1c-2.4,0-4.3-0.8-5.8-2.5
			c-1.5-1.7-2.2-3.9-2.2-6.7V566.7z M526.7,567.2c0,2.1,0.6,3.9,1.7,5.3c1.1,1.4,2.6,2.1,4.4,2.1c1.8,0,3.2-0.7,4.4-2.1
			c1.1-1.4,1.7-3.2,1.7-5.5v-0.4c0-1.4-0.3-2.6-0.8-3.8c-0.5-1.1-1.2-2-2.1-2.6c-0.9-0.6-2-0.9-3.2-0.9c-1.8,0-3.2,0.7-4.3,2.1
			c-1.1,1.4-1.7,3.2-1.7,5.5V567.2z"/>
		<path class="st5" d="M546.7,558l0.1,3.1c0.7-1.1,1.5-2,2.5-2.5c1-0.6,2.1-0.9,3.3-0.9c1.9,0,3.4,0.5,4.3,1.6
			c0.9,1.1,1.4,2.7,1.4,4.9v11.8h-2v-11.8c0-1.6-0.4-2.8-1-3.6c-0.7-0.8-1.7-1.2-3.2-1.2c-1.2,0-2.3,0.4-3.3,1.2
			c-0.9,0.8-1.6,1.8-2.1,3.1v12.3h-2v-18H546.7z"/>
		<path class="st5" d="M586.2,567.1c0,2.8-0.6,5-1.9,6.7c-1.2,1.6-2.9,2.5-5,2.5c-2.5,0-4.4-0.9-5.7-2.8l-0.1,2.5h-1.9v-25.5h2v10.1
			c1.3-2,3.1-2.9,5.6-2.9c2.1,0,3.8,0.8,5,2.4c1.2,1.6,1.9,3.9,1.9,6.8V567.1z M584.2,566.8c0-2.4-0.5-4.2-1.4-5.5
			c-0.9-1.3-2.2-1.9-3.9-1.9c-1.3,0-2.4,0.3-3.2,0.9c-0.9,0.6-1.6,1.5-2,2.7v8.1c1,2.3,2.8,3.4,5.3,3.4c1.6,0,2.9-0.6,3.8-1.9
			C583.8,571.3,584.2,569.4,584.2,566.8z"/>
		<path class="st5" d="M598.9,559.7c-0.4-0.1-0.9-0.1-1.3-0.1c-1.2,0-2.3,0.3-3.1,1c-0.9,0.7-1.5,1.7-1.8,3v12.3h-2v-18h1.9l0,2.9
			c1.1-2.1,2.7-3.2,5.1-3.2c0.6,0,1,0.1,1.3,0.2L598.9,559.7z"/>
		<path class="st5" d="M612.7,575.9c-0.2-0.6-0.3-1.4-0.4-2.5c-0.7,0.9-1.6,1.6-2.7,2.1c-1.1,0.5-2.2,0.7-3.4,0.7
			c-1.7,0-3.1-0.5-4.2-1.4c-1.1-1-1.6-2.2-1.6-3.7c0-1.7,0.7-3.1,2.2-4.2c1.5-1,3.5-1.5,6.1-1.5h3.6v-2c0-1.3-0.4-2.3-1.2-3
			c-0.8-0.7-1.9-1.1-3.5-1.1c-1.4,0-2.5,0.4-3.4,1.1c-0.9,0.7-1.4,1.6-1.4,2.6l-2,0c0-1.4,0.7-2.7,2-3.7c1.3-1,3-1.6,4.9-1.6
			c2,0,3.6,0.5,4.7,1.5c1.2,1,1.8,2.4,1.8,4.2v8.5c0,1.7,0.2,3,0.5,3.9v0.2H612.7z M606.5,574.5c1.3,0,2.5-0.3,3.6-1
			s1.8-1.5,2.3-2.6v-4h-3.6c-2,0-3.5,0.4-4.6,1.1c-1.1,0.7-1.7,1.7-1.7,2.9c0,1,0.4,1.8,1.1,2.5S605.3,574.5,606.5,574.5z"/>
		<path class="st5" d="M621.5,558l0.1,3.1c0.7-1.1,1.5-2,2.5-2.5c1-0.6,2.1-0.9,3.3-0.9c1.9,0,3.4,0.5,4.3,1.6
			c0.9,1.1,1.4,2.7,1.4,4.9v11.8h-2v-11.8c0-1.6-0.4-2.8-1-3.6c-0.7-0.8-1.7-1.2-3.2-1.2c-1.2,0-2.3,0.4-3.3,1.2
			c-0.9,0.8-1.6,1.8-2.1,3.1v12.3h-2v-18H621.5z"/>
		<path class="st5" d="M637.5,566.8c0-2.8,0.6-5,1.9-6.7c1.2-1.7,2.9-2.5,5.1-2.5c2.4,0,4.3,1,5.5,2.9v-10.1h2v25.5h-1.9l-0.1-2.4
			c-1.3,1.8-3.1,2.7-5.6,2.7c-2.1,0-3.7-0.8-5-2.5c-1.3-1.7-1.9-3.9-1.9-6.7V566.8z M639.5,567.1c0,2.3,0.5,4.1,1.4,5.4
			c0.9,1.3,2.2,2,3.9,2c2.4,0,4.2-1.1,5.2-3.2v-8.4c-1-2.3-2.8-3.5-5.2-3.5c-1.7,0-3,0.7-3.9,2C640,562.6,639.5,564.6,639.5,567.1z"
			/>
		<path class="st5" d="M667.9,571.4c0-1-0.4-1.8-1.2-2.4c-0.8-0.6-2-1.1-3.6-1.4c-1.6-0.3-2.8-0.7-3.7-1.2c-0.9-0.4-1.5-1-2-1.6
			c-0.4-0.6-0.6-1.4-0.6-2.3c0-1.4,0.6-2.6,1.8-3.5c1.2-0.9,2.7-1.4,4.5-1.4c2,0,3.6,0.5,4.8,1.5c1.2,1,1.8,2.3,1.8,3.9h-2
			c0-1.1-0.4-1.9-1.3-2.6s-2-1-3.3-1c-1.3,0-2.4,0.3-3.1,0.9c-0.8,0.6-1.2,1.3-1.2,2.3c0,0.9,0.3,1.6,1,2.1c0.7,0.5,1.9,0.9,3.6,1.4
			s3,0.8,3.9,1.3c0.9,0.5,1.5,1,1.9,1.7c0.4,0.7,0.6,1.4,0.6,2.4c0,1.5-0.6,2.7-1.8,3.6c-1.2,0.9-2.8,1.4-4.8,1.4
			c-2.1,0-3.8-0.5-5.1-1.5c-1.3-1-2-2.3-2-3.8h2c0.1,1.2,0.6,2.1,1.5,2.7c0.9,0.6,2.1,1,3.6,1c1.4,0,2.5-0.3,3.4-0.9
			C667.5,573.1,667.9,572.3,667.9,571.4z"/>
		<path class="st5" d="M429.1,613.9c-0.2-0.6-0.3-1.4-0.4-2.5c-0.7,0.9-1.6,1.6-2.7,2.1c-1.1,0.5-2.2,0.7-3.4,0.7
			c-1.7,0-3.1-0.5-4.2-1.4c-1.1-1-1.6-2.2-1.6-3.7c0-1.7,0.7-3.1,2.2-4.2c1.5-1,3.5-1.5,6.1-1.5h3.6v-2c0-1.3-0.4-2.3-1.2-3
			c-0.8-0.7-1.9-1.1-3.5-1.1c-1.4,0-2.5,0.4-3.4,1.1c-0.9,0.7-1.4,1.6-1.4,2.6l-2,0c0-1.4,0.7-2.7,2-3.7c1.3-1,3-1.6,4.9-1.6
			c2,0,3.6,0.5,4.7,1.5c1.2,1,1.8,2.4,1.8,4.2v8.5c0,1.7,0.2,3,0.5,3.9v0.2H429.1z M422.8,612.5c1.3,0,2.5-0.3,3.6-1
			s1.8-1.5,2.3-2.6v-4h-3.6c-2,0-3.5,0.4-4.6,1.1c-1.1,0.7-1.7,1.7-1.7,2.9c0,1,0.4,1.8,1.1,2.5S421.6,612.5,422.8,612.5z"/>
		<path class="st5" d="M444.2,597.7c-0.4-0.1-0.9-0.1-1.3-0.1c-1.2,0-2.3,0.3-3.1,1c-0.9,0.7-1.5,1.7-1.8,3v12.3h-2v-18h1.9l0,2.9
			c1.1-2.1,2.7-3.2,5.1-3.2c0.6,0,1,0.1,1.3,0.2L444.2,597.7z"/>
		<path class="st5" d="M454,614.3c-1.5,0-2.9-0.4-4.1-1.1c-1.2-0.8-2.2-1.8-2.9-3.1c-0.7-1.3-1-2.9-1-4.5v-0.7c0-1.7,0.3-3.3,1-4.7
			c0.7-1.4,1.6-2.5,2.8-3.3c1.2-0.8,2.5-1.2,3.9-1.2c2.2,0,3.9,0.7,5.2,2.2c1.3,1.5,1.9,3.5,1.9,6.1v1.1h-12.8v0.4
			c0,2,0.6,3.7,1.8,5.1c1.2,1.4,2.6,2,4.4,2c1.1,0,2-0.2,2.8-0.6s1.6-1,2.2-1.9l1.2,0.9C458.9,613.2,456.8,614.3,454,614.3z
			 M453.6,597.3c-1.5,0-2.8,0.5-3.8,1.6c-1,1.1-1.6,2.6-1.9,4.4h10.8v-0.2c-0.1-1.7-0.5-3.1-1.5-4.2S455.1,597.3,453.6,597.3z"/>
		<path class="st5" d="M471.8,604.7c0-1.7,0.3-3.3,1-4.7c0.7-1.4,1.6-2.5,2.8-3.2c1.2-0.8,2.6-1.2,4.2-1.2c2.4,0,4.3,0.8,5.8,2.5
			c1.5,1.7,2.2,3.9,2.2,6.7v0.4c0,1.7-0.3,3.3-1,4.7c-0.7,1.4-1.6,2.5-2.8,3.2c-1.2,0.8-2.6,1.1-4.2,1.1c-2.4,0-4.3-0.8-5.8-2.5
			c-1.5-1.7-2.2-3.9-2.2-6.7V604.7z M473.8,605.2c0,2.1,0.6,3.9,1.7,5.3c1.1,1.4,2.6,2.1,4.4,2.1c1.8,0,3.2-0.7,4.4-2.1
			c1.1-1.4,1.7-3.2,1.7-5.5v-0.4c0-1.4-0.3-2.6-0.8-3.8c-0.5-1.1-1.2-2-2.1-2.6c-0.9-0.6-2-0.9-3.2-0.9c-1.8,0-3.2,0.7-4.3,2.1
			c-1.1,1.4-1.7,3.2-1.7,5.5V605.2z"/>
		<path class="st5" d="M493.8,596l0.1,3.1c0.7-1.1,1.5-2,2.5-2.5c1-0.6,2.1-0.9,3.3-0.9c1.9,0,3.4,0.5,4.3,1.6
			c0.9,1.1,1.4,2.7,1.4,4.9v11.8h-2v-11.8c0-1.6-0.4-2.8-1-3.6c-0.7-0.8-1.7-1.2-3.2-1.2c-1.2,0-2.3,0.4-3.3,1.2
			c-0.9,0.8-1.6,1.8-2.1,3.1v12.3h-2v-18H493.8z"/>
		<path class="st5" d="M521.8,613.9h-2v-24.2h2V613.9z"/>
		<path class="st5" d="M529.8,596l0.1,3.1c0.7-1.1,1.5-2,2.5-2.5c1-0.6,2.1-0.9,3.3-0.9c1.9,0,3.4,0.5,4.3,1.6
			c0.9,1.1,1.4,2.7,1.4,4.9v11.8h-2v-11.8c0-1.6-0.4-2.8-1-3.6c-0.7-0.8-1.7-1.2-3.2-1.2c-1.2,0-2.3,0.4-3.3,1.2
			c-0.9,0.8-1.6,1.8-2.1,3.1v12.3h-2v-18H529.8z"/>
		<path class="st5" d="M557.4,609.4c0-1-0.4-1.8-1.2-2.4c-0.8-0.6-2-1.1-3.6-1.4c-1.6-0.3-2.8-0.7-3.7-1.2c-0.9-0.4-1.5-1-2-1.6
			c-0.4-0.6-0.6-1.4-0.6-2.3c0-1.4,0.6-2.6,1.8-3.5c1.2-0.9,2.7-1.4,4.5-1.4c2,0,3.6,0.5,4.8,1.5c1.2,1,1.8,2.3,1.8,3.9h-2
			c0-1.1-0.4-1.9-1.3-2.6s-2-1-3.3-1c-1.3,0-2.4,0.3-3.1,0.9c-0.8,0.6-1.2,1.3-1.2,2.3c0,0.9,0.3,1.6,1,2.1c0.7,0.5,1.9,0.9,3.6,1.4
			s3,0.8,3.9,1.3c0.9,0.5,1.5,1,1.9,1.7c0.4,0.7,0.6,1.4,0.6,2.4c0,1.5-0.6,2.7-1.8,3.6c-1.2,0.9-2.8,1.4-4.8,1.4
			c-2.1,0-3.8-0.5-5.1-1.5c-1.3-1-2-2.3-2-3.8h2c0.1,1.2,0.6,2.1,1.5,2.7c0.9,0.6,2.1,1,3.6,1c1.4,0,2.5-0.3,3.4-0.9
			C556.9,611.1,557.4,610.3,557.4,609.4z"/>
		<path class="st5" d="M566.9,591.4v4.6h3.7v1.6h-3.7v12c0,1,0.2,1.7,0.5,2.2c0.4,0.5,1,0.7,1.8,0.7c0.3,0,0.9-0.1,1.6-0.2l0.1,1.6
			c-0.5,0.2-1.2,0.3-2.1,0.3c-1.4,0-2.4-0.4-3-1.2c-0.6-0.8-0.9-2-0.9-3.5v-12h-3.3V596h3.3v-4.6H566.9z"/>
		<path class="st5" d="M586.1,613.9c-0.2-0.6-0.3-1.4-0.4-2.5c-0.7,0.9-1.6,1.6-2.7,2.1c-1.1,0.5-2.2,0.7-3.4,0.7
			c-1.7,0-3.1-0.5-4.2-1.4c-1.1-1-1.6-2.2-1.6-3.7c0-1.7,0.7-3.1,2.2-4.2c1.5-1,3.5-1.5,6.1-1.5h3.6v-2c0-1.3-0.4-2.3-1.2-3
			c-0.8-0.7-1.9-1.1-3.5-1.1c-1.4,0-2.5,0.4-3.4,1.1c-0.9,0.7-1.4,1.6-1.4,2.6l-2,0c0-1.4,0.7-2.7,2-3.7c1.3-1,3-1.6,4.9-1.6
			c2,0,3.6,0.5,4.7,1.5c1.2,1,1.8,2.4,1.8,4.2v8.5c0,1.7,0.2,3,0.5,3.9v0.2H586.1z M579.8,612.5c1.3,0,2.5-0.3,3.6-1
			s1.8-1.5,2.3-2.6v-4h-3.6c-2,0-3.5,0.4-4.6,1.1c-1.1,0.7-1.7,1.7-1.7,2.9c0,1,0.4,1.8,1.1,2.5S578.6,612.5,579.8,612.5z"/>
		<path class="st5" d="M592.1,604.8c0-2.8,0.6-5,1.9-6.7c1.2-1.6,2.9-2.5,5.1-2.5c2.4,0,4.3,1,5.6,2.9l0.1-2.6h1.9v17.6
			c0,2.3-0.6,4.1-1.9,5.5s-3,2-5.3,2c-1.3,0-2.4-0.3-3.6-0.8c-1.1-0.6-2-1.3-2.7-2.2l1.1-1.2c1.4,1.7,3.1,2.6,5,2.6
			c1.7,0,3-0.5,3.9-1.5c0.9-1,1.4-2.3,1.4-4.1v-2.3c-1.3,1.8-3.1,2.7-5.6,2.7c-2.1,0-3.8-0.8-5-2.5s-1.9-3.9-1.9-6.7V604.8z
			 M594.2,605.1c0,2.3,0.5,4.1,1.4,5.4c0.9,1.3,2.2,2,3.9,2c2.4,0,4.2-1.1,5.2-3.3v-8.4c-0.5-1.2-1.1-2-2-2.6
			c-0.9-0.6-1.9-0.9-3.2-0.9c-1.7,0-3,0.7-3.9,2C594.6,600.6,594.2,602.6,594.2,605.1z"/>
		<path class="st5" d="M620.1,597.7c-0.4-0.1-0.9-0.1-1.3-0.1c-1.2,0-2.3,0.3-3.1,1c-0.9,0.7-1.5,1.7-1.8,3v12.3h-2v-18h1.9l0,2.9
			c1.1-2.1,2.7-3.2,5.1-3.2c0.6,0,1,0.1,1.3,0.2L620.1,597.7z"/>
		<path class="st5" d="M633.9,613.9c-0.2-0.6-0.3-1.4-0.4-2.5c-0.7,0.9-1.6,1.6-2.7,2.1c-1.1,0.5-2.2,0.7-3.4,0.7
			c-1.7,0-3.1-0.5-4.2-1.4c-1.1-1-1.6-2.2-1.6-3.7c0-1.7,0.7-3.1,2.2-4.2c1.5-1,3.5-1.5,6.1-1.5h3.6v-2c0-1.3-0.4-2.3-1.2-3
			c-0.8-0.7-1.9-1.1-3.5-1.1c-1.4,0-2.5,0.4-3.4,1.1c-0.9,0.7-1.4,1.6-1.4,2.6l-2,0c0-1.4,0.7-2.7,2-3.7c1.3-1,3-1.6,4.9-1.6
			c2,0,3.6,0.5,4.7,1.5c1.2,1,1.8,2.4,1.8,4.2v8.5c0,1.7,0.2,3,0.5,3.9v0.2H633.9z M627.7,612.5c1.3,0,2.5-0.3,3.6-1
			s1.8-1.5,2.3-2.6v-4H630c-2,0-3.5,0.4-4.6,1.1c-1.1,0.7-1.7,1.7-1.7,2.9c0,1,0.4,1.8,1.1,2.5S626.5,612.5,627.7,612.5z"/>
		<path class="st5" d="M642.6,596l0.1,2.9c0.7-1.1,1.5-1.9,2.5-2.4s2.1-0.8,3.3-0.8c2.8,0,4.6,1.2,5.4,3.5c0.6-1.1,1.5-2,2.6-2.6
			c1.1-0.6,2.3-0.9,3.6-0.9c3.9,0,5.8,2.1,5.9,6.3v12h-2v-11.8c0-1.6-0.4-2.8-1-3.6s-1.8-1.2-3.3-1.2c-1.4,0-2.6,0.5-3.6,1.4
			c-1,0.9-1.5,2-1.6,3.3v11.9h-2v-12c0-1.5-0.4-2.7-1.1-3.4c-0.7-0.8-1.8-1.1-3.3-1.1c-1.3,0-2.3,0.4-3.2,1.1
			c-0.9,0.7-1.6,1.8-2,3.2v12.3h-2v-18H642.6z"/>
	</g>
	<g>
		<path class="st5" d="M406.6,531.5h-4l-7.7-12.6v12.6h-4v-19.2h4l7.7,12.7v-12.7h3.9V531.5z"/>
		<path class="st5" d="M414.2,531.5h-4v-19.2h4V531.5z"/>
		<path class="st5" d="M433.5,531.5h-4l-7.7-12.6v12.6h-4v-19.2h4l7.7,12.7v-12.7h3.9V531.5z"/>
		<path class="st5" d="M448.5,523.2h-7.6v5.1h8.9v3.2H437v-19.2h12.8v3.2h-8.9v4.6h7.6V523.2z"/>
		<path class="st5" d="M466.9,515.5H461v16h-4v-16h-5.8v-3.2h15.6V515.5z"/>
		<path class="st5" d="M476,521l4-8.6h4.3l-6.3,12.2v7h-4v-7l-6.3-12.2h4.3L476,521z"/>
		<path class="st5" d="M491.2,524.8h-7.4v-3.1h7.4V524.8z"/>
		<path class="st5" d="M506,523.2h-7.6v5.1h8.9v3.2h-12.9v-19.2h12.8v3.2h-8.9v4.6h7.6V523.2z"/>
		<path class="st5" d="M513.9,531.5h-4v-19.2h4V531.5z"/>
		<path class="st5" d="M532.7,529.1c-0.7,0.9-1.7,1.5-3,2c-1.3,0.5-2.7,0.7-4.3,0.7c-1.7,0-3.1-0.4-4.4-1.1
			c-1.3-0.7-2.2-1.8-2.9-3.2s-1-3-1-4.9v-1.3c0-1.9,0.3-3.6,1-5c0.6-1.4,1.6-2.5,2.8-3.2c1.2-0.7,2.6-1.1,4.3-1.1
			c2.3,0,4.1,0.5,5.3,1.6c1.3,1.1,2,2.7,2.3,4.7h-3.8c-0.2-1.1-0.6-1.9-1.2-2.4s-1.4-0.8-2.5-0.8c-1.3,0-2.4,0.5-3.1,1.5
			s-1.1,2.5-1.1,4.5v1.2c0,2,0.4,3.5,1.1,4.6s1.9,1.5,3.4,1.5c1.5,0,2.5-0.3,3.2-0.9v-3.3h-3.6v-2.9h7.6V529.1z"/>
		<path class="st5" d="M551.6,531.5h-4v-8.2h-7.7v8.2h-4v-19.2h4v7.8h7.7v-7.8h4V531.5z"/>
		<path class="st5" d="M569.1,515.5h-5.9v16h-4v-16h-5.8v-3.2h15.6V515.5z"/>
		<path class="st5" d="M581.2,524.8v6.8h-4v-19.2h7.5c1.4,0,2.7,0.3,3.8,0.8c1.1,0.5,1.9,1.3,2.5,2.2c0.6,1,0.9,2.1,0.9,3.3
			c0,1.9-0.6,3.4-1.9,4.4c-1.3,1.1-3.1,1.6-5.3,1.6H581.2z M581.2,521.6h3.5c1,0,1.8-0.2,2.4-0.7s0.8-1.2,0.8-2.1
			c0-0.9-0.3-1.7-0.8-2.3s-1.3-0.9-2.3-0.9h-3.6V521.6z"/>
		<path class="st5" d="M606.2,523.2h-7.6v5.1h8.9v3.2h-12.9v-19.2h12.8v3.2h-8.9v4.6h7.6V523.2z"/>
		<path class="st5" d="M617,524.5h-3.2v7h-4v-19.2h7.1c2.3,0,4,0.5,5.2,1.5c1.2,1,1.8,2.4,1.8,4.3c0,1.3-0.3,2.4-0.9,3.3
			c-0.6,0.9-1.4,1.6-2.6,2.1l4.2,7.8v0.2h-4.2L617,524.5z M613.8,521.3h3.2c1,0,1.8-0.3,2.3-0.8c0.5-0.5,0.8-1.2,0.8-2.1
			c0-0.9-0.3-1.6-0.8-2.1c-0.5-0.5-1.3-0.8-2.4-0.8h-3.2V521.3z"/>
		<path class="st5" d="M642.2,525.1c-0.1,2.1-0.9,3.7-2.3,4.9c-1.4,1.2-3.2,1.8-5.4,1.8c-2.5,0-4.4-0.8-5.8-2.5
			c-1.4-1.7-2.1-3.9-2.1-6.8v-1.2c0-1.8,0.3-3.5,1-4.9c0.7-1.4,1.6-2.5,2.8-3.2c1.2-0.8,2.6-1.1,4.2-1.1c2.2,0,4,0.6,5.4,1.8
			c1.4,1.2,2.1,2.9,2.3,5h-4c-0.1-1.2-0.4-2.1-1-2.7c-0.6-0.6-1.5-0.8-2.7-0.8c-1.3,0-2.3,0.5-3,1.4c-0.7,0.9-1,2.4-1,4.4v1.5
			c0,2.1,0.3,3.6,0.9,4.5s1.6,1.4,3,1.4c1.2,0,2.1-0.3,2.7-0.8c0.6-0.6,0.9-1.4,1-2.6H642.2z"/>
		<path class="st5" d="M656.3,523.2h-7.6v5.1h8.9v3.2h-12.9v-19.2h12.8v3.2h-8.9v4.6h7.6V523.2z"/>
		<path class="st5" d="M675.6,531.5h-4l-7.7-12.6v12.6h-4v-19.2h4l7.7,12.7v-12.7h3.9V531.5z"/>
		<path class="st5" d="M693.1,515.5h-5.9v16h-4v-16h-5.8v-3.2h15.6V515.5z"/>
	</g>
</g>
<g id="green_x5F_text">
	<g>
		<path class="st6" d="M742.5,567.4c0-1.7,0.3-3.3,1-4.7c0.7-1.4,1.6-2.5,2.8-3.2c1.2-0.8,2.6-1.2,4.2-1.2c2.4,0,4.3,0.8,5.8,2.5
			c1.5,1.7,2.2,3.9,2.2,6.7v0.4c0,1.7-0.3,3.3-1,4.7c-0.7,1.4-1.6,2.5-2.8,3.2c-1.2,0.8-2.6,1.1-4.2,1.1c-2.4,0-4.3-0.8-5.8-2.5
			c-1.5-1.7-2.2-3.9-2.2-6.7V567.4z M744.5,568c0,2.1,0.6,3.9,1.7,5.3c1.1,1.4,2.6,2.1,4.4,2.1c1.8,0,3.2-0.7,4.4-2.1
			c1.1-1.4,1.7-3.2,1.7-5.5v-0.4c0-1.4-0.3-2.6-0.8-3.8c-0.5-1.1-1.2-2-2.1-2.6c-0.9-0.6-2-0.9-3.2-0.9c-1.8,0-3.2,0.7-4.3,2.1
			c-1.1,1.4-1.7,3.2-1.7,5.5V568z"/>
		<path class="st6" d="M764,576.7v-16.3h-3v-1.6h3v-2.2c0-1.8,0.5-3.2,1.4-4.2c0.9-1,2.2-1.5,3.9-1.5c0.8,0,1.5,0.1,2.1,0.3
			l-0.1,1.6c-0.6-0.1-1.2-0.2-1.8-0.2c-1.1,0-1.9,0.3-2.6,1c-0.6,0.7-0.9,1.7-0.9,2.9v2.2h4.3v1.6H766v16.3H764z"/>
		<path class="st6" d="M785.2,554.1v4.6h3.7v1.6h-3.7v12c0,1,0.2,1.7,0.5,2.2c0.4,0.5,1,0.7,1.8,0.7c0.3,0,0.9-0.1,1.6-0.2l0.1,1.6
			c-0.5,0.2-1.2,0.3-2.1,0.3c-1.4,0-2.4-0.4-3-1.2c-0.6-0.8-0.9-2-0.9-3.5v-12h-3.3v-1.6h3.3v-4.6H785.2z"/>
		<path class="st6" d="M800,577c-1.5,0-2.9-0.4-4.1-1.1c-1.2-0.8-2.2-1.8-2.9-3.1c-0.7-1.3-1-2.9-1-4.5v-0.7c0-1.7,0.3-3.3,1-4.7
			c0.7-1.4,1.6-2.5,2.8-3.3c1.2-0.8,2.5-1.2,3.9-1.2c2.2,0,3.9,0.7,5.2,2.2c1.3,1.5,1.9,3.5,1.9,6.1v1.1h-12.8v0.4
			c0,2,0.6,3.7,1.8,5.1c1.2,1.4,2.6,2,4.4,2c1.1,0,2-0.2,2.8-0.6s1.6-1,2.2-1.9l1.2,0.9C804.9,575.9,802.8,577,800,577z
			 M799.6,560.1c-1.5,0-2.8,0.5-3.8,1.6c-1,1.1-1.6,2.6-1.9,4.4h10.8v-0.2c-0.1-1.7-0.5-3.1-1.5-4.2S801.1,560.1,799.6,560.1z"/>
		<path class="st6" d="M817.6,577c-1.5,0-2.9-0.4-4.1-1.1c-1.2-0.8-2.2-1.8-2.9-3.1c-0.7-1.3-1-2.9-1-4.5v-0.7c0-1.7,0.3-3.3,1-4.7
			c0.7-1.4,1.6-2.5,2.8-3.3c1.2-0.8,2.5-1.2,3.9-1.2c2.2,0,3.9,0.7,5.2,2.2c1.3,1.5,1.9,3.5,1.9,6.1v1.1h-12.8v0.4
			c0,2,0.6,3.7,1.8,5.1c1.2,1.4,2.6,2,4.4,2c1.1,0,2-0.2,2.8-0.6s1.6-1,2.2-1.9l1.2,0.9C822.5,575.9,820.3,577,817.6,577z
			 M817.2,560.1c-1.5,0-2.8,0.5-3.8,1.6c-1,1.1-1.6,2.6-1.9,4.4h10.8v-0.2c-0.1-1.7-0.5-3.1-1.5-4.2S818.7,560.1,817.2,560.1z"/>
		<path class="st6" d="M830.1,558.7l0.1,3.1c0.7-1.1,1.5-2,2.5-2.5c1-0.6,2.1-0.9,3.3-0.9c1.9,0,3.4,0.5,4.3,1.6
			c0.9,1.1,1.4,2.7,1.4,4.9v11.8h-2v-11.8c0-1.6-0.4-2.8-1-3.6c-0.7-0.8-1.7-1.2-3.2-1.2c-1.2,0-2.3,0.4-3.3,1.2
			c-0.9,0.8-1.6,1.8-2.1,3.1v12.3h-2v-18H830.1z"/>
		<path class="st6" d="M857.6,572.1c0-1-0.4-1.8-1.2-2.4c-0.8-0.6-2-1.1-3.6-1.4c-1.6-0.3-2.8-0.7-3.7-1.2c-0.9-0.4-1.5-1-2-1.6
			c-0.4-0.6-0.6-1.4-0.6-2.3c0-1.4,0.6-2.6,1.8-3.5c1.2-0.9,2.7-1.4,4.5-1.4c2,0,3.6,0.5,4.8,1.5c1.2,1,1.8,2.3,1.8,3.9h-2
			c0-1.1-0.4-1.9-1.3-2.6s-2-1-3.3-1c-1.3,0-2.4,0.3-3.1,0.9c-0.8,0.6-1.2,1.3-1.2,2.3c0,0.9,0.3,1.6,1,2.1c0.7,0.5,1.9,0.9,3.6,1.4
			s3,0.8,3.9,1.3c0.9,0.5,1.5,1,1.9,1.7c0.4,0.7,0.6,1.4,0.6,2.4c0,1.5-0.6,2.7-1.8,3.6c-1.2,0.9-2.8,1.4-4.8,1.4
			c-2.1,0-3.8-0.5-5.1-1.5c-1.3-1-2-2.3-2-3.8h2c0.1,1.2,0.6,2.1,1.5,2.7c0.9,0.6,2.1,1,3.6,1c1.4,0,2.5-0.3,3.4-0.9
			C857.2,573.8,857.6,573,857.6,572.1z"/>
		<path class="st6" d="M883.7,576.7c-0.2-0.6-0.3-1.4-0.4-2.5c-0.7,0.9-1.6,1.6-2.7,2.1c-1.1,0.5-2.2,0.7-3.4,0.7
			c-1.7,0-3.1-0.5-4.2-1.4c-1.1-1-1.6-2.2-1.6-3.7c0-1.7,0.7-3.1,2.2-4.2c1.5-1,3.5-1.5,6.1-1.5h3.6v-2c0-1.3-0.4-2.3-1.2-3
			c-0.8-0.7-1.9-1.1-3.5-1.1c-1.4,0-2.5,0.4-3.4,1.1c-0.9,0.7-1.4,1.6-1.4,2.6l-2,0c0-1.4,0.7-2.7,2-3.7c1.3-1,3-1.6,4.9-1.6
			c2,0,3.6,0.5,4.7,1.5c1.2,1,1.8,2.4,1.8,4.2v8.5c0,1.7,0.2,3,0.5,3.9v0.2H883.7z M877.4,575.2c1.3,0,2.5-0.3,3.6-1
			s1.8-1.5,2.3-2.6v-4h-3.6c-2,0-3.5,0.4-4.6,1.1c-1.1,0.7-1.7,1.7-1.7,2.9c0,1,0.4,1.8,1.1,2.5S876.2,575.2,877.4,575.2z"/>
		<path class="st6" d="M898.8,560.4c-0.4-0.1-0.9-0.1-1.3-0.1c-1.2,0-2.3,0.3-3.1,1c-0.9,0.7-1.5,1.7-1.8,3v12.3h-2v-18h1.9l0,2.9
			c1.1-2.1,2.7-3.2,5.1-3.2c0.6,0,1,0.1,1.3,0.2L898.8,560.4z"/>
		<path class="st6" d="M908.6,577c-1.5,0-2.9-0.4-4.1-1.1c-1.2-0.8-2.2-1.8-2.9-3.1c-0.7-1.3-1-2.9-1-4.5v-0.7c0-1.7,0.3-3.3,1-4.7
			c0.7-1.4,1.6-2.5,2.8-3.3c1.2-0.8,2.5-1.2,3.9-1.2c2.2,0,3.9,0.7,5.2,2.2c1.3,1.5,1.9,3.5,1.9,6.1v1.1h-12.8v0.4
			c0,2,0.6,3.7,1.8,5.1c1.2,1.4,2.6,2,4.4,2c1.1,0,2-0.2,2.8-0.6s1.6-1,2.2-1.9l1.2,0.9C913.5,575.9,911.4,577,908.6,577z
			 M908.3,560.1c-1.5,0-2.8,0.5-3.8,1.6c-1,1.1-1.6,2.6-1.9,4.4h10.8v-0.2c-0.1-1.7-0.5-3.1-1.5-4.2S909.8,560.1,908.3,560.1z"/>
		<path class="st6" d="M939.1,574.4c-1.2,1.7-3.1,2.6-5.7,2.6c-1.9,0-3.4-0.6-4.4-1.7c-1-1.1-1.5-2.8-1.5-4.9v-11.7h2v11.4
			c0,3.4,1.4,5.1,4.2,5.1c2.9,0,4.7-1.2,5.5-3.6v-13h2v18h-1.9L939.1,574.4z"/>
		<path class="st6" d="M956.9,572.1c0-1-0.4-1.8-1.2-2.4c-0.8-0.6-2-1.1-3.6-1.4c-1.6-0.3-2.8-0.7-3.7-1.2c-0.9-0.4-1.5-1-2-1.6
			c-0.4-0.6-0.6-1.4-0.6-2.3c0-1.4,0.6-2.6,1.8-3.5c1.2-0.9,2.7-1.4,4.5-1.4c2,0,3.6,0.5,4.8,1.5c1.2,1,1.8,2.3,1.8,3.9h-2
			c0-1.1-0.4-1.9-1.3-2.6s-2-1-3.3-1c-1.3,0-2.4,0.3-3.1,0.9c-0.8,0.6-1.2,1.3-1.2,2.3c0,0.9,0.3,1.6,1,2.1c0.7,0.5,1.9,0.9,3.6,1.4
			s3,0.8,3.9,1.3c0.9,0.5,1.5,1,1.9,1.7c0.4,0.7,0.6,1.4,0.6,2.4c0,1.5-0.6,2.7-1.8,3.6c-1.2,0.9-2.8,1.4-4.8,1.4
			c-2.1,0-3.8-0.5-5.1-1.5c-1.3-1-2-2.3-2-3.8h2c0.1,1.2,0.6,2.1,1.5,2.7c0.9,0.6,2.1,1,3.6,1c1.4,0,2.5-0.3,3.4-0.9
			C956.5,573.8,956.9,573,956.9,572.1z"/>
		<path class="st6" d="M963.3,553.5c0-0.4,0.1-0.7,0.4-0.9c0.2-0.3,0.6-0.4,1-0.4c0.4,0,0.8,0.1,1,0.4c0.2,0.3,0.4,0.6,0.4,0.9
			c0,0.4-0.1,0.7-0.4,0.9c-0.2,0.3-0.6,0.4-1,0.4c-0.4,0-0.8-0.1-1-0.4C963.4,554.2,963.3,553.9,963.3,553.5z M965.6,576.7h-2v-18h2
			V576.7z"/>
		<path class="st6" d="M972.9,558.7l0.1,3.1c0.7-1.1,1.5-2,2.5-2.5c1-0.6,2.1-0.9,3.3-0.9c1.9,0,3.4,0.5,4.3,1.6
			c0.9,1.1,1.4,2.7,1.4,4.9v11.8h-2v-11.8c0-1.6-0.4-2.8-1-3.6c-0.7-0.8-1.7-1.2-3.2-1.2c-1.2,0-2.3,0.4-3.3,1.2
			c-0.9,0.8-1.6,1.8-2.1,3.1v12.3h-2v-18H972.9z"/>
		<path class="st6" d="M988.9,567.5c0-2.8,0.6-5,1.9-6.7c1.2-1.6,2.9-2.5,5.1-2.5c2.4,0,4.3,1,5.6,2.9l0.1-2.6h1.9v17.6
			c0,2.3-0.6,4.1-1.9,5.5s-3,2-5.3,2c-1.3,0-2.4-0.3-3.6-0.8c-1.1-0.6-2-1.3-2.7-2.2l1.1-1.2c1.4,1.7,3.1,2.6,5,2.6
			c1.7,0,3-0.5,3.9-1.5c0.9-1,1.4-2.3,1.4-4.1v-2.3c-1.3,1.8-3.1,2.7-5.6,2.7c-2.1,0-3.8-0.8-5-2.5s-1.9-3.9-1.9-6.7V567.5z
			 M990.9,567.9c0,2.3,0.5,4.1,1.4,5.4c0.9,1.3,2.2,2,3.9,2c2.4,0,4.2-1.1,5.2-3.3v-8.4c-0.5-1.2-1.1-2-2-2.6
			c-0.9-0.6-1.9-0.9-3.2-0.9c-1.7,0-3,0.7-3.9,2C991.4,563.4,990.9,565.3,990.9,567.9z"/>
		<path class="st6" d="M803,614.7h-2v-24.2h2V614.7z"/>
		<path class="st6" d="M811,596.7l0.1,3.1c0.7-1.1,1.5-2,2.5-2.5c1-0.6,2.1-0.9,3.3-0.9c1.9,0,3.4,0.5,4.3,1.6
			c0.9,1.1,1.4,2.7,1.4,4.9v11.8h-2v-11.8c0-1.6-0.4-2.8-1-3.6c-0.7-0.8-1.7-1.2-3.2-1.2c-1.2,0-2.3,0.4-3.3,1.2
			c-0.9,0.8-1.6,1.8-2.1,3.1v12.3h-2v-18H811z"/>
		<path class="st6" d="M838.5,610.1c0-1-0.4-1.8-1.2-2.4c-0.8-0.6-2-1.1-3.6-1.4c-1.6-0.3-2.8-0.7-3.7-1.2c-0.9-0.4-1.5-1-2-1.6
			c-0.4-0.6-0.6-1.4-0.6-2.3c0-1.4,0.6-2.6,1.8-3.5c1.2-0.9,2.7-1.4,4.5-1.4c2,0,3.6,0.5,4.8,1.5c1.2,1,1.8,2.3,1.8,3.9h-2
			c0-1.1-0.4-1.9-1.3-2.6s-2-1-3.3-1c-1.3,0-2.4,0.3-3.1,0.9c-0.8,0.6-1.2,1.3-1.2,2.3c0,0.9,0.3,1.6,1,2.1c0.7,0.5,1.9,0.9,3.6,1.4
			s3,0.8,3.9,1.3c0.9,0.5,1.5,1,1.9,1.7c0.4,0.7,0.6,1.4,0.6,2.4c0,1.5-0.6,2.7-1.8,3.6c-1.2,0.9-2.8,1.4-4.8,1.4
			c-2.1,0-3.8-0.5-5.1-1.5c-1.3-1-2-2.3-2-3.8h2c0.1,1.2,0.6,2.1,1.5,2.7c0.9,0.6,2.1,1,3.6,1c1.4,0,2.5-0.3,3.4-0.9
			C838.1,611.8,838.5,611,838.5,610.1z"/>
		<path class="st6" d="M848.1,592.1v4.6h3.7v1.6h-3.7v12c0,1,0.2,1.7,0.5,2.2c0.4,0.5,1,0.7,1.8,0.7c0.3,0,0.9-0.1,1.6-0.2l0.1,1.6
			c-0.5,0.2-1.2,0.3-2.1,0.3c-1.4,0-2.4-0.4-3-1.2c-0.6-0.8-0.9-2-0.9-3.5v-12h-3.3v-1.6h3.3v-4.6H848.1z"/>
		<path class="st6" d="M867.2,614.7c-0.2-0.6-0.3-1.4-0.4-2.5c-0.7,0.9-1.6,1.6-2.7,2.1c-1.1,0.5-2.2,0.7-3.4,0.7
			c-1.7,0-3.1-0.5-4.2-1.4c-1.1-1-1.6-2.2-1.6-3.7c0-1.7,0.7-3.1,2.2-4.2c1.5-1,3.5-1.5,6.1-1.5h3.6v-2c0-1.3-0.4-2.3-1.2-3
			c-0.8-0.7-1.9-1.1-3.5-1.1c-1.4,0-2.5,0.4-3.4,1.1c-0.9,0.7-1.4,1.6-1.4,2.6l-2,0c0-1.4,0.7-2.7,2-3.7c1.3-1,3-1.6,4.9-1.6
			c2,0,3.6,0.5,4.7,1.5c1.2,1,1.8,2.4,1.8,4.2v8.5c0,1.7,0.2,3,0.5,3.9v0.2H867.2z M861,613.2c1.3,0,2.5-0.3,3.6-1s1.8-1.5,2.3-2.6
			v-4h-3.6c-2,0-3.5,0.4-4.6,1.1c-1.1,0.7-1.7,1.7-1.7,2.9c0,1,0.4,1.8,1.1,2.5S859.8,613.2,861,613.2z"/>
		<path class="st6" d="M873.3,605.5c0-2.8,0.6-5,1.9-6.7c1.2-1.6,2.9-2.5,5.1-2.5c2.4,0,4.3,1,5.6,2.9l0.1-2.6h1.9v17.6
			c0,2.3-0.6,4.1-1.9,5.5s-3,2-5.3,2c-1.3,0-2.4-0.3-3.6-0.8c-1.1-0.6-2-1.3-2.7-2.2l1.1-1.2c1.4,1.7,3.1,2.6,5,2.6
			c1.7,0,3-0.5,3.9-1.5c0.9-1,1.4-2.3,1.4-4.1v-2.3c-1.3,1.8-3.1,2.7-5.6,2.7c-2.1,0-3.8-0.8-5-2.5s-1.9-3.9-1.9-6.7V605.5z
			 M875.3,605.9c0,2.3,0.5,4.1,1.4,5.4c0.9,1.3,2.2,2,3.9,2c2.4,0,4.2-1.1,5.2-3.3v-8.4c-0.5-1.2-1.1-2-2-2.6
			c-0.9-0.6-1.9-0.9-3.2-0.9c-1.7,0-3,0.7-3.9,2C875.8,601.4,875.3,603.3,875.3,605.9z"/>
		<path class="st6" d="M901.3,598.4c-0.4-0.1-0.9-0.1-1.3-0.1c-1.2,0-2.3,0.3-3.1,1c-0.9,0.7-1.5,1.7-1.8,3v12.3h-2v-18h1.9l0,2.9
			c1.1-2.1,2.7-3.2,5.1-3.2c0.6,0,1,0.1,1.3,0.2L901.3,598.4z"/>
		<path class="st6" d="M915.1,614.7c-0.2-0.6-0.3-1.4-0.4-2.5c-0.7,0.9-1.6,1.6-2.7,2.1c-1.1,0.5-2.2,0.7-3.4,0.7
			c-1.7,0-3.1-0.5-4.2-1.4c-1.1-1-1.6-2.2-1.6-3.7c0-1.7,0.7-3.1,2.2-4.2c1.5-1,3.5-1.5,6.1-1.5h3.6v-2c0-1.3-0.4-2.3-1.2-3
			c-0.8-0.7-1.9-1.1-3.5-1.1c-1.4,0-2.5,0.4-3.4,1.1c-0.9,0.7-1.4,1.6-1.4,2.6l-2,0c0-1.4,0.7-2.7,2-3.7c1.3-1,3-1.6,4.9-1.6
			c2,0,3.6,0.5,4.7,1.5c1.2,1,1.8,2.4,1.8,4.2v8.5c0,1.7,0.2,3,0.5,3.9v0.2H915.1z M908.8,613.2c1.3,0,2.5-0.3,3.6-1
			s1.8-1.5,2.3-2.6v-4h-3.6c-2,0-3.5,0.4-4.6,1.1c-1.1,0.7-1.7,1.7-1.7,2.9c0,1,0.4,1.8,1.1,2.5S907.6,613.2,908.8,613.2z"/>
		<path class="st6" d="M923.8,596.7l0.1,2.9c0.7-1.1,1.5-1.9,2.5-2.4s2.1-0.8,3.3-0.8c2.8,0,4.6,1.2,5.4,3.5c0.6-1.1,1.5-2,2.6-2.6
			c1.1-0.6,2.3-0.9,3.6-0.9c3.9,0,5.8,2.1,5.9,6.3v12h-2v-11.8c0-1.6-0.4-2.8-1-3.6s-1.8-1.2-3.3-1.2c-1.4,0-2.6,0.5-3.6,1.4
			c-1,0.9-1.5,2-1.6,3.3v11.9h-2v-12c0-1.5-0.4-2.7-1.1-3.4c-0.7-0.8-1.8-1.1-3.3-1.1c-1.3,0-2.3,0.4-3.2,1.1
			c-0.9,0.7-1.6,1.8-2,3.2v12.3h-2v-18H923.8z"/>
	</g>
	<g>
		<path class="st6" d="M730.9,527c0-0.7-0.3-1.3-0.8-1.7c-0.5-0.4-1.5-0.8-2.8-1.3c-1.4-0.4-2.5-0.9-3.3-1.3
			c-2.2-1.2-3.3-2.8-3.3-4.8c0-1,0.3-2,0.9-2.8c0.6-0.8,1.4-1.4,2.5-1.9c1.1-0.5,2.3-0.7,3.7-0.7c1.4,0,2.6,0.2,3.7,0.7
			c1.1,0.5,1.9,1.2,2.5,2.1c0.6,0.9,0.9,1.9,0.9,3.1h-4c0-0.9-0.3-1.6-0.8-2c-0.6-0.5-1.3-0.7-2.3-0.7c-1,0-1.7,0.2-2.3,0.6
			c-0.5,0.4-0.8,0.9-0.8,1.6c0,0.6,0.3,1.1,0.9,1.6s1.6,0.8,2.8,1.2c2.3,0.7,3.9,1.5,4.9,2.5s1.5,2.3,1.5,3.7c0,1.7-0.6,3-1.9,3.9
			c-1.3,0.9-2.9,1.4-5.1,1.4c-1.5,0-2.8-0.3-4-0.8c-1.2-0.5-2.1-1.3-2.8-2.2s-1-2-1-3.3h4c0,2.1,1.3,3.2,3.8,3.2
			c0.9,0,1.7-0.2,2.2-0.6C730.6,528.3,730.9,527.7,730.9,527z"/>
		<path class="st6" d="M749.1,523.8h-7.6v5.1h8.9v3.2h-12.9v-19.2h12.8v3.2h-8.9v4.6h7.6V523.8z"/>
		<path class="st6" d="M759.8,527.3l4.4-14.4h4.4l-6.7,19.2h-4.1l-6.7-19.2h4.4L759.8,527.3z"/>
		<path class="st6" d="M781.9,523.8h-7.6v5.1h8.9v3.2h-12.9v-19.2h12.8v3.2h-8.9v4.6h7.6V523.8z"/>
		<path class="st6" d="M801.1,532.1h-4l-7.7-12.6v12.6h-4v-19.2h4l7.7,12.7v-12.7h3.9V532.1z"/>
		<path class="st6" d="M818.7,516.1h-5.9v16h-4v-16H803v-3.2h15.6V516.1z"/>
		<path class="st6" d="M827.7,521.5l4-8.6h4.3l-6.3,12.2v7h-4v-7l-6.3-12.2h4.3L827.7,521.5z"/>
		<path class="st6" d="M843,525.4h-7.4v-3.1h7.4V525.4z"/>
		<path class="st6" d="M860.7,516.1h-5.9v16h-4v-16h-5.8v-3.2h15.6V516.1z"/>
		<path class="st6" d="M878.1,526.5l2.6-13.7h3.9l-4.3,19.2h-4l-3.1-12.8l-3.1,12.8h-4l-4.3-19.2h3.9l2.6,13.6l3.2-13.6h3.3
			L878.1,526.5z"/>
		<path class="st6" d="M902.6,522.9c0,1.9-0.3,3.5-1,5s-1.6,2.5-2.9,3.3c-1.2,0.8-2.7,1.2-4.3,1.2c-1.6,0-3-0.4-4.3-1.1
			c-1.2-0.8-2.2-1.9-2.9-3.3c-0.7-1.4-1-3.1-1-4.9v-0.9c0-1.9,0.3-3.6,1-5c0.7-1.4,1.6-2.5,2.9-3.3c1.2-0.8,2.7-1.2,4.3-1.2
			s3,0.4,4.3,1.2c1.2,0.8,2.2,1.9,2.9,3.3c0.7,1.4,1,3.1,1,5V522.9z M898.6,522.1c0-2-0.4-3.5-1.1-4.6c-0.7-1-1.7-1.6-3.1-1.6
			c-1.3,0-2.4,0.5-3.1,1.5c-0.7,1-1.1,2.5-1.1,4.5v0.9c0,2,0.4,3.5,1.1,4.6c0.7,1.1,1.8,1.6,3.1,1.6c1.3,0,2.3-0.5,3.1-1.6
			c0.7-1,1.1-2.6,1.1-4.6V522.1z"/>
		<path class="st6" d="M916.1,525.3v6.8h-4v-19.2h7.5c1.4,0,2.7,0.3,3.8,0.8c1.1,0.5,1.9,1.3,2.5,2.2c0.6,1,0.9,2.1,0.9,3.3
			c0,1.9-0.6,3.4-1.9,4.4c-1.3,1.1-3.1,1.6-5.3,1.6H916.1z M916.1,522.1h3.5c1,0,1.8-0.2,2.4-0.7s0.8-1.2,0.8-2.1
			c0-0.9-0.3-1.7-0.8-2.3s-1.3-0.9-2.3-0.9h-3.6V522.1z"/>
		<path class="st6" d="M941.1,523.8h-7.6v5.1h8.9v3.2h-12.9v-19.2h12.8v3.2h-8.9v4.6h7.6V523.8z"/>
		<path class="st6" d="M951.9,525.1h-3.2v7h-4v-19.2h7.1c2.3,0,4,0.5,5.2,1.5c1.2,1,1.8,2.4,1.8,4.3c0,1.3-0.3,2.4-0.9,3.3
			c-0.6,0.9-1.4,1.6-2.6,2.1l4.2,7.8v0.2h-4.2L951.9,525.1z M948.7,521.9h3.2c1,0,1.8-0.3,2.3-0.8c0.5-0.5,0.8-1.2,0.8-2.1
			c0-0.9-0.3-1.6-0.8-2.1c-0.5-0.5-1.3-0.8-2.4-0.8h-3.2V521.9z"/>
		<path class="st6" d="M977.1,525.7c-0.1,2.1-0.9,3.7-2.3,4.9c-1.4,1.2-3.2,1.8-5.4,1.8c-2.5,0-4.4-0.8-5.8-2.5
			c-1.4-1.7-2.1-3.9-2.1-6.8v-1.2c0-1.8,0.3-3.5,1-4.9c0.7-1.4,1.6-2.5,2.8-3.2c1.2-0.8,2.6-1.1,4.2-1.1c2.2,0,4,0.6,5.4,1.8
			c1.4,1.2,2.1,2.9,2.3,5h-4c-0.1-1.2-0.4-2.1-1-2.7c-0.6-0.6-1.5-0.8-2.7-0.8c-1.3,0-2.3,0.5-3,1.4c-0.7,0.9-1,2.4-1,4.4v1.5
			c0,2.1,0.3,3.6,0.9,4.5s1.6,1.4,3,1.4c1.2,0,2.1-0.3,2.7-0.8c0.6-0.6,0.9-1.4,1-2.6H977.1z"/>
		<path class="st6" d="M991.2,523.8h-7.6v5.1h8.9v3.2h-12.9v-19.2h12.8v3.2h-8.9v4.6h7.6V523.8z"/>
		<path class="st6" d="M1010.5,532.1h-4l-7.7-12.6v12.6h-4v-19.2h4l7.7,12.7v-12.7h3.9V532.1z"/>
		<path class="st6" d="M1028,516.1h-5.9v16h-4v-16h-5.8v-3.2h15.6V516.1z"/>
	</g>
</g>
</svg>
