<?xml version="1.0" encoding="utf-8"?>
<!-- Generator: Adobe Illustrator 22.1.0, SVG Export Plug-In . SVG Version: 6.00 Build 0)  -->
<svg version="1.1" id="bubbles" xmlns="http://www.w3.org/2000/svg" xmlns:xlink="http://www.w3.org/1999/xlink" x="0px" y="0px"
	 viewBox="0 0 520 494" style="enable-background:new 0 0 520 494;" xml:space="preserve">
<style type="text/css">
	.st0{fill:url(#_x36_8_x5F_circle_1_);}
	.st1{fill:url(#_x39_8_x5F_circle_1_);}
	.st2{fill:url(#_x37_2_x5F_circle_1_);}
	.st3{fill:#FFFFFF;}
</style>
<linearGradient id="_x36_8_x5F_circle_1_" gradientUnits="userSpaceOnUse" x1="141.91" y1="4547.999" x2="330.6591" y2="4656.9731" gradientTransform="matrix(-0.9564 -0.2919 0.2919 -0.9564 -952.125 4586.0112)">
	<stop  offset="0" style="stop-color:#B97BB4"/>
	<stop  offset="0.4637" style="stop-color:#B941B4"/>
	<stop  offset="0.95" style="stop-color:#B900B4"/>
</linearGradient>
<circle id="_x36_8_x5F_circle" class="st0" cx="165.5" cy="115" r="109"/>
<linearGradient id="_x39_8_x5F_circle_1_" gradientUnits="userSpaceOnUse" x1="242.4883" y1="251.6765" x2="515.7537" y2="251.6765">
	<stop  offset="0" style="stop-color:#B97BB4"/>
	<stop  offset="0.1363" style="stop-color:#B974B4"/>
	<stop  offset="0.3412" style="stop-color:#B95FB4"/>
	<stop  offset="0.5894" style="stop-color:#B93DB4"/>
	<stop  offset="0.8691" style="stop-color:#B90FB4"/>
	<stop  offset="0.95" style="stop-color:#B900B4"/>
</linearGradient>
<circle id="_x39_8_x5F_circle" class="st1" cx="379.1" cy="251.7" r="136.6"/>
<linearGradient id="_x37_2_x5F_circle_1_" gradientUnits="userSpaceOnUse" x1="-2560.1917" y1="2328.554" x2="-2311.9583" y2="2328.554" gradientTransform="matrix(2.336406e-02 0.9997 -0.9997 2.336406e-02 2512.8872 2743.728)">
	<stop  offset="0" style="stop-color:#B97BB4"/>
	<stop  offset="0.4637" style="stop-color:#B941B4"/>
	<stop  offset="0.95" style="stop-color:#B900B4"/>
</linearGradient>
<circle id="_x37_2_x5F_circle" class="st2" cx="128.1" cy="362.7" r="124.1"/>
<g id="_x36_8">
	<path class="st3" d="M119.8,82c-0.3-3.4-1.3-6.5-5.4-6.5c-6.2,0-6.7,9.6-6.8,14c2.4-3.8,6.6-5,10.9-5c9.9,0,16.5,7,16.5,16.8
		c0,11.7-9.9,18.5-20.8,18.5c-15.5,0-22.5-12.4-22.5-26.5c0-14.2,6-29.2,22.4-29.2c10.2,0,18.2,5.8,19.4,16.1L119.8,82z
		 M119.8,102.6c0-3.4-2.1-6.6-5.8-6.6c-3.7,0-6.2,3-6.2,6.6c0,3.6,2.4,6.5,6.2,6.5C117.5,109,119.8,106,119.8,102.6z"/>
	<path class="st3" d="M182.9,102.9c0,12.9-11.8,17-22.9,17c-4.6,0-9.8-0.7-13.8-2.9c-4.7-2.4-7.5-6.8-7.5-12.1
		c0-5.8,3.2-10,8.5-12.2c-4.6-2.5-6.8-6.7-6.8-11.8c0-4.9,2.4-9.7,6.3-12.5c4.2-3.1,9.4-4.1,14.5-4.1c8.8,0,19.8,3.9,19.8,14.4
		c0,5.5-2.6,8.3-6.9,11.1C179.7,92.6,182.9,96.5,182.9,102.9z M156.6,98.1c-2.1,1.2-3.8,3.2-3.8,5.6c0,4.4,4.4,5.8,8.1,5.8
		c2.7,0,6.5-0.9,6.5-4.2c0-3-3.2-4.3-5.5-5.3L156.6,98.1z M164,85.6c2.1-0.9,3.4-2.8,3.4-5.1c0-3.9-3.6-5.7-7-5.7
		c-2.6,0-5.3,1.2-5.3,4.1c0,2.8,2.7,4,4.9,5L164,85.6z"/>
	<path class="st3" d="M198.2,92.9c-7.7,0-11-6.9-11-13.7c0-7,3-14.1,11-14.1c8.1,0,11.1,7,11.1,14.1C209.3,86.1,206,92.9,198.2,92.9
		z M200.9,119.2h-7.5L226.5,65h7.3L200.9,119.2z M198.3,70.9c-1.4,0-2.8,1.3-2.8,7.6c0,7.3,1,8.5,2.6,8.5c1.8,0,2.9-1.6,2.9-7.9
		C201.1,73.2,200.4,70.9,198.3,70.9z M218,105.4c0-7,3-14.1,11-14.1c8.1,0,11.1,7,11.1,14.1c0,6.9-3.3,13.7-11.1,13.7
		S218,112.2,218,105.4z M229.1,97.1c-1.4,0-2.8,1.3-2.8,7.6c0,7.3,1,8.5,2.6,8.5c1.8,0,2.9-1.6,2.9-7.9
		C231.9,99.4,231.1,97.1,229.1,97.1z"/>
</g>
<g id="_x39_8">
	<path class="st3" d="M305.1,224.8c0.5,3.3,2.7,6.2,6.3,6.2c7.6,0,8.9-9,8.9-14.8l-0.1-2c-3,4.5-7.4,6.5-12.9,6.5
		c-12.6,0-21.3-8.8-21.3-21.4c0-15.1,11.9-23.1,25.9-23.1c20,0,27.5,15.4,27.5,33.3c0,8.3-1.7,16.9-6,24.1c-5.1,8.5-13,12-22.8,12
		c-11.7,0-21-6-22.9-18L305.1,224.8z M319.2,198.3c0-4.4-2.6-8.3-7.3-8.3c-4.8,0-7.2,3.9-7.2,8.3c0,4.1,2.1,8.2,6.7,8.2
		C316.4,206.4,319.2,203,319.2,198.3z"/>
	<path class="st3" d="M399.2,224.3c0,16-14.7,21.2-28.5,21.2c-5.7,0-12.2-0.9-17.2-3.6c-5.8-3-9.3-8.4-9.3-15
		c0-7.3,4-12.5,10.6-15.2c-5.7-3.1-8.4-8.3-8.4-14.7c0-6.1,2.9-12.1,7.9-15.6c5.2-3.8,11.7-5.1,18.1-5.1c11,0,24.7,4.8,24.7,17.9
		c0,6.9-3.2,10.3-8.6,13.9C395.2,211.4,399.2,216.3,399.2,224.3z M366.5,218.3c-2.6,1.5-4.7,3.9-4.7,7c0,5.5,5.5,7.3,10,7.3
		c3.3,0,8.1-1.1,8.1-5.2c0-3.7-3.9-5.4-6.9-6.6L366.5,218.3z M375.6,202.8c2.6-1.2,4.2-3.4,4.2-6.3c0-4.9-4.4-7.1-8.7-7.1
		c-3.2,0-6.6,1.5-6.6,5.1c0,3.5,3.3,5,6.1,6.2L375.6,202.8z"/>
	<path class="st3" d="M418.2,211.8c-9.6,0-13.7-8.6-13.7-17.1c0-8.7,3.7-17.6,13.7-17.6c10,0,13.8,8.7,13.8,17.6
		C432,203.4,427.9,211.8,418.2,211.8z M421.6,244.5h-9.3l41.2-67.4h9.1L421.6,244.5z M418.3,184.4c-1.8,0-3.4,1.7-3.4,9.4
		c0,9.1,1.3,10.6,3.2,10.6c2.3,0,3.6-2,3.6-9.8C421.8,187.3,420.9,184.4,418.3,184.4z M442.9,227.4c0-8.7,3.7-17.6,13.7-17.6
		c10,0,13.8,8.7,13.8,17.6c0,8.6-4.1,17.1-13.8,17.1C446.9,244.5,442.9,235.9,442.9,227.4z M456.7,217.1c-1.8,0-3.4,1.7-3.4,9.4
		c0,9.1,1.3,10.6,3.2,10.6c2.3,0,3.6-2,3.6-9.8C460.1,220,459.2,217.1,456.7,217.1z"/>
</g>
<g id="_x37_2">
	<path class="st3" d="M88.2,308.6c-10,12.3-16.5,30.9-16.5,46.7L72,359H51.4c0.5-17.1,8.2-33.9,19.6-46.5H42.3l1.4-15.6h44.6V308.6z
		"/>
	<path class="st3" d="M142.4,359H95.1v-14.2l21.1-15.8c3.8-3.3,8.3-7.1,8.3-12.5c0-3.6-2.3-6.5-6.1-6.5c-5.8,0-7.4,6-7.7,10.8
		l-15.7-3.1c1.7-13.3,11.3-21.6,24.7-21.6c12.4,0,22.9,6.7,22.9,20.1c0,6.7-3.1,11.7-8,16l-14.4,10.8l-1.4,0.9h24.2L142.4,359z"/>
	<path class="st3" d="M162.5,328.8c-8.9,0-12.6-8-12.6-15.8c0-8.1,3.4-16.2,12.6-16.2c9.2,0,12.7,8.1,12.7,16.2
		C175.1,321.1,171.3,328.8,162.5,328.8z M165.5,359h-8.6l37.9-62.1h8.4L165.5,359z M162.6,303.6c-1.6,0-3.2,1.5-3.2,8.7
		c0,8.4,1.2,9.8,3,9.8c2.1,0,3.3-1.8,3.3-9.1C165.7,306.2,164.9,303.6,162.6,303.6z M185.2,343.2c0-8.1,3.4-16.2,12.6-16.2
		c9.2,0,12.7,8.1,12.7,16.2c0,8-3.8,15.8-12.7,15.8C188.9,359,185.2,351,185.2,343.2z M197.9,333.7c-1.6,0-3.2,1.5-3.2,8.7
		c0,8.4,1.2,9.8,3,9.8c2.1,0,3.3-1.8,3.3-9.1C201,336.4,200.2,333.7,197.9,333.7z"/>
</g>
<g id="female_x5F_text">
	<path class="st3" d="M112,148.2c-3.4,0-4.6-3-4.6-5.3c0-2.7,1.7-5.2,4.8-5.2c3.1,0,4.7,2.5,4.7,5.2
		C116.8,146.4,114.6,148.2,112,148.2z M112.1,139.6c-1.8,0-2.3,1.8-2.3,3.4c0,0.5,0,3.4,2.3,3.4c2.1,0,2.3-2.4,2.3-3.4
		C114.4,141.2,113.8,139.6,112.1,139.6z"/>
	<path class="st3" d="M119.2,148v-8.3h-1.5v-1.8h1.5c0-1.1,0-2.5,1.2-3.3c0.5-0.3,1.4-0.5,3.2-0.5v1.8c-0.3,0-0.4,0-0.6,0
		c-1.6,0-1.6,0.6-1.6,2h2.2v1.8h-2.2v8.3H119.2z"/>
	<path class="st3" d="M131.4,148v-13.7h2.5V148H131.4z"/>
	<path class="st3" d="M136.8,137.9h2.1v2.3c0.4-0.8,1.2-2.5,3.1-2.5c3.3,0,3.2,3,3.2,4.3v6h-2.3v-5.9c0-2.3-1.2-2.4-1.6-2.4
		c-0.5,0-2.2,0.1-2.2,3.6v4.7h-2.3V137.9z"/>
	<path class="st3" d="M148.8,145.3c0.2,0.5,0.6,1.2,2.2,1.2c0.5,0,2.1,0,2.1-1.3c0-0.6-0.7-0.9-1.1-1l-1.8-0.4c-1-0.2-3.1-0.6-3.1-3
		c0-1.1,0.6-3.2,3.9-3.2c1.2,0,3.3,0.2,3.9,2.3l-2,0.4c-0.1-0.3-0.4-1.1-1.8-1.1c-1.3,0-1.8,0.5-1.8,1.1c0,0.6,0.7,0.9,1.5,1.1
		l2.2,0.5c1.6,0.3,2.5,1.3,2.5,2.9c0,2.8-3,3.3-4.4,3.3c-2.4,0-3.9-1-4.3-2.5L148.8,145.3z"/>
	<path class="st3" d="M161.9,148c-0.5,0.1-1.2,0.2-1.6,0.2c-0.8,0-1.7-0.3-2.2-0.8c-0.6-0.7-0.7-1.4-0.7-2.5v-5.2h-1.3v-1.8h1.4
		l0.2-2.6l1.9-0.2v2.8h2v1.8h-2v4.9c0,1.4,0.5,1.6,1.7,1.6c0.2,0,0.3,0,0.6,0V148z"/>
	<path class="st3" d="M172.1,146c0,1,0.2,1.7,0.3,2.1h-2.2c-0.3-0.8-0.3-1.2-0.4-2.1c-0.3,0.7-1,2.3-3.4,2.3c-2.2,0-3.3-1.5-3.3-3.1
		c0-3.4,4.6-3.5,6.8-3.5v-0.8c0-1.3-1.1-1.6-2.2-1.6c-2,0-2.3,1.1-2.4,1.6l-1.9-0.3c0.4-2.3,2.5-2.9,4.6-2.9c1.1,0,2.4,0.1,3.1,0.7
		c1,0.9,1,1.7,1,3V146z M169.9,142.9c-1.4,0-2.3,0.2-2.8,0.3c-0.5,0.1-1.7,0.5-1.7,1.8c0,0.4,0.2,1.5,1.8,1.5c2.2,0,2.6-1.9,2.6-2.7
		V142.9z"/>
	<path class="st3" d="M184.1,137.7h-0.7c-0.8,0-1.1,0.2-1.5,0.8c0.5,0.5,1.2,1.1,1.2,2.2c0,1.8-1.7,3.1-4.1,3.1
		c-0.7,0-1.2-0.1-1.9-0.3c-0.3,0.2-0.7,0.4-0.7,1c0,0.4,0.3,1,1.6,1h2.6c2.5,0,3.5,1.4,3.5,2.8c0,1.3-1,3.3-5.3,3.3
		c-2.7,0-4.9-0.6-4.9-2.7c0-1.2,0.7-1.7,1.5-2.1c-0.6-0.5-0.9-0.9-0.9-1.7c0-1.3,1.1-1.8,1.6-2.1c-0.6-0.3-1.4-0.9-1.4-2.3
		c0-1,0.6-3.1,4.2-3.1c0.9,0,1.4,0.1,2,0.2c0.1-0.7,0.5-1.2,0.9-1.5c0.5-0.3,1-0.4,1.7-0.4h0.7V137.7z M177.4,149.9
		c0.7,0.2,1.4,0.2,1.9,0.2c1,0,2.6-0.2,2.6-1.4c0-0.7-0.8-1-1.5-1h-1.6c-0.8,0-1.8,0-2.5-0.2c-0.3,0.3-0.5,0.6-0.5,0.9
		C175.9,149,176.6,149.7,177.4,149.9z M178.9,139.2c-1.5,0-1.9,1-1.9,1.7c0,0.9,0.6,1.7,1.9,1.7c0.5,0,1-0.1,1.3-0.3
		c0.6-0.4,0.6-0.9,0.6-1.4C180.8,140.1,180.4,139.2,178.9,139.2z"/>
	<path class="st3" d="M185.5,137.9h2.1v2.4c0.2-0.7,0.9-2.8,3.1-2.7v2.5c-0.5,0-1.4,0-2.1,0.8c-0.4,0.5-0.8,1.5-0.8,3v4.1h-2.3
		V137.9z"/>
	<path class="st3" d="M200.6,146c0,1,0.2,1.7,0.3,2.1h-2.2c-0.3-0.8-0.3-1.2-0.4-2.1c-0.3,0.7-1,2.3-3.4,2.3c-2.2,0-3.3-1.5-3.3-3.1
		c0-3.4,4.6-3.5,6.8-3.5v-0.8c0-1.3-1.1-1.6-2.2-1.6c-2,0-2.3,1.1-2.4,1.6l-1.9-0.3c0.4-2.3,2.5-2.9,4.6-2.9c1.1,0,2.4,0.1,3.1,0.7
		c1,0.9,1,1.7,1,3V146z M198.4,142.9c-1.4,0-2.3,0.2-2.8,0.3c-0.5,0.1-1.7,0.5-1.7,1.8c0,0.4,0.2,1.5,1.8,1.5c2.2,0,2.6-1.9,2.6-2.7
		V142.9z"/>
	<path class="st3" d="M203.3,137.9h2.2v2.2c0.5-0.9,1.2-2.4,3.4-2.4c2.2,0,2.7,1.7,2.9,2.4c0.6-1.1,1.6-2.4,3.4-2.4
		c2.2,0,3.2,1.6,3.2,3.8v6.6H216v-5.9c0-1.3-0.2-2.3-1.7-2.3c-1.1,0-2.2,0.7-2.2,3v5.3h-2.4v-6.3c0-0.8-0.2-2-1.6-2
		c-1.1,0-2.3,0.8-2.3,3.4v4.9h-2.4V137.9z"/>
	<path class="st3" d="M101.2,167.6H99v-2.2c-0.2,0.5-0.4,1.1-1.1,1.6c-0.3,0.3-1,0.7-2.1,0.7c-0.9,0-1.9-0.3-2.5-1.2
		c-0.4-0.7-0.5-1.1-0.5-2v-7.1h2.3v6.4c0,1.1,0.3,1.9,1.4,1.9c0.7,0,1.7-0.6,2-1.4c0.2-0.6,0.3-1.1,0.3-2.1v-4.9h2.3V167.6z"/>
	<path class="st3" d="M104.8,164.9c0.2,0.5,0.6,1.2,2.2,1.2c0.5,0,2.1,0,2.1-1.3c0-0.6-0.7-0.9-1.1-1l-1.8-0.4c-1-0.2-3.1-0.6-3.1-3
		c0-1.1,0.6-3.2,3.9-3.2c1.2,0,3.3,0.2,3.9,2.3l-2,0.4c-0.1-0.3-0.4-1.1-1.8-1.1c-1.3,0-1.8,0.5-1.8,1.1c0,0.6,0.7,0.9,1.5,1.1
		l2.2,0.5c1.6,0.3,2.5,1.3,2.5,2.9c0,2.8-3,3.3-4.4,3.3c-2.4,0-3.9-1-4.3-2.5L104.8,164.9z"/>
	<path class="st3" d="M121.7,164.6c-0.7,2.2-2.5,3.1-4.5,3.1c-3.3,0-4.7-2.7-4.7-5.2c0-3,1.8-5.3,4.8-5.3c3.3,0,4.6,2.6,4.6,5.5H115
		c0,0.7,0,1.5,0.5,2.3c0.4,0.6,1.1,0.9,1.9,0.9c1.6,0,2.1-1.1,2.3-1.6L121.7,164.6z M119.5,161.3c0-0.5-0.1-1-0.5-1.6
		c-0.4-0.5-1-0.9-1.8-0.9s-1.4,0.3-1.8,1c-0.3,0.5-0.4,0.9-0.5,1.5H119.5z"/>
	<path class="st3" d="M124,157.5h2.1v2.4c0.2-0.7,0.9-2.8,3.1-2.7v2.5c-0.5,0-1.4,0-2.1,0.8c-0.4,0.5-0.8,1.5-0.8,3v4.1H124V157.5z"
		/>
	<path class="st3" d="M132,164.9c0.2,0.5,0.6,1.2,2.2,1.2c0.5,0,2.1,0,2.1-1.3c0-0.6-0.7-0.9-1.1-1l-1.8-0.4c-1-0.2-3.1-0.6-3.1-3
		c0-1.1,0.6-3.2,3.9-3.2c1.2,0,3.3,0.2,3.9,2.3l-2,0.4c-0.1-0.3-0.4-1.1-1.8-1.1c-1.3,0-1.8,0.5-1.8,1.1c0,0.6,0.7,0.9,1.5,1.1
		l2.2,0.5c1.6,0.3,2.5,1.3,2.5,2.9c0,2.8-3,3.3-4.4,3.3c-2.4,0-3.9-1-4.3-2.5L132,164.9z"/>
	<path class="st3" d="M154.7,165.5c0,1,0.2,1.7,0.3,2.1h-2.2c-0.3-0.8-0.3-1.2-0.4-2.1c-0.3,0.7-1,2.3-3.4,2.3
		c-2.2,0-3.3-1.5-3.3-3.1c0-3.4,4.6-3.5,6.8-3.5v-0.8c0-1.3-1.1-1.6-2.2-1.6c-2,0-2.3,1.1-2.4,1.6l-1.9-0.3c0.4-2.3,2.5-2.9,4.6-2.9
		c1.1,0,2.4,0.1,3.1,0.7c1,0.9,1,1.7,1,3V165.5z M152.4,162.4c-1.4,0-2.3,0.2-2.8,0.3c-0.5,0.1-1.7,0.5-1.7,1.8
		c0,0.4,0.2,1.5,1.8,1.5c2.2,0,2.6-1.9,2.6-2.7V162.4z"/>
	<path class="st3" d="M157.4,157.5h2.1v2.4c0.2-0.7,0.9-2.8,3.1-2.7v2.5c-0.5,0-1.4,0-2.1,0.8c-0.4,0.5-0.8,1.5-0.8,3v4.1h-2.3
		V157.5z"/>
	<path class="st3" d="M172.7,164.6c-0.7,2.2-2.5,3.1-4.5,3.1c-3.3,0-4.7-2.7-4.7-5.2c0-3,1.8-5.3,4.8-5.3c3.3,0,4.6,2.6,4.6,5.5
		h-6.9c0,0.7,0,1.5,0.5,2.3c0.4,0.6,1.1,0.9,1.9,0.9c1.6,0,2.1-1.1,2.3-1.6L172.7,164.6z M170.5,161.3c0-0.5-0.1-1-0.5-1.6
		c-0.4-0.5-1-0.9-1.8-0.9s-1.4,0.3-1.8,1c-0.3,0.5-0.4,0.9-0.5,1.5H170.5z"/>
	<path class="st3" d="M181.2,167.6v-8.3h-1.5v-1.8h1.5c0-1.1,0-2.5,1.2-3.3c0.5-0.3,1.4-0.5,3.2-0.5v1.8c-0.3,0-0.4,0-0.6,0
		c-1.6,0-1.6,0.6-1.6,2h2.2v1.8h-2.2v8.3H181.2z"/>
	<path class="st3" d="M195.3,164.6c-0.7,2.2-2.5,3.1-4.5,3.1c-3.3,0-4.7-2.7-4.7-5.2c0-3,1.8-5.3,4.8-5.3c3.3,0,4.6,2.6,4.6,5.5
		h-6.9c0,0.7,0,1.5,0.5,2.3c0.4,0.6,1.1,0.9,1.9,0.9c1.6,0,2.1-1.1,2.3-1.6L195.3,164.6z M193.1,161.3c0-0.5-0.1-1-0.5-1.6
		c-0.4-0.5-1-0.9-1.8-0.9s-1.4,0.3-1.8,1c-0.3,0.5-0.4,0.9-0.5,1.5H193.1z"/>
	<path class="st3" d="M197.6,157.5h2.2v2.2c0.5-0.9,1.2-2.4,3.4-2.4c2.2,0,2.7,1.7,2.9,2.4c0.6-1.1,1.6-2.4,3.4-2.4
		c2.2,0,3.2,1.6,3.2,3.8v6.6h-2.4v-5.9c0-1.3-0.2-2.3-1.7-2.3c-1.1,0-2.2,0.7-2.2,3v5.3h-2.4v-6.3c0-0.8-0.2-2-1.6-2
		c-1.1,0-2.3,0.8-2.3,3.4v4.9h-2.4V157.5z"/>
	<path class="st3" d="M223.8,165.5c0,1,0.2,1.7,0.3,2.1h-2.2c-0.3-0.8-0.3-1.2-0.4-2.1c-0.3,0.7-1,2.3-3.4,2.3
		c-2.2,0-3.3-1.5-3.3-3.1c0-3.4,4.6-3.5,6.8-3.5v-0.8c0-1.3-1.1-1.6-2.2-1.6c-2,0-2.3,1.1-2.4,1.6l-1.9-0.3c0.4-2.3,2.5-2.9,4.6-2.9
		c1.1,0,2.4,0.1,3.1,0.7c1,0.9,1,1.7,1,3V165.5z M221.6,162.4c-1.4,0-2.3,0.2-2.8,0.3c-0.5,0.1-1.7,0.5-1.7,1.8
		c0,0.4,0.2,1.5,1.8,1.5c2.2,0,2.6-1.9,2.6-2.7V162.4z"/>
	<path class="st3" d="M226.5,167.6v-13.7h2.3v13.7H226.5z"/>
	<path class="st3" d="M240,164.6c-0.7,2.2-2.5,3.1-4.5,3.1c-3.3,0-4.7-2.7-4.7-5.2c0-3,1.8-5.3,4.8-5.3c3.3,0,4.6,2.6,4.6,5.5h-6.9
		c0,0.7,0,1.5,0.5,2.3c0.4,0.6,1.1,0.9,1.9,0.9c1.6,0,2.1-1.1,2.3-1.6L240,164.6z M237.8,161.3c0-0.5-0.1-1-0.5-1.6
		c-0.4-0.5-1-0.9-1.8-0.9s-1.4,0.3-1.8,1c-0.3,0.5-0.4,0.9-0.5,1.5H237.8z"/>
</g>
<g id="teens_x5F_text">
	<path class="st3" d="M57.2,400.2c-4.9,0-6.7-4.4-6.7-7.7c0-4,2.4-7.6,6.9-7.6c4.4,0,6.8,3.6,6.8,7.6
		C64.2,397.5,61,400.2,57.2,400.2z M57.4,387.7c-2.7,0-3.4,2.6-3.4,4.9c0,0.7,0,4.9,3.3,4.9c3.1,0,3.3-3.5,3.3-5
		C60.7,390,59.9,387.7,57.4,387.7z"/>
	<path class="st3" d="M67.7,399.9v-12.1h-2.2v-2.6h2.2c0-1.6,0-3.6,1.8-4.8c0.8-0.5,2-0.8,4.7-0.7v2.6c-0.4,0-0.6,0-0.9,0
		c-2.4,0-2.4,0.8-2.4,2.9h3.3v2.6h-3.3v12.1H67.7z"/>
	<path class="st3" d="M92.1,399.9c-0.7,0.2-1.7,0.3-2.3,0.3c-1.1,0-2.5-0.4-3.1-1.2c-0.9-1-1-2-1-3.6v-7.6h-1.8v-2.6h2l0.3-3.8
		l2.7-0.2v4.1h3v2.6h-3v7.2c0,2,0.7,2.4,2.4,2.4c0.3,0,0.5,0,0.8,0V399.9z"/>
	<path class="st3" d="M107.2,395.7c-1,3.3-3.6,4.6-6.5,4.6c-4.9,0-6.8-3.9-6.8-7.6c0-4.3,2.6-7.7,6.9-7.7c4.8,0,6.7,3.8,6.6,8H97.4
		c0,1-0.1,2.1,0.8,3.3c0.6,0.9,1.6,1.3,2.7,1.3c2.4,0,3-1.6,3.3-2.4L107.2,395.7z M104,390.9c0-0.7-0.1-1.4-0.7-2.3
		c-0.6-0.8-1.4-1.3-2.6-1.3c-1.1,0-2,0.5-2.7,1.4c-0.5,0.7-0.6,1.4-0.7,2.1H104z"/>
	<path class="st3" d="M122.8,395.7c-1,3.3-3.6,4.6-6.5,4.6c-4.9,0-6.8-3.9-6.8-7.6c0-4.3,2.6-7.7,6.9-7.7c4.8,0,6.7,3.8,6.6,8H113
		c0,1-0.1,2.1,0.8,3.3c0.6,0.9,1.6,1.3,2.7,1.3c2.4,0,3-1.6,3.3-2.4L122.8,395.7z M119.7,390.9c0-0.7-0.1-1.4-0.7-2.3
		c-0.6-0.8-1.4-1.3-2.6-1.3c-1.1,0-2,0.5-2.7,1.4c-0.5,0.7-0.6,1.4-0.7,2.1H119.7z"/>
	<path class="st3" d="M126.2,385.2h3v3.4c0.6-1.2,1.7-3.7,4.4-3.7c4.8,0,4.7,4.4,4.7,6.3v8.7H135v-8.6c0-3.4-1.7-3.5-2.3-3.5
		c-0.7,0-3.3,0.2-3.3,5.2v6.9h-3.3V385.2z"/>
	<path class="st3" d="M143.6,396c0.3,0.7,0.8,1.8,3.1,1.8c0.7,0,3.1-0.1,3.1-1.8c0-0.9-1-1.3-1.6-1.5l-2.7-0.5
		c-1.4-0.2-4.5-0.9-4.5-4.3c0-1.6,0.9-4.7,5.6-4.7c1.7,0,4.8,0.4,5.7,3.4l-3,0.6c-0.1-0.5-0.5-1.6-2.7-1.6c-1.8,0-2.7,0.7-2.7,1.7
		c0,0.9,1,1.3,2.1,1.6l3.2,0.7c2.4,0.5,3.7,1.9,3.7,4.2c0,4.1-4.4,4.8-6.4,4.8c-3.5,0-5.7-1.5-6.3-3.7L143.6,396z"/>
	<path class="st3" d="M176.5,399.9h-3.1v-3.2c-0.3,0.8-0.6,1.6-1.6,2.4c-0.5,0.4-1.5,1.1-3.1,1.1c-1.3,0-2.8-0.5-3.6-1.8
		c-0.6-1-0.7-1.6-0.7-2.9v-10.3h3.4v9.3c0,1.6,0.5,2.8,2.1,2.8c1.1,0,2.4-0.8,2.9-2.1c0.3-0.9,0.4-1.6,0.4-3v-7.1h3.3V399.9z"/>
	<path class="st3" d="M181.9,396c0.3,0.7,0.8,1.8,3.1,1.8c0.7,0,3.1-0.1,3.1-1.8c0-0.9-1-1.3-1.6-1.5l-2.7-0.5
		c-1.4-0.2-4.5-0.9-4.5-4.3c0-1.6,0.9-4.7,5.6-4.7c1.7,0,4.8,0.4,5.7,3.4l-3,0.6c-0.1-0.5-0.5-1.6-2.7-1.6c-1.8,0-2.7,0.7-2.7,1.7
		c0,0.9,1,1.3,2.1,1.6l3.2,0.7c2.4,0.5,3.7,1.9,3.7,4.2c0,4.1-4.4,4.8-6.4,4.8c-3.5,0-5.7-1.5-6.3-3.7L181.9,396z"/>
	<path class="st3" d="M206.4,395.7c-1,3.3-3.6,4.6-6.5,4.6c-4.9,0-6.8-3.9-6.8-7.6c0-4.3,2.6-7.7,6.9-7.7c4.8,0,6.7,3.8,6.6,8h-10.1
		c0,1-0.1,2.1,0.8,3.3c0.6,0.9,1.6,1.3,2.7,1.3c2.4,0,3-1.6,3.3-2.4L206.4,395.7z M203.2,390.9c0-0.7-0.1-1.4-0.7-2.3
		c-0.6-0.8-1.4-1.3-2.6-1.3c-1.1,0-2,0.5-2.7,1.4c-0.5,0.7-0.6,1.4-0.7,2.1H203.2z"/>
	<path class="st3" d="M65.4,428.4v-19.9H69v19.9H65.4z"/>
	<path class="st3" d="M73.2,413.7h3v3.4c0.6-1.2,1.7-3.7,4.4-3.7c4.8,0,4.7,4.4,4.7,6.3v8.7H82v-8.6c0-3.4-1.7-3.5-2.3-3.5
		c-0.7,0-3.3,0.2-3.3,5.2v6.9h-3.3V413.7z"/>
	<path class="st3" d="M90.6,424.4c0.3,0.7,0.8,1.8,3.1,1.8c0.7,0,3.1-0.1,3.1-1.8c0-0.9-1-1.3-1.6-1.5l-2.7-0.5
		c-1.4-0.2-4.5-0.9-4.5-4.3c0-1.6,0.9-4.7,5.6-4.7c1.7,0,4.8,0.4,5.7,3.4l-3,0.6c-0.1-0.5-0.5-1.6-2.7-1.6c-1.8,0-2.7,0.7-2.7,1.7
		c0,0.9,1,1.3,2.1,1.6l3.2,0.7c2.4,0.5,3.7,1.9,3.7,4.2c0,4.1-4.4,4.8-6.4,4.8c-3.5,0-5.7-1.5-6.3-3.7L90.6,424.4z"/>
	<path class="st3" d="M109.7,428.4c-0.7,0.2-1.7,0.3-2.3,0.3c-1.1,0-2.5-0.4-3.1-1.2c-0.9-1-1-2-1-3.6v-7.6h-1.8v-2.6h2l0.3-3.8
		l2.7-0.2v4.1h3v2.6h-3v7.2c0,2,0.7,2.4,2.4,2.4c0.3,0,0.5,0,0.8,0V428.4z"/>
	<path class="st3" d="M124.6,425.4c0,1.4,0.3,2.5,0.4,3h-3.2c-0.4-1.2-0.4-1.8-0.5-3c-0.4,1-1.5,3.3-5,3.3c-3.2,0-4.9-2.1-4.9-4.5
		c0-5,6.7-5.1,9.8-5V418c0-1.9-1.6-2.3-3.1-2.3c-2.9,0-3.3,1.6-3.4,2.3l-2.8-0.4c0.6-3.3,3.7-4.2,6.6-4.2c1.6,0,3.5,0.2,4.5,1.1
		c1.5,1.3,1.5,2.5,1.5,4.3V425.4z M121.4,420.9c-2.1,0-3.4,0.3-4,0.5c-0.7,0.2-2.4,0.7-2.4,2.6c0,0.5,0.2,2.2,2.6,2.2
		c3.3,0,3.8-2.8,3.8-3.9V420.9z"/>
	<path class="st3" d="M142,413.4h-1c-1.1,0-1.7,0.3-2.1,1.2c0.8,0.7,1.7,1.6,1.7,3.2c0,2.7-2.4,4.5-6,4.5c-1,0-1.8-0.1-2.7-0.4
		c-0.4,0.2-1,0.5-1,1.4c0,0.5,0.5,1.5,2.4,1.5h3.8c3.6,0,5,2.1,5,4c0,1.9-1.4,4.8-7.6,4.8c-3.9,0-7.1-0.9-7.1-4c0-1.8,1.1-2.4,2.1-3
		c-0.8-0.7-1.4-1.3-1.4-2.4c0-1.9,1.6-2.7,2.4-3.1c-0.8-0.5-2.1-1.4-2.1-3.4c0-1.5,0.9-4.4,6.1-4.4c1.3,0,2,0.1,2.9,0.3
		c0.2-1,0.7-1.8,1.3-2.2c0.7-0.4,1.5-0.6,2.4-0.6h1V413.4z M132.3,431.1c1,0.3,2,0.3,2.8,0.3c1.5,0,3.8-0.2,3.8-2
		c0-1-1.1-1.5-2.2-1.5h-2.3c-1.1,0-2.6,0-3.6-0.4c-0.5,0.5-0.7,0.8-0.7,1.3C130.1,429.8,131,430.8,132.3,431.1z M134.5,415.5
		c-2.1,0-2.8,1.4-2.8,2.4c0,1.3,0.9,2.4,2.7,2.4c0.7,0,1.4-0.2,1.8-0.5c0.8-0.6,0.9-1.3,0.9-2C137.2,416.9,136.6,415.5,134.5,415.5z
		"/>
	<path class="st3" d="M144,413.7h3v3.5c0.4-1.1,1.4-4.1,4.5-3.9v3.6c-0.8,0-2,0-3.1,1.2c-0.6,0.7-1.1,2.1-1.1,4.4v6H144V413.7z"/>
	<path class="st3" d="M166,425.4c0,1.4,0.3,2.5,0.4,3h-3.2c-0.4-1.2-0.4-1.8-0.5-3c-0.4,1-1.5,3.3-5,3.3c-3.2,0-4.9-2.1-4.9-4.5
		c0-5,6.7-5.1,9.8-5V418c0-1.9-1.6-2.3-3.1-2.3c-2.9,0-3.3,1.6-3.4,2.3l-2.8-0.4c0.6-3.3,3.7-4.2,6.6-4.2c1.6,0,3.5,0.2,4.5,1.1
		c1.5,1.3,1.5,2.5,1.5,4.3V425.4z M162.8,420.9c-2.1,0-3.4,0.3-4,0.5c-0.7,0.2-2.4,0.7-2.4,2.6c0,0.5,0.2,2.2,2.6,2.2
		c3.3,0,3.8-2.8,3.8-3.9V420.9z"/>
	<path class="st3" d="M170,413.7h3.3v3.1c0.7-1.3,1.7-3.4,4.9-3.4c3.2,0,3.9,2.5,4.2,3.4c0.8-1.6,2.3-3.4,4.9-3.4
		c3.2,0,4.7,2.3,4.7,5.5v9.5h-3.5v-8.6c0-1.8-0.3-3.3-2.5-3.3c-1.6,0-3.3,1.1-3.3,4.3v7.7h-3.5v-9.2c0-1.1-0.3-2.9-2.4-2.9
		c-1.6,0-3.4,1.2-3.4,4.9v7.2H170V413.7z"/>
</g>
<g id="fashion_x5F_text">
	<path class="st3" d="M288.2,284.4c-4.3,0-5.9-3.8-5.9-6.8c0-3.5,2.1-6.6,6.1-6.6c3.9,0,5.9,3.2,5.9,6.7
		C294.4,282.1,291.5,284.4,288.2,284.4z M288.4,273.4c-2.4,0-3,2.3-3,4.3c0,0.7,0,4.3,2.9,4.3c2.7,0,2.9-3.1,2.9-4.4
		C291.3,275.4,290.6,273.4,288.4,273.4z"/>
	<path class="st3" d="M297.5,284.2v-10.6h-1.9v-2.3h1.9c0-1.4,0-3.2,1.6-4.2c0.7-0.4,1.8-0.7,4.1-0.6v2.3c-0.3,0-0.5,0-0.8,0
		c-2.1,0-2.1,0.7-2.1,2.6h2.9v2.3h-2.9v10.6H297.5z"/>
	<path class="st3" d="M313.3,284.2v-10.6h-1.9v-2.3h1.9c0-1.4,0-3.2,1.6-4.2c0.7-0.4,1.8-0.7,4.1-0.6v2.3c-0.3,0-0.5,0-0.8,0
		c-2.1,0-2.1,0.7-2.1,2.6h2.9v2.3h-2.9v10.6H313.3z"/>
	<path class="st3" d="M331.8,281.6c0,1.2,0.3,2.2,0.4,2.6h-2.8c-0.3-1-0.4-1.6-0.5-2.6c-0.4,0.9-1.3,2.9-4.4,2.9
		c-2.8,0-4.3-1.9-4.3-4c0-4.3,5.9-4.5,8.6-4.4v-1c0-1.6-1.4-2-2.7-2c-2.6,0-2.9,1.4-3,2l-2.5-0.4c0.5-2.9,3.2-3.7,5.8-3.7
		c1.4,0,3,0.2,3.9,0.9c1.3,1.2,1.3,2.2,1.3,3.8V281.6z M329,277.6c-1.8,0-3,0.3-3.5,0.4c-0.6,0.2-2.1,0.6-2.1,2.3
		c0,0.5,0.2,1.9,2.3,1.9c2.9,0,3.4-2.4,3.4-3.5V277.6z"/>
	<path class="st3" d="M336.4,280.7c0.3,0.6,0.7,1.6,2.7,1.6c0.6,0,2.7-0.1,2.7-1.6c0-0.8-0.9-1.2-1.4-1.3l-2.4-0.5
		c-1.2-0.2-3.9-0.8-3.9-3.8c0-1.4,0.8-4.1,4.9-4.1c1.5,0,4.2,0.3,5,3l-2.6,0.5c-0.1-0.4-0.5-1.4-2.3-1.4c-1.6,0-2.3,0.6-2.3,1.5
		c0,0.8,0.8,1.2,1.9,1.4l2.8,0.6c2.1,0.4,3.2,1.7,3.2,3.7c0,3.6-3.8,4.2-5.6,4.2c-3.1,0-5-1.3-5.5-3.2L336.4,280.7z"/>
	<path class="st3" d="M347.2,266.7h2.9v6.8c0.3-0.8,1.2-2.8,3.8-2.8c2.8,0,4,1.5,4,5.1v8.3h-2.9v-7.9c0-1.1,0-3.1-1.9-3.1
		c-1,0-2,0.6-2.4,1.4c-0.4,0.9-0.5,1.8-0.5,3.3v6.2h-2.9V266.7z"/>
	<path class="st3" d="M361.4,269.8v-3h2.9v3H361.4z M361.4,284.2v-12.9h2.9v12.9H361.4z"/>
	<path class="st3" d="M372.8,284.4c-4.3,0-5.9-3.8-5.9-6.8c0-3.5,2.1-6.6,6.1-6.6c3.9,0,5.9,3.2,5.9,6.7
		C378.9,282.1,376.1,284.4,372.8,284.4z M373,273.4c-2.4,0-3,2.3-3,4.3c0,0.7,0,4.3,2.9,4.3c2.7,0,2.9-3.1,2.9-4.4
		C375.8,275.4,375.2,273.4,373,273.4z"/>
	<path class="st3" d="M381.6,271.3h2.6v3c0.5-1.1,1.5-3.2,3.9-3.2c4.2,0,4.1,3.8,4.1,5.5v7.6h-2.9v-7.6c0-3-1.5-3-2-3
		c-0.6,0-2.9,0.2-2.9,4.6v6h-2.9V271.3z"/>
	<path class="st3" d="M403.4,284.2v-17.5h2.9v6.3c0.7-1.2,1.4-2.4,3.6-2.4c2.4,0,4.9,2,4.9,6.8c0,1.8-0.4,3.6-1.5,5.1
		c-1,1.3-2.2,1.9-3.8,1.9c-2.4,0-3.3-1.3-4-2.4l-0.8,2.1H403.4z M406.3,278.7c0,2.5,1.2,3.4,2.7,3.4c2.7,0,2.7-3.2,2.8-4.7
		c-0.1-1.3-0.2-4.2-2.7-4.2c-1.3,0-2.7,0.9-2.7,3.6V278.7z"/>
	<path class="st3" d="M417.4,271.3h2.6v3.1c0.3-0.9,1.2-3.6,4-3.5v3.1c-0.7,0-1.8,0-2.7,1c-0.5,0.6-1,1.9-1,3.8v5.2h-2.9V271.3z"/>
	<path class="st3" d="M436.7,281.6c0,1.2,0.3,2.2,0.4,2.6h-2.8c-0.3-1-0.4-1.6-0.5-2.6c-0.4,0.9-1.3,2.9-4.4,2.9
		c-2.8,0-4.3-1.9-4.3-4c0-4.3,5.9-4.5,8.6-4.4v-1c0-1.6-1.4-2-2.7-2c-2.6,0-2.9,1.4-3,2l-2.5-0.4c0.5-2.9,3.2-3.7,5.8-3.7
		c1.4,0,3,0.2,3.9,0.9c1.3,1.2,1.3,2.2,1.3,3.8V281.6z M433.9,277.6c-1.8,0-3,0.3-3.5,0.4c-0.6,0.2-2.1,0.6-2.1,2.3
		c0,0.5,0.2,1.9,2.3,1.9c2.9,0,3.4-2.4,3.4-3.5V277.6z"/>
	<path class="st3" d="M440.2,271.3h2.6v3c0.5-1.1,1.5-3.2,3.9-3.2c4.2,0,4.1,3.8,4.1,5.5v7.6H448v-7.6c0-3-1.5-3-2-3
		c-0.6,0-2.9,0.2-2.9,4.6v6h-2.9V271.3z"/>
	<path class="st3" d="M462.2,284.2v-2.6c-0.4,0.9-1.2,2.9-3.8,2.9c-4.5,0-4.9-5.5-4.9-6.9c0-2.5,1.1-6.8,5.1-6.8
		c1.3,0,2.6,0.4,3.5,2.3v-6.3h2.9v17.5H462.2z M462,276.6c0-1.1-0.2-1.6-0.7-2.4c-0.4-0.6-1.3-1-2-1c-2.6,0-2.7,3.4-2.7,4.5
		c0,0.9,0.1,4.3,2.7,4.3c1.3,0,2.7-1.2,2.7-3.3V276.6z"/>
	<path class="st3" d="M469.6,280.7c0.3,0.6,0.7,1.6,2.7,1.6c0.6,0,2.7-0.1,2.7-1.6c0-0.8-0.9-1.2-1.4-1.3l-2.4-0.5
		c-1.2-0.2-3.9-0.8-3.9-3.8c0-1.4,0.8-4.1,4.9-4.1c1.5,0,4.2,0.3,5,3l-2.6,0.5c-0.1-0.4-0.5-1.4-2.3-1.4c-1.6,0-2.3,0.6-2.3,1.5
		c0,0.8,0.8,1.2,1.9,1.4l2.8,0.6c2.1,0.4,3.2,1.7,3.2,3.7c0,3.6-3.8,4.2-5.6,4.2c-3.1,0-5-1.3-5.5-3.2L469.6,280.7z"/>
	<path class="st3" d="M340.3,306.5c0,1.2,0.3,2.2,0.4,2.6h-2.8c-0.3-1-0.4-1.6-0.5-2.6c-0.4,0.9-1.3,2.9-4.4,2.9
		c-2.8,0-4.3-1.9-4.3-4c0-4.3,5.9-4.5,8.6-4.4v-1c0-1.6-1.4-2-2.7-2c-2.6,0-2.9,1.4-3,2l-2.5-0.4c0.5-2.9,3.2-3.7,5.8-3.7
		c1.4,0,3,0.2,3.9,0.9c1.3,1.2,1.3,2.2,1.3,3.8V306.5z M337.5,302.6c-1.8,0-3,0.3-3.5,0.4c-0.6,0.2-2.1,0.6-2.1,2.3
		c0,0.5,0.2,1.9,2.3,1.9c2.9,0,3.4-2.4,3.4-3.5V302.6z"/>
	<path class="st3" d="M343.8,296.2h2.6v3.1c0.3-0.9,1.2-3.6,4-3.5v3.1c-0.7,0-1.8,0-2.7,1c-0.5,0.6-1,1.9-1,3.8v5.2h-2.9V296.2z"/>
	<path class="st3" d="M363.3,305.4c-0.9,2.9-3.2,4-5.7,4c-4.3,0-5.9-3.4-5.9-6.7c0-3.8,2.3-6.8,6.1-6.8c4.2,0,5.9,3.3,5.8,7.1h-8.8
		c0,0.9-0.1,1.9,0.7,2.9c0.5,0.8,1.4,1.2,2.4,1.2c2.1,0,2.6-1.4,2.9-2.1L363.3,305.4z M360.5,301.1c0-0.7-0.1-1.3-0.6-2
		c-0.5-0.7-1.3-1.1-2.3-1.1c-1,0-1.8,0.4-2.3,1.3c-0.4,0.7-0.5,1.2-0.6,1.9H360.5z"/>
	<path class="st3" d="M384.4,309.1h-2.7v-2.8c-0.2,0.7-0.5,1.4-1.4,2.1c-0.4,0.4-1.3,0.9-2.7,0.9c-1.2,0-2.4-0.4-3.2-1.6
		c-0.5-0.8-0.7-1.4-0.7-2.6v-9h3v8.2c0,1.4,0.4,2.5,1.8,2.5c0.9,0,2.1-0.7,2.5-1.8c0.3-0.8,0.4-1.4,0.4-2.7v-6.2h2.9V309.1z"/>
	<path class="st3" d="M389,305.6c0.3,0.6,0.7,1.6,2.7,1.6c0.6,0,2.7-0.1,2.7-1.6c0-0.8-0.9-1.2-1.4-1.3l-2.4-0.5
		c-1.2-0.2-3.9-0.8-3.9-3.8c0-1.4,0.8-4.1,4.9-4.1c1.5,0,4.2,0.3,5,3l-2.6,0.5c-0.1-0.4-0.5-1.4-2.3-1.4c-1.6,0-2.3,0.6-2.3,1.5
		c0,0.8,0.8,1.2,1.9,1.4l2.8,0.6c2.1,0.4,3.2,1.7,3.2,3.7c0,3.6-3.8,4.2-5.6,4.2c-3.1,0-5-1.3-5.5-3.2L389,305.6z"/>
	<path class="st3" d="M399.7,294.7v-3h2.9v3H399.7z M399.7,309.1v-12.9h2.9v12.9H399.7z"/>
	<path class="st3" d="M406.2,296.2h2.6v3c0.5-1.1,1.5-3.2,3.9-3.2c4.2,0,4.1,3.8,4.1,5.5v7.6h-2.9v-7.6c0-3-1.5-3-2-3
		c-0.6,0-2.9,0.2-2.9,4.6v6h-2.9V296.2z"/>
	<path class="st3" d="M432.1,296h-0.9c-1,0-1.5,0.3-1.9,1c0.7,0.6,1.5,1.4,1.5,2.8c0,2.3-2.1,4-5.2,4c-0.9,0-1.5-0.1-2.4-0.3
		c-0.4,0.2-0.9,0.5-0.9,1.3c0,0.5,0.4,1.3,2.1,1.3h3.3c3.2,0,4.4,1.8,4.4,3.5c0,1.6-1.2,4.2-6.7,4.2c-3.4,0-6.3-0.8-6.3-3.5
		c0-1.6,0.9-2.1,1.9-2.6c-0.7-0.7-1.2-1.2-1.2-2.1c0-1.6,1.4-2.3,2.1-2.7c-0.7-0.4-1.8-1.2-1.8-3c0-1.3,0.8-3.9,5.3-3.9
		c1.2,0,1.8,0.1,2.5,0.3c0.2-0.9,0.6-1.5,1.2-1.9c0.6-0.4,1.3-0.5,2.1-0.5h0.9V296z M423.6,311.5c0.9,0.2,1.8,0.3,2.4,0.3
		c1.3,0,3.3-0.2,3.3-1.7c0-0.9-1-1.3-1.9-1.3h-2c-1,0-2.3,0-3.1-0.3c-0.4,0.4-0.6,0.7-0.6,1.1C421.6,310.4,422.5,311.2,423.6,311.5z
		 M425.5,297.8c-1.9,0-2.4,1.3-2.4,2.1c0,1.1,0.8,2.1,2.4,2.1c0.6,0,1.2-0.2,1.6-0.4c0.7-0.5,0.8-1.1,0.8-1.8
		C427.8,299,427.4,297.8,425.5,297.8z"/>
	<path class="st3" d="M324.6,334.1v-17.5h3.1v17.5H324.6z"/>
	<path class="st3" d="M331.4,321.2h2.6v3c0.5-1.1,1.5-3.2,3.9-3.2c4.2,0,4.1,3.8,4.1,5.5v7.6h-2.9v-7.6c0-3-1.5-3-2-3
		c-0.6,0-2.9,0.2-2.9,4.6v6h-2.9V321.2z"/>
	<path class="st3" d="M346.7,330.6c0.3,0.6,0.7,1.6,2.7,1.6c0.6,0,2.7-0.1,2.7-1.6c0-0.8-0.9-1.2-1.4-1.3l-2.4-0.5
		c-1.2-0.2-3.9-0.8-3.9-3.8c0-1.4,0.8-4.1,4.9-4.1c1.5,0,4.2,0.3,5,3l-2.6,0.5c-0.1-0.4-0.5-1.4-2.3-1.4c-1.6,0-2.3,0.6-2.3,1.5
		c0,0.8,0.8,1.2,1.9,1.4l2.8,0.6c2.1,0.4,3.2,1.7,3.2,3.7c0,3.6-3.8,4.2-5.6,4.2c-3.1,0-5-1.3-5.5-3.2L346.7,330.6z"/>
	<path class="st3" d="M363.4,334.1c-0.7,0.2-1.5,0.3-2,0.3c-1,0-2.2-0.3-2.7-1c-0.8-0.9-0.9-1.7-0.9-3.2v-6.7h-1.6v-2.3h1.8l0.3-3.3
		l2.4-0.2v3.6h2.6v2.3h-2.6v6.3c0,1.8,0.6,2.1,2.1,2.1c0.2,0,0.4,0,0.7,0V334.1z"/>
	<path class="st3" d="M376.5,331.4c0,1.2,0.3,2.2,0.4,2.6h-2.8c-0.3-1-0.4-1.6-0.5-2.6c-0.4,0.9-1.3,2.9-4.4,2.9
		c-2.8,0-4.3-1.9-4.3-4c0-4.3,5.9-4.5,8.6-4.4v-1c0-1.6-1.4-2-2.7-2c-2.6,0-2.9,1.4-3,2l-2.5-0.4c0.5-2.9,3.2-3.7,5.8-3.7
		c1.4,0,3,0.2,3.9,0.9c1.3,1.2,1.3,2.2,1.3,3.8V331.4z M373.7,327.5c-1.8,0-3,0.3-3.5,0.4c-0.6,0.2-2.1,0.6-2.1,2.3
		c0,0.5,0.2,1.9,2.3,1.9c2.9,0,3.4-2.4,3.4-3.5V327.5z"/>
	<path class="st3" d="M391.8,320.9h-0.9c-1,0-1.5,0.3-1.9,1c0.7,0.6,1.5,1.4,1.5,2.8c0,2.3-2.1,4-5.2,4c-0.9,0-1.5-0.1-2.4-0.3
		c-0.4,0.2-0.9,0.5-0.9,1.3c0,0.5,0.4,1.3,2.1,1.3h3.3c3.2,0,4.4,1.8,4.4,3.5c0,1.6-1.2,4.2-6.7,4.2c-3.4,0-6.3-0.8-6.3-3.5
		c0-1.6,0.9-2.1,1.9-2.6c-0.7-0.7-1.2-1.2-1.2-2.1c0-1.6,1.4-2.3,2.1-2.7c-0.7-0.4-1.8-1.2-1.8-3c0-1.3,0.8-3.9,5.3-3.9
		c1.2,0,1.8,0.1,2.5,0.3c0.2-0.9,0.6-1.5,1.2-1.9c0.6-0.4,1.3-0.5,2.1-0.5h0.9V320.9z M383.3,336.4c0.9,0.2,1.8,0.3,2.4,0.3
		c1.3,0,3.3-0.2,3.3-1.7c0-0.9-1-1.3-1.9-1.3h-2c-1,0-2.3,0-3.1-0.3c-0.4,0.4-0.6,0.7-0.6,1.1C381.3,335.3,382.2,336.2,383.3,336.4z
		 M385.2,322.7c-1.9,0-2.4,1.3-2.4,2.1c0,1.1,0.8,2.1,2.4,2.1c0.6,0,1.2-0.2,1.6-0.4c0.7-0.5,0.8-1.1,0.8-1.8
		C387.5,324,387.1,322.7,385.2,322.7z"/>
	<path class="st3" d="M393.6,321.2h2.6v3.1c0.3-0.9,1.2-3.6,4-3.5v3.1c-0.7,0-1.8,0-2.7,1c-0.5,0.6-1,1.9-1,3.8v5.2h-2.9V321.2z"/>
	<path class="st3" d="M412.9,331.4c0,1.2,0.3,2.2,0.4,2.6h-2.8c-0.3-1-0.4-1.6-0.5-2.6c-0.4,0.9-1.3,2.9-4.4,2.9
		c-2.8,0-4.3-1.9-4.3-4c0-4.3,5.9-4.5,8.6-4.4v-1c0-1.6-1.4-2-2.7-2c-2.6,0-2.9,1.4-3,2l-2.5-0.4c0.5-2.9,3.2-3.7,5.8-3.7
		c1.4,0,3,0.2,3.9,0.9c1.3,1.2,1.3,2.2,1.3,3.8V331.4z M410,327.5c-1.8,0-3,0.3-3.5,0.4c-0.6,0.2-2.1,0.6-2.1,2.3
		c0,0.5,0.2,1.9,2.3,1.9c2.9,0,3.4-2.4,3.4-3.5V327.5z"/>
	<path class="st3" d="M416.3,321.2h2.9v2.7c0.6-1.1,1.5-3,4.3-3c2.8,0,3.5,2.2,3.7,3c0.7-1.4,2-3,4.3-3c2.8,0,4.1,2,4.1,4.8v8.4
		h-3.1v-7.6c0-1.6-0.3-2.9-2.2-2.9c-1.4,0-2.9,0.9-2.9,3.8v6.8h-3.1v-8c0-1-0.3-2.5-2.1-2.5c-1.4,0-3,1.1-3,4.3v6.3h-3.1V321.2z"/>
</g>
</svg>
