<?xml version="1.0" encoding="utf-8"?>
<!-- Generator: Adobe Illustrator 22.1.0, SVG Export Plug-In . SVG Version: 6.00 Build 0)  -->
<svg version="1.1" id="funfacts" xmlns="http://www.w3.org/2000/svg" xmlns:xlink="http://www.w3.org/1999/xlink" x="0px" y="0px"
	 viewBox="0 0 1061.9 734" style="enable-background:new 0 0 1061.9 734;" xml:space="preserve">
<style type="text/css">
	.st0{fill:#EFEEEE;}
	.st1{fill:#F9A26C;}
	.st2{fill:#FFFFFF;}
	.st3{fill:#325D79;}
	.st4{fill:none;stroke:#EFEEEE;stroke-width:2;stroke-miterlimit:10;}
	.st5{fill:#F26627;}
</style>
<g id="fact3">
	<path id="back3" class="st0" d="M1016,716.5H733c-6.6,0-12-5.4-12-12V314.2c0-6.6,5.4-12,12-12h283c6.6,0,12,5.4,12,12v390.3
		C1028,711.1,1022.6,716.5,1016,716.5z"/>
	<path id="notif3" class="st1" d="M980,481.8h-70.3l-33-33c-2.4-2.4-6.3-2.4-8.7,0l-33,33H772c-6.6,0-12,5.4-12,12v158
		c0,6.6,5.4,12,12,12h208c6.6,0,12-5.4,12-12v-158C992,487.2,986.6,481.8,980,481.8z"/>
	<g>
		<path class="st2" d="M784.2,521.8v6.3h-3.7v-17.8h6.9c1.3,0,2.5,0.2,3.5,0.7c1,0.5,1.8,1.2,2.3,2.1c0.5,0.9,0.8,1.9,0.8,3.1
			c0,1.7-0.6,3.1-1.8,4.1c-1.2,1-2.8,1.5-4.9,1.5H784.2z M784.2,518.9h3.3c1,0,1.7-0.2,2.2-0.7c0.5-0.5,0.8-1.1,0.8-2
			c0-0.9-0.3-1.6-0.8-2.1s-1.2-0.8-2.1-0.8h-3.4V518.9z"/>
		<path class="st2" d="M796.4,511.5c0-0.5,0.2-1,0.5-1.3c0.4-0.3,0.8-0.5,1.4-0.5c0.6,0,1.1,0.2,1.4,0.5c0.4,0.3,0.5,0.8,0.5,1.3
			c0,0.5-0.2,1-0.5,1.3c-0.4,0.3-0.8,0.5-1.4,0.5c-0.6,0-1.1-0.2-1.4-0.5C796.5,512.5,796.4,512,796.4,511.5z M800.1,528.1h-3.5
			v-13.2h3.5V528.1z"/>
		<path class="st2" d="M807.1,525.3h6.5v2.8h-11V526l6.2-8.2h-6v-2.8h10.6v2.1L807.1,525.3z"/>
		<path class="st2" d="M819.8,525.3h6.5v2.8h-11V526l6.2-8.2h-6v-2.8h10.6v2.1L819.8,525.3z"/>
		<path class="st2" d="M836.1,528.1c-0.2-0.3-0.3-0.7-0.4-1.2c-0.9,1-2,1.4-3.3,1.4c-1.3,0-2.4-0.4-3.2-1.1
			c-0.9-0.7-1.3-1.7-1.3-2.8c0-1.4,0.5-2.5,1.6-3.2c1-0.7,2.5-1.1,4.5-1.1h1.6v-0.8c0-0.6-0.2-1.1-0.5-1.5c-0.3-0.4-0.8-0.5-1.5-0.5
			c-0.6,0-1.1,0.1-1.4,0.4c-0.3,0.3-0.5,0.7-0.5,1.2h-3.5c0-0.8,0.2-1.5,0.7-2.1c0.5-0.7,1.1-1.2,2-1.5c0.9-0.4,1.8-0.6,2.9-0.6
			c1.6,0,2.9,0.4,3.9,1.2c1,0.8,1.4,2,1.4,3.4v5.7c0,1.3,0.2,2.2,0.5,2.8v0.2H836.1z M833.2,525.7c0.5,0,1-0.1,1.4-0.3
			c0.4-0.2,0.8-0.5,1-0.9v-2.3h-1.3c-1.8,0-2.7,0.6-2.8,1.8l0,0.2c0,0.4,0.2,0.8,0.5,1.1C832.2,525.5,832.7,525.7,833.2,525.7z"/>
		<path class="st2" d="M848.1,511.5c0-0.5,0.2-1,0.5-1.3c0.4-0.3,0.8-0.5,1.4-0.5c0.6,0,1.1,0.2,1.4,0.5c0.4,0.3,0.5,0.8,0.5,1.3
			c0,0.5-0.2,1-0.5,1.3c-0.4,0.3-0.8,0.5-1.4,0.5c-0.6,0-1.1-0.2-1.4-0.5C848.2,512.5,848.1,512,848.1,511.5z M851.8,528.1h-3.5
			v-13.2h3.5V528.1z"/>
		<path class="st2" d="M861.9,524.5c0-0.4-0.2-0.8-0.6-1c-0.4-0.2-1.1-0.5-2.1-0.7c-3.1-0.7-4.7-2-4.7-4c0-1.2,0.5-2.2,1.5-2.9
			c1-0.8,2.2-1.2,3.8-1.2c1.7,0,3,0.4,4,1.2c1,0.8,1.5,1.8,1.5,3.1h-3.5c0-0.5-0.2-0.9-0.5-1.3c-0.3-0.3-0.8-0.5-1.5-0.5
			c-0.6,0-1.1,0.1-1.4,0.4c-0.3,0.3-0.5,0.6-0.5,1c0,0.4,0.2,0.7,0.6,0.9c0.4,0.2,1,0.4,1.9,0.6s1.6,0.4,2.2,0.6
			c1.9,0.7,2.8,1.9,2.8,3.6c0,1.2-0.5,2.2-1.6,2.9c-1,0.7-2.4,1.1-4,1.1c-1.1,0-2.1-0.2-2.9-0.6c-0.9-0.4-1.5-0.9-2-1.6
			c-0.5-0.7-0.7-1.4-0.7-2.2h3.3c0,0.6,0.3,1.1,0.7,1.4c0.4,0.3,1,0.5,1.7,0.5c0.7,0,1.2-0.1,1.5-0.4
			C861.7,525.2,861.9,524.9,861.9,524.5z"/>
		<path class="st2" d="M878,511.7v3.2h2.3v2.6H878v6.6c0,0.5,0.1,0.8,0.3,1c0.2,0.2,0.5,0.3,1.1,0.3c0.4,0,0.7,0,1-0.1v2.7
			c-0.7,0.2-1.4,0.3-2.1,0.3c-2.5,0-3.7-1.2-3.8-3.7v-7.1h-1.9v-2.6h1.9v-3.2H878z"/>
		<path class="st2" d="M885.7,516.3c0.9-1.1,2.1-1.7,3.5-1.7c2.9,0,4.3,1.7,4.4,5v8.5H890v-8.4c0-0.8-0.2-1.3-0.5-1.7
			c-0.3-0.4-0.9-0.5-1.6-0.5c-1,0-1.8,0.4-2.2,1.2v9.4h-3.5v-18.8h3.5V516.3z"/>
		<path class="st2" d="M902.3,528.4c-1.9,0-3.5-0.6-4.7-1.8c-1.2-1.2-1.8-2.8-1.8-4.7v-0.3c0-1.3,0.3-2.5,0.8-3.6s1.2-1.9,2.2-2.4
			c0.9-0.6,2-0.8,3.2-0.8c1.8,0,3.2,0.6,4.3,1.7c1,1.1,1.6,2.8,1.6,4.8v1.4h-8.4c0.1,0.9,0.5,1.6,1,2.1c0.6,0.5,1.3,0.8,2.2,0.8
			c1.4,0,2.4-0.5,3.2-1.5l1.7,1.9c-0.5,0.7-1.2,1.3-2.1,1.8S903.4,528.4,902.3,528.4z M901.9,517.5c-0.7,0-1.3,0.2-1.7,0.7
			c-0.4,0.5-0.7,1.2-0.8,2h4.9V520c0-0.8-0.2-1.4-0.6-1.8C903.2,517.7,902.7,517.5,901.9,517.5z"/>
		<path class="st2" d="M919.3,514.9l0.1,1.5c0.9-1.1,2.2-1.7,3.8-1.7c1.7,0,2.9,0.7,3.5,2c0.9-1.3,2.3-2,4-2c1.4,0,2.5,0.4,3.2,1.3
			c0.7,0.8,1,2.1,1,3.8v8.4h-3.5v-8.4c0-0.7-0.1-1.3-0.4-1.6s-0.8-0.5-1.6-0.5c-1.1,0-1.8,0.5-2.2,1.5l0,9.1h-3.5v-8.4
			c0-0.8-0.2-1.3-0.5-1.7c-0.3-0.3-0.8-0.5-1.5-0.5c-1,0-1.7,0.4-2.2,1.2v9.3H916v-13.2H919.3z"/>
		<path class="st2" d="M937.1,521.4c0-1.3,0.3-2.5,0.8-3.5c0.5-1,1.2-1.8,2.2-2.4c0.9-0.6,2-0.8,3.3-0.8c1.8,0,3.2,0.5,4.4,1.6
			c1.1,1.1,1.8,2.6,1.9,4.4l0,0.9c0,2-0.6,3.7-1.7,4.9c-1.1,1.2-2.6,1.8-4.6,1.8s-3.4-0.6-4.6-1.8c-1.1-1.2-1.7-2.9-1.7-5V521.4z
			 M940.6,521.6c0,1.3,0.2,2.2,0.7,2.9c0.5,0.7,1.1,1,2,1c0.9,0,1.5-0.3,2-1c0.5-0.7,0.7-1.7,0.7-3.1c0-1.2-0.2-2.2-0.7-2.9
			c-0.5-0.7-1.2-1-2-1c-0.9,0-1.5,0.3-2,1C940.8,519.2,940.6,520.2,940.6,521.6z"/>
		<path class="st2" d="M958.9,524.5c0-0.4-0.2-0.8-0.6-1c-0.4-0.2-1.1-0.5-2.1-0.7c-3.1-0.7-4.7-2-4.7-4c0-1.2,0.5-2.2,1.5-2.9
			c1-0.8,2.2-1.2,3.8-1.2c1.7,0,3,0.4,4,1.2c1,0.8,1.5,1.8,1.5,3.1h-3.5c0-0.5-0.2-0.9-0.5-1.3c-0.3-0.3-0.8-0.5-1.5-0.5
			c-0.6,0-1.1,0.1-1.4,0.4c-0.3,0.3-0.5,0.6-0.5,1c0,0.4,0.2,0.7,0.6,0.9c0.4,0.2,1,0.4,1.9,0.6s1.6,0.4,2.2,0.6
			c1.9,0.7,2.8,1.9,2.8,3.6c0,1.2-0.5,2.2-1.6,2.9c-1,0.7-2.4,1.1-4,1.1c-1.1,0-2.1-0.2-2.9-0.6c-0.9-0.4-1.5-0.9-2-1.6
			c-0.5-0.7-0.7-1.4-0.7-2.2h3.3c0,0.6,0.3,1.1,0.7,1.4c0.4,0.3,1,0.5,1.7,0.5c0.7,0,1.2-0.1,1.5-0.4
			C958.7,525.2,958.9,524.9,958.9,524.5z"/>
		<path class="st2" d="M968.8,511.7v3.2h2.3v2.6h-2.3v6.6c0,0.5,0.1,0.8,0.3,1c0.2,0.2,0.5,0.3,1.1,0.3c0.4,0,0.7,0,1-0.1v2.7
			c-0.7,0.2-1.4,0.3-2.1,0.3c-2.5,0-3.7-1.2-3.8-3.7v-7.1h-1.9v-2.6h1.9v-3.2H968.8z"/>
		<path class="st2" d="M795.3,545.5c0-0.5,0.2-1,0.5-1.3c0.4-0.3,0.8-0.5,1.4-0.5c0.6,0,1.1,0.2,1.4,0.5c0.4,0.3,0.5,0.8,0.5,1.3
			c0,0.5-0.2,1-0.5,1.3c-0.4,0.3-0.8,0.5-1.4,0.5c-0.6,0-1.1-0.2-1.4-0.5C795.5,546.5,795.3,546,795.3,545.5z M799.1,562.1h-3.5
			v-13.2h3.5V562.1z"/>
		<path class="st2" d="M805.2,548.9l0.1,1.5c0.9-1.2,2.2-1.8,3.8-1.8c1.4,0,2.4,0.4,3.1,1.2c0.7,0.8,1,2.1,1,3.7v8.5h-3.5v-8.4
			c0-0.7-0.2-1.3-0.5-1.6c-0.3-0.3-0.9-0.5-1.6-0.5c-1,0-1.7,0.4-2.2,1.3v9.3h-3.5v-13.2H805.2z"/>
		<path class="st2" d="M823.1,558.5c0-0.4-0.2-0.8-0.6-1c-0.4-0.2-1.1-0.5-2.1-0.7c-3.1-0.7-4.7-2-4.7-4c0-1.2,0.5-2.2,1.5-2.9
			c1-0.8,2.2-1.2,3.8-1.2c1.7,0,3,0.4,4,1.2c1,0.8,1.5,1.8,1.5,3.1H823c0-0.5-0.2-0.9-0.5-1.3c-0.3-0.3-0.8-0.5-1.5-0.5
			c-0.6,0-1.1,0.1-1.4,0.4c-0.3,0.3-0.5,0.6-0.5,1c0,0.4,0.2,0.7,0.6,0.9c0.4,0.2,1,0.4,1.9,0.6s1.6,0.4,2.2,0.6
			c1.9,0.7,2.8,1.9,2.8,3.6c0,1.2-0.5,2.2-1.6,2.9c-1,0.7-2.4,1.1-4,1.1c-1.1,0-2.1-0.2-2.9-0.6c-0.9-0.4-1.5-0.9-2-1.6
			c-0.5-0.7-0.7-1.4-0.7-2.2h3.3c0,0.6,0.3,1.1,0.7,1.4c0.4,0.3,1,0.5,1.7,0.5c0.7,0,1.2-0.1,1.5-0.4
			C822.9,559.2,823.1,558.9,823.1,558.5z"/>
		<path class="st2" d="M833,545.7v3.2h2.3v2.6H833v6.6c0,0.5,0.1,0.8,0.3,1c0.2,0.2,0.5,0.3,1.1,0.3c0.4,0,0.7,0,1-0.1v2.7
			c-0.7,0.2-1.4,0.3-2.1,0.3c-2.5,0-3.7-1.2-3.8-3.7v-7.1h-1.9v-2.6h1.9v-3.2H833z"/>
		<path class="st2" d="M844.9,562.1c-0.2-0.3-0.3-0.7-0.4-1.2c-0.9,1-2,1.4-3.3,1.4c-1.3,0-2.4-0.4-3.2-1.1
			c-0.9-0.7-1.3-1.7-1.3-2.8c0-1.4,0.5-2.5,1.6-3.2c1-0.7,2.5-1.1,4.5-1.1h1.6v-0.8c0-0.6-0.2-1.1-0.5-1.5c-0.3-0.4-0.8-0.5-1.5-0.5
			c-0.6,0-1.1,0.1-1.4,0.4c-0.3,0.3-0.5,0.7-0.5,1.2H837c0-0.8,0.2-1.5,0.7-2.1c0.5-0.7,1.1-1.2,2-1.5c0.9-0.4,1.8-0.6,2.9-0.6
			c1.6,0,2.9,0.4,3.9,1.2c1,0.8,1.4,2,1.4,3.4v5.7c0,1.3,0.2,2.2,0.5,2.8v0.2H844.9z M842,559.7c0.5,0,1-0.1,1.4-0.3
			c0.4-0.2,0.8-0.5,1-0.9v-2.3h-1.3c-1.8,0-2.7,0.6-2.8,1.8l0,0.2c0,0.4,0.2,0.8,0.5,1.1C841,559.5,841.5,559.7,842,559.7z"/>
		<path class="st2" d="M850.2,555.4c0-2,0.5-3.7,1.4-4.9c1-1.2,2.3-1.9,3.9-1.9c1.4,0,2.6,0.5,3.4,1.5l0.1-1.2h3.2v12.8
			c0,1.2-0.3,2.2-0.8,3c-0.5,0.9-1.3,1.5-2.2,2c-1,0.4-2.1,0.7-3.3,0.7c-1,0-1.9-0.2-2.8-0.6c-0.9-0.4-1.6-0.9-2.1-1.5l1.6-2.1
			c0.9,1,1.9,1.5,3.2,1.5c0.9,0,1.7-0.3,2.2-0.8c0.5-0.5,0.8-1.2,0.8-2.1V561c-0.8,0.9-1.9,1.4-3.2,1.4c-1.6,0-2.9-0.6-3.9-1.9
			c-1-1.2-1.5-2.9-1.5-4.9V555.4z M853.7,555.7c0,1.2,0.2,2.1,0.7,2.8c0.5,0.7,1.1,1,2,1c1.1,0,1.8-0.4,2.3-1.2v-5.6
			c-0.5-0.8-1.2-1.2-2.3-1.2c-0.8,0-1.5,0.3-2,1C853.9,553.3,853.7,554.3,853.7,555.7z"/>
		<path class="st2" d="M872.4,552.2c-0.5-0.1-0.9-0.1-1.3-0.1c-1.3,0-2.2,0.5-2.6,1.4v8.6h-3.5v-13.2h3.3l0.1,1.6
			c0.7-1.2,1.7-1.8,2.9-1.8c0.4,0,0.8,0.1,1.1,0.2L872.4,552.2z"/>
		<path class="st2" d="M881.3,562.1c-0.2-0.3-0.3-0.7-0.4-1.2c-0.9,1-2,1.4-3.3,1.4c-1.3,0-2.4-0.4-3.2-1.1
			c-0.9-0.7-1.3-1.7-1.3-2.8c0-1.4,0.5-2.5,1.6-3.2c1-0.7,2.5-1.1,4.5-1.1h1.6v-0.8c0-0.6-0.2-1.1-0.5-1.5c-0.3-0.4-0.8-0.5-1.5-0.5
			c-0.6,0-1.1,0.1-1.4,0.4c-0.3,0.3-0.5,0.7-0.5,1.2h-3.5c0-0.8,0.2-1.5,0.7-2.1c0.5-0.7,1.1-1.2,2-1.5c0.9-0.4,1.8-0.6,2.9-0.6
			c1.6,0,2.9,0.4,3.9,1.2c1,0.8,1.4,2,1.4,3.4v5.7c0,1.3,0.2,2.2,0.5,2.8v0.2H881.3z M878.4,559.7c0.5,0,1-0.1,1.4-0.3
			c0.4-0.2,0.8-0.5,1-0.9v-2.3h-1.3c-1.8,0-2.7,0.6-2.8,1.8l0,0.2c0,0.4,0.2,0.8,0.5,1.1C877.5,559.5,877.9,559.7,878.4,559.7z"/>
		<path class="st2" d="M890.4,548.9l0.1,1.5c0.9-1.1,2.2-1.7,3.8-1.7c1.7,0,2.9,0.7,3.5,2c0.9-1.3,2.3-2,4-2c1.4,0,2.5,0.4,3.2,1.3
			c0.7,0.8,1,2.1,1,3.8v8.4h-3.5v-8.4c0-0.7-0.1-1.3-0.4-1.6s-0.8-0.5-1.6-0.5c-1.1,0-1.8,0.5-2.2,1.5l0,9.1h-3.5v-8.4
			c0-0.8-0.2-1.3-0.5-1.7c-0.3-0.3-0.8-0.5-1.5-0.5c-1,0-1.7,0.4-2.2,1.2v9.3h-3.5v-13.2H890.4z"/>
		<path class="st2" d="M912,548.9l0.1,1.5c0.9-1.1,2.2-1.7,3.8-1.7c1.7,0,2.9,0.7,3.5,2c0.9-1.3,2.3-2,4-2c1.4,0,2.5,0.4,3.2,1.3
			c0.7,0.8,1,2.1,1,3.8v8.4h-3.5v-8.4c0-0.7-0.1-1.3-0.4-1.6s-0.8-0.5-1.6-0.5c-1.1,0-1.8,0.5-2.2,1.5l0,9.1h-3.5v-8.4
			c0-0.8-0.2-1.3-0.5-1.7c-0.3-0.3-0.8-0.5-1.5-0.5c-1,0-1.7,0.4-2.2,1.2v9.3h-3.5v-13.2H912z"/>
		<path class="st2" d="M936.5,562.4c-1.9,0-3.5-0.6-4.7-1.8c-1.2-1.2-1.8-2.8-1.8-4.7v-0.3c0-1.3,0.3-2.5,0.8-3.6s1.2-1.9,2.2-2.4
			c0.9-0.6,2-0.8,3.2-0.8c1.8,0,3.2,0.6,4.3,1.7c1,1.1,1.6,2.8,1.6,4.8v1.4h-8.4c0.1,0.9,0.5,1.6,1,2.1c0.6,0.5,1.3,0.8,2.2,0.8
			c1.4,0,2.4-0.5,3.2-1.5l1.7,1.9c-0.5,0.7-1.2,1.3-2.1,1.8S937.6,562.4,936.5,562.4z M936.1,551.5c-0.7,0-1.3,0.2-1.7,0.7
			c-0.4,0.5-0.7,1.2-0.8,2h4.9V554c0-0.8-0.2-1.4-0.6-1.8C937.4,551.7,936.8,551.5,936.1,551.5z"/>
		<path class="st2" d="M943.3,555.4c0-2.1,0.5-3.7,1.4-4.9c0.9-1.2,2.2-1.8,3.8-1.8c1.3,0,2.3,0.5,3.2,1.4v-6.7h3.5v18.8h-3.2
			l-0.2-1.4c-0.9,1.1-2,1.6-3.4,1.6c-1.6,0-2.8-0.6-3.7-1.8C943.8,559.3,943.3,557.6,943.3,555.4z M946.9,555.7
			c0,1.2,0.2,2.2,0.6,2.8c0.4,0.7,1.1,1,1.9,1c1.1,0,1.9-0.5,2.3-1.4v-5.2c-0.4-0.9-1.2-1.4-2.3-1.4
			C947.7,551.5,946.9,552.9,946.9,555.7z"/>
		<path class="st2" d="M807.7,596.1v-10.6h-2v-2.6h2v-1.1c0-1.5,0.4-2.6,1.3-3.4c0.9-0.8,2-1.2,3.6-1.2c0.5,0,1.1,0.1,1.8,0.2l0,2.7
			c-0.3-0.1-0.7-0.1-1.1-0.1c-1.3,0-2,0.6-2,1.9v1.1h2.6v2.6h-2.6v10.6H807.7z"/>
		<path class="st2" d="M815.1,589.4c0-1.3,0.3-2.5,0.8-3.5c0.5-1,1.2-1.8,2.2-2.4c0.9-0.6,2-0.8,3.3-0.8c1.8,0,3.2,0.5,4.4,1.6
			c1.1,1.1,1.8,2.6,1.9,4.4l0,0.9c0,2-0.6,3.7-1.7,4.9c-1.1,1.2-2.6,1.8-4.6,1.8s-3.4-0.6-4.6-1.8c-1.1-1.2-1.7-2.9-1.7-5V589.4z
			 M818.6,589.6c0,1.3,0.2,2.2,0.7,2.9c0.5,0.7,1.1,1,2,1c0.9,0,1.5-0.3,2-1c0.5-0.7,0.7-1.7,0.7-3.1c0-1.2-0.2-2.2-0.7-2.9
			c-0.5-0.7-1.2-1-2-1c-0.9,0-1.5,0.3-2,1C818.9,587.2,818.6,588.2,818.6,589.6z"/>
		<path class="st2" d="M829.2,589.4c0-1.3,0.3-2.5,0.8-3.5c0.5-1,1.2-1.8,2.2-2.4c0.9-0.6,2-0.8,3.3-0.8c1.8,0,3.2,0.5,4.4,1.6
			c1.1,1.1,1.8,2.6,1.9,4.4l0,0.9c0,2-0.6,3.7-1.7,4.9c-1.1,1.2-2.6,1.8-4.6,1.8s-3.4-0.6-4.6-1.8c-1.1-1.2-1.7-2.9-1.7-5V589.4z
			 M832.8,589.6c0,1.3,0.2,2.2,0.7,2.9c0.5,0.7,1.1,1,2,1c0.9,0,1.5-0.3,2-1c0.5-0.7,0.7-1.7,0.7-3.1c0-1.2-0.2-2.2-0.7-2.9
			c-0.5-0.7-1.2-1-2-1c-0.9,0-1.5,0.3-2,1C833,587.2,832.8,588.2,832.8,589.6z"/>
		<path class="st2" d="M843.4,589.4c0-2.1,0.5-3.7,1.4-4.9c0.9-1.2,2.2-1.8,3.8-1.8c1.3,0,2.3,0.5,3.2,1.4v-6.7h3.5v18.8h-3.2
			l-0.2-1.4c-0.9,1.1-2,1.6-3.4,1.6c-1.6,0-2.8-0.6-3.7-1.8C843.8,593.3,843.4,591.6,843.4,589.4z M846.9,589.7
			c0,1.2,0.2,2.2,0.6,2.8c0.4,0.7,1.1,1,1.9,1c1.1,0,1.9-0.5,2.3-1.4v-5.2c-0.4-0.9-1.2-1.4-2.3-1.4
			C847.7,585.5,846.9,586.9,846.9,589.7z"/>
		<path class="st2" d="M858.9,600.6l-1.8-1l0.4-0.8c0.5-1,0.8-2,0.8-3v-2.7h3l0,2.4c0,0.9-0.2,1.8-0.7,2.7
			C860.2,599.2,859.6,600,858.9,600.6z"/>
		<path class="st2" d="M882.2,589.6c0,2.1-0.5,3.8-1.4,5c-0.9,1.2-2.2,1.8-3.8,1.8c-1.4,0-2.6-0.5-3.4-1.6l-0.2,1.4h-3.2v-18.8h3.5
			v6.7c0.8-1,1.9-1.4,3.2-1.4c1.6,0,2.9,0.6,3.8,1.8c0.9,1.2,1.4,2.8,1.4,5V589.6z M878.7,589.4c0-1.3-0.2-2.3-0.6-2.9
			c-0.4-0.6-1.1-0.9-1.9-0.9c-1.1,0-1.9,0.5-2.3,1.4v5.2c0.4,0.9,1.2,1.4,2.3,1.4c1.1,0,1.9-0.6,2.2-1.7
			C878.6,591.3,878.7,590.5,878.7,589.4z"/>
		<path class="st2" d="M890.5,596.4c-1.9,0-3.5-0.6-4.7-1.8c-1.2-1.2-1.8-2.8-1.8-4.7v-0.3c0-1.3,0.3-2.5,0.8-3.6s1.2-1.9,2.2-2.4
			c0.9-0.6,2-0.8,3.2-0.8c1.8,0,3.2,0.6,4.3,1.7c1,1.1,1.6,2.8,1.6,4.8v1.4h-8.4c0.1,0.9,0.5,1.6,1,2.1c0.6,0.5,1.3,0.8,2.2,0.8
			c1.4,0,2.4-0.5,3.2-1.5l1.7,1.9c-0.5,0.7-1.2,1.3-2.1,1.8S891.6,596.4,890.5,596.4z M890.1,585.5c-0.7,0-1.3,0.2-1.7,0.7
			c-0.4,0.5-0.7,1.2-0.8,2h4.9V588c0-0.8-0.2-1.4-0.6-1.8C891.4,585.7,890.8,585.5,890.1,585.5z"/>
		<path class="st2" d="M901.4,584.3c0.9-1.1,2.1-1.7,3.5-1.7c2.9,0,4.3,1.7,4.4,5v8.5h-3.5v-8.4c0-0.8-0.2-1.3-0.5-1.7
			c-0.3-0.4-0.9-0.5-1.6-0.5c-1,0-1.8,0.4-2.2,1.2v9.4h-3.5v-18.8h3.5V584.3z"/>
		<path class="st2" d="M911.9,579.5c0-0.5,0.2-1,0.5-1.3c0.4-0.3,0.8-0.5,1.4-0.5c0.6,0,1.1,0.2,1.4,0.5c0.4,0.3,0.5,0.8,0.5,1.3
			c0,0.5-0.2,1-0.5,1.3c-0.4,0.3-0.8,0.5-1.4,0.5c-0.6,0-1.1-0.2-1.4-0.5C912.1,580.5,911.9,580,911.9,579.5z M915.6,596.1h-3.5
			v-13.2h3.5V596.1z"/>
		<path class="st2" d="M921.8,582.9l0.1,1.5c0.9-1.2,2.2-1.8,3.8-1.8c1.4,0,2.4,0.4,3.1,1.2c0.7,0.8,1,2.1,1,3.7v8.5h-3.5v-8.4
			c0-0.7-0.2-1.3-0.5-1.6c-0.3-0.3-0.9-0.5-1.6-0.5c-1,0-1.7,0.4-2.2,1.3v9.3h-3.5v-13.2H921.8z"/>
		<path class="st2" d="M932,589.4c0-2.1,0.5-3.7,1.4-4.9c0.9-1.2,2.2-1.8,3.8-1.8c1.3,0,2.3,0.5,3.2,1.4v-6.7h3.5v18.8h-3.2
			l-0.2-1.4c-0.9,1.1-2,1.6-3.4,1.6c-1.6,0-2.8-0.6-3.7-1.8C932.5,593.3,932,591.6,932,589.4z M935.5,589.7c0,1.2,0.2,2.2,0.6,2.8
			c0.4,0.7,1.1,1,1.9,1c1.1,0,1.9-0.5,2.3-1.4v-5.2c-0.4-0.9-1.2-1.4-2.3-1.4C936.4,585.5,935.5,586.9,935.5,589.7z"/>
		<path class="st2" d="M795.9,626.5c0-0.4-0.2-0.8-0.6-1c-0.4-0.2-1.1-0.5-2.1-0.7c-3.1-0.7-4.7-2-4.7-4c0-1.2,0.5-2.2,1.5-2.9
			c1-0.8,2.2-1.2,3.8-1.2c1.7,0,3,0.4,4,1.2c1,0.8,1.5,1.8,1.5,3.1h-3.5c0-0.5-0.2-0.9-0.5-1.3c-0.3-0.3-0.8-0.5-1.5-0.5
			c-0.6,0-1.1,0.1-1.4,0.4c-0.3,0.3-0.5,0.6-0.5,1c0,0.4,0.2,0.7,0.6,0.9c0.4,0.2,1,0.4,1.9,0.6s1.6,0.4,2.2,0.6
			c1.9,0.7,2.8,1.9,2.8,3.6c0,1.2-0.5,2.2-1.6,2.9c-1,0.7-2.4,1.1-4,1.1c-1.1,0-2.1-0.2-2.9-0.6c-0.9-0.4-1.5-0.9-2-1.6
			c-0.5-0.7-0.7-1.4-0.7-2.2h3.3c0,0.6,0.3,1.1,0.7,1.4c0.4,0.3,1,0.5,1.7,0.5c0.7,0,1.2-0.1,1.5-0.4
			C795.7,627.2,795.9,626.9,795.9,626.5z"/>
		<path class="st2" d="M809.5,628.8c-0.9,1.1-2.1,1.6-3.6,1.6c-1.4,0-2.5-0.4-3.2-1.2c-0.7-0.8-1.1-2-1.1-3.6v-8.7h3.5v8.5
			c0,1.4,0.6,2.1,1.9,2.1c1.2,0,2-0.4,2.5-1.2v-9.4h3.5v13.2h-3.3L809.5,628.8z"/>
		<path class="st2" d="M822.7,626.5c0-0.4-0.2-0.8-0.6-1c-0.4-0.2-1.1-0.5-2.1-0.7c-3.1-0.7-4.7-2-4.7-4c0-1.2,0.5-2.2,1.5-2.9
			c1-0.8,2.2-1.2,3.8-1.2c1.7,0,3,0.4,4,1.2c1,0.8,1.5,1.8,1.5,3.1h-3.5c0-0.5-0.2-0.9-0.5-1.3c-0.3-0.3-0.8-0.5-1.5-0.5
			c-0.6,0-1.1,0.1-1.4,0.4c-0.3,0.3-0.5,0.6-0.5,1c0,0.4,0.2,0.7,0.6,0.9c0.4,0.2,1,0.4,1.9,0.6s1.6,0.4,2.2,0.6
			c1.9,0.7,2.8,1.9,2.8,3.6c0,1.2-0.5,2.2-1.6,2.9c-1,0.7-2.4,1.1-4,1.1c-1.1,0-2.1-0.2-2.9-0.6c-0.9-0.4-1.5-0.9-2-1.6
			c-0.5-0.7-0.7-1.4-0.7-2.2h3.3c0,0.6,0.3,1.1,0.7,1.4c0.4,0.3,1,0.5,1.7,0.5c0.7,0,1.2-0.1,1.5-0.4
			C822.6,627.2,822.7,626.9,822.7,626.5z"/>
		<path class="st2" d="M831.9,618.3c0.9-1.1,2.1-1.7,3.5-1.7c2.9,0,4.3,1.7,4.4,5v8.5h-3.5v-8.4c0-0.8-0.2-1.3-0.5-1.7
			c-0.3-0.4-0.9-0.5-1.6-0.5c-1,0-1.8,0.4-2.2,1.2v9.4h-3.5v-18.8h3.5V618.3z"/>
		<path class="st2" d="M842.4,613.5c0-0.5,0.2-1,0.5-1.3c0.4-0.3,0.8-0.5,1.4-0.5c0.6,0,1.1,0.2,1.4,0.5c0.4,0.3,0.5,0.8,0.5,1.3
			c0,0.5-0.2,1-0.5,1.3c-0.4,0.3-0.8,0.5-1.4,0.5c-0.6,0-1.1-0.2-1.4-0.5C842.6,614.5,842.4,614,842.4,613.5z M846.2,630.1h-3.5
			v-13.2h3.5V630.1z"/>
		<path class="st2" d="M862.9,630.1c-0.2-0.3-0.3-0.7-0.4-1.2c-0.9,1-2,1.4-3.3,1.4c-1.3,0-2.4-0.4-3.2-1.1
			c-0.9-0.7-1.3-1.7-1.3-2.8c0-1.4,0.5-2.5,1.6-3.2c1-0.7,2.5-1.1,4.5-1.1h1.6v-0.8c0-0.6-0.2-1.1-0.5-1.5c-0.3-0.4-0.8-0.5-1.5-0.5
			c-0.6,0-1.1,0.1-1.4,0.4c-0.3,0.3-0.5,0.7-0.5,1.2h-3.5c0-0.8,0.2-1.5,0.7-2.1c0.5-0.7,1.1-1.2,2-1.5c0.9-0.4,1.8-0.6,2.9-0.6
			c1.6,0,2.9,0.4,3.9,1.2c1,0.8,1.4,2,1.4,3.4v5.7c0,1.3,0.2,2.2,0.5,2.8v0.2H862.9z M860,627.7c0.5,0,1-0.1,1.4-0.3
			c0.4-0.2,0.8-0.5,1-0.9v-2.3h-1.3c-1.8,0-2.7,0.6-2.8,1.8l0,0.2c0,0.4,0.2,0.8,0.5,1.1C859.1,627.5,859.5,627.7,860,627.7z"/>
		<path class="st2" d="M871.9,616.9l0.1,1.5c0.9-1.2,2.2-1.8,3.8-1.8c1.4,0,2.4,0.4,3.1,1.2c0.7,0.8,1,2.1,1,3.7v8.5h-3.5v-8.4
			c0-0.7-0.2-1.3-0.5-1.6c-0.3-0.3-0.9-0.5-1.6-0.5c-1,0-1.7,0.4-2.2,1.3v9.3h-3.5v-13.2H871.9z"/>
		<path class="st2" d="M882.1,623.4c0-2.1,0.5-3.7,1.4-4.9c0.9-1.2,2.2-1.8,3.8-1.8c1.3,0,2.3,0.5,3.2,1.4v-6.7h3.5v18.8h-3.2
			l-0.2-1.4c-0.9,1.1-2,1.6-3.4,1.6c-1.6,0-2.8-0.6-3.7-1.8C882.6,627.3,882.1,625.6,882.1,623.4z M885.7,623.7
			c0,1.2,0.2,2.2,0.6,2.8c0.4,0.7,1.1,1,1.9,1c1.1,0,1.9-0.5,2.3-1.4v-5.2c-0.4-0.9-1.2-1.4-2.3-1.4
			C886.5,619.5,885.7,620.9,885.7,623.7z"/>
		<path class="st2" d="M910.2,626.5c0-0.4-0.2-0.8-0.6-1c-0.4-0.2-1.1-0.5-2.1-0.7c-3.1-0.7-4.7-2-4.7-4c0-1.2,0.5-2.2,1.5-2.9
			c1-0.8,2.2-1.2,3.8-1.2c1.7,0,3,0.4,4,1.2c1,0.8,1.5,1.8,1.5,3.1H910c0-0.5-0.2-0.9-0.5-1.3c-0.3-0.3-0.8-0.5-1.5-0.5
			c-0.6,0-1.1,0.1-1.4,0.4c-0.3,0.3-0.5,0.6-0.5,1c0,0.4,0.2,0.7,0.6,0.9c0.4,0.2,1,0.4,1.9,0.6s1.6,0.4,2.2,0.6
			c1.9,0.7,2.8,1.9,2.8,3.6c0,1.2-0.5,2.2-1.6,2.9c-1,0.7-2.4,1.1-4,1.1c-1.1,0-2.1-0.2-2.9-0.6c-0.9-0.4-1.5-0.9-2-1.6
			c-0.5-0.7-0.7-1.4-0.7-2.2h3.3c0,0.6,0.3,1.1,0.7,1.4c0.4,0.3,1,0.5,1.7,0.5c0.7,0,1.2-0.1,1.5-0.4
			C910,627.2,910.2,626.9,910.2,626.5z"/>
		<path class="st2" d="M920.1,613.7v3.2h2.3v2.6h-2.3v6.6c0,0.5,0.1,0.8,0.3,1c0.2,0.2,0.5,0.3,1.1,0.3c0.4,0,0.7,0,1-0.1v2.7
			c-0.7,0.2-1.4,0.3-2.1,0.3c-2.5,0-3.7-1.2-3.8-3.7v-7.1h-1.9v-2.6h1.9v-3.2H920.1z"/>
		<path class="st2" d="M930.4,630.4c-1.9,0-3.5-0.6-4.7-1.8c-1.2-1.2-1.8-2.8-1.8-4.7v-0.3c0-1.3,0.3-2.5,0.8-3.6s1.2-1.9,2.2-2.4
			c0.9-0.6,2-0.8,3.2-0.8c1.8,0,3.2,0.6,4.3,1.7c1,1.1,1.6,2.8,1.6,4.8v1.4h-8.4c0.1,0.9,0.5,1.6,1,2.1c0.6,0.5,1.3,0.8,2.2,0.8
			c1.4,0,2.4-0.5,3.2-1.5l1.7,1.9c-0.5,0.7-1.2,1.3-2.1,1.8S931.5,630.4,930.4,630.4z M930,619.5c-0.7,0-1.3,0.2-1.7,0.7
			c-0.4,0.5-0.7,1.2-0.8,2h4.9V622c0-0.8-0.2-1.4-0.6-1.8C931.3,619.7,930.7,619.5,930,619.5z"/>
		<path class="st2" d="M945.5,630.1c-0.2-0.3-0.3-0.7-0.4-1.2c-0.9,1-2,1.4-3.3,1.4c-1.3,0-2.4-0.4-3.2-1.1
			c-0.9-0.7-1.3-1.7-1.3-2.8c0-1.4,0.5-2.5,1.6-3.2c1-0.7,2.5-1.1,4.5-1.1h1.6v-0.8c0-0.6-0.2-1.1-0.5-1.5c-0.3-0.4-0.8-0.5-1.5-0.5
			c-0.6,0-1.1,0.1-1.4,0.4c-0.3,0.3-0.5,0.7-0.5,1.2h-3.5c0-0.8,0.2-1.5,0.7-2.1c0.5-0.7,1.1-1.2,2-1.5c0.9-0.4,1.8-0.6,2.9-0.6
			c1.6,0,2.9,0.4,3.9,1.2c1,0.8,1.4,2,1.4,3.4v5.7c0,1.3,0.2,2.2,0.5,2.8v0.2H945.5z M942.6,627.7c0.5,0,1-0.1,1.4-0.3
			c0.4-0.2,0.8-0.5,1-0.9v-2.3h-1.3c-1.8,0-2.7,0.6-2.8,1.8l0,0.2c0,0.4,0.2,0.8,0.5,1.1C941.6,627.5,942,627.7,942.6,627.7z"/>
		<path class="st2" d="M956,624.8l-1.3,1.3v4h-3.5v-18.8h3.5v10.4l0.7-0.9l3.4-4h4.2l-4.8,5.5l5.2,7.7h-4.1L956,624.8z"/>
	</g>
	<g id="pizza_x5F_icon">
		<g>
			<g>
				<g>
					<g>
						<path class="st3" d="M854.4,372.3c0.7,1.4,1.3,3.1,1.4,5.1c0.4,4.5-1.3,8.3-3.7,8.5c-0.4,0-0.7-0.1-1.1-0.2l-5.8,23.1
							l62.6-22.6c-1.1-3-2.3-5.9-3.8-8.8c-8.1-15.2-21.3-25.9-36.3-31.4c0,0-4.6-1.9-6.6-0.8L854.4,372.3z M856.5,385.6
							c-0.2-2.6,1.7-4.8,4.3-5c2.6-0.2,4.8,1.7,5,4.3c0.2,2.6-1.7,4.8-4.3,5C859,390.1,856.7,388.2,856.5,385.6z M888.6,381
							c0.3,3.7-2.4,6.9-6.1,7.2c-3.7,0.3-6.9-2.4-7.2-6.1c-0.3-3.7,2.4-6.9,6.1-7.2C885.1,374.6,888.3,377.4,888.6,381z
							 M876.2,365.6c0.2,2.4-1.6,4.5-4,4.7c-2.4,0.2-4.5-1.6-4.7-4c-0.2-2.4,1.6-4.5,4-4.7C873.9,361.4,876,363.2,876.2,365.6z"/>
					</g>
				</g>
			</g>
			<g>
				<g>
					<g>
						<path class="st3" d="M900.6,353.5c14.1,14.1,17.9,29,18.2,30l-7.8,1.9l3.9-0.9l-3.9,1c-0.3-1.4-8.8-33.7-49.2-45.1l2.2-7.7
							C880.6,337.3,892.4,345.3,900.6,353.5z"/>
					</g>
				</g>
			</g>
		</g>
	</g>
</g>
<g id="fact2">
	<path id="back2" class="st0" d="M682,716.5H399c-6.6,0-12-5.4-12-12V314.2c0-6.6,5.4-12,12-12h283c6.6,0,12,5.4,12,12v390.3
		C694,711.1,688.6,716.5,682,716.5z"/>
	<g id="world_x5F_icon">
		<path class="st3" d="M571.3,344.8c6.9,6.9,10.8,16.2,10.8,26c0,9.8-3.8,19.1-10.8,26c-6.9,6.9-16.2,10.8-26,10.8
			s-19.1-3.8-26-10.8c-6.9-6.9-10.8-16.2-10.8-26c0-9.8,3.8-19.1,10.8-26c6.9-6.9,16.2-10.8,26-10.8S564.3,337.8,571.3,344.8z
			 M568,393.5c4.5-4.5,7.5-10.2,8.8-16.3c-1,1.4-1.9,2-2.5-1.2c-0.6-5.2-5.4-1.9-8.4-3.7c-3.2,2.1-10.3-4.1-9.1,2.9
			c1.9,3.2,10.1-4.3,6,2.5c-2.6,4.7-9.5,15.2-8.6,20.6c0.1,7.9-8.1,1.6-10.9-1c-1.9-5.2-0.6-14.4-5.6-17c-5.4-0.2-10-0.7-12.1-6.7
			c-1.3-4.3,1.3-10.7,5.9-11.7c6.7-4.2,9.1,5,15.5,5.1c2-2.1,7.3-2.7,7.8-5c-4.1-0.7,5.3-3.5-0.4-5.1c-3.1,0.4-5.1,3.2-3.5,5.7
			c-6.1,1.4-6.2-8.8-12.1-5.5c-0.1,5.1-9.5,1.6-3.2,0.6c2.2-0.9-3.5-3.7-0.5-3.2c1.5-0.1,6.6-1.9,5.2-3c2.8-1.7,5.2,4.2,7.9-0.1
			c2-3.3-0.8-3.9-3.3-2.3c-1.4-1.6,2.5-5,5.9-6.4c1.1-0.5,2.2-0.8,3.1-0.7c1.7,2,4.9,2.3,5.1-0.2c-4.3-2-9-3.1-13.9-3.1
			c-7,0-13.7,2.2-19.2,6.3c1.5,0.7,2.3,1.5,0.9,2.6c-1.1,3.3-5.6,7.7-9.6,7.1c-2.1,3.5-3.4,7.4-4,11.5c3.3,1.1,4.1,3.3,3.4,4
			c-1.7,1.5-2.7,3.6-3.3,5.8c1.1,6.6,4.2,12.7,9,17.5c6.1,6.1,14.2,9.4,22.8,9.4C553.8,402.9,561.9,399.6,568,393.5z"/>
	</g>
	<path id="notif2" class="st1" d="M649.3,481.8H579l-33-33c-2.4-2.4-6.3-2.4-8.7,0l-33,33h-63.1c-6.6,0-12,5.4-12,12v158
		c0,6.6,5.4,12,12,12h208c6.6,0,12-5.4,12-12v-158C661.3,487.2,655.9,481.8,649.3,481.8z"/>
	<g>
		<path class="st2" d="M475.6,523l2.4-12.6h3.6l-3.9,17.8H474l-2.9-11.9l-2.9,11.9h-3.7l-3.9-17.8h3.6l2.4,12.6l2.9-12.6h3.1
			L475.6,523z"/>
		<path class="st2" d="M482.4,521.4c0-1.3,0.3-2.5,0.8-3.5c0.5-1,1.2-1.8,2.2-2.4c0.9-0.6,2-0.8,3.3-0.8c1.8,0,3.2,0.5,4.4,1.6
			c1.1,1.1,1.8,2.6,1.9,4.4l0,0.9c0,2-0.6,3.7-1.7,4.9c-1.1,1.2-2.6,1.8-4.6,1.8s-3.4-0.6-4.6-1.8c-1.1-1.2-1.7-2.9-1.7-5V521.4z
			 M486,521.6c0,1.3,0.2,2.2,0.7,2.9c0.5,0.7,1.1,1,2,1c0.9,0,1.5-0.3,2-1c0.5-0.7,0.7-1.7,0.7-3.1c0-1.2-0.2-2.2-0.7-2.9
			c-0.5-0.7-1.2-1-2-1c-0.9,0-1.5,0.3-2,1C486.2,519.2,486,520.2,486,521.6z"/>
		<path class="st2" d="M504.5,518.2c-0.5-0.1-0.9-0.1-1.3-0.1c-1.3,0-2.2,0.5-2.6,1.4v8.6h-3.5v-13.2h3.3l0.1,1.6
			c0.7-1.2,1.7-1.8,2.9-1.8c0.4,0,0.8,0.1,1.1,0.2L504.5,518.2z"/>
		<path class="st2" d="M510,528.1h-3.5v-18.8h3.5V528.1z"/>
		<path class="st2" d="M512.3,521.4c0-2.1,0.5-3.7,1.4-4.9c0.9-1.2,2.2-1.8,3.8-1.8c1.3,0,2.3,0.5,3.2,1.4v-6.7h3.5v18.8H521
			l-0.2-1.4c-0.9,1.1-2,1.6-3.4,1.6c-1.6,0-2.8-0.6-3.7-1.8C512.8,525.3,512.3,523.6,512.3,521.4z M515.8,521.7
			c0,1.2,0.2,2.2,0.6,2.8c0.4,0.7,1.1,1,1.9,1c1.1,0,1.9-0.5,2.3-1.4v-5.2c-0.4-0.9-1.2-1.4-2.3-1.4
			C516.7,517.5,515.8,518.9,515.8,521.7z"/>
		<path class="st2" d="M538.4,523.3l1.7-8.4h3.4l-3.4,13.2h-3l-2.5-8.3l-2.5,8.3h-2.9l-3.4-13.2h3.4l1.7,8.4l2.4-8.4h2.6
			L538.4,523.3z"/>
		<path class="st2" d="M545.3,511.5c0-0.5,0.2-1,0.5-1.3c0.4-0.3,0.8-0.5,1.4-0.5c0.6,0,1.1,0.2,1.4,0.5c0.4,0.3,0.5,0.8,0.5,1.3
			c0,0.5-0.2,1-0.5,1.3c-0.4,0.3-0.8,0.5-1.4,0.5c-0.6,0-1.1-0.2-1.4-0.5C545.5,512.5,545.3,512,545.3,511.5z M549.1,528.1h-3.5
			v-13.2h3.5V528.1z"/>
		<path class="st2" d="M551.4,521.4c0-2.1,0.5-3.7,1.4-4.9c0.9-1.2,2.2-1.8,3.8-1.8c1.3,0,2.3,0.5,3.2,1.4v-6.7h3.5v18.8h-3.2
			l-0.2-1.4c-0.9,1.1-2,1.6-3.4,1.6c-1.6,0-2.8-0.6-3.7-1.8C551.9,525.3,551.4,523.6,551.4,521.4z M554.9,521.7
			c0,1.2,0.2,2.2,0.6,2.8c0.4,0.7,1.1,1,1.9,1c1.1,0,1.9-0.5,2.3-1.4v-5.2c-0.4-0.9-1.2-1.4-2.3-1.4
			C555.8,517.5,554.9,518.9,554.9,521.7z"/>
		<path class="st2" d="M572.1,528.4c-1.9,0-3.5-0.6-4.7-1.8c-1.2-1.2-1.8-2.8-1.8-4.7v-0.3c0-1.3,0.3-2.5,0.8-3.6s1.2-1.9,2.2-2.4
			c0.9-0.6,2-0.8,3.2-0.8c1.8,0,3.2,0.6,4.3,1.7c1,1.1,1.6,2.8,1.6,4.8v1.4h-8.4c0.1,0.9,0.5,1.6,1,2.1c0.6,0.5,1.3,0.8,2.2,0.8
			c1.4,0,2.4-0.5,3.2-1.5l1.7,1.9c-0.5,0.7-1.2,1.3-2.1,1.8S573.2,528.4,572.1,528.4z M571.7,517.5c-0.7,0-1.3,0.2-1.7,0.7
			c-0.4,0.5-0.7,1.2-0.8,2h4.9V520c0-0.8-0.2-1.4-0.6-1.8C573,517.7,572.5,517.5,571.7,517.5z"/>
		<path class="st2" d="M585.2,521.4c0-1.3,0.3-2.5,0.8-3.5c0.5-1,1.2-1.8,2.2-2.4c0.9-0.6,2-0.8,3.3-0.8c1.8,0,3.2,0.5,4.4,1.6
			c1.1,1.1,1.8,2.6,1.9,4.4l0,0.9c0,2-0.6,3.7-1.7,4.9c-1.1,1.2-2.6,1.8-4.6,1.8s-3.4-0.6-4.6-1.8c-1.1-1.2-1.7-2.9-1.7-5V521.4z
			 M588.8,521.6c0,1.3,0.2,2.2,0.7,2.9c0.5,0.7,1.1,1,2,1c0.9,0,1.5-0.3,2-1c0.5-0.7,0.7-1.7,0.7-3.1c0-1.2-0.2-2.2-0.7-2.9
			c-0.5-0.7-1.2-1-2-1c-0.9,0-1.5,0.3-2,1C589,519.2,588.8,520.2,588.8,521.6z"/>
		<path class="st2" d="M604.7,523.8l2.5-8.9h3.7l-4.5,13.2H603l-4.5-13.2h3.7L604.7,523.8z"/>
		<path class="st2" d="M618.3,528.4c-1.9,0-3.5-0.6-4.7-1.8c-1.2-1.2-1.8-2.8-1.8-4.7v-0.3c0-1.3,0.3-2.5,0.8-3.6s1.2-1.9,2.2-2.4
			c0.9-0.6,2-0.8,3.2-0.8c1.8,0,3.2,0.6,4.3,1.7c1,1.1,1.6,2.8,1.6,4.8v1.4h-8.4c0.1,0.9,0.5,1.6,1,2.1c0.6,0.5,1.3,0.8,2.2,0.8
			c1.4,0,2.4-0.5,3.2-1.5l1.7,1.9c-0.5,0.7-1.2,1.3-2.1,1.8S619.4,528.4,618.3,528.4z M617.9,517.5c-0.7,0-1.3,0.2-1.7,0.7
			c-0.4,0.5-0.7,1.2-0.8,2h4.9V520c0-0.8-0.2-1.4-0.6-1.8C619.2,517.7,618.6,517.5,617.9,517.5z"/>
		<path class="st2" d="M633.1,518.2c-0.5-0.1-0.9-0.1-1.3-0.1c-1.3,0-2.2,0.5-2.6,1.4v8.6h-3.5v-13.2h3.3l0.1,1.6
			c0.7-1.2,1.7-1.8,2.9-1.8c0.4,0,0.8,0.1,1.1,0.2L633.1,518.2z"/>
		<path class="st2" d="M506.6,555.4h2v2.8h-2v3.8h-3.5v-3.8h-7.3l-0.2-2.2l7.4-11.7h3.6V555.4z M499.2,555.4h3.9v-6.3l-0.2,0.4
			L499.2,555.4z"/>
		<path class="st2" d="M522.5,554.8c0,2.5-0.5,4.3-1.5,5.6c-1,1.3-2.5,2-4.5,2c-1.9,0-3.4-0.6-4.4-1.9c-1-1.3-1.6-3.1-1.6-5.5v-3.3
			c0-2.5,0.5-4.4,1.5-5.7c1-1.3,2.5-1.9,4.4-1.9c1.9,0,3.4,0.6,4.4,1.9c1,1.3,1.6,3.1,1.6,5.5V554.8z M519,551.2
			c0-1.5-0.2-2.5-0.6-3.2c-0.4-0.7-1-1-1.9-1c-0.8,0-1.4,0.3-1.8,1c-0.4,0.6-0.6,1.6-0.6,3v4.3c0,1.4,0.2,2.5,0.6,3.2
			c0.4,0.7,1,1.1,1.9,1.1c0.9,0,1.5-0.3,1.9-1c0.4-0.7,0.6-1.7,0.6-3.1V551.2z"/>
		<path class="st2" d="M543.2,555.6c0,2.1-0.5,3.8-1.4,5c-0.9,1.2-2.2,1.8-3.8,1.8c-1.4,0-2.6-0.5-3.4-1.6l-0.2,1.4h-3.2v-18.8h3.5
			v6.7c0.8-1,1.9-1.4,3.2-1.4c1.6,0,2.9,0.6,3.8,1.8c0.9,1.2,1.4,2.8,1.4,5V555.6z M539.6,555.4c0-1.3-0.2-2.3-0.6-2.9
			c-0.4-0.6-1.1-0.9-1.9-0.9c-1.1,0-1.9,0.5-2.3,1.4v5.2c0.4,0.9,1.2,1.4,2.3,1.4c1.1,0,1.9-0.6,2.2-1.7
			C539.6,557.3,539.6,556.5,539.6,555.4z"/>
		<path class="st2" d="M545.3,545.5c0-0.5,0.2-1,0.5-1.3c0.4-0.3,0.8-0.5,1.4-0.5c0.6,0,1.1,0.2,1.4,0.5c0.4,0.3,0.5,0.8,0.5,1.3
			c0,0.5-0.2,1-0.5,1.3c-0.4,0.3-0.8,0.5-1.4,0.5c-0.6,0-1.1-0.2-1.4-0.5C545.5,546.5,545.3,546,545.3,545.5z M549.1,562.1h-3.5
			v-13.2h3.5V562.1z"/>
		<path class="st2" d="M555.7,562.1h-3.5v-18.8h3.5V562.1z"/>
		<path class="st2" d="M562.3,562.1h-3.5v-18.8h3.5V562.1z"/>
		<path class="st2" d="M565.2,545.5c0-0.5,0.2-1,0.5-1.3c0.4-0.3,0.8-0.5,1.4-0.5c0.6,0,1.1,0.2,1.4,0.5c0.4,0.3,0.5,0.8,0.5,1.3
			c0,0.5-0.2,1-0.5,1.3c-0.4,0.3-0.8,0.5-1.4,0.5c-0.6,0-1.1-0.2-1.4-0.5C565.4,546.5,565.2,546,565.2,545.5z M568.9,562.1h-3.5
			v-13.2h3.5V562.1z"/>
		<path class="st2" d="M571.3,555.4c0-1.3,0.3-2.5,0.8-3.5c0.5-1,1.2-1.8,2.2-2.4c0.9-0.6,2-0.8,3.3-0.8c1.8,0,3.2,0.5,4.4,1.6
			c1.1,1.1,1.8,2.6,1.9,4.4l0,0.9c0,2-0.6,3.7-1.7,4.9c-1.1,1.2-2.6,1.8-4.6,1.8s-3.4-0.6-4.6-1.8c-1.1-1.2-1.7-2.9-1.7-5V555.4z
			 M574.8,555.6c0,1.3,0.2,2.2,0.7,2.9c0.5,0.7,1.1,1,2,1c0.9,0,1.5-0.3,2-1c0.5-0.7,0.7-1.7,0.7-3.1c0-1.2-0.2-2.2-0.7-2.9
			c-0.5-0.7-1.2-1-2-1c-0.9,0-1.5,0.3-2,1C575.1,553.2,574.8,554.2,574.8,555.6z"/>
		<path class="st2" d="M589.2,548.9l0.1,1.5c0.9-1.2,2.2-1.8,3.8-1.8c1.4,0,2.4,0.4,3.1,1.2c0.7,0.8,1,2.1,1,3.7v8.5h-3.5v-8.4
			c0-0.7-0.2-1.3-0.5-1.6c-0.3-0.3-0.9-0.5-1.6-0.5c-1,0-1.7,0.4-2.2,1.3v9.3h-3.5v-13.2H589.2z"/>
		<path class="st2" d="M491.7,589.6c0,2-0.5,3.7-1.4,4.9c-0.9,1.2-2.2,1.8-3.7,1.8c-1.3,0-2.4-0.5-3.2-1.4v6.2h-3.5v-18.3h3.3
			l0.1,1.3c0.9-1,2-1.5,3.3-1.5c1.6,0,2.9,0.6,3.8,1.8s1.4,2.9,1.4,5V589.6z M488.2,589.4c0-1.2-0.2-2.2-0.7-2.8
			c-0.4-0.7-1.1-1-1.9-1c-1.1,0-1.9,0.4-2.3,1.3v5.4c0.4,0.9,1.2,1.3,2.3,1.3C487.3,593.5,488.2,592.1,488.2,589.4z"/>
		<path class="st2" d="M497.3,584.3c0.9-1.1,2.1-1.7,3.5-1.7c2.9,0,4.3,1.7,4.4,5v8.5h-3.5v-8.4c0-0.8-0.2-1.3-0.5-1.7
			c-0.3-0.4-0.9-0.5-1.6-0.5c-1,0-1.8,0.4-2.2,1.2v9.4h-3.5v-18.8h3.5V584.3z"/>
		<path class="st2" d="M507.3,589.4c0-1.3,0.3-2.5,0.8-3.5c0.5-1,1.2-1.8,2.2-2.4c0.9-0.6,2-0.8,3.3-0.8c1.8,0,3.2,0.5,4.4,1.6
			c1.1,1.1,1.8,2.6,1.9,4.4l0,0.9c0,2-0.6,3.7-1.7,4.9c-1.1,1.2-2.6,1.8-4.6,1.8s-3.4-0.6-4.6-1.8c-1.1-1.2-1.7-2.9-1.7-5V589.4z
			 M510.9,589.6c0,1.3,0.2,2.2,0.7,2.9c0.5,0.7,1.1,1,2,1c0.9,0,1.5-0.3,2-1c0.5-0.7,0.7-1.7,0.7-3.1c0-1.2-0.2-2.2-0.7-2.9
			c-0.5-0.7-1.2-1-2-1c-0.9,0-1.5,0.3-2,1C511.1,587.2,510.9,588.2,510.9,589.6z"/>
		<path class="st2" d="M526.2,579.7v3.2h2.3v2.6h-2.3v6.6c0,0.5,0.1,0.8,0.3,1c0.2,0.2,0.5,0.3,1.1,0.3c0.4,0,0.7,0,1-0.1v2.7
			c-0.7,0.2-1.4,0.3-2.1,0.3c-2.5,0-3.7-1.2-3.8-3.7v-7.1h-1.9v-2.6h1.9v-3.2H526.2z"/>
		<path class="st2" d="M529.6,589.4c0-1.3,0.3-2.5,0.8-3.5c0.5-1,1.2-1.8,2.2-2.4c0.9-0.6,2-0.8,3.3-0.8c1.8,0,3.2,0.5,4.4,1.6
			c1.1,1.1,1.8,2.6,1.9,4.4l0,0.9c0,2-0.6,3.7-1.7,4.9c-1.1,1.2-2.6,1.8-4.6,1.8s-3.4-0.6-4.6-1.8c-1.1-1.2-1.7-2.9-1.7-5V589.4z
			 M533.1,589.6c0,1.3,0.2,2.2,0.7,2.9c0.5,0.7,1.1,1,2,1c0.9,0,1.5-0.3,2-1c0.5-0.7,0.7-1.7,0.7-3.1c0-1.2-0.2-2.2-0.7-2.9
			c-0.5-0.7-1.2-1-2-1c-0.9,0-1.5,0.3-2,1C533.3,587.2,533.1,588.2,533.1,589.6z"/>
		<path class="st2" d="M551.4,592.5c0-0.4-0.2-0.8-0.6-1c-0.4-0.2-1.1-0.5-2.1-0.7c-3.1-0.7-4.7-2-4.7-4c0-1.2,0.5-2.2,1.5-2.9
			c1-0.8,2.2-1.2,3.8-1.2c1.7,0,3,0.4,4,1.2c1,0.8,1.5,1.8,1.5,3.1h-3.5c0-0.5-0.2-0.9-0.5-1.3c-0.3-0.3-0.8-0.5-1.5-0.5
			c-0.6,0-1.1,0.1-1.4,0.4c-0.3,0.3-0.5,0.6-0.5,1c0,0.4,0.2,0.7,0.6,0.9c0.4,0.2,1,0.4,1.9,0.6s1.6,0.4,2.2,0.6
			c1.9,0.7,2.8,1.9,2.8,3.6c0,1.2-0.5,2.2-1.6,2.9c-1,0.7-2.4,1.1-4,1.1c-1.1,0-2.1-0.2-2.9-0.6c-0.9-0.4-1.5-0.9-2-1.6
			c-0.5-0.7-0.7-1.4-0.7-2.2h3.3c0,0.6,0.3,1.1,0.7,1.4c0.4,0.3,1,0.5,1.7,0.5c0.7,0,1.2-0.1,1.5-0.4
			C551.2,593.2,551.4,592.9,551.4,592.5z"/>
		<path class="st2" d="M566.8,584.3c0.9-1.1,2.1-1.7,3.5-1.7c2.9,0,4.3,1.7,4.4,5v8.5h-3.5v-8.4c0-0.8-0.2-1.3-0.5-1.7
			c-0.3-0.4-0.9-0.5-1.6-0.5c-1,0-1.8,0.4-2.2,1.2v9.4h-3.5v-18.8h3.5V584.3z"/>
		<path class="st2" d="M585,596.1c-0.2-0.3-0.3-0.7-0.4-1.2c-0.9,1-2,1.4-3.3,1.4c-1.3,0-2.4-0.4-3.2-1.1c-0.9-0.7-1.3-1.7-1.3-2.8
			c0-1.4,0.5-2.5,1.6-3.2c1-0.7,2.5-1.1,4.5-1.1h1.6v-0.8c0-0.6-0.2-1.1-0.5-1.5c-0.3-0.4-0.8-0.5-1.5-0.5c-0.6,0-1.1,0.1-1.4,0.4
			c-0.3,0.3-0.5,0.7-0.5,1.2h-3.5c0-0.8,0.2-1.5,0.7-2.1c0.5-0.7,1.1-1.2,2-1.5c0.9-0.4,1.8-0.6,2.9-0.6c1.6,0,2.9,0.4,3.9,1.2
			c1,0.8,1.4,2,1.4,3.4v5.7c0,1.3,0.2,2.2,0.5,2.8v0.2H585z M582,593.7c0.5,0,1-0.1,1.4-0.3c0.4-0.2,0.8-0.5,1-0.9v-2.3h-1.3
			c-1.8,0-2.7,0.6-2.8,1.8l0,0.2c0,0.4,0.2,0.8,0.5,1.1C581.1,593.5,581.5,593.7,582,593.7z"/>
		<path class="st2" d="M595.5,591.8l2.5-8.9h3.7l-4.5,13.2h-3.4l-4.5-13.2h3.7L595.5,591.8z"/>
		<path class="st2" d="M609.1,596.4c-1.9,0-3.5-0.6-4.7-1.8c-1.2-1.2-1.8-2.8-1.8-4.7v-0.3c0-1.3,0.3-2.5,0.8-3.6s1.2-1.9,2.2-2.4
			c0.9-0.6,2-0.8,3.2-0.8c1.8,0,3.2,0.6,4.3,1.7c1,1.1,1.6,2.8,1.6,4.8v1.4h-8.4c0.1,0.9,0.5,1.6,1,2.1c0.6,0.5,1.3,0.8,2.2,0.8
			c1.4,0,2.4-0.5,3.2-1.5l1.7,1.9c-0.5,0.7-1.2,1.3-2.1,1.8S610.2,596.4,609.1,596.4z M608.7,585.5c-0.7,0-1.3,0.2-1.7,0.7
			c-0.4,0.5-0.7,1.2-0.8,2h4.9V588c0-0.8-0.2-1.4-0.6-1.8C610,585.7,609.4,585.5,608.7,585.5z"/>
		<path class="st2" d="M491,623.6c0,2.1-0.5,3.8-1.4,5c-0.9,1.2-2.2,1.8-3.8,1.8c-1.4,0-2.6-0.5-3.4-1.6l-0.2,1.4h-3.2v-18.8h3.5
			v6.7c0.8-1,1.9-1.4,3.2-1.4c1.6,0,2.9,0.6,3.8,1.8c0.9,1.2,1.4,2.8,1.4,5V623.6z M487.5,623.4c0-1.3-0.2-2.3-0.6-2.9
			c-0.4-0.6-1.1-0.9-1.9-0.9c-1.1,0-1.9,0.5-2.3,1.4v5.2c0.4,0.9,1.2,1.4,2.3,1.4c1.1,0,1.9-0.6,2.2-1.7
			C487.4,625.3,487.5,624.5,487.5,623.4z"/>
		<path class="st2" d="M499.3,630.4c-1.9,0-3.5-0.6-4.7-1.8c-1.2-1.2-1.8-2.8-1.8-4.7v-0.3c0-1.3,0.3-2.5,0.8-3.6s1.2-1.9,2.2-2.4
			c0.9-0.6,2-0.8,3.2-0.8c1.8,0,3.2,0.6,4.3,1.7c1,1.1,1.6,2.8,1.6,4.8v1.4h-8.4c0.1,0.9,0.5,1.6,1,2.1c0.6,0.5,1.3,0.8,2.2,0.8
			c1.4,0,2.4-0.5,3.2-1.5l1.7,1.9c-0.5,0.7-1.2,1.3-2.1,1.8S500.4,630.4,499.3,630.4z M498.9,619.5c-0.7,0-1.3,0.2-1.7,0.7
			c-0.4,0.5-0.7,1.2-0.8,2h4.9V622c0-0.8-0.2-1.4-0.6-1.8C500.2,619.7,499.6,619.5,498.9,619.5z"/>
		<path class="st2" d="M512.8,630.4c-1.9,0-3.5-0.6-4.7-1.8c-1.2-1.2-1.8-2.8-1.8-4.7v-0.3c0-1.3,0.3-2.5,0.8-3.6s1.2-1.9,2.2-2.4
			c0.9-0.6,2-0.8,3.2-0.8c1.8,0,3.2,0.6,4.3,1.7c1,1.1,1.6,2.8,1.6,4.8v1.4h-8.4c0.1,0.9,0.5,1.6,1,2.1c0.6,0.5,1.3,0.8,2.2,0.8
			c1.4,0,2.4-0.5,3.2-1.5l1.7,1.9c-0.5,0.7-1.2,1.3-2.1,1.8S513.9,630.4,512.8,630.4z M512.4,619.5c-0.7,0-1.3,0.2-1.7,0.7
			c-0.4,0.5-0.7,1.2-0.8,2h4.9V622c0-0.8-0.2-1.4-0.6-1.8C513.7,619.7,513.2,619.5,512.4,619.5z"/>
		<path class="st2" d="M523.5,616.9l0.1,1.5c0.9-1.2,2.2-1.8,3.8-1.8c1.4,0,2.4,0.4,3.1,1.2c0.7,0.8,1,2.1,1,3.7v8.5H528v-8.4
			c0-0.7-0.2-1.3-0.5-1.6c-0.3-0.3-0.9-0.5-1.6-0.5c-1,0-1.7,0.4-2.2,1.3v9.3h-3.5v-13.2H523.5z"/>
		<path class="st2" d="M547.6,626.5c0-0.4-0.2-0.8-0.6-1c-0.4-0.2-1.1-0.5-2.1-0.7c-3.1-0.7-4.7-2-4.7-4c0-1.2,0.5-2.2,1.5-2.9
			c1-0.8,2.2-1.2,3.8-1.2c1.7,0,3,0.4,4,1.2c1,0.8,1.5,1.8,1.5,3.1h-3.5c0-0.5-0.2-0.9-0.5-1.3c-0.3-0.3-0.8-0.5-1.5-0.5
			c-0.6,0-1.1,0.1-1.4,0.4c-0.3,0.3-0.5,0.6-0.5,1c0,0.4,0.2,0.7,0.6,0.9c0.4,0.2,1,0.4,1.9,0.6s1.6,0.4,2.2,0.6
			c1.9,0.7,2.8,1.9,2.8,3.6c0,1.2-0.5,2.2-1.6,2.9c-1,0.7-2.4,1.1-4,1.1c-1.1,0-2.1-0.2-2.9-0.6c-0.9-0.4-1.5-0.9-2-1.6
			c-0.5-0.7-0.7-1.4-0.7-2.2h3.3c0,0.6,0.3,1.1,0.7,1.4c0.4,0.3,1,0.5,1.7,0.5c0.7,0,1.2-0.1,1.5-0.4
			C547.5,627.2,547.6,626.9,547.6,626.5z"/>
		<path class="st2" d="M556.8,618.3c0.9-1.1,2.1-1.7,3.5-1.7c2.9,0,4.3,1.7,4.4,5v8.5h-3.5v-8.4c0-0.8-0.2-1.3-0.5-1.7
			c-0.3-0.4-0.9-0.5-1.6-0.5c-1,0-1.8,0.4-2.2,1.2v9.4h-3.5v-18.8h3.5V618.3z"/>
		<path class="st2" d="M575,630.1c-0.2-0.3-0.3-0.7-0.4-1.2c-0.9,1-2,1.4-3.3,1.4c-1.3,0-2.4-0.4-3.2-1.1c-0.9-0.7-1.3-1.7-1.3-2.8
			c0-1.4,0.5-2.5,1.6-3.2c1-0.7,2.5-1.1,4.5-1.1h1.6v-0.8c0-0.6-0.2-1.1-0.5-1.5c-0.3-0.4-0.8-0.5-1.5-0.5c-0.6,0-1.1,0.1-1.4,0.4
			c-0.3,0.3-0.5,0.7-0.5,1.2h-3.5c0-0.8,0.2-1.5,0.7-2.1c0.5-0.7,1.1-1.2,2-1.5c0.9-0.4,1.8-0.6,2.9-0.6c1.6,0,2.9,0.4,3.9,1.2
			c1,0.8,1.4,2,1.4,3.4v5.7c0,1.3,0.2,2.2,0.5,2.8v0.2H575z M572,627.7c0.5,0,1-0.1,1.4-0.3c0.4-0.2,0.8-0.5,1-0.9v-2.3h-1.3
			c-1.8,0-2.7,0.6-2.8,1.8l0,0.2c0,0.4,0.2,0.8,0.5,1.1C571.1,627.5,571.5,627.7,572,627.7z"/>
		<path class="st2" d="M588.1,620.2c-0.5-0.1-0.9-0.1-1.3-0.1c-1.3,0-2.2,0.5-2.6,1.4v8.6h-3.5v-13.2h3.3l0.1,1.6
			c0.7-1.2,1.7-1.8,2.9-1.8c0.4,0,0.8,0.1,1.1,0.2L588.1,620.2z"/>
		<path class="st2" d="M595.7,630.4c-1.9,0-3.5-0.6-4.7-1.8c-1.2-1.2-1.8-2.8-1.8-4.7v-0.3c0-1.3,0.3-2.5,0.8-3.6s1.2-1.9,2.2-2.4
			c0.9-0.6,2-0.8,3.2-0.8c1.8,0,3.2,0.6,4.3,1.7c1,1.1,1.6,2.8,1.6,4.8v1.4h-8.4c0.1,0.9,0.5,1.6,1,2.1c0.6,0.5,1.3,0.8,2.2,0.8
			c1.4,0,2.4-0.5,3.2-1.5l1.7,1.9c-0.5,0.7-1.2,1.3-2.1,1.8S596.8,630.4,595.7,630.4z M595.3,619.5c-0.7,0-1.3,0.2-1.7,0.7
			c-0.4,0.5-0.7,1.2-0.8,2h4.9V622c0-0.8-0.2-1.4-0.6-1.8C596.6,619.7,596,619.5,595.3,619.5z"/>
		<path class="st2" d="M602.6,623.4c0-2.1,0.5-3.7,1.4-4.9c0.9-1.2,2.2-1.8,3.8-1.8c1.3,0,2.3,0.5,3.2,1.4v-6.7h3.5v18.8h-3.2
			l-0.2-1.4c-0.9,1.1-2,1.6-3.4,1.6c-1.6,0-2.8-0.6-3.7-1.8C603,627.3,602.6,625.6,602.6,623.4z M606.1,623.7c0,1.2,0.2,2.2,0.6,2.8
			c0.4,0.7,1.1,1,1.9,1c1.1,0,1.9-0.5,2.3-1.4v-5.2c-0.4-0.9-1.2-1.4-2.3-1.4C606.9,619.5,606.1,620.9,606.1,623.7z"/>
	</g>
</g>
<g id="fact1">
	<path id="back1" class="st0" d="M348,716.5H65c-6.6,0-12-5.4-12-12V314.2c0-6.6,5.4-12,12-12h283c6.6,0,12,5.4,12,12v390.3
		C360,711.1,354.6,716.5,348,716.5z"/>
	<g id="photo_x5F_icon">
		<path id="XMLID_12_" class="st3" d="M201.9,367.9c6.1,0,11-4.9,11-11c0-6.1-4.9-11-11-11c-6.1,0-11,4.9-11,11
			C190.9,363,195.8,367.9,201.9,367.9z"/>
		<path id="XMLID_13_" class="st3" d="M228.3,334.9h-65.9c-1.8,0-3.3,1.5-3.3,3.3v52.7c0,0,0,0,0,0v13.2c0,1.8,1.5,3.3,3.3,3.3h65.9
			c1.8,0,3.3-1.5,3.3-3.3v-65.9C231.6,336.4,230.1,334.9,228.3,334.9z M225,381l-7.2-9.8c-0.6-0.8-1.6-1.3-2.6-1.3
			c-1,0-2,0.5-2.6,1.3L202,385.3l-17.2-24.8c-0.6-0.9-1.6-1.4-2.7-1.4c-1.1,0-2.1,0.5-2.7,1.4l-13.8,19.9v-38.9H225V381z"/>
	</g>
	<path id="notif1" class="st1" d="M309.5,481.8h-70.3l-33-33c-2.4-2.4-6.3-2.4-8.7,0l-33,33h-63.1c-6.6,0-12,5.4-12,12v158
		c0,6.6,5.4,12,12,12h208c6.6,0,12-5.4,12-12v-158C321.5,487.2,316.1,481.8,309.5,481.8z"/>
	<g>
		<path class="st2" d="M163.5,520.4h-7v4.8h8.3v2.9h-11.9v-17.8h11.9v3h-8.2v4.2h7V520.4z"/>
		<path class="st2" d="M171.3,523.8l2.5-8.9h3.7l-4.5,13.2h-3.4l-4.5-13.2h3.7L171.3,523.8z"/>
		<path class="st2" d="M184.9,528.4c-1.9,0-3.5-0.6-4.7-1.8c-1.2-1.2-1.8-2.8-1.8-4.7v-0.3c0-1.3,0.3-2.5,0.8-3.6s1.2-1.9,2.2-2.4
			c0.9-0.6,2-0.8,3.2-0.8c1.8,0,3.2,0.6,4.3,1.7c1,1.1,1.6,2.8,1.6,4.8v1.4h-8.4c0.1,0.9,0.5,1.6,1,2.1c0.6,0.5,1.3,0.8,2.2,0.8
			c1.4,0,2.4-0.5,3.2-1.5l1.7,1.9c-0.5,0.7-1.2,1.3-2.1,1.8S186,528.4,184.9,528.4z M184.5,517.5c-0.7,0-1.3,0.2-1.7,0.7
			c-0.4,0.5-0.7,1.2-0.8,2h4.9V520c0-0.8-0.2-1.4-0.6-1.8C185.8,517.7,185.2,517.5,184.5,517.5z"/>
		<path class="st2" d="M199.8,518.2c-0.5-0.1-0.9-0.1-1.3-0.1c-1.3,0-2.2,0.5-2.6,1.4v8.6h-3.5v-13.2h3.3l0.1,1.6
			c0.7-1.2,1.7-1.8,2.9-1.8c0.4,0,0.8,0.1,1.1,0.2L199.8,518.2z"/>
		<path class="st2" d="M206.6,523.1l2.4-8.2h3.8l-5.3,15.3l-0.3,0.7c-0.8,1.7-2.1,2.6-3.9,2.6c-0.5,0-1-0.1-1.6-0.2v-2.7l0.5,0
			c0.7,0,1.2-0.1,1.5-0.3c0.3-0.2,0.6-0.5,0.8-1l0.4-1.1l-4.6-13.2h3.8L206.6,523.1z"/>
		<path class="st2" d="M213.5,521.4c0-2.1,0.5-3.7,1.4-4.9c0.9-1.2,2.2-1.8,3.8-1.8c1.3,0,2.3,0.5,3.2,1.4v-6.7h3.5v18.8h-3.2
			l-0.2-1.4c-0.9,1.1-2,1.6-3.4,1.6c-1.6,0-2.8-0.6-3.7-1.8C214,525.3,213.5,523.6,213.5,521.4z M217,521.7c0,1.2,0.2,2.2,0.6,2.8
			c0.4,0.7,1.1,1,1.9,1c1.1,0,1.9-0.5,2.3-1.4v-5.2c-0.4-0.9-1.2-1.4-2.3-1.4C217.9,517.5,217,518.9,217,521.7z"/>
		<path class="st2" d="M235.8,528.1c-0.2-0.3-0.3-0.7-0.4-1.2c-0.9,1-2,1.4-3.3,1.4c-1.3,0-2.4-0.4-3.2-1.1
			c-0.9-0.7-1.3-1.7-1.3-2.8c0-1.4,0.5-2.5,1.6-3.2c1-0.7,2.5-1.1,4.5-1.1h1.6v-0.8c0-0.6-0.2-1.1-0.5-1.5c-0.3-0.4-0.8-0.5-1.5-0.5
			c-0.6,0-1.1,0.1-1.4,0.4c-0.3,0.3-0.5,0.7-0.5,1.2h-3.5c0-0.8,0.2-1.5,0.7-2.1c0.5-0.7,1.1-1.2,2-1.5c0.9-0.4,1.8-0.6,2.9-0.6
			c1.6,0,2.9,0.4,3.9,1.2c1,0.8,1.4,2,1.4,3.4v5.7c0,1.3,0.2,2.2,0.5,2.8v0.2H235.8z M232.9,525.7c0.5,0,1-0.1,1.4-0.3
			c0.4-0.2,0.8-0.5,1-0.9v-2.3H234c-1.8,0-2.7,0.6-2.8,1.8l0,0.2c0,0.4,0.2,0.8,0.5,1.1C231.9,525.5,232.3,525.7,232.9,525.7z"/>
		<path class="st2" d="M246.3,523.1l2.4-8.2h3.8l-5.3,15.3l-0.3,0.7c-0.8,1.7-2.1,2.6-3.9,2.6c-0.5,0-1-0.1-1.6-0.2v-2.7l0.5,0
			c0.7,0,1.2-0.1,1.5-0.3c0.3-0.2,0.6-0.5,0.8-1l0.4-1.1l-4.6-13.2h3.8L246.3,523.1z"/>
		<path class="st2" d="M155.8,555c-0.9,0.9-2,1.4-3.2,1.4c-1.6,0-2.8-0.5-3.8-1.6c-0.9-1.1-1.4-2.5-1.4-4.4c0-1.2,0.3-2.2,0.8-3.2
			c0.5-1,1.2-1.7,2.1-2.3c0.9-0.5,1.9-0.8,3.1-0.8c1.2,0,2.2,0.3,3.1,0.9c0.9,0.6,1.6,1.4,2.1,2.5c0.5,1.1,0.8,2.4,0.8,3.8v1.3
			c0,3-0.7,5.3-2.2,7c-1.5,1.7-3.6,2.6-6.3,2.7l-0.9,0v-2.9l0.8,0C153.8,559.2,155.5,557.7,155.8,555z M153.4,553.7
			c0.6,0,1.1-0.1,1.5-0.4c0.4-0.3,0.7-0.6,0.9-1.1v-1.5c0-1.2-0.2-2.1-0.7-2.8c-0.5-0.7-1.1-1-1.8-1c-0.7,0-1.3,0.3-1.7,1
			c-0.5,0.6-0.7,1.5-0.7,2.4c0,1,0.2,1.8,0.7,2.4C152,553.4,152.6,553.7,153.4,553.7z"/>
		<path class="st2" d="M162.4,553.4l1-9h10v2.9h-7.1l-0.4,3.8c0.8-0.4,1.7-0.7,2.7-0.7c1.7,0,3,0.5,4,1.6c1,1,1.4,2.5,1.4,4.4
			c0,1.1-0.2,2.2-0.7,3.1c-0.5,0.9-1.2,1.6-2.1,2.1c-0.9,0.5-2,0.8-3.2,0.8c-1.1,0-2.1-0.2-3-0.7c-0.9-0.4-1.6-1-2.2-1.8
			c-0.5-0.8-0.8-1.7-0.8-2.7h3.5c0.1,0.7,0.3,1.3,0.8,1.7c0.4,0.4,1,0.6,1.7,0.6c0.8,0,1.4-0.3,1.8-0.9c0.4-0.6,0.6-1.4,0.6-2.4
			c0-1-0.2-1.8-0.7-2.3c-0.5-0.5-1.2-0.8-2.1-0.8c-0.8,0-1.5,0.2-2,0.7l-0.3,0.3L162.4,553.4z"/>
		<path class="st2" d="M185.9,548.9l0.1,1.5c0.9-1.1,2.2-1.7,3.8-1.7c1.7,0,2.9,0.7,3.5,2c0.9-1.3,2.3-2,4-2c1.4,0,2.5,0.4,3.2,1.3
			c0.7,0.8,1,2.1,1,3.8v8.4H198v-8.4c0-0.7-0.1-1.3-0.4-1.6s-0.8-0.5-1.6-0.5c-1.1,0-1.8,0.5-2.2,1.5l0,9.1h-3.5v-8.4
			c0-0.8-0.2-1.3-0.5-1.7c-0.3-0.3-0.8-0.5-1.5-0.5c-1,0-1.7,0.4-2.2,1.2v9.3h-3.5v-13.2H185.9z"/>
		<path class="st2" d="M204.2,545.5c0-0.5,0.2-1,0.5-1.3c0.4-0.3,0.8-0.5,1.4-0.5c0.6,0,1.1,0.2,1.4,0.5c0.4,0.3,0.5,0.8,0.5,1.3
			c0,0.5-0.2,1-0.5,1.3c-0.4,0.3-0.8,0.5-1.4,0.5c-0.6,0-1.1-0.2-1.4-0.5C204.4,546.5,204.2,546,204.2,545.5z M207.9,562.1h-3.5
			v-13.2h3.5V562.1z"/>
		<path class="st2" d="M214.6,562.1H211v-18.8h3.5V562.1z"/>
		<path class="st2" d="M221.2,562.1h-3.5v-18.8h3.5V562.1z"/>
		<path class="st2" d="M224.1,545.5c0-0.5,0.2-1,0.5-1.3c0.4-0.3,0.8-0.5,1.4-0.5c0.6,0,1.1,0.2,1.4,0.5c0.4,0.3,0.5,0.8,0.5,1.3
			c0,0.5-0.2,1-0.5,1.3c-0.4,0.3-0.8,0.5-1.4,0.5c-0.6,0-1.1-0.2-1.4-0.5C224.3,546.5,224.1,546,224.1,545.5z M227.8,562.1h-3.5
			v-13.2h3.5V562.1z"/>
		<path class="st2" d="M230.2,555.4c0-1.3,0.3-2.5,0.8-3.5c0.5-1,1.2-1.8,2.2-2.4c0.9-0.6,2-0.8,3.3-0.8c1.8,0,3.2,0.5,4.4,1.6
			c1.1,1.1,1.8,2.6,1.9,4.4l0,0.9c0,2-0.6,3.7-1.7,4.9c-1.1,1.2-2.6,1.8-4.6,1.8s-3.4-0.6-4.6-1.8c-1.1-1.2-1.7-2.9-1.7-5V555.4z
			 M233.7,555.6c0,1.3,0.2,2.2,0.7,2.9c0.5,0.7,1.1,1,2,1c0.9,0,1.5-0.3,2-1c0.5-0.7,0.7-1.7,0.7-3.1c0-1.2-0.2-2.2-0.7-2.9
			c-0.5-0.7-1.2-1-2-1c-0.9,0-1.5,0.3-2,1C233.9,553.2,233.7,554.2,233.7,555.6z"/>
		<path class="st2" d="M248.1,548.9l0.1,1.5c0.9-1.2,2.2-1.8,3.8-1.8c1.4,0,2.4,0.4,3.1,1.2c0.7,0.8,1,2.1,1,3.7v8.5h-3.5v-8.4
			c0-0.7-0.2-1.3-0.5-1.6c-0.3-0.3-0.9-0.5-1.6-0.5c-1,0-1.7,0.4-2.2,1.3v9.3h-3.5v-13.2H248.1z"/>
		<path class="st2" d="M155.5,589.6c0,2-0.5,3.7-1.4,4.9c-0.9,1.2-2.2,1.8-3.7,1.8c-1.3,0-2.4-0.5-3.2-1.4v6.2h-3.5v-18.3h3.3
			l0.1,1.3c0.9-1,2-1.5,3.3-1.5c1.6,0,2.9,0.6,3.8,1.8s1.4,2.9,1.4,5V589.6z M152,589.4c0-1.2-0.2-2.2-0.7-2.8c-0.4-0.7-1.1-1-1.9-1
			c-1.1,0-1.9,0.4-2.3,1.3v5.4c0.4,0.9,1.2,1.3,2.3,1.3C151.1,593.5,152,592.1,152,589.4z"/>
		<path class="st2" d="M161.1,584.3c0.9-1.1,2.1-1.7,3.5-1.7c2.9,0,4.3,1.7,4.4,5v8.5h-3.5v-8.4c0-0.8-0.2-1.3-0.5-1.7
			c-0.3-0.4-0.9-0.5-1.6-0.5c-1,0-1.8,0.4-2.2,1.2v9.4h-3.5v-18.8h3.5V584.3z"/>
		<path class="st2" d="M171.1,589.4c0-1.3,0.3-2.5,0.8-3.5c0.5-1,1.2-1.8,2.2-2.4c0.9-0.6,2-0.8,3.3-0.8c1.8,0,3.2,0.5,4.4,1.6
			c1.1,1.1,1.8,2.6,1.9,4.4l0,0.9c0,2-0.6,3.7-1.7,4.9c-1.1,1.2-2.6,1.8-4.6,1.8s-3.4-0.6-4.6-1.8c-1.1-1.2-1.7-2.9-1.7-5V589.4z
			 M174.7,589.6c0,1.3,0.2,2.2,0.7,2.9c0.5,0.7,1.1,1,2,1c0.9,0,1.5-0.3,2-1c0.5-0.7,0.7-1.7,0.7-3.1c0-1.2-0.2-2.2-0.7-2.9
			c-0.5-0.7-1.2-1-2-1c-0.9,0-1.5,0.3-2,1C174.9,587.2,174.7,588.2,174.7,589.6z"/>
		<path class="st2" d="M190,579.7v3.2h2.3v2.6H190v6.6c0,0.5,0.1,0.8,0.3,1c0.2,0.2,0.5,0.3,1.1,0.3c0.4,0,0.7,0,1-0.1v2.7
			c-0.7,0.2-1.4,0.3-2.1,0.3c-2.5,0-3.7-1.2-3.8-3.7v-7.1h-1.9v-2.6h1.9v-3.2H190z"/>
		<path class="st2" d="M193.3,589.4c0-1.3,0.3-2.5,0.8-3.5c0.5-1,1.2-1.8,2.2-2.4c0.9-0.6,2-0.8,3.3-0.8c1.8,0,3.2,0.5,4.4,1.6
			c1.1,1.1,1.8,2.6,1.9,4.4l0,0.9c0,2-0.6,3.7-1.7,4.9c-1.1,1.2-2.6,1.8-4.6,1.8s-3.4-0.6-4.6-1.8c-1.1-1.2-1.7-2.9-1.7-5V589.4z
			 M196.9,589.6c0,1.3,0.2,2.2,0.7,2.9c0.5,0.7,1.1,1,2,1c0.9,0,1.5-0.3,2-1c0.5-0.7,0.7-1.7,0.7-3.1c0-1.2-0.2-2.2-0.7-2.9
			c-0.5-0.7-1.2-1-2-1c-0.9,0-1.5,0.3-2,1C197.1,587.2,196.9,588.2,196.9,589.6z"/>
		<path class="st2" d="M215.2,592.5c0-0.4-0.2-0.8-0.6-1c-0.4-0.2-1.1-0.5-2.1-0.7c-3.1-0.7-4.7-2-4.7-4c0-1.2,0.5-2.2,1.5-2.9
			c1-0.8,2.2-1.2,3.8-1.2c1.7,0,3,0.4,4,1.2c1,0.8,1.5,1.8,1.5,3.1H215c0-0.5-0.2-0.9-0.5-1.3c-0.3-0.3-0.8-0.5-1.5-0.5
			c-0.6,0-1.1,0.1-1.4,0.4c-0.3,0.3-0.5,0.6-0.5,1c0,0.4,0.2,0.7,0.6,0.9c0.4,0.2,1,0.4,1.9,0.6s1.6,0.4,2.2,0.6
			c1.9,0.7,2.8,1.9,2.8,3.6c0,1.2-0.5,2.2-1.6,2.9c-1,0.7-2.4,1.1-4,1.1c-1.1,0-2.1-0.2-2.9-0.6c-0.9-0.4-1.5-0.9-2-1.6
			c-0.5-0.7-0.7-1.4-0.7-2.2h3.3c0,0.6,0.3,1.1,0.7,1.4c0.4,0.3,1,0.5,1.7,0.5c0.7,0,1.2-0.1,1.5-0.4
			C215,593.2,215.2,592.9,215.2,592.5z"/>
		<path class="st2" d="M234.8,596.1c-0.2-0.3-0.3-0.7-0.4-1.2c-0.9,1-2,1.4-3.3,1.4c-1.3,0-2.4-0.4-3.2-1.1
			c-0.9-0.7-1.3-1.7-1.3-2.8c0-1.4,0.5-2.5,1.6-3.2c1-0.7,2.5-1.1,4.5-1.1h1.6v-0.8c0-0.6-0.2-1.1-0.5-1.5c-0.3-0.4-0.8-0.5-1.5-0.5
			c-0.6,0-1.1,0.1-1.4,0.4c-0.3,0.3-0.5,0.7-0.5,1.2h-3.5c0-0.8,0.2-1.5,0.7-2.1c0.5-0.7,1.1-1.2,2-1.5c0.9-0.4,1.8-0.6,2.9-0.6
			c1.6,0,2.9,0.4,3.9,1.2c1,0.8,1.4,2,1.4,3.4v5.7c0,1.3,0.2,2.2,0.5,2.8v0.2H234.8z M231.8,593.7c0.5,0,1-0.1,1.4-0.3
			c0.4-0.2,0.8-0.5,1-0.9v-2.3h-1.3c-1.8,0-2.7,0.6-2.8,1.8l0,0.2c0,0.4,0.2,0.8,0.5,1.1C230.9,593.5,231.3,593.7,231.8,593.7z"/>
		<path class="st2" d="M247.9,586.2c-0.5-0.1-0.9-0.1-1.3-0.1c-1.3,0-2.2,0.5-2.6,1.4v8.6h-3.5v-13.2h3.3l0.1,1.6
			c0.7-1.2,1.7-1.8,2.9-1.8c0.4,0,0.8,0.1,1.1,0.2L247.9,586.2z"/>
		<path class="st2" d="M255.5,596.4c-1.9,0-3.5-0.6-4.7-1.8c-1.2-1.2-1.8-2.8-1.8-4.7v-0.3c0-1.3,0.3-2.5,0.8-3.6s1.2-1.9,2.2-2.4
			c0.9-0.6,2-0.8,3.2-0.8c1.8,0,3.2,0.6,4.3,1.7c1,1.1,1.6,2.8,1.6,4.8v1.4h-8.4c0.1,0.9,0.5,1.6,1,2.1c0.6,0.5,1.3,0.8,2.2,0.8
			c1.4,0,2.4-0.5,3.2-1.5l1.7,1.9c-0.5,0.7-1.2,1.3-2.1,1.8S256.6,596.4,255.5,596.4z M255.1,585.5c-0.7,0-1.3,0.2-1.7,0.7
			c-0.4,0.5-0.7,1.2-0.8,2h4.9V588c0-0.8-0.2-1.4-0.6-1.8C256.4,585.7,255.8,585.5,255.1,585.5z"/>
		<path class="st2" d="M159.2,628.8c-0.9,1.1-2.1,1.6-3.6,1.6c-1.4,0-2.5-0.4-3.2-1.2c-0.7-0.8-1.1-2-1.1-3.6v-8.7h3.5v8.5
			c0,1.4,0.6,2.1,1.9,2.1c1.2,0,2-0.4,2.5-1.2v-9.4h3.5v13.2h-3.3L159.2,628.8z"/>
		<path class="st2" d="M177.2,623.6c0,2-0.5,3.7-1.4,4.9c-0.9,1.2-2.2,1.8-3.7,1.8c-1.3,0-2.4-0.5-3.2-1.4v6.2h-3.5v-18.3h3.3
			l0.1,1.3c0.9-1,2-1.5,3.3-1.5c1.6,0,2.9,0.6,3.8,1.8s1.4,2.9,1.4,5V623.6z M173.7,623.4c0-1.2-0.2-2.2-0.7-2.8
			c-0.4-0.7-1.1-1-1.9-1c-1.1,0-1.9,0.4-2.3,1.3v5.4c0.4,0.9,1.2,1.3,2.3,1.3C172.8,627.5,173.7,626.1,173.7,623.4z"/>
		<path class="st2" d="M183.1,630.1h-3.5v-18.8h3.5V630.1z"/>
		<path class="st2" d="M185.4,623.4c0-1.3,0.3-2.5,0.8-3.5c0.5-1,1.2-1.8,2.2-2.4c0.9-0.6,2-0.8,3.3-0.8c1.8,0,3.2,0.5,4.4,1.6
			c1.1,1.1,1.8,2.6,1.9,4.4l0,0.9c0,2-0.6,3.7-1.7,4.9c-1.1,1.2-2.6,1.8-4.6,1.8s-3.4-0.6-4.6-1.8c-1.1-1.2-1.7-2.9-1.7-5V623.4z
			 M189,623.6c0,1.3,0.2,2.2,0.7,2.9c0.5,0.7,1.1,1,2,1c0.9,0,1.5-0.3,2-1c0.5-0.7,0.7-1.7,0.7-3.1c0-1.2-0.2-2.2-0.7-2.9
			c-0.5-0.7-1.2-1-2-1c-0.9,0-1.5,0.3-2,1C189.2,621.2,189,622.2,189,623.6z"/>
		<path class="st2" d="M207.8,630.1c-0.2-0.3-0.3-0.7-0.4-1.2c-0.9,1-2,1.4-3.3,1.4c-1.3,0-2.4-0.4-3.2-1.1
			c-0.9-0.7-1.3-1.7-1.3-2.8c0-1.4,0.5-2.5,1.6-3.2c1-0.7,2.5-1.1,4.5-1.1h1.6v-0.8c0-0.6-0.2-1.1-0.5-1.5c-0.3-0.4-0.8-0.5-1.5-0.5
			c-0.6,0-1.1,0.1-1.4,0.4c-0.3,0.3-0.5,0.7-0.5,1.2h-3.5c0-0.8,0.2-1.5,0.7-2.1c0.5-0.7,1.1-1.2,2-1.5c0.9-0.4,1.8-0.6,2.9-0.6
			c1.6,0,2.9,0.4,3.9,1.2c1,0.8,1.4,2,1.4,3.4v5.7c0,1.3,0.2,2.2,0.5,2.8v0.2H207.8z M204.9,627.7c0.5,0,1-0.1,1.4-0.3
			c0.4-0.2,0.8-0.5,1-0.9v-2.3H206c-1.8,0-2.7,0.6-2.8,1.8l0,0.2c0,0.4,0.2,0.8,0.5,1.1C203.9,627.5,204.3,627.7,204.9,627.7z"/>
		<path class="st2" d="M213,623.4c0-2.1,0.5-3.7,1.4-4.9c0.9-1.2,2.2-1.8,3.8-1.8c1.3,0,2.3,0.5,3.2,1.4v-6.7h3.5v18.8h-3.2
			l-0.2-1.4c-0.9,1.1-2,1.6-3.4,1.6c-1.6,0-2.8-0.6-3.7-1.8C213.5,627.3,213,625.6,213,623.4z M216.5,623.7c0,1.2,0.2,2.2,0.6,2.8
			c0.4,0.7,1.1,1,1.9,1c1.1,0,1.9-0.5,2.3-1.4v-5.2c-0.4-0.9-1.2-1.4-2.3-1.4C217.4,619.5,216.5,620.9,216.5,623.7z"/>
		<path class="st2" d="M233.7,630.4c-1.9,0-3.5-0.6-4.7-1.8c-1.2-1.2-1.8-2.8-1.8-4.7v-0.3c0-1.3,0.3-2.5,0.8-3.6s1.2-1.9,2.2-2.4
			c0.9-0.6,2-0.8,3.2-0.8c1.8,0,3.2,0.6,4.3,1.7c1,1.1,1.6,2.8,1.6,4.8v1.4h-8.4c0.1,0.9,0.5,1.6,1,2.1c0.6,0.5,1.3,0.8,2.2,0.8
			c1.4,0,2.4-0.5,3.2-1.5l1.7,1.9c-0.5,0.7-1.2,1.3-2.1,1.8S234.8,630.4,233.7,630.4z M233.3,619.5c-0.7,0-1.3,0.2-1.7,0.7
			c-0.4,0.5-0.7,1.2-0.8,2h4.9V622c0-0.8-0.2-1.4-0.6-1.8C234.6,619.7,234,619.5,233.3,619.5z"/>
		<path class="st2" d="M240.6,623.4c0-2.1,0.5-3.7,1.4-4.9c0.9-1.2,2.2-1.8,3.8-1.8c1.3,0,2.3,0.5,3.2,1.4v-6.7h3.5v18.8h-3.2
			l-0.2-1.4c-0.9,1.1-2,1.6-3.4,1.6c-1.6,0-2.8-0.6-3.7-1.8C241.1,627.3,240.6,625.6,240.6,623.4z M244.1,623.7
			c0,1.2,0.2,2.2,0.6,2.8c0.4,0.7,1.1,1,1.9,1c1.1,0,1.9-0.5,2.3-1.4v-5.2c-0.4-0.9-1.2-1.4-2.3-1.4
			C245,619.5,244.1,620.9,244.1,623.7z"/>
	</g>
</g>
<path id="connect" class="st4" d="M871.8,19.2c0,0,1.2,98.7,0,124.3c-1.2,25.6-29.8,20.6-29.8,20.6s-584,0.5-617,0
	s-29.7,19.1-29.7,19.1v23.7v78.8"/>
<g>
	<path class="st3" d="M470.2,188.9v3.2h2.6v1.1h-2.6v8.5c0,0.7,0.1,1.2,0.4,1.6c0.3,0.3,0.7,0.5,1.3,0.5c0.2,0,0.6,0,1.1-0.1
		l0.1,1.1c-0.4,0.1-0.9,0.2-1.5,0.2c-1,0-1.7-0.3-2.1-0.8s-0.7-1.4-0.7-2.5v-8.5h-2.3v-1.1h2.3v-3.2H470.2z"/>
	<path class="st3" d="M483.7,204.8c-0.1-0.4-0.2-1-0.3-1.8c-0.5,0.6-1.1,1.1-1.9,1.5s-1.6,0.5-2.4,0.5c-1.2,0-2.2-0.3-3-1
		s-1.1-1.5-1.1-2.6c0-1.2,0.5-2.2,1.5-2.9s2.5-1.1,4.3-1.1h2.5V196c0-0.9-0.3-1.6-0.8-2.1s-1.4-0.8-2.4-0.8c-1,0-1.8,0.3-2.4,0.8
		s-1,1.1-1,1.8l-1.4,0c0-1,0.5-1.9,1.4-2.6s2.1-1.1,3.5-1.1c1.4,0,2.5,0.4,3.3,1.1s1.2,1.7,1.3,3v6c0,1.2,0.1,2.1,0.4,2.8v0.1H483.7
		z M479.3,203.8c0.9,0,1.8-0.2,2.5-0.7s1.3-1.1,1.6-1.8v-2.8H481c-1.4,0-2.5,0.3-3.3,0.8s-1.2,1.2-1.2,2c0,0.7,0.3,1.3,0.8,1.8
		S478.5,203.8,479.3,203.8z"/>
	<path class="st3" d="M498.8,198.6c0,2-0.4,3.5-1.3,4.7s-2,1.7-3.5,1.7c-1.7,0-3.1-0.6-4-1.8v6.5h-1.4v-17.6h1.3l0.1,1.8
		c0.9-1.4,2.2-2,4-2c1.5,0,2.7,0.6,3.6,1.7s1.3,2.7,1.3,4.8V198.6z M497.4,198.4c0-1.6-0.3-2.9-1-3.8s-1.6-1.4-2.8-1.4
		c-0.9,0-1.6,0.2-2.2,0.6s-1.1,1-1.4,1.8v6.1c0.3,0.7,0.8,1.3,1.4,1.7s1.4,0.6,2.2,0.6c1.2,0,2.1-0.5,2.8-1.4
		S497.4,200.2,497.4,198.4z"/>
	<path class="st3" d="M509.9,188.9v3.2h2.6v1.1h-2.6v8.5c0,0.7,0.1,1.2,0.4,1.6c0.3,0.3,0.7,0.5,1.3,0.5c0.2,0,0.6,0,1.1-0.1
		l0.1,1.1c-0.4,0.1-0.9,0.2-1.5,0.2c-1,0-1.7-0.3-2.1-0.8s-0.7-1.4-0.7-2.5v-8.5h-2.3v-1.1h2.3v-3.2H509.9z"/>
	<path class="st3" d="M514.4,198.3c0-1.2,0.2-2.3,0.7-3.3s1.1-1.7,2-2.3s1.8-0.8,2.9-0.8c1.7,0,3.1,0.6,4.1,1.8s1.6,2.8,1.6,4.7v0.3
		c0,1.2-0.2,2.3-0.7,3.3s-1.1,1.7-2,2.3s-1.8,0.8-2.9,0.8c-1.7,0-3-0.6-4.1-1.8s-1.6-2.8-1.6-4.7V198.3z M515.8,198.7
		c0,1.5,0.4,2.8,1.2,3.7s1.8,1.5,3.1,1.5c1.3,0,2.3-0.5,3.1-1.5s1.2-2.3,1.2-3.8v-0.3c0-1-0.2-1.9-0.5-2.7s-0.9-1.4-1.5-1.9
		s-1.4-0.7-2.2-0.7c-1.3,0-2.3,0.5-3.1,1.5s-1.2,2.3-1.2,3.8V198.7z"/>
	<path class="st3" d="M533.9,198.4c0-2,0.4-3.5,1.3-4.7s2.1-1.8,3.6-1.8c1.7,0,3,0.7,3.9,2v-7.1h1.4v18h-1.3l-0.1-1.7
		c-0.9,1.3-2.2,1.9-4,1.9c-1.5,0-2.6-0.6-3.5-1.8s-1.3-2.8-1.3-4.8V198.4z M535.3,198.6c0,1.6,0.3,2.9,1,3.8s1.6,1.4,2.7,1.4
		c1.7,0,3-0.8,3.7-2.3v-6c-0.7-1.6-1.9-2.5-3.7-2.5c-1.2,0-2.1,0.5-2.8,1.4S535.3,196.8,535.3,198.6z"/>
	<path class="st3" d="M547.7,188.5c0-0.3,0.1-0.5,0.3-0.7c0.2-0.2,0.4-0.3,0.7-0.3s0.5,0.1,0.7,0.3c0.2,0.2,0.3,0.4,0.3,0.7
		s-0.1,0.5-0.3,0.7s-0.4,0.3-0.7,0.3s-0.5-0.1-0.7-0.3S547.7,188.7,547.7,188.5z M549.4,204.8H548v-12.7h1.4V204.8z"/>
	<path class="st3" d="M560.8,201.6c0-0.7-0.3-1.3-0.8-1.7s-1.4-0.8-2.5-1s-2-0.5-2.6-0.8s-1.1-0.7-1.4-1.1s-0.5-1-0.5-1.6
		c0-1,0.4-1.8,1.3-2.5s1.9-1,3.2-1c1.4,0,2.5,0.3,3.4,1s1.3,1.6,1.3,2.7h-1.4c0-0.7-0.3-1.4-0.9-1.9s-1.4-0.7-2.3-0.7
		c-0.9,0-1.7,0.2-2.2,0.6s-0.8,0.9-0.8,1.6c0,0.6,0.2,1.1,0.7,1.5s1.3,0.7,2.5,1s2.2,0.6,2.8,0.9s1.1,0.7,1.4,1.2s0.4,1,0.4,1.7
		c0,1.1-0.4,1.9-1.3,2.6s-2,1-3.4,1c-1.5,0-2.7-0.4-3.6-1.1s-1.4-1.6-1.4-2.7h1.4c0.1,0.8,0.4,1.5,1,1.9s1.5,0.7,2.5,0.7
		c1,0,1.8-0.2,2.4-0.6S560.8,202.3,560.8,201.6z"/>
	<path class="st3" d="M570,203.9c1,0,1.8-0.3,2.5-0.8s1-1.3,1.1-2.1h1.3c0,0.8-0.3,1.5-0.7,2.1s-1,1.1-1.8,1.5s-1.5,0.5-2.4,0.5
		c-1.7,0-3-0.6-4-1.7s-1.5-2.7-1.5-4.7v-0.4c0-1.3,0.2-2.4,0.7-3.3s1.1-1.7,1.9-2.2s1.8-0.8,2.9-0.8c1.4,0,2.5,0.4,3.4,1.2
		s1.4,1.9,1.4,3.3h-1.3c-0.1-1-0.4-1.8-1.1-2.4s-1.5-0.9-2.5-0.9c-1.3,0-2.2,0.5-2.9,1.4s-1,2.2-1,3.8v0.4c0,1.6,0.3,2.9,1,3.8
		S568.8,203.9,570,203.9z"/>
	<path class="st3" d="M576.9,198.3c0-1.2,0.2-2.3,0.7-3.3s1.1-1.7,2-2.3s1.8-0.8,2.9-0.8c1.7,0,3.1,0.6,4.1,1.8s1.6,2.8,1.6,4.7v0.3
		c0,1.2-0.2,2.3-0.7,3.3s-1.1,1.7-2,2.3s-1.8,0.8-2.9,0.8c-1.7,0-3-0.6-4.1-1.8s-1.6-2.8-1.6-4.7V198.3z M578.4,198.7
		c0,1.5,0.4,2.8,1.2,3.7s1.8,1.5,3.1,1.5c1.3,0,2.3-0.5,3.1-1.5s1.2-2.3,1.2-3.8v-0.3c0-1-0.2-1.9-0.5-2.7s-0.9-1.4-1.5-1.9
		s-1.4-0.7-2.2-0.7c-1.3,0-2.3,0.5-3.1,1.5s-1.2,2.3-1.2,3.8V198.7z"/>
	<path class="st3" d="M594.9,202.9l3.9-10.7h1.4l-4.7,12.7h-1.1l-4.8-12.7h1.4L594.9,202.9z"/>
	<path class="st3" d="M607.3,205.1c-1.1,0-2.1-0.3-2.9-0.8s-1.5-1.3-2-2.2s-0.7-2-0.7-3.2v-0.5c0-1.2,0.2-2.3,0.7-3.3s1.1-1.7,2-2.3
		s1.8-0.8,2.7-0.8c1.5,0,2.8,0.5,3.7,1.6s1.4,2.5,1.4,4.3v0.8h-9v0.3c0,1.4,0.4,2.6,1.2,3.6s1.9,1.4,3.1,1.4c0.8,0,1.4-0.1,2-0.4
		s1.1-0.7,1.6-1.3l0.9,0.7C610.7,204.3,609.2,205.1,607.3,205.1z M607,193.1c-1.1,0-1.9,0.4-2.7,1.2s-1.2,1.8-1.3,3.1h7.6v-0.2
		c0-1.2-0.4-2.2-1-3S608.1,193.1,607,193.1z"/>
	<path class="st3" d="M620.6,193.3c-0.3-0.1-0.6-0.1-0.9-0.1c-0.9,0-1.6,0.2-2.2,0.7s-1,1.2-1.3,2.1v8.7h-1.4v-12.7h1.4l0,2
		c0.7-1.5,1.9-2.3,3.6-2.3c0.4,0,0.7,0.1,0.9,0.2L620.6,193.3z"/>
</g>
<g>
	<path class="st3" d="M490.3,125.2h-11.8v12.1h-6.1v-29.7h19.4v5h-13.2v7.7h11.8V125.2z"/>
	<path class="st3" d="M507.7,135.1c-1.5,1.8-3.5,2.7-6,2.7c-2.4,0-4.2-0.7-5.4-2c-1.2-1.4-1.9-3.4-1.9-6v-14.5h5.9v14.3
		c0,2.3,1,3.5,3.1,3.5c2,0,3.4-0.7,4.1-2.1v-15.7h5.9v22.1h-5.6L507.7,135.1z"/>
	<path class="st3" d="M523.3,115.2l0.2,2.6c1.6-2,3.7-3,6.3-3c2.3,0,4.1,0.7,5.2,2.1c1.1,1.4,1.7,3.4,1.8,6.2v14.3h-5.9v-14.1
		c0-1.3-0.3-2.2-0.8-2.7c-0.5-0.6-1.4-0.8-2.7-0.8c-1.7,0-2.9,0.7-3.7,2.1v15.6h-5.9v-22.1H523.3z"/>
	<path class="st3" d="M570,125.2h-11.8v12.1h-6.1v-29.7h19.4v5h-13.2v7.7H570V125.2z"/>
	<path class="st3" d="M586.7,137.3c-0.3-0.5-0.5-1.2-0.6-2c-1.4,1.6-3.3,2.4-5.6,2.4c-2.2,0-4-0.6-5.4-1.9s-2.1-2.8-2.1-4.7
		c0-2.3,0.9-4.1,2.6-5.4c1.7-1.3,4.2-1.9,7.5-1.9h2.7v-1.3c0-1-0.3-1.8-0.8-2.4c-0.5-0.6-1.4-0.9-2.5-0.9c-1,0-1.8,0.2-2.3,0.7
		c-0.6,0.5-0.8,1.1-0.8,2h-5.9c0-1.3,0.4-2.5,1.2-3.6c0.8-1.1,1.9-1.9,3.3-2.6c1.4-0.6,3.1-0.9,4.9-0.9c2.7,0,4.9,0.7,6.5,2.1
		c1.6,1.4,2.4,3.3,2.4,5.8v9.6c0,2.1,0.3,3.7,0.9,4.8v0.3H586.7z M581.8,133.2c0.9,0,1.7-0.2,2.4-0.6c0.7-0.4,1.3-0.9,1.6-1.6v-3.8
		h-2.2c-3,0-4.5,1-4.7,3.1l0,0.3c0,0.7,0.3,1.3,0.8,1.8C580.2,133,580.9,133.2,581.8,133.2z"/>
	<path class="st3" d="M605.5,133c1.1,0,2-0.3,2.7-0.9c0.7-0.6,1-1.4,1.1-2.4h5.5c0,1.5-0.4,2.9-1.2,4.1c-0.8,1.2-1.9,2.2-3.3,2.9
		c-1.4,0.7-2.9,1-4.6,1c-3.2,0-5.6-1-7.5-3c-1.8-2-2.7-4.8-2.7-8.3V126c0-3.4,0.9-6.1,2.7-8.1s4.3-3,7.5-3c2.8,0,5,0.8,6.6,2.4
		c1.7,1.6,2.5,3.7,2.5,6.3h-5.5c0-1.1-0.4-2.1-1.1-2.8c-0.7-0.7-1.6-1.1-2.7-1.1c-1.4,0-2.4,0.5-3.1,1.5s-1.1,2.6-1.1,4.9v0.6
		c0,2.3,0.3,3.9,1,4.9C603.1,132.5,604.1,133,605.5,133z"/>
	<path class="st3" d="M625.2,109.8v5.4h3.8v4.3h-3.8v11c0,0.8,0.2,1.4,0.5,1.8c0.3,0.4,0.9,0.5,1.8,0.5c0.7,0,1.2,0,1.7-0.1v4.5
		c-1.2,0.4-2.3,0.5-3.6,0.5c-4.1,0-6.2-2.1-6.3-6.3v-11.9h-3.2v-4.3h3.2v-5.4H625.2z"/>
	<path class="st3" d="M644.2,131.2c0-0.7-0.4-1.3-1.1-1.7c-0.7-0.4-1.9-0.8-3.4-1.1c-5.3-1.1-7.9-3.3-7.9-6.7c0-2,0.8-3.6,2.4-4.9
		c1.6-1.3,3.8-2,6.4-2c2.8,0,5,0.7,6.7,2s2.5,3,2.5,5.1H644c0-0.8-0.3-1.5-0.8-2.1c-0.5-0.6-1.4-0.8-2.6-0.8c-1,0-1.8,0.2-2.3,0.7
		s-0.8,1-0.8,1.7c0,0.7,0.3,1.2,0.9,1.6c0.6,0.4,1.7,0.7,3.1,1s2.7,0.6,3.7,1c3.1,1.1,4.7,3.1,4.7,5.9c0,2-0.9,3.6-2.6,4.9
		s-4,1.9-6.7,1.9c-1.9,0-3.5-0.3-4.9-1c-1.4-0.7-2.6-1.6-3.4-2.7c-0.8-1.2-1.2-2.4-1.2-3.7h5.6c0.1,1,0.4,1.9,1.2,2.4
		c0.7,0.6,1.7,0.8,2.9,0.8c1.1,0,2-0.2,2.6-0.6C643.9,132.5,644.2,131.9,644.2,131.2z"/>
</g>
<path id="star_x5F_notification" class="st5" d="M446.2,93.8h-55.7c-3.2,0-5.8,2.6-5.8,5.8v36.2c0,3.2,2.6,5.8,5.8,5.8h19.1l7.2,9.6
	c0.4,0.5,0.9,0.8,1.6,0.8c0.6,0,1.2-0.3,1.6-0.8l7.2-9.6h19.1c3.2,0,5.8-2.6,5.8-5.8V99.7C452,96.5,449.4,93.8,446.2,93.8z
	 M407.1,105.9L407.1,105.9L407.1,105.9C407.1,105.9,407.1,105.9,407.1,105.9z M432.6,115.5l-4.7,6.3l0.1,7.8c0,0.5-0.2,1-0.6,1.3
	c-0.3,0.2-0.6,0.3-0.9,0.3c-0.2,0-0.3,0-0.5-0.1l-7.4-2.5l-5.6,1.9l-1.8,0.6c-0.5,0.2-1,0.1-1.4-0.2c-0.4-0.3-0.6-0.8-0.6-1.3
	l0.1-7.8l-4.7-6.3c-0.3-0.4-0.4-0.9-0.2-1.4c0.2-0.5,0.5-0.8,1-1l7.5-2.4l4.6-6.4c0.3-0.4,0.8-0.6,1.2-0.6c0.5,0,1,0.2,1.2,0.6
	l4.6,6.4l7.5,2.4c0.5,0.1,0.8,0.5,1,1C433,114.6,432.9,115.1,432.6,115.5z"/>
</svg>
