<?xml version="1.0" encoding="utf-8"?>
<!-- Generator: Adobe Illustrator 22.1.0, SVG Export Plug-In . SVG Version: 6.00 Build 0)  -->
<svg version="1.1" id="graph" xmlns="http://www.w3.org/2000/svg" xmlns:xlink="http://www.w3.org/1999/xlink" x="0px" y="0px"
	 viewBox="0 0 930.7 542" style="enable-background:new 0 0 930.7 542;" xml:space="preserve">
<style type="text/css">
	.st0{fill:#C8C8C8;}
	.st1{opacity:0.35;fill:#C8C8C8;enable-background:new    ;}
	.st2{fill:#F9A26C;}
	.st3{fill:#F26627;}
	.st4{fill:none;stroke:#325D79;stroke-width:5;stroke-miterlimit:10;}
	.st5{opacity:0.9;fill:#98D7D1;enable-background:new    ;}
	.st6{opacity:0.39;fill:#98D7D1;enable-background:new    ;}
</style>
<g id="outlines">
	<rect x="151.8" y="8.8" class="st0" width="1.8" height="487"/>
	<rect x="298.7" y="8.8" class="st1" width="1.8" height="487"/>
	<rect x="448.6" y="8.8" class="st1" width="1.8" height="487"/>
	<rect x="598.5" y="8.8" class="st1" width="1.8" height="487"/>
	<rect x="747.9" y="8.8" class="st1" width="1.8" height="487"/>
	<rect x="896.7" y="8.8" class="st1" width="1.8" height="487"/>
	<rect x="124.6" y="478.7" class="st0" width="773.9" height="1.8"/>
</g>
<g id="xaxis">
	<g>
		<path class="st2" d="M142,522.7h-9.5v-1.6l4.7-5.2c0.7-0.8,1.2-1.4,1.5-1.9s0.4-1,0.4-1.5c0-0.7-0.2-1.2-0.6-1.6
			c-0.4-0.4-0.9-0.6-1.5-0.6c-0.8,0-1.4,0.2-1.8,0.7s-0.6,1.1-0.6,1.9h-2.4c0-0.9,0.2-1.6,0.6-2.3c0.4-0.7,1-1.2,1.7-1.6
			s1.6-0.6,2.5-0.6c1.4,0,2.5,0.3,3.3,1s1.2,1.6,1.2,2.9c0,0.7-0.2,1.5-0.6,2.2s-1.1,1.7-2,2.6l-3.5,3.7h6.6L142,522.7L142,522.7z"
			/>
		<path class="st2" d="M153.1,516.8c0,2-0.4,3.6-1.1,4.6c-0.8,1-1.9,1.6-3.5,1.6c-1.5,0-2.7-0.5-3.5-1.5s-1.2-2.5-1.2-4.5v-2.5
			c0-2,0.4-3.6,1.1-4.6c0.8-1,1.9-1.5,3.5-1.5s2.7,0.5,3.5,1.5s1.2,2.5,1.2,4.5V516.8z M150.7,514.1c0-1.3-0.2-2.3-0.5-2.9
			c-0.4-0.6-0.9-0.9-1.7-0.9s-1.3,0.3-1.7,0.9s-0.6,1.5-0.6,2.8v3.2c0,1.3,0.2,2.3,0.6,3c0.4,0.7,1,1,1.7,1c0.8,0,1.3-0.3,1.7-0.9
			c0.4-0.6,0.6-1.5,0.6-2.8v-3.4H150.7z"/>
		<path class="st2" d="M161.6,522.7h-2.4v-11.4l-3.5,1.2v-2l5.5-2h0.3L161.6,522.7L161.6,522.7z"/>
		<path class="st2" d="M169.3,514.6h1.4c0.7,0,1.3-0.2,1.7-0.6c0.4-0.4,0.6-0.9,0.6-1.6c0-0.7-0.2-1.2-0.5-1.6
			c-0.4-0.4-0.9-0.6-1.6-0.6c-0.6,0-1.2,0.2-1.6,0.6c-0.4,0.4-0.6,0.8-0.6,1.4h-2.4c0-0.7,0.2-1.4,0.6-2c0.4-0.6,0.9-1.1,1.6-1.4
			c0.7-0.3,1.5-0.5,2.3-0.5c1.4,0,2.5,0.4,3.3,1.1s1.2,1.7,1.2,3c0,0.6-0.2,1.2-0.6,1.8c-0.4,0.6-0.9,1-1.6,1.3
			c0.8,0.3,1.4,0.7,1.8,1.3c0.4,0.6,0.6,1.3,0.6,2c0,1.3-0.4,2.3-1.3,3s-2,1.1-3.4,1.1s-2.5-0.4-3.4-1.1c-0.9-0.7-1.3-1.7-1.3-2.9
			h2.4c0,0.6,0.2,1.1,0.6,1.5c0.4,0.4,1,0.6,1.7,0.6s1.3-0.2,1.7-0.6c0.4-0.4,0.6-1,0.6-1.7s-0.2-1.3-0.7-1.7
			c-0.4-0.4-1.1-0.6-2-0.6H169v-1.8H169.3z"/>
	</g>
	<g>
		<path class="st2" d="M286.9,522.7h-9.5v-1.6l4.7-5.2c0.7-0.8,1.2-1.4,1.5-1.9s0.4-1,0.4-1.5c0-0.7-0.2-1.2-0.6-1.6
			s-0.9-0.6-1.5-0.6c-0.8,0-1.4,0.2-1.8,0.7s-0.6,1.1-0.6,1.9H277c0-0.9,0.2-1.6,0.6-2.3c0.4-0.7,1-1.2,1.7-1.6s1.6-0.6,2.5-0.6
			c1.4,0,2.5,0.3,3.3,1s1.2,1.6,1.2,2.9c0,0.7-0.2,1.5-0.6,2.2s-1.1,1.7-2,2.6l-3.5,3.7h6.6L286.9,522.7L286.9,522.7z"/>
		<path class="st2" d="M297.9,516.8c0,2-0.4,3.6-1.1,4.6c-0.8,1-1.9,1.6-3.5,1.6c-1.5,0-2.7-0.5-3.5-1.5s-1.2-2.5-1.2-4.5v-2.5
			c0-2,0.4-3.6,1.1-4.6c0.8-1,1.9-1.5,3.5-1.5s2.7,0.5,3.5,1.5s1.2,2.5,1.2,4.5V516.8z M295.5,514.1c0-1.3-0.2-2.3-0.5-2.9
			c-0.4-0.6-0.9-0.9-1.7-0.9c-0.8,0-1.3,0.3-1.7,0.9c-0.4,0.6-0.6,1.5-0.6,2.8v3.2c0,1.3,0.2,2.3,0.6,3s1,1,1.7,1
			c0.8,0,1.3-0.3,1.7-0.9c0.4-0.6,0.6-1.5,0.6-2.8v-3.4H295.5z"/>
		<path class="st2" d="M306.4,522.7H304v-11.4l-3.5,1.2v-2l5.5-2h0.3v14.2H306.4z"/>
		<path class="st2" d="M319.4,517.7h1.8v1.9h-1.8v3.2H317v-3.2h-6.1l-0.1-1.4l6.1-9.6h2.4v9.1H319.4z M313.3,517.7h3.7v-5.9
			l-0.2,0.3L313.3,517.7z"/>
	</g>
	<g>
		<path class="st2" d="M436.9,522.7h-9.5v-1.6l4.7-5.2c0.7-0.8,1.2-1.4,1.5-1.9s0.4-1,0.4-1.5c0-0.7-0.2-1.2-0.6-1.6
			s-0.9-0.6-1.5-0.6c-0.8,0-1.4,0.2-1.8,0.7s-0.6,1.1-0.6,1.9H427c0-0.9,0.2-1.6,0.6-2.3c0.4-0.7,1-1.2,1.7-1.6s1.6-0.6,2.5-0.6
			c1.4,0,2.5,0.3,3.3,1s1.2,1.6,1.2,2.9c0,0.7-0.2,1.5-0.6,2.2s-1.1,1.7-2,2.6l-3.5,3.7h6.6L436.9,522.7L436.9,522.7z"/>
		<path class="st2" d="M447.9,516.8c0,2-0.4,3.6-1.1,4.6c-0.8,1-1.9,1.6-3.5,1.6c-1.5,0-2.7-0.5-3.5-1.5s-1.2-2.5-1.2-4.5v-2.5
			c0-2,0.4-3.6,1.1-4.6c0.8-1,1.9-1.5,3.5-1.5s2.7,0.5,3.5,1.5s1.2,2.5,1.2,4.5V516.8z M445.5,514.1c0-1.3-0.2-2.3-0.5-2.9
			c-0.4-0.6-0.9-0.9-1.7-0.9c-0.8,0-1.3,0.3-1.7,0.9c-0.4,0.6-0.6,1.5-0.6,2.8v3.2c0,1.3,0.2,2.3,0.6,3s1,1,1.7,1
			c0.8,0,1.3-0.3,1.7-0.9c0.4-0.6,0.6-1.5,0.6-2.8v-3.4H445.5z"/>
		<path class="st2" d="M456.4,522.7H454v-11.4l-3.5,1.2v-2l5.5-2h0.3v14.2H456.4z"/>
		<path class="st2" d="M462,515.7l0.8-7.2h7.6v2h-5.7l-0.4,3.4c0.7-0.4,1.4-0.6,2.2-0.6c1.4,0,2.4,0.4,3.2,1.3s1.1,2,1.1,3.5
			c0,1.4-0.4,2.6-1.2,3.4c-0.8,0.9-2,1.3-3.4,1.3c-1.3,0-2.4-0.4-3.2-1.1c-0.9-0.7-1.3-1.7-1.4-2.9h2.3c0.1,0.7,0.3,1.2,0.7,1.6
			c0.4,0.4,0.9,0.6,1.6,0.6s1.3-0.3,1.7-0.8s0.6-1.2,0.6-2.1c0-0.9-0.2-1.5-0.7-2.1c-0.4-0.5-1.1-0.8-1.9-0.8
			c-0.4,0-0.8,0.1-1.1,0.2c-0.3,0.1-0.6,0.3-1,0.7L462,515.7z"/>
	</g>
	<g>
		<path class="st2" d="M583.7,522.7h-9.5v-1.6l4.7-5.2c0.7-0.8,1.2-1.4,1.5-1.9s0.4-1,0.4-1.5c0-0.7-0.2-1.2-0.6-1.6
			c-0.4-0.4-0.9-0.6-1.5-0.6c-0.8,0-1.4,0.2-1.8,0.7s-0.6,1.1-0.6,1.9h-2.4c0-0.9,0.2-1.6,0.6-2.3c0.4-0.7,1-1.2,1.7-1.6
			s1.6-0.6,2.5-0.6c1.4,0,2.5,0.3,3.3,1s1.2,1.6,1.2,2.9c0,0.7-0.2,1.5-0.6,2.2s-1.1,1.7-2,2.6l-3.5,3.7h6.6L583.7,522.7
			L583.7,522.7z"/>
		<path class="st2" d="M594.7,516.8c0,2-0.4,3.6-1.1,4.6c-0.8,1-1.9,1.6-3.5,1.6c-1.5,0-2.7-0.5-3.5-1.5s-1.2-2.5-1.2-4.5v-2.5
			c0-2,0.4-3.6,1.1-4.6c0.8-1,1.9-1.5,3.5-1.5s2.7,0.5,3.5,1.5s1.2,2.5,1.2,4.5V516.8z M592.4,514.1c0-1.3-0.2-2.3-0.5-2.9
			c-0.4-0.6-0.9-0.9-1.7-0.9s-1.3,0.3-1.7,0.9s-0.6,1.5-0.6,2.8v3.2c0,1.3,0.2,2.3,0.6,3c0.4,0.7,1,1,1.7,1c0.8,0,1.3-0.3,1.7-0.9
			c0.4-0.6,0.6-1.5,0.6-2.8L592.4,514.1L592.4,514.1z"/>
		<path class="st2" d="M603.2,522.7h-2.4v-11.4l-3.5,1.2v-2l5.5-2h0.3v14.2H603.2z"/>
		<path class="st2" d="M615.5,508.5v2h-0.3c-1.3,0-2.4,0.4-3.2,1.1c-0.8,0.7-1.3,1.7-1.4,3c0.8-0.8,1.7-1.2,2.9-1.2
			c1.3,0,2.2,0.4,3,1.3s1.1,2,1.1,3.4s-0.4,2.6-1.3,3.5c-0.8,0.9-2,1.3-3.3,1.3c-1.4,0-2.6-0.5-3.4-1.6c-0.9-1-1.3-2.4-1.3-4.1v-0.8
			c0-2.5,0.6-4.4,1.8-5.8s3-2.1,5.2-2.1L615.5,508.5L615.5,508.5z M613,515.2c-0.5,0-1,0.1-1.4,0.4c-0.4,0.3-0.7,0.7-1,1.2v0.7
			c0,1.1,0.2,1.9,0.7,2.5c0.4,0.6,1,0.9,1.7,0.9s1.3-0.3,1.7-0.8s0.6-1.2,0.6-2.1s-0.2-1.6-0.6-2.1
			C614.2,515.5,613.7,515.2,613,515.2z"/>
	</g>
	<g>
		<path class="st2" d="M742.7,522.7h-9.5v-1.6l4.7-5.2c0.7-0.8,1.2-1.4,1.5-1.9s0.4-1,0.4-1.5c0-0.7-0.2-1.2-0.6-1.6
			c-0.4-0.4-0.9-0.6-1.5-0.6c-0.8,0-1.4,0.2-1.8,0.7c-0.4,0.5-0.6,1.1-0.6,1.9h-2.4c0-0.9,0.2-1.6,0.6-2.3c0.4-0.7,1-1.2,1.7-1.6
			s1.6-0.6,2.5-0.6c1.4,0,2.5,0.3,3.3,1s1.2,1.6,1.2,2.9c0,0.7-0.2,1.5-0.6,2.2s-1.1,1.7-2,2.6l-3.5,3.7h6.6L742.7,522.7
			L742.7,522.7z"/>
		<path class="st2" d="M753.7,516.8c0,2-0.4,3.6-1.1,4.6c-0.8,1-1.9,1.6-3.5,1.6c-1.5,0-2.7-0.5-3.5-1.5s-1.2-2.5-1.2-4.5v-2.5
			c0-2,0.4-3.6,1.1-4.6c0.8-1,1.9-1.5,3.5-1.5s2.7,0.5,3.5,1.5s1.2,2.5,1.2,4.5V516.8z M751.3,514.1c0-1.3-0.2-2.3-0.5-2.9
			c-0.4-0.6-0.9-0.9-1.7-0.9s-1.3,0.3-1.7,0.9s-0.6,1.5-0.6,2.8v3.2c0,1.3,0.2,2.3,0.6,3c0.4,0.7,1,1,1.7,1c0.8,0,1.3-0.3,1.7-0.9
			c0.4-0.6,0.6-1.5,0.6-2.8L751.3,514.1L751.3,514.1z"/>
		<path class="st2" d="M762.2,522.7h-2.4v-11.4l-3.5,1.2v-2l5.5-2h0.3v14.2H762.2z"/>
		<path class="st2" d="M776.6,509.9l-5.7,12.9h-2.5l5.7-12.3h-7.3v-1.9h9.8V509.9z"/>
	</g>
	<g>
		<path class="st2" d="M886.8,522.7h-9.5v-1.6l4.7-5.2c0.7-0.8,1.2-1.4,1.5-1.9s0.4-1,0.4-1.5c0-0.7-0.2-1.2-0.6-1.6
			c-0.4-0.4-0.9-0.6-1.5-0.6c-0.8,0-1.4,0.2-1.8,0.7s-0.6,1.1-0.6,1.9H877c0-0.9,0.2-1.6,0.6-2.3c0.4-0.7,1-1.2,1.7-1.6
			s1.6-0.6,2.5-0.6c1.4,0,2.5,0.3,3.3,1s1.2,1.6,1.2,2.9c0,0.7-0.2,1.5-0.6,2.2s-1.1,1.7-2,2.6l-3.5,3.7h6.6V522.7z"/>
		<path class="st2" d="M897.9,516.8c0,2-0.4,3.6-1.1,4.6c-0.8,1-1.9,1.6-3.5,1.6c-1.5,0-2.7-0.5-3.5-1.5s-1.2-2.5-1.2-4.5v-2.5
			c0-2,0.4-3.6,1.1-4.6c0.8-1,1.9-1.5,3.5-1.5s2.7,0.5,3.5,1.5s1.2,2.5,1.2,4.5V516.8z M895.5,514.1c0-1.3-0.2-2.3-0.5-2.9
			c-0.4-0.6-0.9-0.9-1.7-0.9s-1.3,0.3-1.7,0.9s-0.6,1.5-0.6,2.8v3.2c0,1.3,0.2,2.3,0.6,3c0.4,0.7,1,1,1.7,1c0.8,0,1.3-0.3,1.7-0.9
			c0.4-0.6,0.6-1.5,0.6-2.8L895.5,514.1L895.5,514.1z"/>
		<path class="st2" d="M906.4,522.7H904v-11.4l-3.5,1.2v-2l5.5-2h0.3v14.2H906.4z"/>
		<path class="st2" d="M920.3,512.3c0,0.7-0.2,1.3-0.5,1.9c-0.4,0.5-0.8,1-1.5,1.3c0.7,0.3,1.3,0.8,1.7,1.4c0.4,0.6,0.6,1.3,0.6,2
			c0,1.2-0.4,2.2-1.3,3c-0.8,0.7-2,1.1-3.4,1.1s-2.5-0.4-3.4-1.1s-1.3-1.7-1.3-3c0-0.8,0.2-1.4,0.6-2c0.4-0.6,1-1.1,1.7-1.4
			c-0.6-0.3-1.1-0.7-1.4-1.3c-0.4-0.5-0.5-1.2-0.5-1.9c0-1.2,0.4-2.2,1.2-2.9s1.8-1.1,3.2-1.1c1.3,0,2.4,0.4,3.2,1.1
			S920.3,511.1,920.3,512.3z M918.2,518.7c0-0.7-0.2-1.3-0.6-1.7c-0.4-0.4-1-0.6-1.7-0.6s-1.2,0.2-1.7,0.6s-0.6,1-0.6,1.7
			s0.2,1.3,0.6,1.7c0.4,0.4,1,0.6,1.7,0.6s1.3-0.2,1.7-0.6C918,520,918.2,519.5,918.2,518.7z M917.9,512.4c0-0.6-0.2-1.1-0.5-1.5
			c-0.4-0.4-0.8-0.6-1.4-0.6c-0.6,0-1.1,0.2-1.4,0.6c-0.4,0.4-0.5,0.9-0.5,1.6c0,0.7,0.2,1.2,0.5,1.5c0.4,0.4,0.8,0.6,1.4,0.6
			c0.6,0,1.1-0.2,1.4-0.6C917.7,513.5,917.9,513,917.9,512.4z"/>
	</g>
</g>
<g id="yaxis">
	<g>
		<path class="st3" d="M32.1,429.5c-0.8,0.8-1.8,1.2-2.8,1.2c-1.4,0-2.5-0.5-3.3-1.4s-1.2-2.2-1.2-3.8c0-1,0.2-2,0.7-2.8
			c0.4-0.9,1.1-1.5,1.9-2s1.7-0.7,2.7-0.7s1.9,0.3,2.8,0.8c0.8,0.5,1.4,1.3,1.9,2.2c0.4,1,0.7,2.1,0.7,3.3v1.1
			c0,2.6-0.6,4.7-1.9,6.1c-1.3,1.5-3.1,2.3-5.5,2.4h-0.8v-2.6H28C30.5,433.2,31.9,431.9,32.1,429.5z M30.1,428.3
			c0.5,0,0.9-0.1,1.3-0.4s0.6-0.6,0.8-0.9v-1.3c0-1.1-0.2-1.9-0.6-2.4c-0.4-0.6-0.9-0.9-1.6-0.9c-0.6,0-1.1,0.3-1.5,0.9
			s-0.6,1.3-0.6,2.1c0,0.9,0.2,1.6,0.6,2.1C28.8,428,29.4,428.3,30.1,428.3z"/>
		<path class="st3" d="M48,429.3c0,2.2-0.4,3.8-1.3,5c-0.9,1.1-2.2,1.7-3.9,1.7s-3-0.6-3.9-1.7s-1.4-2.7-1.4-4.8v-2.9
			c0-2.2,0.5-3.8,1.4-5c0.9-1.1,2.2-1.7,3.9-1.7s3,0.6,3.9,1.7s1.4,2.7,1.4,4.8v2.9H48z M44.9,426.1c0-1.3-0.2-2.2-0.5-2.8
			c-0.4-0.6-0.9-0.9-1.7-0.9c-0.7,0-1.3,0.3-1.6,0.8c-0.3,0.6-0.5,1.4-0.6,2.6v3.8c0,1.3,0.2,2.2,0.5,2.8c0.3,0.6,0.9,0.9,1.7,0.9
			s1.3-0.3,1.6-0.9s0.5-1.5,0.5-2.7L44.9,426.1L44.9,426.1z"/>
		<path class="st3" d="M60.1,420.1l4,11.3l4-11.3h4.2v15.6h-3.2v-4.3l0.3-7.4l-4.2,11.7H63l-4.2-11.6l0.3,7.4v4.3h-3.2v-15.6h4.2
			V420.1z"/>
		<path class="st3" d="M78.6,435.7h-3.2v-15.6h3.2V435.7z"/>
		<path class="st3" d="M84.8,433.2h6.8v2.6h-10v-15.6h3.2C84.8,420.2,84.8,433.2,84.8,433.2z"/>
		<path class="st3" d="M96.8,433.2h6.8v2.6H93.5v-15.6h3.2v13H96.8z"/>
		<path class="st3" d="M108.9,435.7h-3.2v-15.6h3.2V435.7z"/>
		<path class="st3" d="M124.7,428.3c0,1.5-0.3,2.9-0.8,4c-0.5,1.2-1.3,2.1-2.3,2.7s-2.2,0.9-3.5,0.9s-2.5-0.3-3.5-0.9
			s-1.8-1.5-2.4-2.7s-0.8-2.5-0.8-4v-0.8c0-1.5,0.3-2.9,0.8-4.1c0.6-1.2,1.3-2.1,2.4-2.7c1-0.6,2.2-0.9,3.5-0.9s2.5,0.3,3.5,0.9
			s1.8,1.5,2.4,2.7s0.8,2.5,0.8,4.1L124.7,428.3L124.7,428.3z M121.4,427.6c0-1.6-0.3-2.9-0.9-3.7c-0.6-0.9-1.4-1.3-2.5-1.3
			s-1.9,0.4-2.5,1.3c-0.6,0.8-0.9,2.1-0.9,3.7v0.8c0,1.6,0.3,2.8,0.9,3.7c0.6,0.9,1.4,1.3,2.5,1.3s1.9-0.4,2.5-1.3
			c0.6-0.8,0.9-2.1,0.9-3.7V427.6z"/>
		<path class="st3" d="M139.8,435.7h-3.2l-6.3-10.3v10.3H127v-15.6h3.2l6.3,10.3v-10.3h3.2v15.6H139.8z"/>
	</g>
	<g>
		<path class="st3" d="M10.3,252.6l0.9-7.9H20v2.6h-6.2l-0.4,3.4c0.7-0.4,1.5-0.6,2.4-0.6c1.5,0,2.7,0.5,3.5,1.4s1.3,2.2,1.3,3.9
			c0,1-0.2,1.9-0.6,2.7c-0.4,0.8-1,1.4-1.8,1.9c-0.8,0.4-1.7,0.7-2.8,0.7c-0.9,0-1.8-0.2-2.6-0.6c-0.8-0.4-1.4-0.9-1.9-1.6
			s-0.7-1.5-0.7-2.4H13c0.1,0.7,0.3,1.2,0.7,1.5c0.4,0.4,0.9,0.5,1.5,0.5c0.7,0,1.2-0.3,1.6-0.8s0.6-1.2,0.6-2.1s-0.2-1.6-0.7-2
			c-0.4-0.5-1.1-0.7-1.9-0.7c-0.7,0-1.3,0.2-1.8,0.6l-0.3,0.3L10.3,252.6z"/>
		<path class="st3" d="M33,253.8c0,2.2-0.4,3.8-1.3,5c-0.9,1.1-2.2,1.7-3.9,1.7c-1.7,0-3-0.6-3.9-1.7s-1.4-2.7-1.4-4.8v-2.9
			c0-2.2,0.5-3.8,1.4-5c0.9-1.1,2.2-1.7,3.9-1.7c1.7,0,3,0.6,3.9,1.7c0.9,1.1,1.4,2.7,1.4,4.8v2.9H33z M29.9,250.6
			c0-1.3-0.2-2.2-0.5-2.8c-0.4-0.6-0.9-0.9-1.7-0.9c-0.7,0-1.3,0.3-1.6,0.8c-0.3,0.6-0.5,1.4-0.6,2.6v3.8c0,1.3,0.2,2.2,0.5,2.8
			s0.9,0.9,1.7,0.9c0.8,0,1.3-0.3,1.6-0.9c0.3-0.6,0.5-1.5,0.5-2.7v-3.6H29.9z"/>
		<path class="st3" d="M45.7,253.8c0,2.2-0.4,3.8-1.3,5c-0.9,1.1-2.2,1.7-3.9,1.7s-3-0.6-3.9-1.7s-1.4-2.7-1.4-4.8v-2.9
			c0-2.2,0.5-3.8,1.4-5c0.9-1.1,2.2-1.7,3.9-1.7s3,0.6,3.9,1.7c0.9,1.1,1.4,2.7,1.4,4.8v2.9H45.7z M42.5,250.6
			c0-1.3-0.2-2.2-0.5-2.8c-0.4-0.6-0.9-0.9-1.7-0.9c-0.7,0-1.3,0.3-1.6,0.8c-0.3,0.6-0.5,1.4-0.6,2.6v3.8c0,1.3,0.2,2.2,0.5,2.8
			s0.9,0.9,1.7,0.9s1.3-0.3,1.6-0.9s0.5-1.5,0.5-2.7L42.5,250.6L42.5,250.6z"/>
		<path class="st3" d="M57.8,244.6l4,11.3l4-11.3H70v15.6h-3.2V256l0.3-7.4l-4.2,11.7h-2.2l-4.2-11.6l0.3,7.4v4.3h-3.2v-15.6h4.2
			V244.6z"/>
		<path class="st3" d="M76.3,260.2H73v-15.6h3.2v15.6H76.3z"/>
		<path class="st3" d="M82.5,257.7h6.8v2.6H79.2v-15.6h3.2v13H82.5z"/>
		<path class="st3" d="M94.4,257.7h6.8v2.6h-10v-15.6h3.2C94.4,244.7,94.4,257.7,94.4,257.7z"/>
		<path class="st3" d="M106.5,260.2h-3.2v-15.6h3.2V260.2z"/>
		<path class="st3" d="M122.3,252.8c0,1.5-0.3,2.9-0.8,4.1c-0.5,1.2-1.3,2.1-2.3,2.7s-2.2,0.9-3.5,0.9s-2.5-0.3-3.5-0.9
			s-1.8-1.5-2.4-2.7c-0.6-1.2-0.8-2.5-0.8-4v-0.8c0-1.5,0.3-2.9,0.8-4.1c0.6-1.2,1.3-2.1,2.4-2.7c1-0.6,2.2-0.9,3.5-0.9
			s2.5,0.3,3.5,0.9c1,0.6,1.8,1.5,2.4,2.7s0.8,2.5,0.8,4.1L122.3,252.8L122.3,252.8z M119.1,252.1c0-1.6-0.3-2.9-0.9-3.7
			c-0.6-0.9-1.4-1.3-2.5-1.3s-1.9,0.4-2.5,1.3c-0.6,0.8-0.9,2.1-0.9,3.7v0.8c0,1.6,0.3,2.8,0.9,3.7s1.4,1.3,2.5,1.3s1.9-0.4,2.5-1.3
			c0.6-0.8,0.9-2.1,0.9-3.7V252.1z"/>
		<path class="st3" d="M137.4,260.2h-3.2l-6.3-10.3v10.3h-3.2v-15.6h3.2l6.3,10.3v-10.3h3.2V260.2z"/>
	</g>
	<g>
		<path class="st3" d="M48.9,95.3h-3.1v-12l-3.7,1.1v-2.5l6.5-2.3h0.3V95.3z"/>
		<path class="st3" d="M59.8,95.3V79.6h5.5c1.9,0,3.3,0.4,4.3,1.1s1.5,1.8,1.5,3.2c0,0.8-0.2,1.4-0.6,2s-0.9,1-1.6,1.3
			c0.8,0.2,1.4,0.6,1.9,1.2s0.7,1.4,0.7,2.2c0,1.5-0.5,2.6-1.4,3.4c-1,0.8-2.3,1.2-4.1,1.2h-6.2V95.3z M63,86.2h2.4
			c1.6,0,2.4-0.7,2.4-1.9c0-0.7-0.2-1.2-0.6-1.5s-1.1-0.5-1.9-0.5H63V86.2z M63,88.4v4.2h2.8c0.8,0,1.4-0.2,1.8-0.5
			c0.4-0.4,0.6-0.9,0.6-1.5c0-1.4-0.7-2.2-2.2-2.2H63z"/>
		<path class="st3" d="M77.3,95.3h-3.2V79.6h3.2V95.3z"/>
		<path class="st3" d="M83.5,92.7h6.8v2.6h-10V79.6h3.2V92.7z"/>
		<path class="st3" d="M95.4,92.7h6.8v2.6h-10V79.6h3.2C95.4,79.6,95.4,92.7,95.4,92.7z"/>
		<path class="st3" d="M107.5,95.3h-3.2V79.6h3.2V95.3z"/>
		<path class="st3" d="M123.4,87.8c0,1.5-0.3,2.9-0.8,4c-0.5,1.2-1.3,2.1-2.3,2.7s-2.2,0.9-3.5,0.9s-2.5-0.3-3.5-0.9
			s-1.8-1.5-2.4-2.7s-0.8-2.5-0.8-4V87c0-1.5,0.3-2.9,0.8-4.1c0.6-1.2,1.3-2.1,2.4-2.7c1-0.6,2.2-0.9,3.5-0.9s2.5,0.3,3.5,0.9
			s1.8,1.5,2.4,2.7s0.8,2.5,0.8,4.1L123.4,87.8L123.4,87.8z M120.1,87.1c0-1.6-0.3-2.9-0.9-3.7c-0.6-0.9-1.4-1.3-2.5-1.3
			s-1.9,0.4-2.5,1.3c-0.6,0.8-0.9,2.1-0.9,3.7v0.8c0,1.6,0.3,2.8,0.9,3.7c0.6,0.9,1.4,1.3,2.5,1.3s1.9-0.4,2.5-1.3
			c0.6-0.8,0.9-2.1,0.9-3.7V87.1z"/>
		<path class="st3" d="M138.4,95.3h-3.2L128.9,85v10.3h-3.2V79.6h3.2l6.3,10.3V79.6h3.2V95.3z"/>
	</g>
	<g>
		<path class="st3" d="M53,10.9l2,5.7l2-5.7h2.1v7.8h-1.6v-2.1l0.2-3.7l-2.1,5.8h-1.1l-2.1-5.8l0.2,3.7v2.1H51v-7.8
			C51,10.9,53,10.9,53,10.9z"/>
		<path class="st3" d="M66.9,15c0,0.8-0.1,1.4-0.4,2s-0.7,1-1.2,1.3s-1.1,0.5-1.7,0.5c-0.6,0-1.2-0.2-1.7-0.5S61,17.5,60.7,17
			s-0.4-1.2-0.4-2v-0.4c0-0.8,0.1-1.4,0.4-2c0.3-0.6,0.7-1,1.2-1.3s1.1-0.5,1.7-0.5s1.2,0.2,1.7,0.5s0.9,0.8,1.2,1.3
			c0.3,0.6,0.4,1.3,0.4,2V15z M65.3,14.7c0-0.8-0.1-1.4-0.4-1.9c-0.3-0.4-0.7-0.6-1.3-0.6c-0.5,0-1,0.2-1.3,0.6s-0.4,1-0.4,1.9V15
			c0,0.8,0.1,1.4,0.4,1.9c0.3,0.4,0.7,0.7,1.3,0.7c0.5,0,1-0.2,1.2-0.6c0.3-0.4,0.4-1,0.4-1.9L65.3,14.7L65.3,14.7z"/>
		<path class="st3" d="M74.4,18.8h-1.6l-3.1-5.1v5.1h-1.6V11h1.6l3.1,5.2V11h1.6V18.8z"/>
		<path class="st3" d="M81.6,12.2h-2.4v6.5h-1.6v-6.5h-2.4v-1.3h6.4V12.2z"/>
		<path class="st3" d="M88.9,18.8h-1.6v-3.4h-3.1v3.4h-1.6V11h1.6v3.2h3.1V11h1.6V18.8z"/>
		<path class="st3" d="M91.9,17.5h3.4v1.3h-5V11h1.6V17.5z"/>
		<path class="st3" d="M97.4,14.5L99,11h1.8l-2.6,5v2.8h-1.6V16L94,11h1.8L97.4,14.5z"/>
		<path class="st3" d="M110.2,10.9v5.2c0,0.9-0.3,1.5-0.8,2s-1.3,0.7-2.2,0.7c-0.9,0-1.6-0.2-2.2-0.7c-0.5-0.5-0.8-1.1-0.8-2v-5.2
			h1.6v5.2c0,0.5,0.1,0.9,0.4,1.1c0.2,0.2,0.6,0.4,1,0.4c0.9,0,1.4-0.5,1.4-1.4V11L110.2,10.9L110.2,10.9z"/>
		<path class="st3" d="M115.6,16.7c0-0.3-0.1-0.5-0.3-0.7c-0.2-0.2-0.6-0.3-1.2-0.5s-1-0.4-1.3-0.5c-0.9-0.5-1.3-1.1-1.3-1.9
			c0-0.4,0.1-0.8,0.4-1.1c0.2-0.3,0.6-0.6,1-0.8s0.9-0.3,1.5-0.3s1.1,0.1,1.5,0.3s0.8,0.5,1,0.9s0.4,0.8,0.4,1.3h-1.6
			c0-0.4-0.1-0.6-0.3-0.8c-0.2-0.2-0.5-0.3-1-0.3c-0.4,0-0.7,0.1-0.9,0.3c-0.2,0.2-0.3,0.4-0.3,0.7s0.1,0.5,0.4,0.6
			c0.3,0.2,0.6,0.3,1.1,0.5c0.9,0.3,1.6,0.6,2,1s0.6,0.9,0.6,1.5c0,0.7-0.3,1.2-0.8,1.6s-1.2,0.6-2.1,0.6c-0.6,0-1.1-0.1-1.6-0.3
			c-0.5-0.2-0.9-0.5-1.1-0.9c-0.3-0.4-0.4-0.8-0.4-1.3h1.6c0,0.9,0.5,1.3,1.5,1.3c0.4,0,0.7-0.1,0.9-0.2
			C115.5,17.2,115.6,17,115.6,16.7z"/>
		<path class="st3" d="M123,15.4h-3.1v2.1h3.6v1.3h-5.2V11h5.2v1.3h-3.6v1.9h3.1V15.4z"/>
		<path class="st3" d="M127.3,15.9H126v2.9h-1.6V11h2.9c0.9,0,1.6,0.2,2.1,0.6c0.5,0.4,0.8,1,0.8,1.7c0,0.5-0.1,1-0.3,1.3
			c-0.2,0.4-0.6,0.6-1.1,0.9l1.7,3.2v0.1h-1.7L127.3,15.9z M126.1,14.6h1.3c0.4,0,0.7-0.1,0.9-0.3s0.3-0.5,0.3-0.9s-0.1-0.7-0.3-0.9
			s-0.5-0.3-1-0.3H126L126.1,14.6L126.1,14.6z"/>
		<path class="st3" d="M135.5,16.7c0-0.3-0.1-0.5-0.3-0.7c-0.2-0.2-0.6-0.3-1.2-0.5s-1-0.4-1.3-0.5c-0.9-0.5-1.3-1.1-1.3-1.9
			c0-0.4,0.1-0.8,0.4-1.1c0.2-0.3,0.6-0.6,1-0.8s0.9-0.3,1.5-0.3s1.1,0.1,1.5,0.3s0.8,0.5,1,0.9s0.4,0.8,0.4,1.3h-1.6
			c0-0.4-0.1-0.6-0.3-0.8s-0.5-0.3-1-0.3c-0.4,0-0.7,0.1-0.9,0.3s-0.3,0.4-0.3,0.7s0.1,0.5,0.4,0.6c0.3,0.2,0.6,0.3,1.1,0.5
			c0.9,0.3,1.6,0.6,2,1s0.6,0.9,0.6,1.5c0,0.7-0.3,1.2-0.8,1.6s-1.2,0.6-2.1,0.6c-0.6,0-1.1-0.1-1.6-0.3c-0.5-0.2-0.9-0.5-1.1-0.9
			c-0.3-0.4-0.4-0.8-0.4-1.3h1.6c0,0.9,0.5,1.3,1.5,1.3c0.4,0,0.7-0.1,0.9-0.2C135.4,17.2,135.5,17,135.5,16.7z"/>
	</g>
</g>
<polyline id="graphline" class="st4" points="152.7,425.3 299.6,337.2 450.4,271.2 599.4,211.2 748.8,165.5 897.6,69.2 "/>
<g id="pulse1">
	<path id="ring" class="st5" d="M299.7,328.5c-5,0-9,4-9,9s4,9,9,9s9-4,9-9C308.7,332.6,304.7,328.5,299.7,328.5z M299.6,345.2
		c-4.2,0-7.6-3.4-7.6-7.6s3.4-7.6,7.6-7.6s7.6,3.4,7.6,7.6S303.8,345.2,299.6,345.2z"/>
	<circle id="light_3_" class="st6" cx="299.6" cy="337.5" r="8.4"/>
</g>
<g id="pulse2">
	<path id="ring_1_" class="st5" d="M449.5,263.5c-5,0-9,4-9,9s4,9,9,9s9-4,9-9C458.5,267.6,454.5,263.5,449.5,263.5z M449.4,280.2
		c-4.2,0-7.6-3.4-7.6-7.6s3.4-7.6,7.6-7.6s7.6,3.4,7.6,7.6S453.6,280.2,449.4,280.2z"/>
	<circle id="light_4_" class="st6" cx="449.4" cy="272.5" r="8.4"/>
</g>
<g id="pulse3">
	<path id="ring_2_" class="st5" d="M599.4,203c-5,0-9,4-9,9s4,9,9,9s9-4,9-9C608.5,207.1,604.4,203,599.4,203z M599.3,219.7
		c-4.2,0-7.6-3.4-7.6-7.6s3.4-7.6,7.6-7.6s7.6,3.4,7.6,7.6S603.5,219.7,599.3,219.7z"/>
	<circle id="light_5_" class="st6" cx="599.4" cy="212" r="8.4"/>
</g>
<g id="pulse4">
	<path id="ring_3_" class="st5" d="M748.8,156c-5,0-9,4-9,9s4,9,9,9s9-4,9-9C757.8,160.1,753.8,156,748.8,156z M748.7,172.7
		c-4.2,0-7.6-3.4-7.6-7.6s3.4-7.6,7.6-7.6s7.6,3.4,7.6,7.6S752.9,172.7,748.7,172.7z"/>
	<circle id="light_6_" class="st6" cx="748.8" cy="165" r="8.4"/>
</g>
<g id="pulse5">
	<path id="ring_4_" class="st5" d="M897.7,60.2c-5,0-9,4-9,9s4,9,9,9s9-4,9-9S902.6,60.2,897.7,60.2z M897.5,76.8
		c-4.2,0-7.6-3.4-7.6-7.6s3.4-7.6,7.6-7.6s7.6,3.4,7.6,7.6S901.7,76.8,897.5,76.8z"/>
	<circle id="light_7_" class="st6" cx="897.6" cy="69.2" r="8.4"/>
</g>
</svg>
