<?xml version="1.0" encoding="utf-8"?>
<!-- Generator: Adobe Illustrator 22.1.0, SVG Export Plug-In . SVG Version: 6.00 Build 0)  -->
<svg version="1.1" id="graph" xmlns="http://www.w3.org/2000/svg" xmlns:xlink="http://www.w3.org/1999/xlink" x="0px" y="0px"
	 viewBox="0 0 956.6 542" enable-background="new 0 0 956.6 542" xml:space="preserve">
<g id="outlines">
	<rect x="181.7" y="15.9" fill="#C8C8C8" width="7.9" height="487"/>
	<rect x="329" y="15.9" opacity="0.35" fill="#C8C8C8" width="1.8" height="487"/>
	<rect x="478.9" y="15.9" opacity="0.35" fill="#C8C8C8" width="1.8" height="487"/>
	<rect x="628.9" y="15.9" opacity="0.35" fill="#C8C8C8" width="1.8" height="487"/>
	<rect x="778.3" y="15.9" opacity="0.35" fill="#C8C8C8" width="1.8" height="487"/>
	<rect x="927.1" y="15.9" opacity="0.35" fill="#C8C8C8" width="1.8" height="487"/>
	<rect x="246.1" y="15.9" opacity="0.35" fill="#C8C8C8" width="1.8" height="487"/>
	<rect x="396" y="15.9" opacity="0.35" fill="#C8C8C8" width="1.8" height="487"/>
	<rect x="546" y="15.9" opacity="0.35" fill="#C8C8C8" width="1.8" height="487"/>
	<rect x="695.4" y="15.9" opacity="0.35" fill="#C8C8C8" width="1.8" height="487"/>
	<rect x="844.1" y="15.9" opacity="0.35" fill="#C8C8C8" width="1.8" height="487"/>
	
		<rect x="546" y="96.6" transform="matrix(-1.836970e-16 1 -1 -1.836970e-16 1033.5107 -66.4262)" fill="#C8C8C8" width="7.9" height="773.8"/>
</g>
<g id="xaxis">
	<g>
		<path fill="#F9A26C" d="M167.1,531.2h-10.5v-1.8l5.2-5.7c0.7-0.8,1.3-1.5,1.6-2.1c0.3-0.6,0.5-1.1,0.5-1.7c0-0.7-0.2-1.3-0.6-1.8
			c-0.4-0.5-1-0.7-1.7-0.7c-0.8,0-1.5,0.3-2,0.8c-0.5,0.5-0.7,1.2-0.7,2.1h-2.6c0-0.9,0.2-1.8,0.6-2.6c0.4-0.8,1-1.3,1.8-1.8
			c0.8-0.4,1.7-0.6,2.8-0.6c1.5,0,2.7,0.4,3.6,1.1c0.9,0.8,1.3,1.8,1.3,3.1c0,0.8-0.2,1.6-0.7,2.4c-0.4,0.9-1.2,1.8-2.2,2.9
			l-3.8,4.1h7.2V531.2z"/>
		<path fill="#F9A26C" d="M179.2,524.7c0,2.2-0.4,3.9-1.3,5.1c-0.8,1.1-2.1,1.7-3.8,1.7c-1.7,0-2.9-0.6-3.8-1.7
			c-0.9-1.1-1.3-2.7-1.3-4.9v-2.7c0-2.2,0.4-3.9,1.3-5c0.8-1.1,2.1-1.7,3.8-1.7c1.7,0,3,0.5,3.8,1.6c0.8,1.1,1.3,2.7,1.3,4.9V524.7z
			 M176.6,521.8c0-1.5-0.2-2.5-0.6-3.2c-0.4-0.7-1-1-1.9-1c-0.8,0-1.5,0.3-1.9,1c-0.4,0.6-0.6,1.7-0.6,3v3.5c0,1.5,0.2,2.5,0.6,3.2
			c0.4,0.7,1,1.1,1.9,1.1c0.8,0,1.5-0.3,1.8-1c0.4-0.7,0.6-1.7,0.6-3.1V521.8z"/>
		<path fill="#F9A26C" d="M188.5,531.2h-2.6v-12.5l-3.8,1.3v-2.2l6.1-2.2h0.3V531.2z"/>
		<path fill="#F9A26C" d="M196.9,522.3h1.6c0.8,0,1.4-0.2,1.9-0.6c0.5-0.4,0.7-1,0.7-1.8c0-0.7-0.2-1.3-0.6-1.7
			c-0.4-0.4-1-0.6-1.8-0.6c-0.7,0-1.3,0.2-1.7,0.6c-0.4,0.4-0.7,0.9-0.7,1.6h-2.6c0-0.8,0.2-1.5,0.6-2.2c0.4-0.7,1-1.2,1.8-1.5
			c0.8-0.4,1.6-0.6,2.5-0.6c1.6,0,2.8,0.4,3.7,1.2c0.9,0.8,1.3,1.9,1.3,3.3c0,0.7-0.2,1.4-0.7,2c-0.4,0.6-1,1.1-1.7,1.4
			c0.9,0.3,1.5,0.8,2,1.4c0.4,0.6,0.7,1.4,0.7,2.2c0,1.4-0.5,2.5-1.4,3.3c-1,0.8-2.2,1.2-3.8,1.2c-1.5,0-2.7-0.4-3.7-1.2
			c-1-0.8-1.4-1.9-1.4-3.2h2.6c0,0.7,0.2,1.2,0.7,1.7c0.5,0.4,1.1,0.6,1.9,0.6c0.8,0,1.4-0.2,1.9-0.6c0.5-0.4,0.7-1,0.7-1.9
			c0-0.8-0.2-1.5-0.7-1.9c-0.5-0.4-1.2-0.7-2.2-0.7h-1.5V522.3z"/>
	</g>
	<g>
		<path fill="#F9A26C" d="M315.9,531.2h-10.5v-1.8l5.2-5.7c0.7-0.8,1.3-1.5,1.6-2.1c0.3-0.6,0.5-1.1,0.5-1.7c0-0.7-0.2-1.3-0.6-1.8
			c-0.4-0.5-1-0.7-1.7-0.7c-0.8,0-1.5,0.3-2,0.8c-0.5,0.5-0.7,1.2-0.7,2.1h-2.6c0-0.9,0.2-1.8,0.6-2.6c0.4-0.8,1-1.3,1.8-1.8
			c0.8-0.4,1.7-0.6,2.8-0.6c1.5,0,2.7,0.4,3.6,1.1c0.9,0.8,1.3,1.8,1.3,3.1c0,0.8-0.2,1.6-0.7,2.4s-1.2,1.8-2.2,2.9l-3.8,4.1h7.2
			V531.2z"/>
		<path fill="#F9A26C" d="M328,524.7c0,2.2-0.4,3.9-1.3,5.1c-0.8,1.1-2.1,1.7-3.8,1.7c-1.7,0-2.9-0.6-3.8-1.7
			c-0.9-1.1-1.3-2.7-1.3-4.9v-2.7c0-2.2,0.4-3.9,1.3-5c0.8-1.1,2.1-1.7,3.8-1.7c1.7,0,3,0.5,3.8,1.6s1.3,2.7,1.3,4.9V524.7z
			 M325.4,521.8c0-1.5-0.2-2.5-0.6-3.2c-0.4-0.7-1-1-1.9-1c-0.8,0-1.5,0.3-1.9,1c-0.4,0.6-0.6,1.7-0.6,3v3.5c0,1.5,0.2,2.5,0.6,3.2
			c0.4,0.7,1,1.1,1.9,1.1c0.8,0,1.5-0.3,1.8-1c0.4-0.7,0.6-1.7,0.6-3.1V521.8z"/>
		<path fill="#F9A26C" d="M337.4,531.2h-2.6v-12.5L331,520v-2.2l6.1-2.2h0.3V531.2z"/>
		<path fill="#F9A26C" d="M351.6,525.7h1.9v2.1h-1.9v3.5H349v-3.5h-6.7l-0.1-1.6l6.7-10.5h2.7V525.7z M344.9,525.7h4.1v-6.5
			l-0.2,0.3L344.9,525.7z"/>
	</g>
	<g>
		<path fill="#F9A26C" d="M466.4,531.2h-10.5v-1.8l5.2-5.7c0.7-0.8,1.3-1.5,1.6-2.1c0.3-0.6,0.5-1.1,0.5-1.7c0-0.7-0.2-1.3-0.6-1.8
			c-0.4-0.5-1-0.7-1.7-0.7c-0.8,0-1.5,0.3-2,0.8c-0.5,0.5-0.7,1.2-0.7,2.1h-2.6c0-0.9,0.2-1.8,0.6-2.6c0.4-0.8,1-1.3,1.8-1.8
			c0.8-0.4,1.7-0.6,2.8-0.6c1.5,0,2.7,0.4,3.6,1.1c0.9,0.8,1.3,1.8,1.3,3.1c0,0.8-0.2,1.6-0.7,2.4c-0.4,0.9-1.2,1.8-2.2,2.9
			l-3.8,4.1h7.2V531.2z"/>
		<path fill="#F9A26C" d="M478.5,524.7c0,2.2-0.4,3.9-1.3,5.1c-0.8,1.1-2.1,1.7-3.8,1.7c-1.7,0-2.9-0.6-3.8-1.7
			c-0.9-1.1-1.3-2.7-1.3-4.9v-2.7c0-2.2,0.4-3.9,1.3-5c0.8-1.1,2.1-1.7,3.8-1.7c1.7,0,3,0.5,3.8,1.6c0.8,1.1,1.3,2.7,1.3,4.9V524.7z
			 M475.9,521.8c0-1.5-0.2-2.5-0.6-3.2c-0.4-0.7-1-1-1.9-1c-0.8,0-1.5,0.3-1.9,1c-0.4,0.6-0.6,1.7-0.6,3v3.5c0,1.5,0.2,2.5,0.6,3.2
			c0.4,0.7,1,1.1,1.9,1.1c0.8,0,1.5-0.3,1.8-1c0.4-0.7,0.6-1.7,0.6-3.1V521.8z"/>
		<path fill="#F9A26C" d="M487.9,531.2h-2.6v-12.5l-3.8,1.3v-2.2l6.1-2.2h0.3V531.2z"/>
		<path fill="#F9A26C" d="M494,523.5l0.8-7.8h8.4v2.2H497l-0.4,3.7c0.7-0.4,1.5-0.6,2.4-0.6c1.5,0,2.6,0.5,3.5,1.4
			c0.8,0.9,1.2,2.2,1.2,3.8c0,1.6-0.5,2.8-1.4,3.8c-0.9,0.9-2.2,1.4-3.8,1.4c-1.4,0-2.6-0.4-3.5-1.2c-0.9-0.8-1.4-1.9-1.5-3.2h2.5
			c0.1,0.8,0.4,1.3,0.8,1.7c0.4,0.4,1,0.6,1.7,0.6c0.8,0,1.4-0.3,1.9-0.9s0.7-1.3,0.7-2.3c0-0.9-0.2-1.7-0.7-2.3
			c-0.5-0.6-1.2-0.8-2-0.8c-0.5,0-0.9,0.1-1.2,0.2c-0.3,0.1-0.7,0.4-1.1,0.7L494,523.5z"/>
	</g>
	<g>
		<path fill="#F9A26C" d="M621.4,531.2H611v-1.8l5.2-5.7c0.7-0.8,1.3-1.5,1.6-2.1c0.3-0.6,0.5-1.1,0.5-1.7c0-0.7-0.2-1.3-0.6-1.8
			c-0.4-0.5-1-0.7-1.7-0.7c-0.8,0-1.5,0.3-2,0.8c-0.5,0.5-0.7,1.2-0.7,2.1h-2.6c0-0.9,0.2-1.8,0.6-2.6c0.4-0.8,1-1.3,1.8-1.8
			c0.8-0.4,1.7-0.6,2.8-0.6c1.5,0,2.7,0.4,3.6,1.1c0.9,0.8,1.3,1.8,1.3,3.1c0,0.8-0.2,1.6-0.7,2.4s-1.2,1.8-2.2,2.9l-3.8,4.1h7.2
			V531.2z"/>
		<path fill="#F9A26C" d="M633.6,524.7c0,2.2-0.4,3.9-1.3,5.1c-0.8,1.1-2.1,1.7-3.8,1.7c-1.7,0-2.9-0.6-3.8-1.7
			c-0.9-1.1-1.3-2.7-1.3-4.9v-2.7c0-2.2,0.4-3.9,1.3-5c0.8-1.1,2.1-1.7,3.8-1.7c1.7,0,3,0.5,3.8,1.6c0.8,1.1,1.3,2.7,1.3,4.9V524.7z
			 M631,521.8c0-1.5-0.2-2.5-0.6-3.2c-0.4-0.7-1-1-1.9-1c-0.8,0-1.5,0.3-1.9,1c-0.4,0.6-0.6,1.7-0.6,3v3.5c0,1.5,0.2,2.5,0.6,3.2
			c0.4,0.7,1,1.1,1.9,1.1c0.8,0,1.5-0.3,1.8-1c0.4-0.7,0.6-1.7,0.6-3.1V521.8z"/>
		<path fill="#F9A26C" d="M642.9,531.2h-2.6v-12.5l-3.8,1.3v-2.2l6.1-2.2h0.3V531.2z"/>
		<path fill="#F9A26C" d="M656.4,515.6v2.1h-0.3c-1.5,0-2.6,0.4-3.5,1.2c-0.9,0.8-1.4,1.9-1.6,3.3c0.8-0.9,1.9-1.3,3.2-1.3
			c1.4,0,2.5,0.5,3.3,1.5c0.8,1,1.2,2.2,1.2,3.8c0,1.6-0.5,2.9-1.4,3.8c-0.9,1-2.2,1.5-3.7,1.5c-1.6,0-2.8-0.6-3.8-1.7
			c-1-1.1-1.4-2.7-1.4-4.5v-0.9c0-2.7,0.7-4.9,2-6.4c1.3-1.5,3.2-2.3,5.7-2.3H656.4z M653.6,523c-0.6,0-1.1,0.2-1.6,0.5
			c-0.5,0.3-0.8,0.7-1,1.3v0.8c0,1.2,0.2,2.1,0.7,2.8c0.5,0.7,1.1,1,1.9,1s1.4-0.3,1.8-0.9c0.4-0.6,0.7-1.3,0.7-2.3
			s-0.2-1.7-0.7-2.3C655,523.3,654.3,523,653.6,523z"/>
	</g>
	<g>
		<path fill="#F9A26C" d="M765.8,531.2h-10.5v-1.8l5.2-5.7c0.7-0.8,1.3-1.5,1.6-2.1s0.5-1.1,0.5-1.7c0-0.7-0.2-1.3-0.6-1.8
			c-0.4-0.5-1-0.7-1.7-0.7c-0.8,0-1.5,0.3-2,0.8c-0.5,0.5-0.7,1.2-0.7,2.1H755c0-0.9,0.2-1.8,0.6-2.6c0.4-0.8,1-1.3,1.8-1.8
			c0.8-0.4,1.7-0.6,2.8-0.6c1.5,0,2.7,0.4,3.6,1.1c0.9,0.8,1.3,1.8,1.3,3.1c0,0.8-0.2,1.6-0.7,2.4c-0.4,0.9-1.2,1.8-2.2,2.9
			l-3.8,4.1h7.2V531.2z"/>
		<path fill="#F9A26C" d="M777.9,524.7c0,2.2-0.4,3.9-1.3,5.1c-0.8,1.1-2.1,1.7-3.8,1.7c-1.7,0-2.9-0.6-3.8-1.7
			c-0.9-1.1-1.3-2.7-1.3-4.9v-2.7c0-2.2,0.4-3.9,1.3-5c0.8-1.1,2.1-1.7,3.8-1.7c1.7,0,3,0.5,3.8,1.6c0.8,1.1,1.3,2.7,1.3,4.9V524.7z
			 M775.3,521.8c0-1.5-0.2-2.5-0.6-3.2c-0.4-0.7-1-1-1.9-1c-0.8,0-1.5,0.3-1.9,1c-0.4,0.6-0.6,1.7-0.6,3v3.5c0,1.5,0.2,2.5,0.6,3.2
			c0.4,0.7,1,1.1,1.9,1.1c0.8,0,1.5-0.3,1.8-1c0.4-0.7,0.6-1.7,0.6-3.1V521.8z"/>
		<path fill="#F9A26C" d="M787.3,531.2h-2.6v-12.5l-3.8,1.3v-2.2l6.1-2.2h0.3V531.2z"/>
		<path fill="#F9A26C" d="M803,517.1l-6.2,14.1h-2.7l6.2-13.5h-8.1v-2.1H803V517.1z"/>
	</g>
	<g>
		<path fill="#F9A26C" d="M913.9,531.2h-10.5v-1.8l5.2-5.7c0.7-0.8,1.3-1.5,1.6-2.1c0.3-0.6,0.5-1.1,0.5-1.7c0-0.7-0.2-1.3-0.6-1.8
			c-0.4-0.5-1-0.7-1.7-0.7c-0.8,0-1.5,0.3-2,0.8c-0.5,0.5-0.7,1.2-0.7,2.1h-2.6c0-0.9,0.2-1.8,0.6-2.6c0.4-0.8,1-1.3,1.8-1.8
			c0.8-0.4,1.7-0.6,2.8-0.6c1.5,0,2.7,0.4,3.6,1.1c0.9,0.8,1.3,1.8,1.3,3.1c0,0.8-0.2,1.6-0.7,2.4c-0.4,0.9-1.2,1.8-2.2,2.9
			l-3.8,4.1h7.2V531.2z"/>
		<path fill="#F9A26C" d="M926.1,524.7c0,2.2-0.4,3.9-1.3,5.1c-0.8,1.1-2.1,1.7-3.8,1.7c-1.7,0-2.9-0.6-3.8-1.7
			c-0.9-1.1-1.3-2.7-1.3-4.9v-2.7c0-2.2,0.4-3.9,1.3-5c0.8-1.1,2.1-1.7,3.8-1.7c1.7,0,3,0.5,3.8,1.6c0.8,1.1,1.3,2.7,1.3,4.9V524.7z
			 M923.5,521.8c0-1.5-0.2-2.5-0.6-3.2c-0.4-0.7-1-1-1.9-1c-0.8,0-1.5,0.3-1.9,1c-0.4,0.6-0.6,1.7-0.6,3v3.5c0,1.5,0.2,2.5,0.6,3.2
			c0.4,0.7,1,1.1,1.9,1.1c0.8,0,1.5-0.3,1.8-1c0.4-0.7,0.6-1.7,0.6-3.1V521.8z"/>
		<path fill="#F9A26C" d="M935.4,531.2h-2.6v-12.5L929,520v-2.2l6.1-2.2h0.3V531.2z"/>
		<path fill="#F9A26C" d="M950.6,519.8c0,0.8-0.2,1.4-0.6,2c-0.4,0.6-0.9,1.1-1.6,1.4c0.8,0.4,1.4,0.9,1.9,1.6
			c0.4,0.7,0.7,1.4,0.7,2.2c0,1.4-0.5,2.5-1.4,3.3c-0.9,0.8-2.2,1.2-3.7,1.2c-1.5,0-2.8-0.4-3.7-1.2c-0.9-0.8-1.4-1.9-1.4-3.2
			c0-0.8,0.2-1.6,0.7-2.2c0.4-0.7,1.1-1.2,1.9-1.5c-0.7-0.3-1.2-0.8-1.6-1.4c-0.4-0.6-0.6-1.3-0.6-2c0-1.3,0.4-2.4,1.3-3.2
			c0.9-0.8,2-1.2,3.5-1.2c1.5,0,2.6,0.4,3.5,1.2C950.2,517.4,950.6,518.4,950.6,519.8z M948.3,526.9c0-0.8-0.2-1.4-0.7-1.9
			c-0.5-0.5-1.1-0.7-1.8-0.7c-0.8,0-1.4,0.2-1.8,0.7c-0.5,0.5-0.7,1.1-0.7,1.9c0,0.8,0.2,1.4,0.7,1.8c0.4,0.5,1.1,0.7,1.8,0.7
			s1.4-0.2,1.8-0.7C948.1,528.3,948.3,527.6,948.3,526.9z M948,519.9c0-0.7-0.2-1.2-0.6-1.7c-0.4-0.4-0.9-0.7-1.6-0.7
			c-0.7,0-1.2,0.2-1.6,0.6c-0.4,0.4-0.6,1-0.6,1.7c0,0.7,0.2,1.3,0.6,1.7c0.4,0.4,0.9,0.6,1.6,0.6c0.7,0,1.2-0.2,1.6-0.6
			C947.8,521.1,948,520.6,948,519.9z"/>
	</g>
</g>
<g id="yaxis">
	<g>
		<path fill="#F26627" d="M29.6,433.1c-1,1-2.2,1.5-3.5,1.5c-1.7,0-3.1-0.6-4.1-1.8c-1-1.2-1.5-2.7-1.5-4.7c0-1.3,0.3-2.4,0.8-3.5
			c0.6-1.1,1.3-1.9,2.3-2.5c1-0.6,2.1-0.9,3.3-0.9c1.3,0,2.4,0.3,3.4,1c1,0.6,1.8,1.5,2.3,2.7c0.5,1.2,0.8,2.6,0.8,4.1v1.4
			c0,3.2-0.8,5.7-2.4,7.6c-1.6,1.8-3.9,2.8-6.8,2.9l-0.9,0v-3.2l0.8,0C27.6,437.6,29.4,436.1,29.6,433.1z M27.1,431.6
			c0.6,0,1.1-0.2,1.6-0.5c0.4-0.3,0.8-0.7,1-1.2v-1.6c0-1.3-0.2-2.3-0.7-3c-0.5-0.7-1.2-1.1-2-1.1c-0.8,0-1.4,0.4-1.9,1.1
			c-0.5,0.7-0.7,1.6-0.7,2.6c0,1.1,0.2,1.9,0.7,2.6C25.5,431.3,26.2,431.6,27.1,431.6z"/>
		<path fill="#F26627" d="M49.2,432.8c0,2.7-0.6,4.7-1.7,6.1c-1.1,1.4-2.7,2.1-4.8,2.1c-2.1,0-3.7-0.7-4.8-2.1
			c-1.1-1.4-1.7-3.4-1.7-6v-3.5c0-2.7,0.6-4.7,1.7-6.1c1.1-1.4,2.7-2.1,4.8-2.1c2.1,0,3.7,0.7,4.8,2.1c1.1,1.4,1.7,3.4,1.7,5.9
			V432.8z M45.4,428.9c0-1.6-0.2-2.8-0.7-3.5c-0.4-0.7-1.1-1.1-2-1.1c-0.9,0-1.6,0.3-2,1c-0.4,0.7-0.7,1.8-0.7,3.3v4.7
			c0,1.6,0.2,2.7,0.6,3.5c0.4,0.8,1.1,1.1,2.1,1.1c0.9,0,1.6-0.4,2-1.1c0.4-0.7,0.6-1.9,0.6-3.4V428.9z"/>
		<path fill="#F26627" d="M64.1,421.5l4.9,14l4.9-14h5.2v19.3h-4v-5.3l0.4-9.1l-5.2,14.4h-2.7l-5.2-14.3l0.4,9.1v5.3h-4v-19.3H64.1z
			"/>
		<path fill="#F26627" d="M86.9,440.8h-4v-19.3h4V440.8z"/>
		<path fill="#F26627" d="M94.6,437.6h8.4v3.2H90.6v-19.3h4V437.6z"/>
		<path fill="#F26627" d="M109.2,437.6h8.4v3.2h-12.4v-19.3h4V437.6z"/>
		<path fill="#F26627" d="M124.2,440.8h-4v-19.3h4V440.8z"/>
		<path fill="#F26627" d="M143.7,431.6c0,1.9-0.3,3.6-1,5c-0.7,1.4-1.6,2.5-2.9,3.3c-1.2,0.8-2.7,1.2-4.3,1.2c-1.6,0-3-0.4-4.3-1.2
			c-1.3-0.8-2.2-1.9-2.9-3.3c-0.7-1.4-1-3.1-1-4.9v-1c0-1.9,0.3-3.6,1-5c0.7-1.4,1.6-2.6,2.9-3.3c1.2-0.8,2.7-1.2,4.3-1.2
			c1.6,0,3,0.4,4.3,1.2c1.2,0.8,2.2,1.9,2.9,3.3c0.7,1.4,1,3.1,1,5V431.6z M139.6,430.7c0-2-0.4-3.6-1.1-4.6
			c-0.7-1.1-1.8-1.6-3.1-1.6c-1.3,0-2.4,0.5-3.1,1.6c-0.7,1-1.1,2.6-1.1,4.6v0.9c0,2,0.4,3.5,1.1,4.6c0.7,1.1,1.8,1.6,3.1,1.6
			c1.3,0,2.4-0.5,3.1-1.6c0.7-1,1.1-2.6,1.1-4.6V430.7z"/>
		<path fill="#F26627" d="M162.2,440.8h-4l-7.7-12.7v12.7h-4v-19.3h4l7.7,12.7v-12.7h4V440.8z"/>
	</g>
	<g>
		<path fill="#F26627" d="M5.8,247.1l1.1-9.8h10.8v3.2H10l-0.5,4.1c0.9-0.5,1.9-0.7,2.9-0.7c1.8,0,3.3,0.6,4.3,1.7
			c1,1.1,1.6,2.7,1.6,4.8c0,1.2-0.3,2.4-0.8,3.3c-0.5,1-1.3,1.7-2.3,2.3c-1,0.5-2.1,0.8-3.5,0.8c-1.2,0-2.2-0.2-3.2-0.7
			c-1-0.5-1.8-1.1-2.4-2c-0.6-0.9-0.9-1.8-0.9-2.9h3.8c0.1,0.8,0.4,1.4,0.8,1.9c0.5,0.4,1.1,0.7,1.9,0.7c0.9,0,1.5-0.3,2-0.9
			c0.5-0.6,0.7-1.5,0.7-2.6c0-1.1-0.3-1.9-0.8-2.5c-0.5-0.6-1.3-0.9-2.3-0.9c-0.9,0-1.6,0.2-2.2,0.7l-0.4,0.3L5.8,247.1z"/>
		<path fill="#F26627" d="M33.7,248.7c0,2.7-0.6,4.7-1.7,6.1c-1.1,1.4-2.7,2.1-4.8,2.1c-2.1,0-3.7-0.7-4.8-2.1
			c-1.1-1.4-1.7-3.4-1.7-6v-3.5c0-2.7,0.6-4.7,1.7-6.1c1.1-1.4,2.7-2.1,4.8-2.1c2.1,0,3.7,0.7,4.8,2.1c1.1,1.4,1.7,3.4,1.7,5.9
			V248.7z M29.9,244.8c0-1.6-0.2-2.8-0.7-3.5c-0.4-0.7-1.1-1.1-2-1.1c-0.9,0-1.6,0.3-2,1c-0.4,0.7-0.7,1.8-0.7,3.3v4.7
			c0,1.6,0.2,2.7,0.6,3.5c0.4,0.8,1.1,1.1,2.1,1.1c0.9,0,1.6-0.4,2-1.1c0.4-0.7,0.6-1.9,0.6-3.4V244.8z"/>
		<path fill="#F26627" d="M49.3,248.7c0,2.7-0.6,4.7-1.7,6.1c-1.1,1.4-2.7,2.1-4.8,2.1c-2.1,0-3.7-0.7-4.8-2.1
			c-1.1-1.4-1.7-3.4-1.7-6v-3.5c0-2.7,0.6-4.7,1.7-6.1c1.1-1.4,2.7-2.1,4.8-2.1c2.1,0,3.7,0.7,4.8,2.1c1.1,1.4,1.7,3.4,1.7,5.9
			V248.7z M45.5,244.8c0-1.6-0.2-2.8-0.7-3.5c-0.4-0.7-1.1-1.1-2-1.1c-0.9,0-1.6,0.3-2,1c-0.4,0.7-0.7,1.8-0.7,3.3v4.7
			c0,1.6,0.2,2.7,0.6,3.5c0.4,0.8,1.1,1.1,2.1,1.1c0.9,0,1.6-0.4,2-1.1c0.4-0.7,0.6-1.9,0.6-3.4V244.8z"/>
		<path fill="#F26627" d="M64.2,237.4l4.9,14l4.9-14h5.2v19.3h-4v-5.3l0.4-9.1l-5.2,14.4h-2.7l-5.2-14.3l0.4,9.1v5.3h-4v-19.3H64.2z
			"/>
		<path fill="#F26627" d="M87,256.6h-4v-19.3h4V256.6z"/>
		<path fill="#F26627" d="M94.6,253.4h8.4v3.2H90.7v-19.3h4V253.4z"/>
		<path fill="#F26627" d="M109.3,253.4h8.4v3.2h-12.4v-19.3h4V253.4z"/>
		<path fill="#F26627" d="M124.2,256.6h-4v-19.3h4V256.6z"/>
		<path fill="#F26627" d="M143.7,247.4c0,1.9-0.3,3.6-1,5c-0.7,1.4-1.6,2.5-2.9,3.3c-1.2,0.8-2.7,1.2-4.3,1.2c-1.6,0-3-0.4-4.3-1.2
			c-1.3-0.8-2.2-1.9-2.9-3.3c-0.7-1.4-1-3.1-1-4.9v-1c0-1.9,0.3-3.6,1-5c0.7-1.4,1.6-2.6,2.9-3.3c1.2-0.8,2.7-1.2,4.3-1.2
			c1.6,0,3,0.4,4.3,1.2c1.2,0.8,2.2,1.9,2.9,3.3c0.7,1.4,1,3.1,1,5V247.4z M139.7,246.6c0-2-0.4-3.6-1.1-4.6c-0.7-1-1.8-1.6-3.1-1.6
			c-1.3,0-2.4,0.5-3.1,1.6c-0.7,1-1.1,2.6-1.1,4.6v0.9c0,2,0.4,3.5,1.1,4.6c0.7,1.1,1.8,1.6,3.1,1.6c1.3,0,2.4-0.5,3.1-1.6
			c0.7-1,1.1-2.6,1.1-4.6V246.6z"/>
		<path fill="#F26627" d="M162.3,256.6h-4l-7.7-12.7v12.7h-4v-19.3h4l7.7,12.7v-12.7h4V256.6z"/>
	</g>
	<g>
		<path fill="#F26627" d="M52.3,93.4h-3.8V78.6l-4.6,1.4V77l8-2.9h0.4V93.4z"/>
		<path fill="#F26627" d="M65.7,93.4V74.1h6.7c2.3,0,4.1,0.4,5.3,1.3c1.2,0.9,1.8,2.2,1.8,3.9c0,0.9-0.2,1.8-0.7,2.5
			c-0.5,0.7-1.2,1.2-2,1.6c1,0.2,1.8,0.7,2.3,1.5c0.6,0.7,0.9,1.7,0.9,2.8c0,1.9-0.6,3.3-1.8,4.2c-1.2,1-2.9,1.4-5.1,1.5H65.7z
			 M69.7,82.2h2.9c2,0,3-0.8,3-2.4c0-0.9-0.3-1.5-0.8-1.9c-0.5-0.4-1.3-0.6-2.4-0.6h-2.8V82.2z M69.7,85v5.2h3.4
			c0.9,0,1.7-0.2,2.2-0.7c0.5-0.4,0.8-1.1,0.8-1.8c0-1.8-0.9-2.7-2.7-2.7H69.7z"/>
		<path fill="#F26627" d="M87.3,93.4h-4V74.1h4V93.4z"/>
		<path fill="#F26627" d="M94.9,90.2h8.4v3.2H90.9V74.1h4V90.2z"/>
		<path fill="#F26627" d="M109.6,90.2h8.4v3.2h-12.4V74.1h4V90.2z"/>
		<path fill="#F26627" d="M124.5,93.4h-4V74.1h4V93.4z"/>
		<path fill="#F26627" d="M144,84.2c0,1.9-0.3,3.6-1,5c-0.7,1.4-1.6,2.5-2.9,3.3c-1.2,0.8-2.7,1.2-4.3,1.2c-1.6,0-3-0.4-4.3-1.2
			c-1.3-0.8-2.2-1.9-2.9-3.3c-0.7-1.4-1-3.1-1-4.9v-1c0-1.9,0.3-3.6,1-5c0.7-1.4,1.6-2.6,2.9-3.3c1.2-0.8,2.7-1.2,4.3-1.2
			c1.6,0,3,0.4,4.3,1.2c1.2,0.8,2.2,1.9,2.9,3.3c0.7,1.4,1,3.1,1,5V84.2z M140,83.3c0-2-0.4-3.6-1.1-4.6c-0.7-1.1-1.8-1.6-3.1-1.6
			c-1.3,0-2.4,0.5-3.1,1.6c-0.7,1-1.1,2.6-1.1,4.6v0.9c0,2,0.4,3.5,1.1,4.6c0.7,1.1,1.8,1.6,3.1,1.6c1.3,0,2.4-0.5,3.1-1.6
			c0.7-1,1.1-2.6,1.1-4.6V83.3z"/>
		<path fill="#F26627" d="M162.6,93.4h-4l-7.7-12.7v12.7h-4V74.1h4l7.7,12.7V74.1h4V93.4z"/>
	</g>
	<g>
		<path fill="#F26627" d="M47.1,12.2l2.7,7.8l2.7-7.8h2.9v10.7h-2.2V20l0.2-5.1l-2.9,8h-1.5l-2.9-8l0.2,5v2.9h-2.2V12.2H47.1z"/>
		<path fill="#F26627" d="M66.2,17.8c0,1.1-0.2,2-0.6,2.8c-0.4,0.8-0.9,1.4-1.6,1.8c-0.7,0.4-1.5,0.6-2.4,0.6
			c-0.9,0-1.7-0.2-2.4-0.6c-0.7-0.4-1.2-1-1.6-1.8c-0.4-0.8-0.6-1.7-0.6-2.7v-0.5c0-1.1,0.2-2,0.6-2.8c0.4-0.8,0.9-1.4,1.6-1.8
			c0.7-0.4,1.5-0.6,2.4-0.6c0.9,0,1.7,0.2,2.4,0.6c0.7,0.4,1.2,1,1.6,1.8c0.4,0.8,0.6,1.7,0.6,2.8V17.8z M64,17.3
			c0-1.1-0.2-2-0.6-2.6c-0.4-0.6-1-0.9-1.7-0.9c-0.7,0-1.3,0.3-1.7,0.9c-0.4,0.6-0.6,1.4-0.6,2.5v0.5c0,1.1,0.2,1.9,0.6,2.5
			c0.4,0.6,1,0.9,1.7,0.9c0.7,0,1.3-0.3,1.7-0.9c0.4-0.6,0.6-1.4,0.6-2.5V17.3z"/>
		<path fill="#F26627" d="M76.5,22.9h-2.2l-4.3-7v7h-2.2V12.2H70l4.3,7.1v-7.1h2.2V22.9z"/>
		<path fill="#F26627" d="M86.3,14H83v8.9h-2.2V14h-3.2v-1.8h8.7V14z"/>
		<path fill="#F26627" d="M96.2,22.9H94v-4.6h-4.3v4.6h-2.2V12.2h2.2v4.3H94v-4.3h2.2V22.9z"/>
		<path fill="#F26627" d="M100.4,21.1h4.7v1.8h-6.9V12.2h2.2V21.1z"/>
		<path fill="#F26627" d="M108,17l2.2-4.8h2.4l-3.5,6.8v3.9h-2.2V19l-3.5-6.8h2.4L108,17z"/>
		<path fill="#F26627" d="M125.4,12.2v7.1c0,1.2-0.4,2.1-1.1,2.8c-0.7,0.7-1.7,1-3,1c-1.2,0-2.2-0.3-3-1c-0.7-0.7-1.1-1.6-1.1-2.7
			v-7.1h2.2v7.1c0,0.7,0.2,1.2,0.5,1.5c0.3,0.3,0.8,0.5,1.4,0.5c1.2,0,1.9-0.7,1.9-2v-7.1H125.4z"/>
		<path fill="#F26627" d="M132.8,20.1c0-0.4-0.1-0.7-0.4-1c-0.3-0.2-0.8-0.5-1.6-0.7s-1.4-0.5-1.8-0.7c-1.2-0.7-1.8-1.5-1.8-2.7
			c0-0.6,0.2-1.1,0.5-1.5c0.3-0.5,0.8-0.8,1.4-1.1c0.6-0.3,1.3-0.4,2.1-0.4c0.8,0,1.4,0.1,2,0.4c0.6,0.3,1.1,0.7,1.4,1.2
			c0.3,0.5,0.5,1.1,0.5,1.7h-2.2c0-0.5-0.2-0.9-0.5-1.1c-0.3-0.3-0.7-0.4-1.3-0.4c-0.5,0-1,0.1-1.3,0.3c-0.3,0.2-0.4,0.5-0.4,0.9
			c0,0.3,0.2,0.6,0.5,0.9c0.4,0.2,0.9,0.5,1.5,0.7c1.3,0.4,2.2,0.8,2.7,1.4s0.9,1.3,0.9,2.1c0,0.9-0.4,1.7-1.1,2.2
			c-0.7,0.5-1.6,0.8-2.8,0.8c-0.8,0-1.6-0.2-2.2-0.5c-0.7-0.3-1.2-0.7-1.5-1.2c-0.4-0.5-0.5-1.1-0.5-1.8h2.2c0,1.2,0.7,1.8,2.1,1.8
			c0.5,0,0.9-0.1,1.2-0.3C132.6,20.7,132.8,20.4,132.8,20.1z"/>
		<path fill="#F26627" d="M142.9,18.2h-4.2v2.9h5v1.8h-7.2V12.2h7.2V14h-5v2.6h4.2V18.2z"/>
		<path fill="#F26627" d="M148.9,19h-1.8v3.9H145V12.2h4c1.3,0,2.2,0.3,2.9,0.8c0.7,0.6,1,1.4,1,2.4c0,0.7-0.2,1.3-0.5,1.8
			c-0.3,0.5-0.8,0.9-1.4,1.2l2.3,4.4v0.1h-2.4L148.9,19z M147.2,17.2h1.8c0.6,0,1-0.1,1.3-0.4c0.3-0.3,0.5-0.7,0.5-1.2
			c0-0.5-0.1-0.9-0.4-1.2c-0.3-0.3-0.7-0.4-1.3-0.4h-1.8V17.2z"/>
		<path fill="#F26627" d="M160.1,20.1c0-0.4-0.1-0.7-0.4-1c-0.3-0.2-0.8-0.5-1.6-0.7s-1.4-0.5-1.8-0.7c-1.2-0.7-1.8-1.5-1.8-2.7
			c0-0.6,0.2-1.1,0.5-1.5c0.3-0.5,0.8-0.8,1.4-1.1c0.6-0.3,1.3-0.4,2.1-0.4c0.8,0,1.4,0.1,2,0.4c0.6,0.3,1.1,0.7,1.4,1.2
			c0.3,0.5,0.5,1.1,0.5,1.7h-2.2c0-0.5-0.2-0.9-0.5-1.1c-0.3-0.3-0.7-0.4-1.3-0.4c-0.5,0-1,0.1-1.3,0.3c-0.3,0.2-0.4,0.5-0.4,0.9
			c0,0.3,0.2,0.6,0.5,0.9c0.4,0.2,0.9,0.5,1.5,0.7c1.3,0.4,2.2,0.8,2.7,1.4s0.9,1.3,0.9,2.1c0,0.9-0.4,1.7-1.1,2.2
			c-0.7,0.5-1.6,0.8-2.8,0.8c-0.8,0-1.6-0.2-2.2-0.5c-0.7-0.3-1.2-0.7-1.5-1.2c-0.4-0.5-0.5-1.1-0.5-1.8h2.2c0,1.2,0.7,1.8,2.1,1.8
			c0.5,0,0.9-0.1,1.2-0.3C160,20.7,160.1,20.4,160.1,20.1z"/>
	</g>
</g>
<polyline id="graphline" fill="none" stroke="#325D79" stroke-width="9" stroke-miterlimit="10" points="183.1,432.4 329.9,344.3 
	480.8,278.3 629.8,218.3 779.2,172.6 928,76.3 "/>
<g id="pulse0">
	<path id="ring_5_" opacity="0.9" fill="#98D7D1" d="M186.3,414.2c-8.6,0-15.6,7-15.6,15.6c0,8.6,7,15.6,15.6,15.6
		c8.6,0,15.6-7,15.6-15.6C201.9,421.2,195,414.2,186.3,414.2z M186.1,443c-7.3,0-13.2-5.9-13.2-13.2c0-7.3,5.9-13.2,13.2-13.2
		s13.2,5.9,13.2,13.2C199.3,437.1,193.4,443,186.1,443z"/>
	<circle id="light_1_" opacity="0.39" fill="#98D7D1" cx="186.2" cy="429.7" r="14.5"/>
</g>
<g id="pulse1">
	<path id="ring" opacity="0.9" fill="#98D7D1" d="M330.1,328.1c-8.6,0-15.6,7-15.6,15.6c0,8.6,7,15.6,15.6,15.6
		c8.6,0,15.6-7,15.6-15.6C345.7,335.1,338.7,328.1,330.1,328.1z M329.9,356.9c-7.3,0-13.2-5.9-13.2-13.2c0-7.3,5.9-13.2,13.2-13.2
		c7.3,0,13.2,5.9,13.2,13.2C343,351,337.1,356.9,329.9,356.9z"/>
	<circle id="light_3_" opacity="0.39" fill="#98D7D1" cx="330" cy="343.6" r="14.5"/>
</g>
<g id="pulse2">
	<path id="ring_1_" opacity="0.9" fill="#98D7D1" d="M478.9,266.6c-8.6,0-15.6,7-15.6,15.6c0,8.6,7,15.6,15.6,15.6
		c8.6,0,15.6-7,15.6-15.6C494.5,273.6,487.6,266.6,478.9,266.6z M478.7,295.4c-7.3,0-13.2-5.9-13.2-13.2c0-7.3,5.9-13.2,13.2-13.2
		c7.3,0,13.2,5.9,13.2,13.2C491.9,289.4,486,295.4,478.7,295.4z"/>
	<circle id="light_4_" opacity="0.39" fill="#98D7D1" cx="478.8" cy="282.1" r="14.5"/>
</g>
<g id="pulse3">
	<path id="ring_2_" opacity="0.9" fill="#98D7D1" d="M630.7,204c-8.6,0-15.6,7-15.6,15.6c0,8.6,7,15.6,15.6,15.6
		c8.6,0,15.6-7,15.6-15.6C646.3,211,639.3,204,630.7,204z M630.5,232.8c-7.3,0-13.2-5.9-13.2-13.2s5.9-13.2,13.2-13.2
		c7.3,0,13.2,5.9,13.2,13.2S637.7,232.8,630.5,232.8z"/>
	<circle id="light_5_" opacity="0.39" fill="#98D7D1" cx="630.6" cy="219.5" r="14.5"/>
</g>
<g id="pulse4">
	<path id="ring_3_" opacity="0.9" fill="#98D7D1" d="M777.7,156.7c-8.6,0-15.6,7-15.6,15.6c0,8.6,7,15.6,15.6,15.6
		c8.6,0,15.6-7,15.6-15.6C793.3,163.7,786.3,156.7,777.7,156.7z M777.5,185.5c-7.3,0-13.2-5.9-13.2-13.2s5.9-13.2,13.2-13.2
		c7.3,0,13.2,5.9,13.2,13.2S784.8,185.5,777.5,185.5z"/>
	<circle id="light_6_" opacity="0.39" fill="#98D7D1" cx="777.6" cy="172.2" r="14.5"/>
</g>
<g id="pulse5">
	<path id="ring_4_" opacity="0.9" fill="#98D7D1" d="M928.1,60.8c-8.6,0-15.6,7-15.6,15.6c0,8.6,7,15.6,15.6,15.6
		c8.6,0,15.6-7,15.6-15.6C943.7,67.8,936.7,60.8,928.1,60.8z M927.9,89.6c-7.3,0-13.2-5.9-13.2-13.2c0-7.3,5.9-13.2,13.2-13.2
		S941,69.1,941,76.4C941,83.6,935.1,89.6,927.9,89.6z"/>
	<circle id="light_7_" opacity="0.39" fill="#98D7D1" cx="928" cy="76.3" r="14.5"/>
</g>
</svg>
