<?xml version="1.0" encoding="utf-8"?>
<!-- Generator: Adobe Illustrator 22.1.0, SVG Export Plug-In . SVG Version: 6.00 Build 0)  -->
<svg version="1.1" id="hashtag" xmlns="http://www.w3.org/2000/svg" xmlns:xlink="http://www.w3.org/1999/xlink" x="0px" y="0px"
	 viewBox="0 0 448.5 456.6" style="enable-background:new 0 0 448.5 456.6;" xml:space="preserve">
<style type="text/css">
	.st0{fill:#EFEEEE;}
	.st1{fill:#98D7D1;}
	.st2{fill:#F26627;}
	.st3{fill:#F9A26C;}
</style>
<g id="grey_x5F_hashtags">
	<g id="hashtag10">
		<g>
			<path class="st0" d="M426.1,138.5l2-15.4h-10l1.7-13.2h-15.4l-1.7,13.2h-17.8l1.7-13.2h-15.4l-1.7,13.2h-10l-2,15.4h10l-2.4,17.9
				h-10l-2,15.4h10l-1.7,13.2h15.4l1.7-13.2h17.8l-1.7,13.2H410l1.7-13.2h10l2-15.4h-10l2.4-17.9H426.1z M398.4,156.4h-17.8
				l2.4-17.9h17.8L398.4,156.4z"/>
		</g>
	</g>
	<g id="hashtag9">
		<g>
			<path class="st0" d="M340,138.5l2-15.4h-10l1.7-13.2h-15.4l-1.7,13.2h-17.8l1.7-13.2h-15.4l-1.7,13.2h-10l-2,15.4h10l-2.4,17.9
				h-10l-2,15.4h10l-1.7,13.2h15.4l1.7-13.2h17.8l-1.7,13.2h15.4l1.7-13.2h10l2-15.4h-10l2.4-17.9H340z M312.2,156.4h-17.8l2.4-17.9
				h17.8L312.2,156.4z"/>
		</g>
	</g>
	<g id="hashtag8">
		<g>
			<path class="st0" d="M253.8,138.5l2-15.4h-10l1.7-13.2h-15.4l-1.7,13.2h-17.8l1.7-13.2h-15.4l-1.7,13.2h-10l-2,15.4h10l-2.4,17.9
				h-10l-2,15.4h10l-1.7,13.2h15.4l1.7-13.2H224l-1.7,13.2h15.4l1.7-13.2h10l2-15.4h-10l2.4-17.9H253.8z M226.1,156.4h-17.8
				l2.4-17.9h17.8L226.1,156.4z"/>
		</g>
	</g>
</g>
<g id="green_x5F_hashtags">
	<g id="hashtag7">
		<g>
			<path class="st1" d="M168.4,138.5l2-15.4h-10l1.7-13.2h-15.4l-1.7,13.2h-17.8l1.7-13.2h-15.4l-1.7,13.2h-10l-2,15.4h10l-2.4,17.9
				h-10l-2,15.4h10l-1.7,13.2H119l1.7-13.2h17.8l-1.7,13.2h15.4l1.7-13.2h10l2-15.4h-10l2.4-17.9H168.4z M140.6,156.4h-17.8
				l2.4-17.9H143L140.6,156.4z"/>
		</g>
	</g>
	<g id="hashtag6">
		<g>
			<path class="st1" d="M83.8,138.5l2-15.4h-10l1.7-13.2H62.2l-1.7,13.2H42.6l1.7-13.2H29l-1.7,13.2h-10l-2,15.4h10l-2.4,17.9h-10
				l-2,15.4h10l-1.7,13.2h15.4l1.7-13.2h17.8l-1.7,13.2h15.4l1.7-13.2h10l2-15.4h-10l2.4-17.9H83.8z M56.1,156.4H38.3l2.4-17.9h17.8
				L56.1,156.4z"/>
		</g>
	</g>
	<g id="hashtag5">
		<g>
			<path class="st1" d="M436.1,34.3l2-15.4h-10l1.7-13.2h-15.4L412.8,19h-17.8l1.7-13.2h-15.4L379.5,19h-10l-2,15.4h10l-2.4,17.9
				h-10l-2,15.4h10l-1.7,13.2h15.4l1.7-13.2h17.8l-1.7,13.2h15.4l1.7-13.2h10l2-15.4h-10l2.4-17.9H436.1z M408.4,52.2h-17.8
				l2.4-17.9h17.8L408.4,52.2z"/>
		</g>
	</g>
	<g id="hashtag4">
		<g>
			<path class="st1" d="M350,34.3l2-15.4h-10l1.7-13.2h-15.4L326.6,19h-17.8l1.7-13.2h-15.4L293.4,19h-10l-2,15.4h10L289,52.2h-10
				l-2,15.4h10l-1.7,13.2h15.4l1.7-13.2h17.8l-1.7,13.2h15.4l1.7-13.2h10l2-15.4h-10l2.4-17.9H350z M322.2,52.2h-17.8l2.4-17.9h17.8
				L322.2,52.2z"/>
		</g>
	</g>
	<g id="hashtag3">
		<g>
			<path class="st1" d="M263.8,34.3l2-15.4h-10l1.7-13.2h-15.4L240.5,19h-17.8l1.7-13.2h-15.4L207.2,19h-10l-2,15.4h10l-2.4,17.9
				h-10l-2,15.4h10l-1.7,13.2h15.4l1.7-13.2h17.8l-1.7,13.2h15.4l1.7-13.2h10l2-15.4h-10l2.4-17.9H263.8z M236.1,52.2h-17.8
				l2.4-17.9h17.8L236.1,52.2z"/>
		</g>
	</g>
	<g id="hashtag2">
		<g>
			<path class="st1" d="M178.4,34.3l2-15.4h-10l1.7-13.2h-15.4L155,19h-17.8l1.7-13.2h-15.4L121.8,19h-10l-2,15.4h10l-2.4,17.9h-10
				l-2,15.4h10l-1.7,13.2h15.4l1.7-13.2h17.8l-1.7,13.2h15.4l1.7-13.2h10l2-15.4h-10l2.4-17.9H178.4z M150.6,52.2h-17.8l2.4-17.9
				H153L150.6,52.2z"/>
		</g>
	</g>
	<g id="hashtag1">
		<g>
			<path class="st1" d="M93.8,34.3l2-15.4h-10l1.7-13.2H72.2L70.5,19H52.7l1.7-13.2H39L37.2,19h-10l-2,15.4h10l-2.4,17.9h-10
				l-2,15.4h10l-1.7,13.2h15.4l1.7-13.2h17.8l-1.7,13.2h15.4l1.7-13.2h10l2-15.4h-10l2.4-17.9H93.8z M66.1,52.2H48.3l2.4-17.9h17.8
				L66.1,52.2z"/>
		</g>
	</g>
</g>
<g id="hashtag_x5F_text">
	<g>
		<path class="st1" d="M26.7,446.8V382h22.7c7.9,0,13.8,1.5,17.9,4.5c4.1,3,6.1,7.4,6.1,13.2c0,3.2-0.8,6-2.4,8.4
			c-1.6,2.4-3.9,4.2-6.8,5.3c3.3,0.8,5.9,2.5,7.9,5s2.9,5.6,2.9,9.3c0,6.2-2,10.9-6,14.2c-4,3.2-9.6,4.8-17,4.9H26.7z M40,409.2h9.9
			c6.7-0.1,10.1-2.8,10.1-8.1c0-2.9-0.9-5.1-2.6-6.3c-1.7-1.3-4.4-1.9-8.1-1.9H40V409.2z M40,418.6v17.5h11.4c3.1,0,5.6-0.7,7.4-2.2
			c1.8-1.5,2.6-3.6,2.6-6.2c0-5.9-3.1-8.9-9.2-9H40z"/>
		<path class="st1" d="M108.8,423.1H98.2v23.7H84.8V382h24.1c7.7,0,13.6,1.7,17.7,5.1c4.2,3.4,6.2,8.2,6.2,14.5
			c0,4.4-1,8.1-2.9,11.1c-1.9,3-4.8,5.3-8.7,7.1l14,26.5v0.6H121L108.8,423.1z M98.2,412.3H109c3.4,0,5.9-0.9,7.8-2.6
			c1.8-1.7,2.8-4.1,2.8-7.1c0-3.1-0.9-5.5-2.6-7.2c-1.7-1.8-4.4-2.6-8-2.6H98.2V412.3z"/>
		<path class="st1" d="M179.6,433.5h-23.4l-4.5,13.4h-14.2l24.1-64.8H174l24.3,64.8h-14.2L179.6,433.5z M159.8,422.6H176l-8.1-24.3
			L159.8,422.6z"/>
		<path class="st1" d="M257,446.8h-13.4l-26-42.6v42.6h-13.4V382h13.4l26,42.7V382H257V446.8z"/>
		<path class="st1" d="M268.7,446.8V382h19.9c5.7,0,10.8,1.3,15.3,3.8c4.5,2.6,8,6.2,10.5,10.9c2.5,4.7,3.8,10.1,3.8,16.1v3
			c0,6-1.2,11.4-3.7,16.1c-2.5,4.7-6,8.3-10.5,10.9c-4.5,2.6-9.6,3.9-15.3,3.9H268.7z M282.1,392.8v43.3h6.5c5.2,0,9.2-1.7,12-5.1
			c2.8-3.4,4.2-8.3,4.2-14.6v-3.4c0-6.6-1.4-11.6-4.1-15c-2.7-3.4-6.7-5.1-12-5.1H282.1z"/>
		<path class="st1" d="M366.9,418.7h-25.6v17.4h30.1v10.7h-43.4V382h43.4v10.8h-30v15.4h25.6V418.7z"/>
		<path class="st1" d="M379.2,446.8V382h19.9c5.7,0,10.8,1.3,15.3,3.8c4.5,2.6,8,6.2,10.5,10.9c2.5,4.7,3.8,10.1,3.8,16.1v3
			c0,6-1.2,11.4-3.7,16.1c-2.5,4.7-6,8.3-10.5,10.9c-4.5,2.6-9.6,3.9-15.3,3.9H379.2z M392.6,392.8v43.3h6.5c5.2,0,9.2-1.7,12-5.1
			c2.8-3.4,4.2-8.3,4.2-14.6v-3.4c0-6.6-1.4-11.6-4.1-15c-2.7-3.4-6.7-5.1-12-5.1H392.6z"/>
	</g>
	<g>
		<path class="st2" d="M46.6,287c0-1.7-0.6-3-1.8-3.9s-3.4-1.9-6.5-2.9s-5.6-2-7.5-3c-5-2.7-7.5-6.3-7.5-10.9c0-2.4,0.7-4.5,2-6.4
			s3.3-3.3,5.8-4.4s5.3-1.6,8.5-1.6c3.1,0,5.9,0.6,8.4,1.7c2.5,1.1,4.4,2.7,5.7,4.8s2,4.4,2,7.1h-9.1c0-2-0.6-3.6-1.9-4.7
			c-1.3-1.1-3.1-1.7-5.4-1.7c-2.2,0-3.9,0.5-5.2,1.4c-1.2,0.9-1.8,2.2-1.8,3.7c0,1.4,0.7,2.6,2.2,3.6c1.4,1,3.6,1.9,6.4,2.7
			c5.2,1.6,8.9,3.5,11.3,5.8c2.4,2.3,3.5,5.2,3.5,8.6c0,3.8-1.4,6.8-4.3,9c-2.9,2.2-6.8,3.3-11.6,3.3c-3.4,0-6.5-0.6-9.3-1.9
			c-2.8-1.2-4.9-2.9-6.4-5.1c-1.5-2.2-2.2-4.7-2.2-7.5h9.1c0,4.9,2.9,7.3,8.7,7.3c2.2,0,3.8-0.4,5.1-1.3
			C46,289.8,46.6,288.6,46.6,287z"/>
		<path class="st2" d="M88.4,279.5H71v11.8h20.4v7.3H61.9v-44h29.5v7.4H71v10.5h17.4V279.5z"/>
		<path class="st2" d="M113,287.7l10-33.1h10.1l-15.3,44h-9.5l-15.3-44h10.1L113,287.7z"/>
		<path class="st2" d="M163.7,279.5h-17.4v11.8h20.4v7.3h-29.5v-44h29.5v7.4h-20.4v10.5h17.4V279.5z"/>
		<path class="st2" d="M207.9,298.6h-9.1l-17.7-29v29h-9.1v-44h9.1l17.7,29v-29h9V298.6z"/>
	</g>
	<g>
		<path class="st3" d="M56.7,361.2h-8.2v-17H32.6v17h-8.2v-39.7h8.2v16.1h15.9v-16.1h8.2V361.2z"/>
		<path class="st3" d="M86.8,353.1H72.4l-2.7,8.2H61l14.8-39.7h7.6l14.9,39.7h-8.7L86.8,353.1z M74.6,346.4h9.9l-5-14.9L74.6,346.4z
			"/>
		<path class="st3" d="M122.5,350.8c0-1.5-0.5-2.7-1.6-3.6c-1.1-0.8-3.1-1.7-5.9-2.6c-2.8-0.9-5.1-1.8-6.7-2.7
			c-4.5-2.4-6.8-5.7-6.8-9.8c0-2.1,0.6-4.1,1.8-5.7c1.2-1.7,2.9-3,5.2-3.9c2.3-0.9,4.8-1.4,7.6-1.4c2.8,0,5.4,0.5,7.6,1.5
			c2.2,1,3.9,2.5,5.2,4.3c1.2,1.9,1.8,4,1.8,6.4h-8.2c0-1.8-0.6-3.2-1.7-4.2s-2.8-1.5-4.8-1.5c-2,0-3.6,0.4-4.7,1.3
			c-1.1,0.8-1.7,2-1.7,3.3c0,1.3,0.6,2.4,1.9,3.2c1.3,0.9,3.2,1.7,5.7,2.5c4.7,1.4,8,3.1,10.2,5.2s3.2,4.7,3.2,7.7
			c0,3.4-1.3,6.1-3.9,8.1c-2.6,2-6.1,2.9-10.5,2.9c-3.1,0-5.8-0.6-8.3-1.7c-2.5-1.1-4.4-2.6-5.7-4.6c-1.3-1.9-2-4.2-2-6.8h8.2
			c0,4.4,2.6,6.6,7.9,6.6c1.9,0,3.5-0.4,4.6-1.2C122,353.3,122.5,352.2,122.5,350.8z"/>
		<path class="st3" d="M168.6,361.2h-8.2v-17h-15.9v17h-8.2v-39.7h8.2v16.1h15.9v-16.1h8.2V361.2z"/>
		<path class="st3" d="M204.8,328.2h-12.2v33.1h-8.2v-33.1h-12v-6.6h32.3V328.2z"/>
		<path class="st3" d="M228.6,353.1h-14.3l-2.7,8.2h-8.7l14.8-39.7h7.6l14.9,39.7h-8.7L228.6,353.1z M216.5,346.4h9.9l-5-14.9
			L216.5,346.4z"/>
		<path class="st3" d="M274.6,356.2c-1.5,1.8-3.6,3.1-6.2,4.1c-2.7,1-5.7,1.5-8.9,1.5c-3.4,0-6.4-0.7-9-2.2c-2.6-1.5-4.6-3.7-6-6.5
			s-2.1-6.2-2.2-10.1v-2.7c0-4,0.7-7.4,2-10.3c1.3-2.9,3.3-5.1,5.8-6.7s5.5-2.3,8.8-2.3c4.7,0,8.4,1.1,11,3.4
			c2.7,2.2,4.2,5.5,4.7,9.8h-8c-0.4-2.3-1.2-3.9-2.4-5c-1.2-1.1-3-1.6-5.1-1.6c-2.8,0-4.9,1-6.4,3.1c-1.5,2.1-2.2,5.2-2.2,9.3v2.5
			c0,4.2,0.8,7.3,2.4,9.4c1.6,2.1,3.9,3.2,7,3.2c3.1,0,5.3-0.7,6.6-2v-6.8H259v-6h15.6V356.2z"/>
		<path class="st3" d="M301.8,350.8c0-1.5-0.5-2.7-1.6-3.6c-1.1-0.8-3.1-1.7-5.9-2.6c-2.8-0.9-5.1-1.8-6.7-2.7
			c-4.5-2.4-6.8-5.7-6.8-9.8c0-2.1,0.6-4.1,1.8-5.7c1.2-1.7,2.9-3,5.2-3.9c2.3-0.9,4.8-1.4,7.6-1.4c2.8,0,5.4,0.5,7.6,1.5
			c2.2,1,3.9,2.5,5.2,4.3c1.2,1.9,1.8,4,1.8,6.4h-8.2c0-1.8-0.6-3.2-1.7-4.2s-2.8-1.5-4.8-1.5c-2,0-3.6,0.4-4.7,1.3
			c-1.1,0.8-1.7,2-1.7,3.3c0,1.3,0.6,2.4,1.9,3.2c1.3,0.9,3.2,1.7,5.7,2.5c4.7,1.4,8,3.1,10.2,5.2s3.2,4.7,3.2,7.7
			c0,3.4-1.3,6.1-3.9,8.1c-2.6,2-6.1,2.9-10.5,2.9c-3.1,0-5.8-0.6-8.3-1.7c-2.5-1.1-4.4-2.6-5.7-4.6c-1.3-1.9-2-4.2-2-6.8h8.2
			c0,4.4,2.6,6.6,7.9,6.6c1.9,0,3.5-0.4,4.6-1.2C301.2,353.3,301.8,352.2,301.8,350.8z"/>
		<path class="st3" d="M351.8,353.1h-14.3l-2.7,8.2h-8.7l14.8-39.7h7.6l14.9,39.7h-8.7L351.8,353.1z M339.7,346.4h9.9l-5-14.9
			L339.7,346.4z"/>
		<path class="st3" d="M381.7,346.7h-6.5v14.5H367v-39.7h14.7c4.7,0,8.3,1,10.9,3.1c2.5,2.1,3.8,5,3.8,8.9c0,2.7-0.6,5-1.8,6.8
			c-1.2,1.8-2.9,3.2-5.3,4.3l8.6,16.2v0.4h-8.8L381.7,346.7z M375.2,340.1h6.6c2.1,0,3.6-0.5,4.8-1.6s1.7-2.5,1.7-4.3
			c0-1.9-0.5-3.3-1.6-4.4c-1.1-1.1-2.7-1.6-4.9-1.6h-6.6V340.1z"/>
		<path class="st3" d="M426.5,344h-15.7v10.6h18.4v6.6h-26.6v-39.7h26.6v6.6h-18.4v9.5h15.7V344z"/>
	</g>
	<g>
		<path class="st3" d="M237,278.9c0,1.9-0.3,3.5-0.9,4.9s-1.5,2.4-2.7,3.2c-1.1,0.7-2.5,1.1-4,1.1c-1.5,0-2.8-0.4-4-1.1
			c-1.2-0.7-2.1-1.8-2.7-3.1c-0.6-1.4-1-2.9-1-4.7v-1.4c0-1.8,0.3-3.4,1-4.8c0.6-1.4,1.5-2.5,2.7-3.2c1.2-0.7,2.5-1.1,4-1.1
			c1.5,0,2.9,0.4,4,1.1c1.2,0.7,2.1,1.8,2.7,3.2c0.6,1.4,0.9,3,0.9,4.9V278.9z M234.5,277.7c0-2.2-0.5-4-1.4-5.2s-2.2-1.8-3.8-1.8
			c-1.6,0-2.8,0.6-3.7,1.8s-1.4,2.9-1.4,5v1.4c0,2.2,0.5,3.9,1.4,5.1c0.9,1.2,2.2,1.9,3.8,1.9c1.6,0,2.9-0.6,3.8-1.8
			c0.9-1.2,1.3-2.9,1.4-5.1V277.7z"/>
		<path class="st3" d="M254.1,268.8v12.9c0,1.8-0.6,3.3-1.7,4.4c-1.1,1.1-2.6,1.8-4.5,1.9l-0.7,0c-2.1,0-3.7-0.6-5-1.7
			c-1.2-1.1-1.9-2.7-1.9-4.6v-12.9h2.5v12.8c0,1.4,0.4,2.4,1.1,3.2c0.8,0.8,1.8,1.1,3.2,1.1c1.4,0,2.5-0.4,3.2-1.1
			c0.8-0.8,1.1-1.8,1.1-3.2v-12.9H254.1z"/>
		<path class="st3" d="M271.2,270.9h-6.1v16.9h-2.5v-16.9h-6.1v-2h14.7V270.9z"/>
		<path class="st3" d="M294.6,278.9c0,1.9-0.3,3.5-0.9,4.9s-1.5,2.4-2.7,3.2c-1.1,0.7-2.5,1.1-4,1.1c-1.5,0-2.8-0.4-4-1.1
			c-1.2-0.7-2.1-1.8-2.7-3.1c-0.6-1.4-1-2.9-1-4.7v-1.4c0-1.8,0.3-3.4,1-4.8c0.6-1.4,1.5-2.5,2.7-3.2c1.2-0.7,2.5-1.1,4-1.1
			c1.5,0,2.9,0.4,4,1.1c1.2,0.7,2.1,1.8,2.7,3.2c0.6,1.4,0.9,3,0.9,4.9V278.9z M292.2,277.7c0-2.2-0.5-4-1.4-5.2s-2.2-1.8-3.8-1.8
			c-1.6,0-2.8,0.6-3.7,1.8s-1.4,2.9-1.4,5v1.4c0,2.2,0.5,3.9,1.4,5.1c0.9,1.2,2.2,1.9,3.8,1.9c1.6,0,2.9-0.6,3.8-1.8
			c0.9-1.2,1.3-2.9,1.4-5.1V277.7z"/>
		<path class="st3" d="M308.9,279.4h-8v8.4h-2.5v-19h11.7v2h-9.2v6.5h8V279.4z"/>
	</g>
	<g>
		<path class="st2" d="M351.7,261.9h-13.5v36.7h-9.1v-36.7h-13.3v-7.4h35.9V261.9z"/>
		<path class="st2" d="M383.4,279.5h-17.4v11.8h20.4v7.3h-29.5v-44h29.5v7.4h-20.4v10.5h17.4V279.5z"/>
		<path class="st2" d="M427.5,298.6h-9.1l-17.7-29v29h-9.1v-44h9.1l17.7,29v-29h9V298.6z"/>
	</g>
</g>
</svg>
