<?xml version="1.0" encoding="utf-8"?>
<!-- Generator: Adobe Illustrator 22.1.0, SVG Export Plug-In . SVG Version: 6.00 Build 0)  -->
<svg version="1.1" id="hashtags" xmlns="http://www.w3.org/2000/svg" xmlns:xlink="http://www.w3.org/1999/xlink" x="0px" y="0px"
	 viewBox="0 0 582 73" style="enable-background:new 0 0 582 73;" xml:space="preserve">
<style type="text/css">
	.st0{fill:#C8C8C8;}
	.st1{fill:#B900B4;}
</style>
<g id="hashtag10">
	<g>
		<path class="st0" d="M551.8,30.5l1.3-9.6h-6.3l1.1-8.3h-9.7l-1.1,8.3H526l1.1-8.3h-9.7l-1.1,8.3h-6.3l-1.3,9.6h6.3l-1.5,11.2h-6.3
			l-1.3,9.6h6.3l-1.1,8.3h9.7l1.1-8.3h11.2l-1.1,8.3h9.7l1.1-8.3h6.3l1.3-9.6h-6.3l1.5-11.2H551.8z M534.4,41.7h-11.2l1.5-11.2h11.2
			L534.4,41.7z"/>
	</g>
</g>
<g id="hashtag9">
	<g>
		<path class="st0" d="M497.8,30.5l1.3-9.6h-6.3l1.1-8.3h-9.7l-1.1,8.3h-11.2l1.1-8.3h-9.7l-1.1,8.3H456l-1.3,9.6h6.3l-1.5,11.2
			h-6.3l-1.3,9.6h6.3l-1.1,8.3h9.7l1.1-8.3h11.2l-1.1,8.3h9.7l1.1-8.3h6.3l1.3-9.6H490l1.5-11.2H497.8z M480.4,41.7h-11.2l1.5-11.2
			h11.2L480.4,41.7z"/>
	</g>
</g>
<g id="hashtag8">
	<g>
		<path class="st0" d="M443.7,30.5l1.3-9.6h-6.3l1.1-8.3h-9.7l-1.1,8.3h-11.2l1.1-8.3h-9.7l-1.1,8.3h-6.3l-1.3,9.6h6.3l-1.5,11.2
			h-6.3l-1.3,9.6h6.3l-1.1,8.3h9.7l1.1-8.3H425l-1.1,8.3h9.7l1.1-8.3h6.3l1.3-9.6H436l1.5-11.2H443.7z M426.3,41.7h-11.2l1.5-11.2
			h11.2L426.3,41.7z"/>
	</g>
</g>
<g id="hashtag7">
	<g>
		<path class="st1" d="M390.1,30.5l1.3-9.6h-6.3l1.1-8.3h-9.7l-1.1,8.3h-11.2l1.1-8.3h-9.7l-1.1,8.3h-6.3l-1.3,9.6h6.3l-1.5,11.2
			h-6.3l-1.3,9.6h6.3l-1.1,8.3h9.7l1.1-8.3h11.2l-1.1,8.3h9.7l1.1-8.3h6.3l1.3-9.6h-6.3l1.5-11.2H390.1z M372.7,41.7h-11.2l1.5-11.2
			h11.2L372.7,41.7z"/>
	</g>
</g>
<g id="hashtag6">
	<g>
		<path class="st1" d="M337.1,30.5l1.3-9.6h-6.3l1.1-8.3h-9.7l-1.1,8.3h-11.2l1.1-8.3h-9.7l-1.1,8.3h-6.3l-1.3,9.6h6.3l-1.5,11.2
			h-6.3l-1.3,9.6h6.3l-1.1,8.3h9.7l1.1-8.3h11.2l-1.1,8.3h9.7l1.1-8.3h6.3l1.3-9.6h-6.3l1.5-11.2H337.1z M319.7,41.7h-11.2l1.5-11.2
			h11.2L319.7,41.7z"/>
	</g>
</g>
<g id="hashtag5">
	<g>
		<path class="st1" d="M285.4,30.5l1.3-9.6h-6.3l1.1-8.3h-9.7l-1.1,8.3h-11.2l1.1-8.3H251l-1.1,8.3h-6.3l-1.3,9.6h6.3l-1.5,11.2
			h-6.3l-1.3,9.6h6.3l-1.1,8.3h9.7l1.1-8.3h11.2l-1.1,8.3h9.7l1.1-8.3h6.3l1.3-9.6h-6.3l1.5-11.2H285.4z M268,41.7h-11.2l1.5-11.2
			h11.2L268,41.7z"/>
	</g>
</g>
<g id="hashtag4">
	<g>
		<path class="st1" d="M231.4,30.5l1.3-9.6h-6.3l1.1-8.3h-9.7l-1.1,8.3h-11.2l1.1-8.3h-9.7l-1.1,8.3h-6.3l-1.3,9.6h6.3l-1.5,11.2
			h-6.3l-1.3,9.6h6.3l-1.1,8.3h9.7l1.1-8.3h11.2l-1.1,8.3h9.7l1.1-8.3h6.3l1.3-9.6h-6.3l1.5-11.2H231.4z M214,41.7h-11.2l1.5-11.2
			h11.2L214,41.7z"/>
	</g>
</g>
<g id="hashtag3">
	<g>
		<path class="st1" d="M177.3,30.5l1.3-9.6h-6.3l1.1-8.3h-9.7l-1.1,8.3h-11.2l1.1-8.3h-9.7l-1.1,8.3h-6.3l-1.3,9.6h6.3L139,41.7
			h-6.3l-1.3,9.6h6.3l-1.1,8.3h9.7l1.1-8.3h11.2l-1.1,8.3h9.7l1.1-8.3h6.3l1.3-9.6h-6.3l1.5-11.2H177.3z M159.9,41.7h-11.2l1.5-11.2
			h11.2L159.9,41.7z"/>
	</g>
</g>
<g id="hashtag2">
	<g>
		<path class="st1" d="M123.7,30.5l1.3-9.6h-6.3l1.1-8.3h-9.7l-1.1,8.3H97.9l1.1-8.3h-9.7l-1.1,8.3h-6.3l-1.3,9.6h6.3l-1.5,11.2
			h-6.3l-1.3,9.6h6.3l-1.1,8.3h9.7l1.1-8.3H105l-1.1,8.3h9.7l1.1-8.3h6.3l1.3-9.6H116l1.5-11.2H123.7z M106.3,41.7H95.1l1.5-11.2
			h11.2L106.3,41.7z"/>
	</g>
</g>
<g id="hashtag1">
	<g>
		<path class="st1" d="M70.7,30.5l1.3-9.6h-6.3l1.1-8.3h-9.7L56,20.8H44.8l1.1-8.3h-9.7l-1.1,8.3h-6.3l-1.3,9.6h6.3l-1.5,11.2h-6.3
			l-1.3,9.6h6.3l-1.1,8.3h9.7l1.1-8.3H52l-1.1,8.3h9.7l1.1-8.3h6.3l1.3-9.6H63l1.5-11.2H70.7z M53.3,41.7H42.1l1.5-11.2h11.2
			L53.3,41.7z"/>
	</g>
</g>
</svg>
