<?xml version="1.0" encoding="utf-8"?>
<!-- Generator: Adobe Illustrator 22.1.0, SVG Export Plug-In . SVG Version: 6.00 Build 0)  -->
<svg version="1.1" id="instagram_x5F_logo" xmlns="http://www.w3.org/2000/svg" xmlns:xlink="http://www.w3.org/1999/xlink" x="0px"
	 y="0px" viewBox="0 0 180 174" style="enable-background:new 0 0 180 174;" xml:space="preserve">
<style type="text/css">
	.st0{fill:url(#small_circle_1_);}
	.st1{fill:url(#outer_1_);}
	.st2{fill:url(#big_circle_1_);}
</style>
<g id="mainlogo_1_">
	<g id="mainlogo">
		<linearGradient id="small_circle_1_" gradientUnits="userSpaceOnUse" x1="15.5969" y1="161.4379" x2="154.2445" y2="22.7902">
			<stop  offset="5.000000e-02" style="stop-color:#FFD521"/>
			<stop  offset="0.5011" style="stop-color:#F50000"/>
			<stop  offset="0.95" style="stop-color:#B900B4"/>
		</linearGradient>
		<path id="small_circle" class="st0" d="M140.4,45.8c0-5.1-4.1-9.2-9.2-9.2c-5.1,0-9.2,4.1-9.2,9.2c0,5.1,4.1,9.1,9.2,9.1
			C136.3,54.9,140.4,50.8,140.4,45.8"/>
		<linearGradient id="outer_1_" gradientUnits="userSpaceOnUse" x1="15.5964" y1="161.4373" x2="154.244" y2="22.7897">
			<stop  offset="5.000000e-02" style="stop-color:#FFD521"/>
			<stop  offset="0.5011" style="stop-color:#F50000"/>
			<stop  offset="0.95" style="stop-color:#B900B4"/>
		</linearGradient>
		<path id="outer" class="st1" d="M166.4,55.1c-0.4-8.1-1.7-13.7-3.6-18.5c-1.9-5-4.5-9.3-8.8-13.5c-4.2-4.2-8.5-6.8-13.5-8.8
			c-4.9-1.9-10.4-3.2-18.5-3.5c-8.1-0.4-10.7-0.5-31.5-0.5c-20.7,0-23.3,0.1-31.5,0.5c-8.1,0.4-13.7,1.7-18.5,3.5
			c-5,2-9.3,4.6-13.5,8.8c-4.3,4.3-6.9,8.5-8.8,13.5c-1.9,4.8-3.2,10.4-3.6,18.5c-0.4,8.1-0.4,10.7-0.4,31.5
			c0,20.7,0.1,23.3,0.4,31.4c0.4,8.1,1.7,13.7,3.6,18.5c2,5,4.6,9.3,8.8,13.5c4.2,4.2,8.5,6.9,13.5,8.8c4.9,1.9,10.4,3.2,18.5,3.5
			c8.1,0.4,10.8,0.5,31.5,0.5c20.7,0,23.3-0.1,31.5-0.5c8.1-0.4,13.7-1.7,18.5-3.5c5-2,9.3-4.6,13.5-8.8c4.3-4.2,6.9-8.5,8.8-13.5
			c1.9-4.9,3.2-10.4,3.6-18.5c0.4-8.1,0.5-10.7,0.5-31.4C166.8,65.8,166.8,63.2,166.4,55.1z M152.6,117.3
			c-0.3,7.4-1.6,11.5-2.6,14.2c-1.4,3.6-3,6.1-5.7,8.8c-2.7,2.7-5.2,4.3-8.8,5.7c-2.7,1-6.7,2.3-14.2,2.7c-8,0.4-10.4,0.4-30.8,0.4
			c-20.4,0-22.8-0.1-30.8-0.4c-7.4-0.4-11.5-1.6-14.2-2.7c-3.6-1.4-6.1-3-8.8-5.7c-2.7-2.7-4.3-5.2-5.7-8.8c-1-2.7-2.3-6.7-2.6-14.2
			c-0.4-8-0.5-10.5-0.5-30.8c0-20.4,0.1-22.8,0.5-30.8c0.3-7.4,1.6-11.5,2.6-14.2c1.4-3.6,3-6.1,5.7-8.8c2.7-2.7,5.2-4.3,8.8-5.7
			c2.7-1.1,6.7-2.3,14.2-2.6c8-0.4,10.4-0.4,30.8-0.4c20.4,0,22.8,0.1,30.8,0.4c7.4,0.4,11.5,1.6,14.2,2.6c3.6,1.4,6.1,3,8.8,5.7
			c2.7,2.7,4.3,5.2,5.7,8.8c1,2.7,2.3,6.7,2.6,14.2c0.4,8,0.5,10.4,0.5,30.8C153.1,106.9,153,109.3,152.6,117.3z"/>
		<linearGradient id="big_circle_1_" gradientUnits="userSpaceOnUse" x1="15.5969" y1="161.4379" x2="154.2446" y2="22.7902">
			<stop  offset="5.000000e-02" style="stop-color:#FFD521"/>
			<stop  offset="0.5011" style="stop-color:#F50000"/>
			<stop  offset="0.95" style="stop-color:#B900B4"/>
		</linearGradient>
		<path id="big_circle" class="st2" d="M90.5,47.3c-21.6,0-39.2,17.6-39.2,39.2c0,21.6,17.5,39.2,39.2,39.2
			c21.6,0,39.2-17.5,39.2-39.2C129.7,64.9,112.2,47.3,90.5,47.3z M90.5,111.9c-14,0-25.4-11.4-25.4-25.4c0-14.1,11.4-25.5,25.4-25.5
			c14,0,25.5,11.4,25.5,25.5C116,100.6,104.6,111.9,90.5,111.9z"/>
	</g>
</g>
</svg>
