<?xml version="1.0" encoding="utf-8"?>
<!-- Generator: Adobe Illustrator 22.1.0, SVG Export Plug-In . SVG Version: 6.00 Build 0)  -->
<svg version="1.1" id="like" xmlns="http://www.w3.org/2000/svg" xmlns:xlink="http://www.w3.org/1999/xlink" x="0px" y="0px"
	 viewBox="0 0 448.5 456.6" style="enable-background:new 0 0 448.5 456.6;" xml:space="preserve">
<style type="text/css">
	.st0{fill:#98D7D1;}
	.st1{fill:#F26627;}
</style>
<g id="like_x5F_text">
	<g>
		<path class="st0" d="M41.6,260.4h-7.8v21.3h-5.3v-21.3h-7.7v-4.3h20.8V260.4z"/>
		<path class="st0" d="M65.4,281.7h-5.3v-10.9H49.8v10.9h-5.3v-25.5h5.3v10.3h10.3v-10.3h5.3V281.7z"/>
		<path class="st0" d="M85.3,270.6H75.2v6.8H87v4.2H69.9v-25.5H87v4.3H75.2v6.1h10.1V270.6z"/>
		<path class="st0" d="M104.3,277.4h11.2v4.2H99.1v-25.5h5.3V277.4z"/>
		<path class="st0" d="M124.1,281.7h-5.3v-25.5h5.3V281.7z"/>
		<path class="st0" d="M137,271.4l-2.7,2.9v7.3H129v-25.5h5.3v11.6l2.3-3.2l6.5-8.4h6.5l-9.1,11.3l9.3,14.2h-6.3L137,271.4z"/>
		<path class="st0" d="M167.1,270.6H157v6.8h11.8v4.2h-17.1v-25.5h17.1v4.3H157v6.1h10.1V270.6z"/>
		<path class="st0" d="M180.9,281.7v-25.5h8.9c3.1,0,5.4,0.6,7,1.8c1.6,1.2,2.4,2.9,2.4,5.2c0,1.3-0.3,2.4-1,3.3s-1.5,1.6-2.7,2.1
			c1.3,0.3,2.3,1,3.1,2c0.8,1,1.1,2.2,1.1,3.6c0,2.5-0.8,4.3-2.3,5.6c-1.6,1.3-3.8,1.9-6.7,1.9H180.9z M186.1,266.8h3.9
			c2.7,0,4-1.1,4-3.2c0-1.2-0.3-2-1-2.5c-0.7-0.5-1.7-0.8-3.2-0.8h-3.7V266.8z M186.1,270.6v6.9h4.5c1.2,0,2.2-0.3,2.9-0.9
			s1-1.4,1-2.4c0-2.3-1.2-3.5-3.6-3.6H186.1z"/>
		<path class="st0" d="M223.1,256.2V273c0,2.8-0.9,5-2.6,6.6c-1.7,1.6-4.1,2.4-7.2,2.4c-3,0-5.3-0.8-7.1-2.4
			c-1.8-1.6-2.6-3.7-2.7-6.5v-17h5.3V273c0,1.7,0.4,2.9,1.2,3.7c0.8,0.8,1.9,1.1,3.3,1.1c3,0,4.5-1.6,4.5-4.7v-17H223.1z"/>
		<path class="st0" d="M246.6,260.4h-7.8v21.3h-5.3v-21.3h-7.7v-4.3h20.8V260.4z"/>
		<path class="st0" d="M269.1,260.4h-7.8v21.3H256v-21.3h-7.7v-4.3h20.8V260.4z"/>
		<path class="st0" d="M292.5,269.5c0,2.5-0.4,4.7-1.3,6.6c-0.9,1.9-2.2,3.4-3.8,4.4c-1.7,1-3.5,1.5-5.7,1.5c-2.1,0-4-0.5-5.7-1.5
			s-2.9-2.5-3.9-4.4s-1.4-4.1-1.4-6.5v-1.3c0-2.5,0.5-4.7,1.4-6.6s2.2-3.4,3.8-4.4c1.7-1,3.5-1.5,5.7-1.5s4,0.5,5.7,1.5
			c1.7,1,2.9,2.5,3.8,4.4s1.4,4.1,1.4,6.6V269.5z M287.2,268.3c0-2.7-0.5-4.7-1.4-6.1c-1-1.4-2.3-2.1-4.1-2.1
			c-1.8,0-3.1,0.7-4.1,2.1c-1,1.4-1.4,3.4-1.5,6v1.2c0,2.6,0.5,4.6,1.4,6.1c1,1.4,2.3,2.2,4.1,2.2c1.8,0,3.1-0.7,4.1-2.1
			c0.9-1.4,1.4-3.4,1.4-6.1V268.3z"/>
		<path class="st0" d="M317.1,281.7h-5.3l-10.2-16.8v16.8h-5.3v-25.5h5.3l10.3,16.8v-16.8h5.2V281.7z"/>
		<path class="st0" d="M336.2,281.7H331v-25.5h5.3V281.7z"/>
		<path class="st0" d="M354.3,275c0-1-0.4-1.8-1.1-2.3c-0.7-0.5-2-1.1-3.8-1.7s-3.3-1.2-4.3-1.7c-2.9-1.6-4.3-3.7-4.3-6.3
			c0-1.4,0.4-2.6,1.2-3.7c0.8-1.1,1.9-1.9,3.3-2.5c1.5-0.6,3.1-0.9,4.9-0.9c1.8,0,3.4,0.3,4.9,1c1.4,0.7,2.5,1.6,3.3,2.8
			s1.2,2.6,1.2,4.1h-5.3c0-1.2-0.4-2.1-1.1-2.7s-1.8-1-3.1-1c-1.3,0-2.3,0.3-3,0.8c-0.7,0.5-1.1,1.3-1.1,2.1c0,0.8,0.4,1.5,1.3,2.1
			c0.8,0.6,2.1,1.1,3.7,1.6c3,0.9,5.2,2,6.5,3.3c1.4,1.3,2,3,2,5c0,2.2-0.8,3.9-2.5,5.2c-1.7,1.3-3.9,1.9-6.7,1.9
			c-2,0-3.8-0.4-5.4-1.1c-1.6-0.7-2.8-1.7-3.7-3c-0.8-1.3-1.3-2.7-1.3-4.3h5.3c0,2.8,1.7,4.2,5,4.2c1.2,0,2.2-0.3,2.9-0.8
			C354,276.6,354.3,275.9,354.3,275z"/>
		<path class="st0" d="M392.8,281.7h-5.3v-10.9h-10.3v10.9h-5.3v-25.5h5.3v10.3h10.3v-10.3h5.3V281.7z"/>
		<path class="st0" d="M403,281.7h-5.3v-25.5h5.3V281.7z"/>
		<path class="st0" d="M426.6,260.4h-7.8v21.3h-5.3v-21.3h-7.7v-4.3h20.8V260.4z"/>
	</g>
	<g>
		<path class="st1" d="M177.2,361.6v-49.5h17.3c6,0,10.6,1.2,13.7,3.4c3.1,2.3,4.7,5.7,4.7,10.1c0,2.4-0.6,4.6-1.9,6.4
			c-1.2,1.8-3,3.2-5.2,4.1c2.5,0.6,4.5,1.9,6,3.8c1.5,1.9,2.2,4.3,2.2,7.1c0,4.8-1.5,8.4-4.6,10.8c-3,2.4-7.4,3.7-13,3.7H177.2z
			 M187.4,332.9h7.5c5.1-0.1,7.7-2.1,7.7-6.2c0-2.2-0.7-3.9-2-4.8s-3.4-1.5-6.2-1.5h-7.1V332.9z M187.4,340.1v13.4h8.7
			c2.4,0,4.3-0.6,5.6-1.7c1.3-1.1,2-2.7,2-4.7c0-4.5-2.3-6.8-7-6.9H187.4z"/>
		<path class="st1" d="M232.4,361.6h-10.2v-49.5h10.2V361.6z"/>
		<path class="st1" d="M252.1,353.4h21.6v8.2h-31.8v-49.5h10.2V353.4z"/>
		<path class="st1" d="M289.8,353.4h21.6v8.2h-31.8v-49.5h10.2V353.4z"/>
		<path class="st1" d="M328.1,361.6h-10.2v-49.5h10.2V361.6z"/>
		<path class="st1" d="M378.2,338c0,4.9-0.9,9.1-2.6,12.8c-1.7,3.7-4.2,6.5-7.4,8.5c-3.2,2-6.9,3-11,3c-4.1,0-7.8-1-11-3
			c-3.2-2-5.7-4.8-7.5-8.4s-2.7-7.9-2.7-12.6v-2.4c0-4.9,0.9-9.2,2.6-12.9c1.8-3.7,4.2-6.5,7.4-8.5c3.2-2,6.9-3,11-3
			c4.1,0,7.8,1,11,3c3.2,2,5.7,4.8,7.4,8.5c1.8,3.7,2.6,8,2.6,12.8V338z M367.9,335.8c0-5.2-0.9-9.1-2.8-11.8c-1.9-2.7-4.5-4-8-4
			c-3.4,0-6.1,1.3-7.9,4c-1.9,2.7-2.8,6.6-2.8,11.7v2.4c0,5.1,0.9,9,2.8,11.8c1.9,2.8,4.5,4.2,8,4.2c3.4,0,6-1.3,7.9-4
			c1.8-2.7,2.8-6.6,2.8-11.7V335.8z"/>
		<path class="st1" d="M425.8,361.6h-10.2l-19.8-32.6v32.6h-10.2v-49.5h10.2l19.9,32.6v-32.6h10.2V361.6z"/>
	</g>
	<g>
		<path class="st0" d="M61.5,407.8H46.4v40.9H36.3v-40.9H21.5v-8.2h40V407.8z"/>
		<path class="st0" d="M78,448.7H67.9v-49.1H78V448.7z"/>
		<path class="st0" d="M100.6,399.6l12.6,35.6l12.6-35.6h13.3v49.1h-10.2v-13.4l1-23.2l-13.3,36.6h-7l-13.2-36.6l1,23.1v13.4H87.4
			v-49.1H100.6z"/>
		<path class="st0" d="M177.5,427.4h-19.4v13.2h22.8v8.1h-32.9v-49.1h32.9v8.2h-22.7v11.7h19.4V427.4z"/>
		<path class="st0" d="M212.3,435.8c0-1.9-0.7-3.4-2-4.4c-1.4-1-3.8-2.1-7.3-3.2c-3.5-1.1-6.3-2.3-8.3-3.4c-5.6-3-8.4-7.1-8.4-12.2
			c0-2.7,0.7-5,2.2-7.1s3.6-3.7,6.4-4.9c2.8-1.2,5.9-1.8,9.4-1.8c3.5,0,6.6,0.6,9.4,1.9c2.7,1.3,4.9,3.1,6.4,5.4s2.3,4.9,2.3,7.9
			h-10.1c0-2.3-0.7-4-2.1-5.2c-1.4-1.2-3.4-1.9-6-1.9c-2.5,0-4.4,0.5-5.8,1.6c-1.4,1-2.1,2.4-2.1,4.1c0,1.6,0.8,2.9,2.4,4
			c1.6,1.1,4,2.1,7.1,3c5.8,1.7,10,3.9,12.6,6.4c2.6,2.6,3.9,5.8,3.9,9.6c0,4.3-1.6,7.6-4.8,10c-3.2,2.4-7.5,3.6-13,3.6
			c-3.8,0-7.2-0.7-10.3-2.1s-5.5-3.3-7.1-5.7c-1.6-2.4-2.4-5.2-2.4-8.4h10.2c0,5.4,3.2,8.1,9.7,8.1c2.4,0,4.3-0.5,5.6-1.5
			C211.6,438.9,212.3,437.6,212.3,435.8z"/>
		<path class="st0" d="M246.5,448.7v-49.1h15.1c4.3,0,8.2,1,11.6,2.9c3.4,1.9,6.1,4.7,8,8.3c1.9,3.6,2.9,7.7,2.9,12.2v2.3
			c0,4.6-0.9,8.6-2.8,12.2c-1.9,3.6-4.5,6.3-7.9,8.3c-3.4,2-7.3,2.9-11.6,3H246.5z M256.6,407.8v32.8h4.9c4,0,7-1.3,9.1-3.9
			c2.1-2.6,3.2-6.3,3.2-11.1V423c0-5-1-8.8-3.1-11.4c-2.1-2.6-5.1-3.9-9.1-3.9H256.6z"/>
		<path class="st0" d="M318.5,438.6h-17.8l-3.4,10.1h-10.8l18.3-49.1h9.4l18.4,49.1h-10.8L318.5,438.6z M303.4,430.4h12.3l-6.2-18.4
			L303.4,430.4z"/>
		<path class="st0" d="M348,448.7h-10.1v-49.1H348V448.7z"/>
		<path class="st0" d="M367.5,440.6H389v8.1h-31.6v-49.1h10.1V440.6z"/>
		<path class="st0" d="M402.3,421.7l10.2-22.1h11.1l-16.1,31.3v17.8h-10.3v-17.8l-16.1-31.3h11.1L402.3,421.7z"/>
	</g>
	<g>
		<path class="st1" d="M79.7,350.4H90V365H79.7v19.7h-18V365H24.4l-0.8-11.4l37.9-59.9h18.2V350.4z M41.5,350.4h20.1v-32.1l-1.2,2.1
			L41.5,350.4z"/>
		<path class="st1" d="M162,384.6H99.7v-12.4l29.4-31.3c4-4.4,7-8.3,9-11.6c1.9-3.3,2.9-6.4,2.9-9.4c0-4-1-7.2-3.1-9.5
			c-2-2.3-5-3.5-8.7-3.5c-4.1,0-7.3,1.4-9.6,4.2c-2.4,2.8-3.5,6.5-3.5,11.1H97.9c0-5.5,1.3-10.6,4-15.2c2.6-4.6,6.4-8.2,11.2-10.8
			c4.8-2.6,10.3-3.9,16.4-3.9c9.4,0,16.6,2.2,21.8,6.7c5.2,4.5,7.8,10.8,7.8,19c0,4.5-1.2,9.1-3.5,13.7c-2.3,4.7-6.3,10.1-12,16.3
			l-20.7,21.8H162V384.6z"/>
	</g>
</g>
<g id="like_x5F_notification">
	<g>
		<path class="st1" d="M330.8,4.3H118.3C106,4.3,96,14.2,96,26.5v138.4c0,12.3,10,22.2,22.2,22.2h72.9l27.4,36.6
			c1.4,1.9,3.6,3,5.9,3c2.3,0,4.5-1.1,5.9-3l27.4-36.6h72.9c12.3,0,22.2-10,22.2-22.2V26.5C353.1,14.2,343.1,4.3,330.8,4.3z
			 M274.2,110.5L229.8,155c-1.4,1.4-3.3,2.2-5.2,2.2c-2,0-3.9-0.8-5.2-2.2l-44.4-44.4c-7.3-7.3-11.4-17.1-11.4-27.5
			c0-10.4,4-20.1,11.4-27.5c13.5-13.5,34.6-15,49.7-4.4c15.1-10.6,36.2-9.1,49.7,4.4c7.3,7.3,11.4,17.1,11.4,27.5
			C285.6,93.4,281.6,103.2,274.2,110.5z"/>
	</g>
</g>
</svg>
