<?xml version="1.0" encoding="utf-8"?>
<!-- Generator: Adobe Illustrator 22.1.0, SVG Export Plug-In . SVG Version: 6.00 Build 0)  -->
<svg version="1.1" id="like_x5F_heart" xmlns="http://www.w3.org/2000/svg" xmlns:xlink="http://www.w3.org/1999/xlink" x="0px"
	 y="0px" viewBox="0 0 197 180" style="enable-background:new 0 0 197 180;" xml:space="preserve">
<style type="text/css">
	.st0{fill:#D75A4A;}
	.st1{fill:#FFFFFF;}
</style>
<path id="heart" class="st0" d="M96.7,36.8C104.1,19.3,121,7,140.7,7c26.5,0,45.6,22.7,48,49.7c0,0,1.3,6.7-1.6,18.8
	c-3.9,16.5-13,31.1-25.3,42.3L96.7,176l-64.1-58.2C20.3,106.6,11.2,92,7.3,75.6C4.4,63.5,5.7,56.7,5.7,56.7C8.1,29.7,27.2,7,53.8,7
	C73.5,7,89.3,19.3,96.7,36.8z"/>
<g id="billion_x5F_text">
	<path class="st1" d="M88.4,77.1v4.1h-5.1v-4.1h-7.6v-4l7-10.8h5.7v10.8H91v4H88.4z M83.3,67.5l-3.5,5.6h3.5V67.5z"/>
	<path class="st1" d="M98.1,81.2H93v-5h5.2V81.2z"/>
	<path class="st1" d="M114.6,81.2h-14.1v-4.3l6.3-4.7c1.1-1,2.5-2.1,2.5-3.7c0-1.1-0.7-2-1.8-2c-1.7,0-2.2,1.8-2.3,3.2l-4.7-0.9
		c0.5-4,3.4-6.5,7.4-6.5c3.7,0,6.9,2,6.9,6c0,2-0.9,3.5-2.4,4.8l-4.3,3.2l-0.4,0.3h7.2L114.6,81.2z"/>
	<path class="st1" d="M45.8,86.5h9.1c1.4,0,2.8,0.1,4,0.9c1.2,0.9,2,2.4,2,3.9c0,2-1.2,3.6-3.1,4v0.1c2.1,0.4,3.6,2,3.6,4.2
		c0,1.6-0.6,3.4-1.9,4.3c-1.4,1-3.4,1.1-5.1,1.1h-8.5V86.5z M53.3,93.6c0.5,0,1.2,0,1.6-0.4c0.4-0.3,0.5-0.8,0.5-1.2
		c0-1.4-1.1-1.6-2.2-1.6H51v3.1H53.3z M53.5,101c0.6,0,1.2,0,1.7-0.4c0.4-0.3,0.7-0.8,0.7-1.3c0-0.6-0.4-1.2-0.9-1.5
		c-0.5-0.2-1.1-0.2-1.7-0.2H51v3.4H53.5z"/>
	<path class="st1" d="M69.5,105.1h-5.7V86.5h5.7V105.1z"/>
	<path class="st1" d="M85.5,105.1h-13V86.5h5.7v14h7.3V105.1z"/>
	<path class="st1" d="M100.1,105.1h-13V86.5h5.7v14h7.3V105.1z"/>
	<path class="st1" d="M107.4,105.1h-5.7V86.5h5.7V105.1z"/>
	<path class="st1" d="M127.3,95.9c0,5.3-3.3,9.5-8.9,9.5s-8.9-4.2-8.9-9.5c0-5.6,3.2-9.6,8.9-9.6C124,86.2,127.3,90.3,127.3,95.9z
		 M115.6,95.9c0,1.8,0.2,5.2,2.8,5.2s2.8-3.4,2.8-5.2c0-1.8-0.3-5.4-2.8-5.4C115.9,90.4,115.6,94.1,115.6,95.9z"/>
	<path class="st1" d="M140.6,105.1l-5.3-8.7l-1.7-3.4l-0.1,0.1l0.1,0.2c0.3,1.2,0.4,1.8,0.4,3.1v8.7h-4.6V86.5h5.4l6.2,10.4l0.1-0.1
		l-0.4-5.1v-5.2h4.6v18.6H140.6z"/>
</g>
</svg>
