<?xml version="1.0" encoding="utf-8"?>
<!-- Generator: Adobe Illustrator 22.1.0, SVG Export Plug-In . SVG Version: 6.00 Build 0)  -->
<svg version="1.1" id="mainlogo" xmlns="http://www.w3.org/2000/svg" xmlns:xlink="http://www.w3.org/1999/xlink" x="0px" y="0px"
	 viewBox="0 0 347 185" style="enable-background:new 0 0 347 185;" xml:space="preserve">
<style type="text/css">
	.st0{fill:#325D79;}
</style>
<rect id="bottom_bar" x="63.8" y="169.7" class="st0" width="242.3" height="2.2"/>
<g>
	<path class="st0" d="M194.9,126.7c0-1.6-0.7-2.8-2-3.7c-1.3-0.8-3.5-1.6-6.6-2.2s-5.6-1.5-7.7-2.4c-4.5-2.2-6.7-5.3-6.7-9.4
		c0-3.5,1.5-6.3,4.4-8.7c2.9-2.3,6.6-3.5,11.1-3.5c4.8,0,8.7,1.2,11.6,3.6c3,2.4,4.4,5.4,4.4,9.2h-9c0-1.7-0.6-3.2-1.9-4.3
		c-1.3-1.1-3-1.7-5.1-1.7c-2,0-3.6,0.5-4.8,1.4s-1.9,2.1-1.9,3.7c0,1.4,0.6,2.5,1.7,3.2c1.2,0.8,3.5,1.5,7,2.3s6.3,1.7,8.3,2.8
		c2,1.1,3.5,2.4,4.5,3.9s1.5,3.3,1.5,5.5c0,3.6-1.5,6.5-4.5,8.8c-3,2.2-6.9,3.4-11.7,3.4c-3.3,0-6.2-0.6-8.8-1.8s-4.6-2.8-6-4.9
		c-1.4-2.1-2.1-4.3-2.1-6.7h8.7c0.1,2.1,0.9,3.8,2.4,4.9c1.5,1.1,3.4,1.7,5.9,1.7c2.4,0,4.2-0.5,5.4-1.4
		C194.2,129.3,194.9,128.1,194.9,126.7z"/>
	<path class="st0" d="M222.8,87.7v9.7h7.1v6.7h-7.1v22.4c0,1.5,0.3,2.6,0.9,3.3s1.7,1,3.2,1c1,0,2.1-0.1,3.1-0.4v7
		c-2,0.6-4,0.9-5.9,0.9c-6.9,0-10.4-3.8-10.4-11.4v-22.7h-6.6v-6.7h6.6v-9.7L222.8,87.7L222.8,87.7z"/>
	<path class="st0" d="M260.7,137.6c-0.4-0.8-0.7-2-1-3.7c-2.9,3-6.4,4.5-10.5,4.5c-4,0-7.3-1.1-9.9-3.4c-2.5-2.3-3.8-5.1-3.8-8.5
		c0-4.3,1.6-7.5,4.8-9.8s7.7-3.4,13.6-3.4h5.5v-2.6c0-2.1-0.6-3.7-1.7-5c-1.2-1.2-2.9-1.9-5.3-1.9c-2,0-3.7,0.5-5,1.5s-2,2.3-2,3.9
		h-9c0-2.2,0.7-4.3,2.2-6.2c1.5-1.9,3.4-3.4,5.9-4.5s5.3-1.6,8.4-1.6c4.7,0,8.4,1.2,11.2,3.5c2.8,2.4,4.2,5.7,4.3,9.9v18.1
		c0,3.6,0.5,6.5,1.5,8.6v0.6L260.7,137.6L260.7,137.6z M250.8,131.1c1.8,0,3.5-0.4,5-1.3c1.5-0.9,2.7-2,3.5-3.5v-7.6h-4.9
		c-3.3,0-5.8,0.6-7.5,1.7c-1.7,1.2-2.5,2.8-2.5,4.9c0,1.7,0.6,3.1,1.7,4.1C247.4,130.6,248.9,131.1,250.8,131.1z"/>
	<path class="st0" d="M289.1,87.7v9.7h7.1v6.7h-7.1v22.4c0,1.5,0.3,2.6,0.9,3.3s1.7,1,3.2,1c1,0,2.1-0.1,3.1-0.4v7
		c-2,0.6-4,0.9-5.9,0.9c-6.9,0-10.4-3.8-10.4-11.4v-22.7h-6.6v-6.7h6.6v-9.7L289.1,87.7L289.1,87.7z"/>
	<path class="st0" d="M325.5,126.7c0-1.6-0.7-2.8-2-3.7c-1.3-0.8-3.5-1.6-6.6-2.2s-5.6-1.5-7.7-2.4c-4.5-2.2-6.7-5.3-6.7-9.4
		c0-3.5,1.5-6.3,4.4-8.7c2.9-2.3,6.6-3.5,11.1-3.5c4.8,0,8.7,1.2,11.6,3.6c3,2.4,4.4,5.4,4.4,9.2h-9c0-1.7-0.6-3.2-1.9-4.3
		c-1.3-1.1-3-1.7-5.1-1.7c-2,0-3.6,0.5-4.8,1.4c-1.2,0.9-1.9,2.1-1.9,3.7c0,1.4,0.6,2.5,1.7,3.2c1.2,0.8,3.5,1.5,7,2.3
		s6.3,1.7,8.3,2.8c2,1.1,3.5,2.4,4.5,3.9s1.5,3.3,1.5,5.5c0,3.6-1.5,6.5-4.5,8.8c-3,2.2-6.9,3.4-11.7,3.4c-3.3,0-6.2-0.6-8.8-1.8
		s-4.6-2.8-6-4.9c-1.4-2.1-2.1-4.3-2.1-6.7h8.7c0.1,2.1,0.9,3.8,2.4,4.9c1.5,1.1,3.4,1.7,5.9,1.7c2.4,0,4.2-0.5,5.4-1.4
		C324.9,129.3,325.5,128.1,325.5,126.7z"/>
</g>
<g>
	<path class="st0" d="M172.4,20.4c0-1.4,0.4-2.5,1.3-3.4c0.9-0.9,2.1-1.4,3.8-1.4c1.6,0,2.9,0.5,3.8,1.4c0.9,0.9,1.3,2.1,1.3,3.4
		c0,1.4-0.4,2.5-1.3,3.4c-0.9,0.9-2.1,1.4-3.8,1.4c-1.6,0-2.9-0.5-3.8-1.4C172.8,22.9,172.4,21.7,172.4,20.4z M182,70.8h-9v-40h9
		V70.8z"/>
	<path class="st0" d="M200.1,30.8l0.3,4.6c3-3.6,6.9-5.4,11.7-5.4c8.3,0,12.6,4.8,12.7,14.3v26.5h-9v-26c0-2.5-0.5-4.4-1.6-5.6
		c-1.1-1.2-2.9-1.8-5.4-1.8c-3.6,0-6.3,1.6-8.1,4.9v28.5h-9v-40C191.7,30.8,200.1,30.8,200.1,30.8z"/>
	<path class="st0" d="M256.4,60c0-1.6-0.7-2.8-2-3.7c-1.3-0.8-3.5-1.6-6.6-2.2c-3.1-0.6-5.6-1.5-7.7-2.4c-4.5-2.2-6.7-5.3-6.7-9.4
		c0-3.5,1.5-6.3,4.4-8.7c2.9-2.3,6.6-3.5,11.1-3.5c4.8,0,8.7,1.2,11.6,3.6c3,2.4,4.4,5.4,4.4,9.2h-9c0-1.7-0.6-3.2-1.9-4.3
		c-1.3-1.1-3-1.7-5.1-1.7c-2,0-3.6,0.5-4.8,1.4s-1.9,2.1-1.9,3.7c0,1.4,0.6,2.5,1.7,3.2c1.2,0.8,3.5,1.5,7,2.3s6.3,1.7,8.3,2.8
		s3.5,2.4,4.5,3.9s1.5,3.3,1.5,5.5c0,3.6-1.5,6.5-4.5,8.8c-3,2.2-6.9,3.4-11.7,3.4c-3.3,0-6.2-0.6-8.8-1.8s-4.6-2.8-6-4.9
		s-2.1-4.3-2.1-6.7h8.7c0.1,2.1,0.9,3.8,2.4,4.9s3.4,1.7,5.9,1.7c2.4,0,4.2-0.5,5.4-1.4C255.8,62.6,256.4,61.4,256.4,60z"/>
	<path class="st0" d="M284.4,21v9.7h7.1v6.7h-7.1v22.4c0,1.5,0.3,2.6,0.9,3.3s1.7,1,3.2,1c1,0,2.1-0.1,3.1-0.4v7
		c-2,0.6-4,0.9-5.9,0.9c-6.9,0-10.4-3.8-10.4-11.4V37.4h-6.6v-6.7h6.6V21H284.4z"/>
	<path class="st0" d="M322.3,70.8c-0.4-0.8-0.7-2-1-3.7c-2.9,3-6.4,4.5-10.5,4.5c-4,0-7.3-1.1-9.9-3.4c-2.5-2.3-3.8-5.1-3.8-8.5
		c0-4.3,1.6-7.5,4.8-9.8c3.2-2.3,7.7-3.4,13.6-3.4h5.5v-2.6c0-2.1-0.6-3.7-1.7-5c-1.2-1.2-2.9-1.9-5.3-1.9c-2,0-3.7,0.5-5,1.5
		s-2,2.3-2,3.9h-9c0-2.2,0.7-4.3,2.2-6.2s3.4-3.4,5.9-4.5c2.5-1.1,5.3-1.6,8.4-1.6c4.7,0,8.4,1.2,11.2,3.5c2.8,2.4,4.2,5.7,4.3,9.9
		v18.1c0,3.6,0.5,6.5,1.5,8.6v0.6H322.3z M312.4,64.4c1.8,0,3.5-0.4,5-1.3s2.7-2,3.5-3.5V52H316c-3.3,0-5.8,0.6-7.5,1.7
		c-1.7,1.2-2.5,2.8-2.5,4.9c0,1.7,0.6,3.1,1.7,4.1C308.9,63.9,310.4,64.4,312.4,64.4z"/>
</g>
<g id="mainlogo_1_">
	<g id="mainlogo_6_">
		<path id="small_circle_3_" class="st0" d="M121.3,43.6c0-4.4-3.6-8-8-8s-8,3.6-8,8s3.6,8,8,8C117.7,51.6,121.3,48,121.3,43.6"/>
		<path id="outer_3_" class="st0" d="M144,51.7c-0.3-7.1-1.4-12-3.1-16.2c-1.7-4.4-4-8.1-7.7-11.8s-7.4-6-11.8-7.7
			c-4.2-1.6-9.1-2.8-16.2-3.1s-9.4-0.4-27.5-0.4s-20.4,0.1-27.5,0.4C43.1,13.2,38.3,14.3,34,16c-4.4,1.7-8.1,4-11.8,7.7
			s-6,7.4-7.7,11.8c-1.6,4.2-2.8,9.1-3.1,16.2c-0.3,7.1-0.4,9.4-0.4,27.5s0.1,20.4,0.4,27.5c0.3,7.1,1.5,11.9,3.1,16.2
			c1.7,4.4,4,8.1,7.7,11.8s7.4,6,11.8,7.7c4.3,1.6,9.1,2.8,16.2,3.1s9.4,0.4,27.5,0.4s20.4-0.1,27.5-0.4c7.1-0.3,11.9-1.4,16.2-3.1
			c4.4-1.7,8.1-4,11.8-7.7s6-7.4,7.7-11.8c1.7-4.2,2.8-9.1,3.1-16.2s0.4-9.4,0.4-27.5S144.3,58.8,144,51.7z M132,106.1
			c-0.3,6.5-1.4,10-2.3,12.4c-1.2,3.1-2.7,5.3-5,7.7c-2.3,2.3-4.5,3.8-7.7,5c-2.3,0.9-5.9,2-12.4,2.3c-7,0.3-9.1,0.4-26.9,0.4
			s-19.9-0.1-26.9-0.4c-6.5-0.3-10-1.4-12.4-2.3c-3.1-1.2-5.3-2.6-7.7-5c-2.3-2.3-3.8-4.6-5-7.7c-0.9-2.3-2-5.9-2.3-12.4
			c-0.3-7-0.4-9.1-0.4-26.9s0.1-19.9,0.4-27c0.3-6.5,1.4-10,2.3-12.4c1.2-3.1,2.6-5.3,5-7.7c2.3-2.3,4.5-3.8,7.7-5
			c2.3-0.9,5.9-2,12.4-2.3c7-0.3,9.1-0.4,26.9-0.4s19.9,0.1,26.9,0.4c6.5,0.3,10,1.4,12.4,2.3c3.1,1.2,5.3,2.7,7.7,5
			c2.3,2.3,3.8,4.5,5,7.7c0.9,2.4,2,5.9,2.3,12.4c0.3,7,0.4,9.1,0.4,27C132.4,97,132.3,99.1,132,106.1z"/>
		<path id="big_circle_3_" class="st0" d="M77.7,44.9c-18.9,0-34.2,15.4-34.2,34.3s15.3,34.2,34.2,34.2S112,98.1,112,79.2
			C111.9,60.3,96.6,44.9,77.7,44.9z M77.7,101.4c-12.3,0-22.2-9.9-22.2-22.2S65.5,57,77.7,57C90,57,99.9,67,99.9,79.2
			C99.9,91.5,90,101.4,77.7,101.4z"/>
	</g>
</g>
</svg>
