<?xml version="1.0" encoding="utf-8"?>
<!-- Generator: Adobe Illustrator 22.1.0, SVG Export Plug-In . SVG Version: 6.00 Build 0)  -->
<svg version="1.1" id="photo_x5F_facts" xmlns="http://www.w3.org/2000/svg" xmlns:xlink="http://www.w3.org/1999/xlink" x="0px"
	 y="0px" viewBox="0 0 582 408" style="enable-background:new 0 0 582 408;" xml:space="preserve">
<style type="text/css">
	.st0{fill:#A8A8A8;}
	.st1{opacity:0.5;fill:#A8A8A8;}
	.st2{fill:url(#small_circle_2_);}
	.st3{fill:url(#outer_2_);}
	.st4{fill:url(#big_circle_2_);}
</style>
<g id="fact2">
	<g>
		<path class="st0" d="M435.6,392.5h-0.9v-7.9h0.8v1.2h0c0.3-0.8,1-1.3,1.8-1.3c1.7,0,2.4,1.7,2.4,3.1c0,0.7-0.1,1.4-0.5,2
			c-0.4,0.7-1.1,1.1-1.9,1.1c-0.8,0-1.4-0.4-1.8-1.1V392.5z M437.2,385.2c-0.8,0-1.4,0.7-1.6,1.5v1.3c0,1,0.7,1.9,1.6,1.9
			c0.5,0,1-0.3,1.2-0.7c0.3-0.5,0.3-1.1,0.3-1.6C438.7,386.5,438.4,385.2,437.2,385.2z"/>
		<path class="st0" d="M444.8,390.5V387c0-0.4,0-0.8-0.1-1.2c-0.2-0.4-0.6-0.7-1.1-0.7c-0.5,0-0.9,0.3-1.2,0.6
			c-0.4,0.5-0.5,1-0.5,1.7v3.1H441v-8.1h0.9v3.2h0c0.4-0.8,0.9-1.3,1.9-1.3c0.6,0,1.2,0.3,1.6,0.8c0.4,0.6,0.3,1.2,0.3,1.8v3.5
			H444.8z"/>
		<path class="st0" d="M449.7,384.4c1.8,0,2.6,1.5,2.6,3.1c0,1.7-1,3.1-2.8,3.1c-1.8,0-2.6-1.6-2.6-3.2
			C447,385.8,447.9,384.4,449.7,384.4z M448.4,389.1c0.3,0.5,0.8,0.8,1.3,0.8c0.6,0,1.1-0.3,1.4-0.9c0.2-0.5,0.3-1,0.3-1.5
			c0-0.6-0.1-1.2-0.4-1.6c-0.3-0.4-0.8-0.7-1.3-0.7c-0.6,0-1.1,0.3-1.4,0.8c-0.2,0.4-0.3,1-0.3,1.5C448,388,448.1,388.6,448.4,389.1
			z"/>
		<path class="st0" d="M456.5,390.6l-0.9,0.1c-1.3,0-1.7-0.8-1.7-2v-3.5h-1.1v-0.7h1.1V383l0.9-0.1v1.6h1.3v0.7h-1.3v3.6
			c0,0.7,0.2,1.1,1,1.1l0.7-0.1V390.6z"/>
		<path class="st0" d="M459.9,384.4c1.8,0,2.6,1.5,2.6,3.1c0,1.7-1,3.1-2.8,3.1c-1.8,0-2.6-1.6-2.6-3.2
			C457.1,385.8,458.1,384.4,459.9,384.4z M458.5,389.1c0.3,0.5,0.8,0.8,1.3,0.8c0.6,0,1.1-0.3,1.4-0.9c0.2-0.5,0.3-1,0.3-1.5
			c0-0.6-0.1-1.2-0.4-1.6c-0.3-0.4-0.8-0.7-1.3-0.7c-0.6,0-1.1,0.3-1.4,0.8c-0.2,0.4-0.3,1-0.3,1.5
			C458.1,388,458.2,388.6,458.5,389.1z"/>
		<path class="st0" d="M464.4,388.7c0.1,0.8,1.1,1.1,1.8,1.1c0.6,0,1.4-0.2,1.4-1c0-0.6-0.6-0.8-1.2-0.9l-1-0.2
			c-0.9-0.2-1.8-0.6-1.8-1.7c0-1.2,1.1-1.8,2.2-1.8c1.1,0,2.1,0.4,2.4,1.5l-0.8,0.2c-0.2-0.7-0.8-0.9-1.5-0.9
			c-0.5,0-1.3,0.2-1.3,0.9c0,0.6,0.5,0.8,1.1,0.9l0.9,0.2c0.4,0.1,0.9,0.2,1.2,0.4c0.5,0.3,0.7,0.8,0.7,1.4c0,1.4-1.3,1.8-2.5,1.8
			c-1.2,0-2.3-0.5-2.6-1.7L464.4,388.7z"/>
		<path class="st0" d="M477.3,390.5V387c0-0.4,0-0.8-0.1-1.2c-0.2-0.4-0.6-0.7-1.1-0.7c-0.5,0-0.9,0.3-1.2,0.6
			c-0.4,0.5-0.5,1-0.5,1.7v3.1h-0.9v-8.1h0.9v3.2h0c0.4-0.8,0.9-1.3,1.9-1.3c0.6,0,1.2,0.3,1.6,0.8c0.4,0.6,0.3,1.2,0.3,1.8v3.5
			H477.3z"/>
		<path class="st0" d="M483.6,386.8v-0.3c0-1-0.5-1.4-1.5-1.4c-0.8,0-1.5,0.2-1.6,1.1l-0.9-0.1c0.2-1.2,1.5-1.6,2.6-1.6
			c0.6,0,1.4,0.1,1.8,0.6c0.5,0.5,0.5,1.3,0.5,2v2.3c0,0.4,0,0.9,0.1,1.3h-0.9l-0.1-1.1c-0.4,0.9-1.1,1.2-2.1,1.2
			c-1.1,0-2.1-0.6-2.1-1.8c0-0.7,0.4-1.4,1.1-1.7c0.7-0.3,1.6-0.4,2.3-0.4H483.6z M483.6,387.5h-0.8c-0.9,0-2.4,0.1-2.4,1.4
			c0,0.7,0.6,1,1.3,1c1.1,0,1.9-1,1.9-2V387.5z"/>
		<path class="st0" d="M488.2,390.5h-1l-2.1-6h1l1.7,4.9l1.6-4.9h0.8L488.2,390.5z"/>
		<path class="st0" d="M496,388.9c-0.4,1.1-1.4,1.8-2.5,1.8c-1.8,0-2.7-1.4-2.7-3.1c0-1.6,1-3.1,2.8-3.1c1.9,0,2.7,1.6,2.6,3.2h-4.3
			c0,0.5,0,0.9,0.2,1.4c0.3,0.6,0.9,0.9,1.5,0.9c0.8,0,1.3-0.4,1.6-1.2L496,388.9z M495.1,386.9c0-1-0.5-1.8-1.6-1.8
			c-1,0-1.6,0.9-1.7,1.8H495.1z"/>
		<path class="st0" d="M501.3,390.5h-0.4v-8.1h0.9v3.1h0c0.4-0.7,0.9-1.1,1.8-1.1c0.7,0,1.4,0.4,1.8,1c0.4,0.6,0.6,1.4,0.6,2.1
			c0,1.5-0.7,3.2-2.5,3.2c-0.8,0-1.5-0.5-1.8-1.1L501.3,390.5z M503.4,385.1c-0.9,0-1.6,1-1.6,2v0.7c0,0.6,0.1,1.1,0.3,1.4
			c0.3,0.4,0.8,0.7,1.3,0.7c1.2,0,1.6-1.3,1.6-2.3C505,386.6,504.7,385.1,503.4,385.1z"/>
		<path class="st0" d="M512.2,388.9c-0.4,1.1-1.4,1.8-2.5,1.8c-1.8,0-2.7-1.4-2.7-3.1c0-1.6,1-3.1,2.8-3.1c1.9,0,2.7,1.6,2.6,3.2
			H508c0,0.5,0,0.9,0.2,1.4c0.3,0.6,0.9,0.9,1.5,0.9c0.8,0,1.3-0.4,1.6-1.2L512.2,388.9z M511.3,386.9c0-1-0.5-1.8-1.6-1.8
			c-1,0-1.6,0.9-1.7,1.8H511.3z"/>
		<path class="st0" d="M518.6,388.9c-0.4,1.1-1.4,1.8-2.5,1.8c-1.8,0-2.7-1.4-2.7-3.1c0-1.6,1-3.1,2.8-3.1c1.9,0,2.7,1.6,2.6,3.2
			h-4.3c0,0.5,0,0.9,0.2,1.4c0.3,0.6,0.9,0.9,1.5,0.9c0.8,0,1.3-0.4,1.6-1.2L518.6,388.9z M517.7,386.9c0-1-0.5-1.8-1.6-1.8
			c-1,0-1.6,0.9-1.7,1.8H517.7z"/>
		<path class="st0" d="M520.9,385.6L520.9,385.6c0.4-0.7,1-1.3,1.9-1.3c0.7,0,1.3,0.3,1.7,0.9c0.3,0.5,0.3,1.3,0.3,1.9v3.3h-0.9
			v-3.7c0-0.4,0-0.8-0.2-1.1c-0.2-0.3-0.6-0.5-1-0.5c-0.5,0-0.9,0.2-1.2,0.6c-0.4,0.5-0.5,1-0.5,1.6v3.1h-0.9v-6h0.9V385.6z"/>
		<path class="st0" d="M530.5,388.7c0.1,0.8,1.1,1.1,1.8,1.1c0.6,0,1.4-0.2,1.4-1c0-0.6-0.6-0.8-1.2-0.9l-1-0.2
			c-0.9-0.2-1.8-0.6-1.8-1.7c0-1.2,1.1-1.8,2.2-1.8c1.1,0,2.1,0.4,2.4,1.5l-0.8,0.2c-0.2-0.7-0.8-0.9-1.5-0.9
			c-0.5,0-1.3,0.2-1.3,0.9c0,0.6,0.5,0.8,1.1,0.9l0.9,0.2c0.4,0.1,0.9,0.2,1.2,0.4c0.5,0.3,0.7,0.8,0.7,1.4c0,1.4-1.3,1.8-2.5,1.8
			c-1.2,0-2.3-0.5-2.6-1.7L530.5,388.7z"/>
		<path class="st0" d="M539.9,390.5V387c0-0.4,0-0.8-0.1-1.2c-0.2-0.4-0.6-0.7-1.1-0.7c-0.5,0-0.9,0.3-1.2,0.6
			c-0.4,0.5-0.5,1-0.5,1.7v3.1h-0.9v-8.1h0.9v3.2h0c0.4-0.8,0.9-1.3,1.9-1.3c0.6,0,1.2,0.3,1.6,0.8c0.4,0.6,0.3,1.2,0.3,1.8v3.5
			H539.9z"/>
		<path class="st0" d="M546.3,386.8v-0.3c0-1-0.5-1.4-1.5-1.4c-0.8,0-1.5,0.2-1.6,1.1l-0.9-0.1c0.2-1.2,1.5-1.6,2.6-1.6
			c0.6,0,1.4,0.1,1.8,0.6c0.5,0.5,0.5,1.3,0.5,2v2.3c0,0.4,0,0.9,0.1,1.3h-0.9l-0.1-1.1c-0.4,0.9-1.1,1.2-2.1,1.2
			c-1.1,0-2.1-0.6-2.1-1.8c0-0.7,0.4-1.4,1.1-1.7c0.7-0.3,1.6-0.4,2.3-0.4H546.3z M546.3,387.5h-0.8c-0.9,0-2.4,0.1-2.4,1.4
			c0,0.7,0.6,1,1.3,1c1.1,0,1.9-1,1.9-2V387.5z"/>
		<path class="st0" d="M549.7,384.5v1.4h0c0.3-0.8,0.8-1.6,1.8-1.6l0.3,0v0.9h-0.2c-0.7,0-1.2,0.3-1.5,0.9c-0.2,0.4-0.3,0.8-0.3,1.3
			v3h-0.9v-6H549.7z"/>
		<path class="st0" d="M557.5,388.9c-0.4,1.1-1.4,1.8-2.5,1.8c-1.8,0-2.7-1.4-2.7-3.1c0-1.6,1-3.1,2.8-3.1c1.9,0,2.7,1.6,2.6,3.2
			h-4.3c0,0.5,0,0.9,0.2,1.4c0.3,0.6,0.9,0.9,1.5,0.9c0.8,0,1.3-0.4,1.6-1.2L557.5,388.9z M556.6,386.9c0-1-0.5-1.8-1.6-1.8
			c-1,0-1.6,0.9-1.7,1.8H556.6z"/>
		<path class="st0" d="M562.8,382.4h0.9v8.1h-0.8v-1.1h0c-0.4,0.8-1,1.2-1.9,1.2c-0.8,0-1.4-0.4-1.8-1c-0.4-0.6-0.6-1.4-0.6-2.1
			c0-1.5,0.7-3.1,2.5-3.1c0.8,0,1.3,0.4,1.7,1V382.4z M562.8,387c0-0.4-0.1-0.8-0.3-1.2c-0.3-0.4-0.8-0.7-1.3-0.7
			c-0.5,0-1,0.3-1.2,0.8c-0.3,0.5-0.4,1-0.4,1.6c0,1,0.3,2.5,1.5,2.5c0.5,0,1-0.3,1.3-0.7c0.3-0.4,0.4-0.8,0.4-1.2V387z"/>
	</g>
	<g>
		<path class="st0" d="M507.9,374.9v-15.2h2.5v5.5c0.6-1,1.3-2.1,3.1-2.1c2.1,0,4.3,1.8,4.3,5.9c0,1.6-0.4,3.2-1.3,4.4
			c-0.9,1.2-1.9,1.6-3.3,1.6c-2.1,0-2.9-1.1-3.5-2.1l-0.7,1.8H507.9z M510.5,370.1c0,2.1,1,2.9,2.3,2.9c2.3,0,2.4-2.8,2.4-4.1
			c0-1.2-0.2-3.7-2.3-3.7c-1.1,0-2.4,0.8-2.4,3.1V370.1z"/>
		<path class="st0" d="M520.2,362.3v-2.6h2.5v2.6H520.2z M520.2,374.9v-11.3h2.5v11.3H520.2z"/>
		<path class="st0" d="M525.8,374.9v-15.2h2.5v15.2H525.8z"/>
		<path class="st0" d="M531.4,374.9v-15.2h2.5v15.2H531.4z"/>
		<path class="st0" d="M536.9,362.3v-2.6h2.5v2.6H536.9z M536.9,374.9v-11.3h2.5v11.3H536.9z"/>
		<path class="st0" d="M546.9,375.1c-3.8,0-5.1-3.3-5.1-5.9c0-3.1,1.9-5.8,5.3-5.8c3.4,0,5.2,2.8,5.2,5.8
			C552.2,373.1,549.8,375.1,546.9,375.1z M547.1,365.5c-2.1,0-2.6,2-2.6,3.8c0,0.6,0,3.8,2.5,3.8c2.3,0,2.6-2.7,2.6-3.8
			C549.6,367.3,549,365.5,547.1,365.5z"/>
		<path class="st0" d="M554.6,363.7h2.3v2.6c0.4-0.9,1.3-2.8,3.4-2.8c3.6,0,3.6,3.3,3.6,4.8v6.7h-2.5v-6.6c0-2.6-1.3-2.6-1.7-2.6
			c-0.5,0-2.5,0.1-2.5,4v5.3h-2.5V363.7z"/>
	</g>
	<g>
		<path class="st0" d="M452.3,376.4V367H434v-5.5l18.4-27.4h7.6v26.4h6.2v6.4H460v9.4H452.3z M452.3,349.2c0-0.9,0.1-2,0.2-3.3
			c0.1-0.9,0.2-3,0.4-4l-11.7,18.7h11.2V349.2z"/>
		<path class="st0" d="M499.1,369.8c-2.9,4.7-6.7,7.3-12.7,7.3c-11.8,0-15.9-11-15.9-20.9c0-5.6,1.1-11.2,4.3-15.7
			c2.9-3.9,6.3-6,11.6-6c15.7,0,16,19.1,16,19.9C502.5,361.6,501.6,365.7,499.1,369.8z M492.6,343.4c-1.8-3.4-4.8-3.5-6-3.5
			c-3.1,0-5,1.5-6.1,3.5c-2,3.5-2.3,8.7-2.3,12.1c0,9.7,2.2,15.7,8.3,15.7c8.4,0,8.4-10.5,8.4-17
			C494.8,353.3,494.7,347.4,492.6,343.4z"/>
	</g>
	<g>
		<path class="st0" d="M437.6,329.1h-1.4v-9.6h-3.1v-1.2h7.5v1.2h-3.1V329.1z"/>
		<path class="st0" d="M443.6,320.9c2.3,0,3.5,2,3.5,4.1c0,2.2-1.3,4.2-3.7,4.2c-2.4,0-3.5-2.1-3.5-4.2
			C439.9,322.8,441.2,320.9,443.6,320.9z M441.7,327.2c0.3,0.6,1,1,1.7,1c0.8,0,1.5-0.4,1.8-1.1c0.3-0.6,0.4-1.4,0.4-2
			c0-0.8-0.1-1.5-0.5-2.2c-0.4-0.6-1-0.9-1.7-0.9c-0.8,0-1.5,0.4-1.8,1.1c-0.3,0.6-0.4,1.4-0.4,2
			C441.3,325.8,441.4,326.6,441.7,327.2z"/>
		<path class="st0" d="M458.6,318.3h1.2v10.8h-1.1v-1.4h0c-0.5,1-1.3,1.6-2.5,1.6c-1.1,0-1.9-0.5-2.4-1.4c-0.5-0.8-0.8-1.8-0.8-2.8
			c0-2,1-4.2,3.3-4.2c1,0,1.7,0.5,2.3,1.3V318.3z M458.6,324.4c0-0.5-0.1-1.1-0.4-1.6c-0.4-0.6-1.1-0.9-1.8-0.9
			c-0.7,0-1.3,0.4-1.6,1c-0.4,0.6-0.5,1.4-0.5,2.1c0,1.3,0.3,3.3,2.1,3.3c0.7,0,1.4-0.4,1.8-1c0.4-0.5,0.5-1,0.5-1.6V324.4z"/>
		<path class="st0" d="M467.1,324.1v-0.3c0-1.4-0.6-1.9-2-1.9c-1,0-2,0.3-2.2,1.4l-1.1-0.2c0.2-1.7,2-2.2,3.4-2.2
			c0.9,0,1.9,0.1,2.5,0.8c0.7,0.7,0.7,1.7,0.7,2.6v3.1c0,0.6,0,1.2,0.2,1.7h-1.2l-0.1-1.5c-0.6,1.1-1.5,1.6-2.8,1.6
			c-1.5,0-2.8-0.8-2.8-2.4c0-1,0.6-1.8,1.5-2.2c0.9-0.4,2.1-0.5,3.1-0.5H467.1z M467.1,325.1h-1c-1.3,0-3.2,0.2-3.2,1.8
			c0,1,0.8,1.4,1.7,1.4c1.5,0,2.5-1.3,2.5-2.7V325.1z"/>
		<path class="st0" d="M474.3,329.2l-1.2,0.1c-1.7,0-2.3-1-2.3-2.6V322h-1.4v-1h1.4v-2l1.2-0.1v2.1h1.8v1h-1.8v4.8
			c0,0.9,0.3,1.4,1.3,1.4l0.9-0.1V329.2z"/>
		<path class="st0" d="M482.1,326.9c-0.5,1.5-1.9,2.3-3.4,2.3c-2.4,0-3.7-1.9-3.7-4.1c0-2.2,1.3-4.2,3.7-4.2c2.5,0,3.6,2.1,3.5,4.3
			h-5.8c0,0.6,0,1.2,0.3,1.8c0.4,0.8,1.2,1.2,2,1.2c1,0,1.8-0.6,2.1-1.5L482.1,326.9z M480.8,324.3c0-1.3-0.7-2.4-2.1-2.4
			c-1.3,0-2.2,1.2-2.2,2.4H480.8z"/>
		<path class="st0" d="M489.8,321.1v1.5h0c0.4-1,1.3-1.7,2.4-1.7c1.2,0,2,0.8,2.2,1.9c0.4-1.1,1.4-1.9,2.6-1.9c0.8,0,1.6,0.5,2,1.1
			c0.4,0.7,0.4,1.5,0.4,2.3v4.8h-1.2v-4.8c0-0.5,0-1.1-0.2-1.6c-0.3-0.5-0.8-0.8-1.3-0.8c-0.6,0-1.2,0.4-1.5,0.9
			c-0.5,0.6-0.4,1.2-0.4,2v4.3h-1.2V324c0-0.4,0-1-0.3-1.4c-0.3-0.5-0.8-0.8-1.3-0.8c-0.5,0-1.1,0.4-1.4,0.8
			c-0.4,0.5-0.5,1.2-0.5,1.8v4.6h-1.2v-8H489.8z"/>
		<path class="st0" d="M504.8,320.9c2.3,0,3.5,2,3.5,4.1c0,2.2-1.3,4.2-3.7,4.2c-2.4,0-3.5-2.1-3.5-4.2
			C501.2,322.8,502.4,320.9,504.8,320.9z M503,327.2c0.3,0.6,1,1,1.7,1c0.8,0,1.5-0.4,1.8-1.1c0.3-0.6,0.4-1.4,0.4-2
			c0-0.8-0.1-1.5-0.5-2.2c-0.4-0.6-1-0.9-1.7-0.9c-0.8,0-1.5,0.4-1.8,1.1c-0.3,0.6-0.4,1.4-0.4,2C502.5,325.8,502.6,326.6,503,327.2
			z"/>
		<path class="st0" d="M511.2,321.1v1.9h0c0.4-1.1,1.1-2.1,2.3-2.1l0.5,0v1.2h-0.3c-0.9,0-1.6,0.5-2.1,1.3c-0.3,0.6-0.4,1.1-0.4,1.7
			v4h-1.2v-8H511.2z"/>
		<path class="st0" d="M521.6,326.9c-0.5,1.5-1.9,2.3-3.4,2.3c-2.4,0-3.7-1.9-3.7-4.1c0-2.2,1.3-4.2,3.7-4.2c2.5,0,3.6,2.1,3.5,4.3
			H516c0,0.6,0,1.2,0.3,1.8c0.4,0.8,1.2,1.2,2,1.2c1,0,1.8-0.6,2.1-1.5L521.6,326.9z M520.4,324.3c0-1.3-0.7-2.4-2.1-2.4
			c-1.3,0-2.2,1.2-2.2,2.4H520.4z"/>
		<path class="st0" d="M532.1,329.2l-1.2,0.1c-1.7,0-2.3-1-2.3-2.6V322h-1.4v-1h1.4v-2l1.2-0.1v2.1h1.8v1h-1.8v4.8
			c0,0.9,0.3,1.4,1.3,1.4l0.9-0.1V329.2z"/>
		<path class="st0" d="M538.4,329.1v-4.7c0-0.5,0-1.1-0.2-1.6c-0.2-0.6-0.8-0.9-1.4-0.9c-0.6,0-1.2,0.4-1.6,0.8
			c-0.5,0.7-0.6,1.4-0.6,2.2v4.1h-1.2v-10.8h1.2v4.3h0c0.5-1.1,1.2-1.7,2.5-1.7c0.8,0,1.6,0.4,2.1,1.1c0.5,0.8,0.4,1.5,0.4,2.4v4.7
			H538.4z"/>
		<path class="st0" d="M546.9,324.1v-0.3c0-1.4-0.6-1.9-2-1.9c-1,0-2,0.3-2.2,1.4l-1.1-0.2c0.2-1.7,2-2.2,3.4-2.2
			c0.9,0,1.9,0.1,2.5,0.8c0.7,0.7,0.7,1.7,0.7,2.6v3.1c0,0.6,0,1.2,0.2,1.7H547l-0.1-1.5c-0.6,1.1-1.5,1.6-2.8,1.6
			c-1.5,0-2.8-0.8-2.8-2.4c0-1,0.6-1.8,1.5-2.2c0.9-0.4,2.1-0.5,3.1-0.5H546.9z M546.9,325.1h-1c-1.3,0-3.2,0.2-3.2,1.8
			c0,1,0.8,1.4,1.7,1.4c1.5,0,2.5-1.3,2.5-2.7V325.1z"/>
		<path class="st0" d="M551.4,322.6L551.4,322.6c0.5-1,1.4-1.7,2.5-1.7c1,0,1.8,0.4,2.3,1.2c0.4,0.7,0.4,1.7,0.4,2.5v4.4h-1.2v-4.9
			c0-0.5,0-1.1-0.2-1.5c-0.3-0.5-0.8-0.7-1.4-0.7c-0.6,0-1.2,0.3-1.6,0.8c-0.5,0.6-0.6,1.4-0.6,2.2v4.2h-1.2v-8h1.2V322.6z"/>
	</g>
</g>
<g id="armline2">
	
		<rect id="light" x="159" y="167.6" transform="matrix(-1.836970e-16 1 -1 -1.836970e-16 385.7358 65.708)" class="st1" width="2.1" height="116.2"/>
	
		<rect id="dark" x="54.2" y="175.9" transform="matrix(-1.836970e-16 1 -1 -1.836970e-16 281.0729 170.4586)" class="st0" width="2.2" height="99.8"/>
</g>
<g id="fact1_1_">
	<g>
		<path class="st0" d="M20.1,218.3h-1.3v-11.2H20v1.6h0c0.4-1.1,1.3-1.8,2.6-1.8c2.4,0,3.3,2.3,3.3,4.4c0,1-0.2,2-0.7,2.9
			c-0.6,0.9-1.5,1.6-2.7,1.6c-1.2,0-1.9-0.5-2.5-1.5V218.3z M22.3,208.1c-1.1,0-2,1-2.2,2.1v1.9c0,1.4,1,2.6,2.2,2.6
			c0.7,0,1.4-0.4,1.7-1c0.4-0.6,0.4-1.5,0.4-2.3C24.5,210,24.1,208.1,22.3,208.1z"/>
		<path class="st0" d="M33,215.6v-4.9c0-0.5,0-1.2-0.2-1.7c-0.2-0.6-0.8-1-1.5-1c-0.7,0-1.3,0.4-1.7,0.9c-0.6,0.7-0.6,1.5-0.6,2.4
			v4.3h-1.3v-11.4h1.3v4.5h0c0.5-1.1,1.3-1.8,2.6-1.8c0.9,0,1.7,0.4,2.2,1.2c0.5,0.8,0.4,1.6,0.4,2.6v4.9H33z"/>
		<path class="st0" d="M40,206.9c2.5,0,3.7,2.2,3.7,4.4c0,2.4-1.4,4.4-3.9,4.4c-2.5,0-3.6-2.2-3.6-4.4
			C36.1,208.9,37.4,206.9,40,206.9z M38,213.6c0.4,0.6,1.1,1.1,1.8,1.1c0.9,0,1.5-0.4,1.9-1.2c0.3-0.7,0.4-1.4,0.4-2.2
			c0-0.8-0.1-1.6-0.5-2.3c-0.4-0.6-1.1-1-1.8-1c-0.8,0-1.5,0.5-1.9,1.2c-0.3,0.6-0.4,1.4-0.4,2.1C37.6,212,37.7,212.9,38,213.6z"/>
		<path class="st0" d="M49.6,215.6l-1.2,0.1c-1.8,0-2.4-1.1-2.4-2.8v-4.9h-1.5v-1h1.5V205l1.3-0.1v2.2h1.9v1h-1.9v5.1
			c0,1,0.3,1.5,1.3,1.5l1-0.1V215.6z"/>
		<path class="st0" d="M54.2,206.9c2.5,0,3.7,2.2,3.7,4.4c0,2.4-1.4,4.4-3.9,4.4c-2.5,0-3.6-2.2-3.6-4.4
			C50.4,208.9,51.7,206.9,54.2,206.9z M52.3,213.6c0.4,0.6,1.1,1.1,1.8,1.1c0.9,0,1.5-0.4,1.9-1.2c0.3-0.7,0.4-1.4,0.4-2.2
			c0-0.8-0.1-1.6-0.5-2.3c-0.4-0.6-1.1-1-1.8-1c-0.8,0-1.5,0.5-1.9,1.2c-0.3,0.6-0.4,1.4-0.4,2.1C51.8,212,51.9,212.9,52.3,213.6z"
			/>
		<path class="st0" d="M60.6,213.1c0.2,1.1,1.5,1.6,2.5,1.6c0.9,0,2-0.3,2-1.4c0-0.9-0.9-1.1-1.6-1.3l-1.4-0.2
			c-1.3-0.2-2.5-0.8-2.5-2.3c0-1.7,1.6-2.5,3.2-2.5c1.5,0,2.9,0.6,3.3,2.1l-1.2,0.2c-0.3-0.9-1.2-1.3-2.2-1.3
			c-0.8,0-1.8,0.3-1.8,1.2c0,0.9,0.8,1.1,1.5,1.2l1.2,0.2c0.6,0.1,1.2,0.2,1.8,0.6c0.7,0.4,1,1.1,1,1.9c0,1.9-1.9,2.6-3.5,2.6
			s-3.3-0.7-3.7-2.4L60.6,213.1z"/>
		<path class="st0" d="M78.7,210.3V210c0-1.5-0.6-2-2.1-2c-1.1,0-2.1,0.3-2.3,1.5l-1.2-0.2c0.2-1.8,2.1-2.3,3.6-2.3
			c0.9,0,2,0.1,2.6,0.8c0.7,0.7,0.7,1.8,0.7,2.8v3.3c0,0.6,0,1.2,0.2,1.8h-1.3l-0.1-1.6c-0.6,1.2-1.6,1.7-3,1.7
			c-1.6,0-2.9-0.9-2.9-2.6c0-1,0.6-1.9,1.6-2.3c0.9-0.4,2.2-0.5,3.2-0.5H78.7z M78.7,211.3h-1.1c-1.3,0-3.4,0.2-3.4,1.9
			c0,1,0.9,1.5,1.8,1.5c1.6,0,2.7-1.4,2.7-2.9V211.3z"/>
		<path class="st0" d="M83.5,207.1v2h0c0.4-1.1,1.1-2.2,2.5-2.2l0.5,0v1.2h-0.3c-1,0-1.7,0.5-2.2,1.3c-0.3,0.6-0.4,1.1-0.4,1.8v4.2
			h-1.3v-8.4H83.5z"/>
		<path class="st0" d="M94.5,213.3c-0.5,1.5-2,2.5-3.6,2.5c-2.6,0-3.9-2-3.9-4.4c0-2.3,1.4-4.4,3.9-4.4c2.6,0,3.7,2.2,3.7,4.5h-6.1
			c0,0.7,0,1.3,0.3,1.9c0.4,0.8,1.3,1.3,2.2,1.3c1.1,0,1.9-0.6,2.3-1.6L94.5,213.3z M93.2,210.5c0-1.4-0.8-2.6-2.3-2.6
			c-1.4,0-2.3,1.2-2.4,2.6H93.2z"/>
		<path class="st0" d="M108.2,215.6H107v-1.7h0c-0.4,1-1.4,1.8-2.6,1.8c-0.8,0-1.6-0.3-2.2-0.9c-0.6-0.7-0.7-1.7-0.7-2.5v-5.1h1.3
			v5.1c0,0.5,0,1.1,0.3,1.5c0.2,0.5,0.8,0.8,1.4,0.8c0.7,0,1.3-0.3,1.7-0.9c0.5-0.6,0.6-1.3,0.6-2.1v-4.5h1.3V215.6z"/>
		<path class="st0" d="M111.9,218.3h-1.3v-11.2h1.2v1.6h0c0.4-1.1,1.3-1.8,2.6-1.8c2.4,0,3.3,2.3,3.3,4.4c0,1-0.2,2-0.7,2.9
			c-0.6,0.9-1.5,1.6-2.7,1.6c-1.2,0-1.9-0.5-2.5-1.5V218.3z M114.2,208.1c-1.1,0-2,1-2.2,2.1v1.9c0,1.4,1,2.6,2.2,2.6
			c0.7,0,1.4-0.4,1.7-1c0.4-0.6,0.4-1.5,0.4-2.3C116.3,210,115.9,208.1,114.2,208.1z"/>
		<path class="st0" d="M119.7,215.6v-11.4h1.3v11.4H119.7z"/>
		<path class="st0" d="M126.8,206.9c2.5,0,3.7,2.2,3.7,4.4c0,2.4-1.4,4.4-3.9,4.4c-2.5,0-3.6-2.2-3.6-4.4
			C123,208.9,124.3,206.9,126.8,206.9z M124.9,213.6c0.4,0.6,1.1,1.1,1.8,1.1c0.9,0,1.5-0.4,1.9-1.2c0.3-0.7,0.4-1.4,0.4-2.2
			c0-0.8-0.1-1.6-0.5-2.3c-0.4-0.6-1.1-1-1.8-1c-0.8,0-1.5,0.5-1.9,1.2c-0.3,0.6-0.4,1.4-0.4,2.1C124.4,212,124.5,212.9,124.9,213.6
			z"/>
		<path class="st0" d="M137.8,210.3V210c0-1.5-0.6-2-2.1-2c-1.1,0-2.1,0.3-2.3,1.5l-1.2-0.2c0.2-1.8,2.1-2.3,3.6-2.3
			c0.9,0,2,0.1,2.6,0.8c0.7,0.7,0.7,1.8,0.7,2.8v3.3c0,0.6,0,1.2,0.2,1.8h-1.3l-0.1-1.6c-0.6,1.2-1.6,1.7-3,1.7
			c-1.6,0-2.9-0.9-2.9-2.6c0-1,0.6-1.9,1.6-2.3c0.9-0.4,2.2-0.5,3.2-0.5H137.8z M137.8,211.3h-1.1c-1.3,0-3.4,0.2-3.4,1.9
			c0,1,0.9,1.5,1.8,1.5c1.6,0,2.7-1.4,2.7-2.9V211.3z"/>
		<path class="st0" d="M146.7,204.2h1.3v11.4h-1.2v-1.5h0c-0.5,1.1-1.4,1.7-2.6,1.7c-1.1,0-2-0.5-2.6-1.4c-0.6-0.9-0.8-1.9-0.8-3
			c0-2.1,1-4.4,3.5-4.4c1.1,0,1.8,0.5,2.4,1.4V204.2z M146.7,210.6c0-0.6-0.1-1.2-0.4-1.7c-0.4-0.6-1.2-0.9-1.9-0.9
			s-1.4,0.4-1.7,1.1c-0.4,0.7-0.5,1.4-0.5,2.2c0,1.4,0.4,3.4,2.2,3.4c0.7,0,1.4-0.4,1.9-1c0.4-0.5,0.5-1.1,0.5-1.7V210.6z"/>
		<path class="st0" d="M157.2,213.3c-0.5,1.5-2,2.5-3.6,2.5c-2.6,0-3.9-2-3.9-4.4c0-2.3,1.4-4.4,3.9-4.4c2.6,0,3.7,2.2,3.7,4.5h-6.1
			c0,0.7,0,1.3,0.3,1.9c0.4,0.8,1.3,1.3,2.2,1.3c1.1,0,1.9-0.6,2.3-1.6L157.2,213.3z M155.9,210.5c0-1.4-0.8-2.6-2.3-2.6
			c-1.4,0-2.3,1.2-2.4,2.6H155.9z"/>
		<path class="st0" d="M164.6,204.2h1.3v11.4h-1.2v-1.5h0c-0.5,1.1-1.4,1.7-2.6,1.7c-1.1,0-2-0.5-2.6-1.4c-0.6-0.9-0.8-1.9-0.8-3
			c0-2.1,1-4.4,3.5-4.4c1.1,0,1.8,0.5,2.4,1.4V204.2z M164.6,210.6c0-0.6-0.1-1.2-0.4-1.7c-0.4-0.6-1.2-0.9-1.9-0.9
			s-1.4,0.4-1.7,1.1c-0.4,0.7-0.5,1.4-0.5,2.2c0,1.4,0.4,3.4,2.2,3.4c0.7,0,1.4-0.4,1.9-1c0.4-0.5,0.5-1.1,0.5-1.7V210.6z"/>
	</g>
	<g>
		<path class="st0" d="M99.1,185.2h2.6v2.5c0.5-1,1.4-2.8,3.9-2.8c2.6,0,3.2,2,3.4,2.8c0.7-1.3,1.9-2.8,3.9-2.8
			c2.6,0,3.8,1.8,3.8,4.4v7.7H114v-7c0-1.5-0.3-2.7-2-2.7c-1.3,0-2.6,0.9-2.6,3.5v6.2h-2.8v-7.4c0-0.9-0.3-2.3-1.9-2.3
			c-1.3,0-2.7,1-2.7,3.9v5.8h-2.8V185.2z"/>
		<path class="st0" d="M120,183.8V181h2.7v2.8H120z M120,197.1v-11.9h2.7v11.9H120z"/>
		<path class="st0" d="M125.9,197.1v-16h2.7v16H125.9z"/>
		<path class="st0" d="M131.8,197.1v-16h2.7v16H131.8z"/>
		<path class="st0" d="M137.7,183.8V181h2.7v2.8H137.7z M137.7,197.1v-11.9h2.7v11.9H137.7z"/>
		<path class="st0" d="M148.2,197.3c-4,0-5.4-3.5-5.4-6.2c0-3.2,2-6.1,5.6-6.1c3.6,0,5.5,2.9,5.5,6.1
			C153.9,195.1,151.3,197.3,148.2,197.3z M148.4,187.2c-2.2,0-2.7,2.1-2.7,4c0,0.6,0,4,2.7,4c2.5,0,2.7-2.8,2.7-4
			C151,189,150.4,187.2,148.4,187.2z"/>
		<path class="st0" d="M156.3,185.2h2.4v2.7c0.5-1,1.4-3,3.6-3c3.8,0,3.8,3.5,3.8,5.1v7h-2.7v-7c0-2.7-1.4-2.8-1.8-2.8
			c-0.6,0-2.6,0.1-2.6,4.2v5.6h-2.7V185.2z"/>
	</g>
	<g>
		<path class="st0" d="M25.9,188c1.2,1.8,2.9,4.6,7.4,4.6c7.7,0,10.3-8.5,10.3-17.4c-1.7,2.9-4,6.9-11.5,6.9
			c-7.3,0-14.4-4.8-14.4-14c0-7.8,5.6-14.7,15.6-14.7c8.9,0,17.8,5.6,17.8,21.3c0,12.3-5.4,23.7-18.1,23.7c-7.9,0-12.2-4.2-13.8-8.6
			L25.9,188z M33.8,159.5c-5.2,0-8.4,3.7-8.4,8.2c0,4.1,3,8.1,8.3,8.1c3.3,0,8.6-2,8.6-8.7C42.3,164.1,39.7,159.5,33.8,159.5z"/>
		<path class="st0" d="M60.2,154.2h27.2l-0.7,6.7H66l-1.2,12.7c1.5-1.8,4.2-5,10.1-5c8.8,0,15.1,6.9,15.1,14.7
			c0,6.5-4.7,15.2-17,15.2c-3.1,0-9.5-0.7-13.7-5.1c-2.4-2.5-2.9-4.8-3.5-6.8l7.6-1.1c0.5,1.4,2.2,6.7,9.2,6.7
			c6.7,0,8.9-5.1,8.9-8.9c0-4.6-3.1-8.6-8.3-8.6c-2.1,0-4.2,0.7-5.8,1.8c-1.5,1.1-2.1,2.2-2.7,3.3l-7.1-1.4L60.2,154.2z"/>
	</g>
	<g>
		<path class="st0" d="M26.3,145.7h-7.4v-11.4h7.2v1.2h-5.8v3.6h4.6v1.1h-4.6v4.2h5.9V145.7z"/>
		<path class="st0" d="M31.2,145.7h-1.4l-3-8.4h1.4l2.4,6.8l2.3-6.8h1.2L31.2,145.7z"/>
		<path class="st0" d="M42.2,143.4c-0.5,1.5-2,2.5-3.6,2.5c-2.6,0-3.9-2-3.9-4.4c0-2.3,1.4-4.4,3.9-4.4c2.6,0,3.7,2.2,3.7,4.5h-6.1
			c0,0.7,0,1.3,0.3,1.9c0.4,0.8,1.3,1.3,2.2,1.3c1.1,0,1.9-0.6,2.3-1.6L42.2,143.4z M40.9,140.6c0-1.4-0.8-2.6-2.3-2.6
			c-1.4,0-2.3,1.2-2.4,2.6H40.9z"/>
		<path class="st0" d="M45.4,137.3v2h0c0.4-1.1,1.1-2.2,2.5-2.2l0.5,0v1.2h-0.3c-1,0-1.7,0.5-2.2,1.3c-0.3,0.6-0.4,1.1-0.4,1.8v4.2
			h-1.3v-8.4H45.4z"/>
		<path class="st0" d="M52.9,146.5c-0.2,0.6-0.4,1.1-0.9,1.6c-0.5,0.5-1,0.6-1.7,0.6c-0.3,0-0.6-0.1-1-0.1v-1
			c0.3,0.1,0.6,0.1,0.9,0.1c1.3,0,1.5-1.1,1.9-2.1l-2.9-8.3h1.3l2.3,6.3l2.3-6.3h1.1L52.9,146.5z"/>
		<path class="st0" d="M62.7,134.3H64v11.4h-1.2v-1.5h0c-0.5,1.1-1.4,1.7-2.6,1.7c-1.1,0-2-0.5-2.6-1.4c-0.6-0.9-0.8-1.9-0.8-3
			c0-2.1,1-4.4,3.5-4.4c1.1,0,1.8,0.5,2.4,1.4V134.3z M62.7,140.7c0-0.6-0.1-1.2-0.4-1.7c-0.4-0.6-1.2-0.9-1.9-0.9s-1.4,0.4-1.7,1.1
			c-0.4,0.7-0.5,1.4-0.5,2.2c0,1.4,0.4,3.4,2.2,3.4c0.7,0,1.4-0.4,1.9-1c0.4-0.5,0.5-1.1,0.5-1.7V140.7z"/>
		<path class="st0" d="M71.6,140.5v-0.4c0-1.5-0.6-2-2.1-2c-1.1,0-2.1,0.3-2.3,1.5l-1.2-0.2c0.2-1.8,2.1-2.3,3.6-2.3
			c0.9,0,2,0.1,2.6,0.8c0.7,0.7,0.7,1.8,0.7,2.8v3.3c0,0.6,0,1.2,0.2,1.8h-1.3l-0.1-1.6c-0.6,1.2-1.6,1.7-3,1.7
			c-1.6,0-2.9-0.9-2.9-2.6c0-1,0.6-1.9,1.6-2.3c0.9-0.4,2.2-0.5,3.2-0.5H71.6z M71.6,141.4h-1.1c-1.3,0-3.4,0.2-3.4,1.9
			c0,1,0.9,1.5,1.8,1.5c1.6,0,2.7-1.4,2.7-2.9V141.4z"/>
		<path class="st0" d="M77.4,146.5c-0.2,0.6-0.4,1.1-0.9,1.6c-0.5,0.5-1,0.6-1.7,0.6c-0.3,0-0.6-0.1-1-0.1v-1
			c0.3,0.1,0.6,0.1,0.9,0.1c1.3,0,1.5-1.1,1.9-2.1l-2.9-8.3H75l2.3,6.3l2.3-6.3h1.1L77.4,146.5z"/>
	</g>
</g>
<g id="armline1">
	
		<rect id="light_1_" x="418.5" y="252" transform="matrix(6.123234e-17 -1 1 6.123234e-17 109.4762 729.5516)" class="st1" width="2.1" height="116.2"/>
	
		<rect id="dark_1_" x="523.1" y="260.1" transform="matrix(6.123234e-17 -1 1 6.123234e-17 214.2268 834.2145)" class="st0" width="2.2" height="99.8"/>
</g>
<g id="mainlogo_2_">
	<g id="mainlogo_3_">
		<linearGradient id="small_circle_2_" gradientUnits="userSpaceOnUse" x1="238.2913" y1="320.4755" x2="343.6755" y2="215.0913">
			<stop  offset="5.000000e-02" style="stop-color:#FFD521"/>
			<stop  offset="0.5011" style="stop-color:#F50000"/>
			<stop  offset="0.95" style="stop-color:#B900B4"/>
		</linearGradient>
		<path id="small_circle_1_" class="st2" d="M333.2,232.6c0-3.9-3.1-7-7-7c-3.8,0-7,3.1-7,7c0,3.8,3.1,7,7,7
			C330,239.5,333.2,236.4,333.2,232.6"/>
		<linearGradient id="outer_2_" gradientUnits="userSpaceOnUse" x1="238.2909" y1="320.4751" x2="343.6751" y2="215.0909">
			<stop  offset="5.000000e-02" style="stop-color:#FFD521"/>
			<stop  offset="0.5011" style="stop-color:#F50000"/>
			<stop  offset="0.95" style="stop-color:#B900B4"/>
		</linearGradient>
		<path id="outer_1_" class="st3" d="M352.9,239.6c-0.3-6.2-1.3-10.4-2.7-14.1c-1.5-3.8-3.4-7-6.7-10.3c-3.2-3.2-6.5-5.2-10.3-6.7
			c-3.7-1.4-7.9-2.4-14.1-2.7c-6.2-0.3-8.2-0.4-23.9-0.4c-15.7,0-17.7,0.1-23.9,0.4c-6.2,0.3-10.4,1.3-14.1,2.7
			c-3.8,1.5-7,3.5-10.3,6.7c-3.2,3.2-5.2,6.5-6.7,10.3c-1.4,3.7-2.4,7.9-2.7,14.1c-0.3,6.2-0.3,8.2-0.3,23.9
			c0,15.7,0.1,17.7,0.3,23.9c0.3,6.2,1.3,10.4,2.7,14.1c1.5,3.8,3.5,7,6.7,10.3c3.2,3.2,6.5,5.2,10.3,6.7c3.7,1.4,7.9,2.4,14.1,2.7
			c6.2,0.3,8.2,0.4,23.9,0.4c15.8,0,17.7-0.1,23.9-0.4c6.2-0.3,10.4-1.3,14.1-2.7c3.8-1.5,7-3.5,10.3-6.7c3.2-3.2,5.2-6.5,6.7-10.3
			c1.4-3.7,2.4-7.9,2.7-14.1c0.3-6.2,0.4-8.2,0.4-23.9C353.3,247.8,353.2,245.8,352.9,239.6z M342.5,287c-0.3,5.7-1.2,8.7-2,10.8
			c-1.1,2.7-2.3,4.6-4.4,6.7c-2,2-4,3.3-6.7,4.3c-2,0.8-5.1,1.7-10.8,2c-6.1,0.3-7.9,0.3-23.4,0.3c-15.5,0-17.3-0.1-23.4-0.3
			c-5.7-0.3-8.7-1.2-10.8-2c-2.7-1-4.6-2.3-6.7-4.3c-2-2-3.3-4-4.3-6.7c-0.8-2-1.7-5.1-2-10.8c-0.3-6.1-0.4-8-0.4-23.4
			c0-15.5,0.1-17.3,0.4-23.4c0.2-5.7,1.2-8.7,2-10.8c1-2.7,2.3-4.6,4.3-6.7c2-2,4-3.3,6.7-4.3c2-0.8,5.1-1.7,10.8-2
			c6.1-0.3,7.9-0.3,23.4-0.3c15.5,0,17.3,0.1,23.4,0.3c5.7,0.3,8.7,1.2,10.8,2c2.7,1.1,4.6,2.3,6.7,4.3c2,2,3.3,4,4.4,6.7
			c0.8,2.1,1.7,5.1,2,10.8c0.3,6.1,0.4,7.9,0.4,23.4C342.8,279,342.7,280.8,342.5,287z"/>
		<linearGradient id="big_circle_2_" gradientUnits="userSpaceOnUse" x1="238.2913" y1="320.4755" x2="343.6755" y2="215.0913">
			<stop  offset="5.000000e-02" style="stop-color:#FFD521"/>
			<stop  offset="0.5011" style="stop-color:#F50000"/>
			<stop  offset="0.95" style="stop-color:#B900B4"/>
		</linearGradient>
		<path id="big_circle_1_" class="st4" d="M295.2,233.7c-16.5,0-29.8,13.4-29.8,29.8c0,16.4,13.3,29.8,29.8,29.8
			c16.5,0,29.8-13.3,29.8-29.8C325,247.1,311.7,233.7,295.2,233.7z M295.2,282.9c-10.7,0-19.3-8.6-19.3-19.3
			c0-10.7,8.7-19.3,19.3-19.3c10.7,0,19.3,8.7,19.3,19.3C314.6,274.2,305.9,282.9,295.2,282.9z"/>
	</g>
</g>
<rect id="down_line" x="295.4" y="8.5" class="st1" width="2" height="175.5"/>
</svg>
