<?xml version="1.0" encoding="utf-8"?>
<!-- Generator: Adobe Illustrator 22.1.0, SVG Export Plug-In . SVG Version: 6.00 Build 0)  -->
<svg version="1.1" id="purple_x5F_graph" xmlns="http://www.w3.org/2000/svg" xmlns:xlink="http://www.w3.org/1999/xlink" x="0px"
	 y="0px" viewBox="0 0 568 416" style="enable-background:new 0 0 568 416;" xml:space="preserve">
<style type="text/css">
	.st0{fill:#B900B4;}
	.st1{fill:#A8A8A8;}
	.st2{fill:#757575;}
</style>
<rect id="bar1" x="21.3" y="351.8" class="st0" width="29.9" height="31.5"/>
<rect id="bar2" x="65.6" y="348.7" class="st0" width="29.9" height="34.6"/>
<rect id="bar3" x="110.3" y="337.7" class="st0" width="29.9" height="45.6"/>
<rect id="bar4" x="155" y="331.5" class="st0" width="29.9" height="51.8"/>
<rect id="bar5" x="199.3" y="314.3" class="st0" width="29.9" height="69"/>
<rect id="bar6" x="243.6" y="279.1" class="st0" width="29.9" height="104.2"/>
<rect id="bar7" x="288.3" y="243.8" class="st0" width="29.9" height="139.5"/>
<rect id="bar8" x="333" y="209.4" class="st0" width="29.9" height="173.9"/>
<rect id="bar9" x="377.7" y="173.4" class="st0" width="29.9" height="209.9"/>
<rect id="bar10" x="422" y="137.3" class="st0" width="29.9" height="246"/>
<rect id="bar11" x="466.7" y="103.7" class="st0" width="29.9" height="279.6"/>
<rect id="bar12" x="511.5" y="33.8" class="st0" width="29.9" height="349.5"/>
<rect id="bottombar" x="283.6" y="109.8" transform="matrix(6.123234e-17 -1 1 6.123234e-17 -99.3557 668.8866)" class="st1" width="2.3" height="548.7"/>
<g id="_x32_018">
	<g>
		<path class="st2" d="M518.4,404.1h-6.3v-0.9l3.6-2.8c0.8-0.7,1.6-1.4,1.6-2.6c0-1.1-1-1.7-2-1.7c-1.1,0-2.1,0.9-2.1,2l-1-0.3
			c0.3-1.6,1.5-2.6,3.2-2.6c1.5,0,3.1,1,3.1,2.6c0,1.3-1,2.3-1.9,3.1l-2.9,2.2h4.9V404.1z"/>
		<path class="st2" d="M519.7,399.8c0-2,0.9-4.5,3.3-4.5c1.2,0,2.1,0.5,2.7,1.5c0.5,0.9,0.8,2,0.8,3c0,1.9-1,4.4-3.3,4.4
			C520.7,404.2,519.7,401.8,519.7,399.8z M525.3,399.9c0-1.5-0.3-3.8-2.3-3.8c-1.8,0-2.2,2.2-2.2,3.6c0,1.4,0.3,3.7,2.3,3.7
			C524.9,403.4,525.3,401.3,525.3,399.9z"/>
		<path class="st2" d="M534.2,404.1h-6.2v-0.8h2.6v-6.6c-0.7,0.7-1.5,1.4-2.4,1.9v-1.1c1-0.5,2-1.2,2.7-2.1h0.8v7.9h2.5V404.1z"/>
		<path class="st2" d="M535.6,397.5c0-1.6,1.7-2.3,3.1-2.3c0.6,0,1.3,0.1,1.9,0.4c0.6,0.4,1.1,1,1.1,1.7c0,1.1-0.7,1.7-1.7,2
			c1.1,0.5,2.1,1.1,2.1,2.3c0,1.8-1.8,2.5-3.4,2.5c-0.7,0-1.5-0.1-2.1-0.5c-0.7-0.4-1.3-1.1-1.3-1.9c0-1.2,1-1.9,2.1-2.3
			C536.4,399.2,535.6,398.5,535.6,397.5z M538.5,400c-0.9,0.2-2.2,0.7-2.2,1.8c0,1.2,1.4,1.6,2.4,1.6c0.9,0,2.3-0.4,2.3-1.5
			C540.9,400.8,539.5,400.3,538.5,400z M538.6,399c0.8-0.2,2-0.6,2-1.6c0-1.1-1-1.4-2-1.4c-0.8,0-2,0.3-2,1.3
			C536.7,398.3,537.8,398.9,538.6,399z"/>
	</g>
</g>
<g id="_x32_013">
	<g>
		<path class="st2" d="M28.1,404.1h-6.2v-0.9l3.6-2.7c0.8-0.7,1.6-1.4,1.6-2.5c0-1.1-1-1.7-2-1.7c-1.1,0-2.1,0.9-2.1,2l-1-0.3
			c0.3-1.6,1.5-2.5,3.2-2.5c1.5,0,3.1,0.9,3.1,2.6c0,1.3-0.9,2.3-1.9,3.1l-2.9,2.2h4.8V404.1z"/>
		<path class="st2" d="M29.5,399.8c0-2,0.8-4.5,3.3-4.5c1.2,0,2,0.5,2.6,1.5c0.5,0.9,0.8,2,0.8,3c0,1.9-0.9,4.4-3.3,4.4
			C30.4,404.2,29.5,401.8,29.5,399.8z M35,400c0-1.4-0.3-3.8-2.3-3.8c-1.8,0-2.1,2.2-2.1,3.6c0,1.4,0.3,3.7,2.2,3.7
			C34.6,403.4,35,401.3,35,400z"/>
		<path class="st2" d="M43.8,404.1h-6.2v-0.8h2.6v-6.5c-0.7,0.7-1.5,1.4-2.4,1.8v-1.1c1-0.5,2-1.2,2.7-2.1h0.8v7.9h2.5V404.1z"/>
		<path class="st2" d="M46.9,400v-0.8h0.8c0.5,0,1,0,1.4-0.2c0.5-0.2,0.8-0.7,0.8-1.2c0-1-0.9-1.5-1.9-1.5c-0.9,0-1.8,0.5-2.1,1.4
			l-1-0.3c0.5-1.3,1.7-2,3.1-2c1.4,0,2.9,0.8,2.9,2.3c0,0.9-0.8,1.7-1.7,1.9v0c1.2,0.2,2,0.9,2,2.1c0,0.8-0.4,1.5-1,1.9
			c-0.7,0.5-1.5,0.7-2.3,0.7c-1.5,0-2.8-0.7-3.3-2.1l1-0.3c0.3,1.1,1.1,1.6,2.3,1.6c0.4,0,1-0.1,1.4-0.3c0.5-0.3,0.8-0.8,0.8-1.4
			c0-0.5-0.3-1-0.8-1.3c-0.5-0.3-1.2-0.4-1.8-0.4H46.9z"/>
	</g>
</g>
<g id="_x31_000">
	<g>
		<path class="st2" d="M516.2,24.2h2.3v1.2h-6.4v-1.2h2.5v-5.3c-1.2,1.1-1.8,1.3-2.3,1.5v-1.5c1.1-0.4,1.3-0.5,2.1-1.2
			c0.4-0.4,0.5-0.6,0.7-0.8h1V24.2z"/>
		<path class="st2" d="M528.6,24c-0.6,0.9-1.3,1.5-2.5,1.5c-2.4,0-3.2-2.2-3.2-4.2c0-1.1,0.2-2.3,0.9-3.2c0.6-0.8,1.3-1.2,2.3-1.2
			c3.2,0,3.2,3.9,3.2,4C529.3,22.4,529.1,23.2,528.6,24z M527.3,18.7c-0.4-0.7-1-0.7-1.2-0.7c-0.6,0-1,0.3-1.2,0.7
			c-0.4,0.7-0.5,1.8-0.5,2.4c0,2,0.4,3.2,1.7,3.2c1.7,0,1.7-2.1,1.7-3.4C527.7,20.7,527.7,19.5,527.3,18.7z"/>
		<path class="st2" d="M535.9,24c-0.6,0.9-1.3,1.5-2.5,1.5c-2.4,0-3.2-2.2-3.2-4.2c0-1.1,0.2-2.3,0.9-3.2c0.6-0.8,1.3-1.2,2.3-1.2
			c3.2,0,3.2,3.9,3.2,4C536.6,22.4,536.4,23.2,535.9,24z M534.6,18.7c-0.4-0.7-1-0.7-1.2-0.7c-0.6,0-1,0.3-1.2,0.7
			c-0.4,0.7-0.5,1.8-0.5,2.4c0,2,0.4,3.2,1.7,3.2c1.7,0,1.7-2.1,1.7-3.4C535.1,20.7,535,19.5,534.6,18.7z"/>
		<path class="st2" d="M543.2,24c-0.6,0.9-1.3,1.5-2.5,1.5c-2.4,0-3.2-2.2-3.2-4.2c0-1.1,0.2-2.3,0.9-3.2c0.6-0.8,1.3-1.2,2.3-1.2
			c3.2,0,3.2,3.9,3.2,4C543.9,22.4,543.7,23.2,543.2,24z M541.9,18.7c-0.4-0.7-1-0.7-1.2-0.7c-0.6,0-1,0.3-1.2,0.7
			c-0.4,0.7-0.5,1.8-0.5,2.4c0,2,0.4,3.2,1.7,3.2c1.7,0,1.7-2.1,1.7-3.4C542.4,20.7,542.4,19.5,541.9,18.7z"/>
	</g>
</g>
<g id="_x39_0">
	<g>
		<path class="st2" d="M31.5,341.3c0.2,0.4,0.5,0.9,1.4,0.9c1.5,0,2-1.6,2-3.3c-0.3,0.6-0.8,1.3-2.2,1.3c-1.4,0-2.7-0.9-2.7-2.7
			c0-1.5,1.1-2.8,3-2.8c1.7,0,3.4,1.1,3.4,4.1c0,2.4-1,4.5-3.5,4.5c-1.5,0-2.3-0.8-2.6-1.6L31.5,341.3z M33,335.9
			c-1,0-1.6,0.7-1.6,1.6c0,0.8,0.6,1.6,1.6,1.6c0.6,0,1.6-0.4,1.6-1.7C34.6,336.8,34.1,335.9,33,335.9z"/>
		<path class="st2" d="M43,341.9c-0.6,0.9-1.3,1.5-2.5,1.5c-2.4,0-3.2-2.2-3.2-4.2c0-1.1,0.2-2.3,0.9-3.2c0.6-0.8,1.3-1.2,2.3-1.2
			c3.2,0,3.2,3.9,3.2,4C43.7,340.2,43.5,341.1,43,341.9z M41.7,336.6c-0.4-0.7-1-0.7-1.2-0.7c-0.6,0-1,0.3-1.2,0.7
			c-0.4,0.7-0.5,1.8-0.5,2.4c0,2,0.4,3.2,1.7,3.2c1.7,0,1.7-2.1,1.7-3.4C42.1,338.6,42.1,337.4,41.7,336.6z"/>
	</g>
</g>
</svg>
